<?xml version="1.0" encoding="UTF-8"?>
<svg xmlns="http://www.w3.org/2000/svg" xmlns:xlink="http://www.w3.org/1999/xlink" width="504pt" height="504pt" viewBox="0 0 504 504" version="1.1">
<defs>
<clipPath id="clip1">
  <path d="M 59.039062 244 L 473.757812 244 L 473.757812 246 L 59.039062 246 Z M 59.039062 244 "/>
</clipPath>
</defs>
<g id="surface10">
<rect x="0" y="0" width="504" height="504" style="fill:rgb(100%,100%,100%);fill-opacity:1;stroke:none;"/>
<path style="fill:none;stroke-width:0.75;stroke-linecap:round;stroke-linejoin:round;stroke:rgb(0%,0%,0%);stroke-opacity:1;stroke-miterlimit:10;" d="M 352.882812 244.800781 C 352.882812 248.398438 347.480469 248.398438 347.480469 244.800781 C 347.480469 241.199219 352.882812 241.199219 352.882812 244.800781 "/>
<path style="fill:none;stroke-width:0.75;stroke-linecap:round;stroke-linejoin:round;stroke:rgb(0%,0%,0%);stroke-opacity:1;stroke-miterlimit:10;" d="M 93.507812 244.800781 C 93.507812 248.398438 88.105469 248.398438 88.105469 244.800781 C 88.105469 241.199219 93.507812 241.199219 93.507812 244.800781 "/>
<path style="fill:none;stroke-width:0.75;stroke-linecap:round;stroke-linejoin:round;stroke:rgb(0%,0%,0%);stroke-opacity:1;stroke-miterlimit:10;" d="M 128.5625 244.800781 C 128.5625 248.398438 123.164062 248.398438 123.164062 244.800781 C 123.164062 241.199219 128.5625 241.199219 128.5625 244.800781 "/>
<path style="fill:none;stroke-width:0.75;stroke-linecap:round;stroke-linejoin:round;stroke:rgb(0%,0%,0%);stroke-opacity:1;stroke-miterlimit:10;" d="M 251.355469 244.800781 C 251.355469 248.398438 245.953125 248.398438 245.953125 244.800781 C 245.953125 241.199219 251.355469 241.199219 251.355469 244.800781 "/>
<path style="fill:none;stroke-width:0.75;stroke-linecap:round;stroke-linejoin:round;stroke:rgb(0%,0%,0%);stroke-opacity:1;stroke-miterlimit:10;" d="M 98.347656 244.800781 C 98.347656 248.398438 92.949219 248.398438 92.949219 244.800781 C 92.949219 241.199219 98.347656 241.199219 98.347656 244.800781 "/>
<path style="fill:none;stroke-width:0.75;stroke-linecap:round;stroke-linejoin:round;stroke:rgb(0%,0%,0%);stroke-opacity:1;stroke-miterlimit:10;" d="M 184.136719 244.800781 C 184.136719 248.398438 178.734375 248.398438 178.734375 244.800781 C 178.734375 241.199219 184.136719 241.199219 184.136719 244.800781 "/>
<path style="fill:none;stroke-width:0.75;stroke-linecap:round;stroke-linejoin:round;stroke:rgb(0%,0%,0%);stroke-opacity:1;stroke-miterlimit:10;" d="M 307.148438 244.800781 C 307.148438 248.398438 301.75 248.398438 301.75 244.800781 C 301.75 241.199219 307.148438 241.199219 307.148438 244.800781 "/>
<path style="fill:none;stroke-width:0.75;stroke-linecap:round;stroke-linejoin:round;stroke:rgb(0%,0%,0%);stroke-opacity:1;stroke-miterlimit:10;" d="M 164.242188 244.800781 C 164.242188 248.398438 158.839844 248.398438 158.839844 244.800781 C 158.839844 241.199219 164.242188 241.199219 164.242188 244.800781 "/>
<path style="fill:none;stroke-width:0.75;stroke-linecap:round;stroke-linejoin:round;stroke:rgb(0%,0%,0%);stroke-opacity:1;stroke-miterlimit:10;" d="M 77.445312 244.800781 C 77.445312 248.398438 72.046875 248.398438 72.046875 244.800781 C 72.046875 241.199219 77.445312 241.199219 77.445312 244.800781 "/>
<path style="fill:none;stroke-width:0.75;stroke-linecap:round;stroke-linejoin:round;stroke:rgb(0%,0%,0%);stroke-opacity:1;stroke-miterlimit:10;" d="M 416.050781 244.800781 C 416.050781 248.398438 410.652344 248.398438 410.652344 244.800781 C 410.652344 241.199219 416.050781 241.199219 416.050781 244.800781 "/>
<path style="fill:none;stroke-width:0.75;stroke-linecap:round;stroke-linejoin:round;stroke:rgb(0%,0%,0%);stroke-opacity:1;stroke-miterlimit:10;" d="M 453.136719 244.800781 C 453.136719 248.398438 447.734375 248.398438 447.734375 244.800781 C 447.734375 241.199219 453.136719 241.199219 453.136719 244.800781 "/>
<path style="fill:none;stroke-width:0.75;stroke-linecap:round;stroke-linejoin:round;stroke:rgb(0%,0%,0%);stroke-opacity:1;stroke-miterlimit:10;" d="M 80.628906 244.800781 C 80.628906 248.398438 75.230469 248.398438 75.230469 244.800781 C 75.230469 241.199219 80.628906 241.199219 80.628906 244.800781 "/>
<path style="fill:none;stroke-width:0.75;stroke-linecap:round;stroke-linejoin:round;stroke:rgb(0%,0%,0%);stroke-opacity:1;stroke-miterlimit:10;" d="M 99.867188 244.800781 C 99.867188 248.398438 94.46875 248.398438 94.46875 244.800781 C 94.46875 241.199219 99.867188 241.199219 99.867188 244.800781 "/>
<path style="fill:none;stroke-width:0.75;stroke-linecap:round;stroke-linejoin:round;stroke:rgb(0%,0%,0%);stroke-opacity:1;stroke-miterlimit:10;" d="M 147.171875 244.800781 C 147.171875 248.398438 141.773438 248.398438 141.773438 244.800781 C 141.773438 241.199219 147.171875 241.199219 147.171875 244.800781 "/>
<path style="fill:none;stroke-width:0.75;stroke-linecap:round;stroke-linejoin:round;stroke:rgb(0%,0%,0%);stroke-opacity:1;stroke-miterlimit:10;" d="M 187.378906 244.800781 C 187.378906 248.398438 181.980469 248.398438 181.980469 244.800781 C 181.980469 241.199219 187.378906 241.199219 187.378906 244.800781 "/>
<path style="fill:none;stroke-width:0.75;stroke-linecap:round;stroke-linejoin:round;stroke:rgb(0%,0%,0%);stroke-opacity:1;stroke-miterlimit:10;" d="M 137.175781 244.800781 C 137.175781 248.398438 131.777344 248.398438 131.777344 244.800781 C 131.777344 241.199219 137.175781 241.199219 137.175781 244.800781 "/>
<path style="fill:none;stroke-width:0.75;stroke-linecap:round;stroke-linejoin:round;stroke:rgb(0%,0%,0%);stroke-opacity:1;stroke-miterlimit:10;" d="M 346.519531 244.800781 C 346.519531 248.398438 341.121094 248.398438 341.121094 244.800781 C 341.121094 241.199219 346.519531 241.199219 346.519531 244.800781 "/>
<path style="fill:none;stroke-width:0.75;stroke-linecap:round;stroke-linejoin:round;stroke:rgb(0%,0%,0%);stroke-opacity:1;stroke-miterlimit:10;" d="M 353.421875 244.800781 C 353.421875 248.398438 348.023438 248.398438 348.023438 244.800781 C 348.023438 241.199219 353.421875 241.199219 353.421875 244.800781 "/>
<path style="fill:none;stroke-width:0.75;stroke-linecap:round;stroke-linejoin:round;stroke:rgb(0%,0%,0%);stroke-opacity:1;stroke-miterlimit:10;" d="M 316.761719 244.800781 C 316.761719 248.398438 311.359375 248.398438 311.359375 244.800781 C 311.359375 241.199219 316.761719 241.199219 316.761719 244.800781 "/>
<path style="fill:none;stroke-width:0.75;stroke-linecap:round;stroke-linejoin:round;stroke:rgb(0%,0%,0%);stroke-opacity:1;stroke-miterlimit:10;" d="M 144.886719 244.800781 C 144.886719 248.398438 139.488281 248.398438 139.488281 244.800781 C 139.488281 241.199219 144.886719 241.199219 144.886719 244.800781 "/>
<path style="fill:none;stroke-width:0.75;stroke-linecap:round;stroke-linejoin:round;stroke:rgb(0%,0%,0%);stroke-opacity:1;stroke-miterlimit:10;" d="M 101.078125 244.800781 C 101.078125 248.398438 95.675781 248.398438 95.675781 244.800781 C 95.675781 241.199219 101.078125 241.199219 101.078125 244.800781 "/>
<path style="fill:none;stroke-width:0.75;stroke-linecap:round;stroke-linejoin:round;stroke:rgb(0%,0%,0%);stroke-opacity:1;stroke-miterlimit:10;" d="M 326.410156 244.800781 C 326.410156 248.398438 321.007812 248.398438 321.007812 244.800781 C 321.007812 241.199219 326.410156 241.199219 326.410156 244.800781 "/>
<path style="fill:none;stroke-width:0.75;stroke-linecap:round;stroke-linejoin:round;stroke:rgb(0%,0%,0%);stroke-opacity:1;stroke-miterlimit:10;" d="M 307.625 244.800781 C 307.625 248.398438 302.226562 248.398438 302.226562 244.800781 C 302.226562 241.199219 307.625 241.199219 307.625 244.800781 "/>
<path style="fill:none;stroke-width:0.75;stroke-linecap:round;stroke-linejoin:round;stroke:rgb(0%,0%,0%);stroke-opacity:1;stroke-miterlimit:10;" d="M 105.992188 244.800781 C 105.992188 248.398438 100.59375 248.398438 100.59375 244.800781 C 100.59375 241.199219 105.992188 241.199219 105.992188 244.800781 "/>
<path style="fill:none;stroke-width:0.75;stroke-linecap:round;stroke-linejoin:round;stroke:rgb(0%,0%,0%);stroke-opacity:1;stroke-miterlimit:10;" d="M 100.589844 244.800781 C 100.589844 248.398438 95.191406 248.398438 95.191406 244.800781 C 95.191406 241.199219 100.589844 241.199219 100.589844 244.800781 "/>
<path style="fill:none;stroke-width:0.75;stroke-linecap:round;stroke-linejoin:round;stroke:rgb(0%,0%,0%);stroke-opacity:1;stroke-miterlimit:10;" d="M 164.519531 244.800781 C 164.519531 248.398438 159.117188 248.398438 159.117188 244.800781 C 159.117188 241.199219 164.519531 241.199219 164.519531 244.800781 "/>
<path style="fill:none;stroke-width:0.75;stroke-linecap:round;stroke-linejoin:round;stroke:rgb(0%,0%,0%);stroke-opacity:1;stroke-miterlimit:10;" d="M 154.664062 244.800781 C 154.664062 248.398438 149.265625 248.398438 149.265625 244.800781 C 149.265625 241.199219 154.664062 241.199219 154.664062 244.800781 "/>
<path style="fill:none;stroke-width:0.75;stroke-linecap:round;stroke-linejoin:round;stroke:rgb(0%,0%,0%);stroke-opacity:1;stroke-miterlimit:10;" d="M 141.800781 244.800781 C 141.800781 248.398438 136.398438 248.398438 136.398438 244.800781 C 136.398438 241.199219 141.800781 241.199219 141.800781 244.800781 "/>
<path style="fill:none;stroke-width:0.75;stroke-linecap:round;stroke-linejoin:round;stroke:rgb(0%,0%,0%);stroke-opacity:1;stroke-miterlimit:10;" d="M 134.191406 244.800781 C 134.191406 248.398438 128.789062 248.398438 128.789062 244.800781 C 128.789062 241.199219 134.191406 241.199219 134.191406 244.800781 "/>
<path style="fill:none;stroke-width:0.75;stroke-linecap:round;stroke-linejoin:round;stroke:rgb(0%,0%,0%);stroke-opacity:1;stroke-miterlimit:10;" d="M 89.722656 244.800781 C 89.722656 248.398438 84.320312 248.398438 84.320312 244.800781 C 84.320312 241.199219 89.722656 241.199219 89.722656 244.800781 "/>
<path style="fill:none;stroke-width:0.75;stroke-linecap:round;stroke-linejoin:round;stroke:rgb(0%,0%,0%);stroke-opacity:1;stroke-miterlimit:10;" d="M 308.621094 244.800781 C 308.621094 248.398438 303.222656 248.398438 303.222656 244.800781 C 303.222656 241.199219 308.621094 241.199219 308.621094 244.800781 "/>
<path style="fill:none;stroke-width:0.75;stroke-linecap:round;stroke-linejoin:round;stroke:rgb(0%,0%,0%);stroke-opacity:1;stroke-miterlimit:10;" d="M 79.175781 244.800781 C 79.175781 248.398438 73.777344 248.398438 73.777344 244.800781 C 73.777344 241.199219 79.175781 241.199219 79.175781 244.800781 "/>
<path style="fill:none;stroke-width:0.75;stroke-linecap:round;stroke-linejoin:round;stroke:rgb(0%,0%,0%);stroke-opacity:1;stroke-miterlimit:10;" d="M 247.917969 244.800781 C 247.917969 248.398438 242.519531 248.398438 242.519531 244.800781 C 242.519531 241.199219 247.917969 241.199219 247.917969 244.800781 "/>
<path style="fill:none;stroke-width:0.75;stroke-linecap:round;stroke-linejoin:round;stroke:rgb(0%,0%,0%);stroke-opacity:1;stroke-miterlimit:10;" d="M 93.054688 244.800781 C 93.054688 248.398438 87.65625 248.398438 87.65625 244.800781 C 87.65625 241.199219 93.054688 241.199219 93.054688 244.800781 "/>
<path style="fill:none;stroke-width:0.75;stroke-linecap:round;stroke-linejoin:round;stroke:rgb(0%,0%,0%);stroke-opacity:1;stroke-miterlimit:10;" d="M 397.796875 244.800781 C 397.796875 248.398438 392.394531 248.398438 392.394531 244.800781 C 392.394531 241.199219 397.796875 241.199219 397.796875 244.800781 "/>
<path style="fill:none;stroke-width:0.75;stroke-linecap:round;stroke-linejoin:round;stroke:rgb(0%,0%,0%);stroke-opacity:1;stroke-miterlimit:10;" d="M 438.789062 244.800781 C 438.789062 248.398438 433.386719 248.398438 433.386719 244.800781 C 433.386719 241.199219 438.789062 241.199219 438.789062 244.800781 "/>
<path style="fill:none;stroke-width:0.75;stroke-linecap:round;stroke-linejoin:round;stroke:rgb(0%,0%,0%);stroke-opacity:1;stroke-miterlimit:10;" d="M 84.792969 244.800781 C 84.792969 248.398438 79.390625 248.398438 79.390625 244.800781 C 79.390625 241.199219 84.792969 241.199219 84.792969 244.800781 "/>
<path style="fill:none;stroke-width:0.75;stroke-linecap:round;stroke-linejoin:round;stroke:rgb(0%,0%,0%);stroke-opacity:1;stroke-miterlimit:10;" d="M 82.0625 244.800781 C 82.0625 248.398438 76.664062 248.398438 76.664062 244.800781 C 76.664062 241.199219 82.0625 241.199219 82.0625 244.800781 "/>
<path style="fill:none;stroke-width:0.75;stroke-linecap:round;stroke-linejoin:round;stroke:rgb(0%,0%,0%);stroke-opacity:1;stroke-miterlimit:10;" d="M 90.878906 244.800781 C 90.878906 248.398438 85.476562 248.398438 85.476562 244.800781 C 85.476562 241.199219 90.878906 241.199219 90.878906 244.800781 "/>
<path style="fill:none;stroke-width:0.75;stroke-linecap:round;stroke-linejoin:round;stroke:rgb(0%,0%,0%);stroke-opacity:1;stroke-miterlimit:10;" d="M 101.675781 244.800781 C 101.675781 248.398438 96.277344 248.398438 96.277344 244.800781 C 96.277344 241.199219 101.675781 241.199219 101.675781 244.800781 "/>
<path style="fill:none;stroke-width:0.75;stroke-linecap:round;stroke-linejoin:round;stroke:rgb(0%,0%,0%);stroke-opacity:1;stroke-miterlimit:10;" d="M 172.75 244.800781 C 172.75 248.398438 167.347656 248.398438 167.347656 244.800781 C 167.347656 241.199219 172.75 241.199219 172.75 244.800781 "/>
<path style="fill:none;stroke-width:0.75;stroke-linecap:round;stroke-linejoin:round;stroke:rgb(0%,0%,0%);stroke-opacity:1;stroke-miterlimit:10;" d="M 343.445312 244.800781 C 343.445312 248.398438 338.046875 248.398438 338.046875 244.800781 C 338.046875 241.199219 343.445312 241.199219 343.445312 244.800781 "/>
<path style="fill:none;stroke-width:0.75;stroke-linecap:round;stroke-linejoin:round;stroke:rgb(0%,0%,0%);stroke-opacity:1;stroke-miterlimit:10;" d="M 93.113281 244.800781 C 93.113281 248.398438 87.710938 248.398438 87.710938 244.800781 C 87.710938 241.199219 93.113281 241.199219 93.113281 244.800781 "/>
<path style="fill:none;stroke-width:0.75;stroke-linecap:round;stroke-linejoin:round;stroke:rgb(0%,0%,0%);stroke-opacity:1;stroke-miterlimit:10;" d="M 241.105469 244.800781 C 241.105469 248.398438 235.703125 248.398438 235.703125 244.800781 C 235.703125 241.199219 241.105469 241.199219 241.105469 244.800781 "/>
<path style="fill:none;stroke-width:0.75;stroke-linecap:round;stroke-linejoin:round;stroke:rgb(0%,0%,0%);stroke-opacity:1;stroke-miterlimit:10;" d="M 98.03125 244.800781 C 98.03125 248.398438 92.632812 248.398438 92.632812 244.800781 C 92.632812 241.199219 98.03125 241.199219 98.03125 244.800781 "/>
<path style="fill:none;stroke-width:0.75;stroke-linecap:round;stroke-linejoin:round;stroke:rgb(0%,0%,0%);stroke-opacity:1;stroke-miterlimit:10;" d="M 147.363281 244.800781 C 147.363281 248.398438 141.960938 248.398438 141.960938 244.800781 C 141.960938 241.199219 147.363281 241.199219 147.363281 244.800781 "/>
<path style="fill:none;stroke-width:0.75;stroke-linecap:round;stroke-linejoin:round;stroke:rgb(0%,0%,0%);stroke-opacity:1;stroke-miterlimit:10;" d="M 311.769531 244.800781 C 311.769531 248.398438 306.371094 248.398438 306.371094 244.800781 C 306.371094 241.199219 311.769531 241.199219 311.769531 244.800781 "/>
<path style="fill:none;stroke-width:0.75;stroke-linecap:round;stroke-linejoin:round;stroke:rgb(0%,0%,0%);stroke-opacity:1;stroke-miterlimit:10;" d="M 136.195312 244.800781 C 136.195312 248.398438 130.792969 248.398438 130.792969 244.800781 C 130.792969 241.199219 136.195312 241.199219 136.195312 244.800781 "/>
<path style="fill:none;stroke-width:0.75;stroke-linecap:round;stroke-linejoin:round;stroke:rgb(0%,0%,0%);stroke-opacity:1;stroke-miterlimit:10;" d="M 277.757812 244.800781 C 277.757812 248.398438 272.355469 248.398438 272.355469 244.800781 C 272.355469 241.199219 277.757812 241.199219 277.757812 244.800781 "/>
<path style="fill:none;stroke-width:0.75;stroke-linecap:round;stroke-linejoin:round;stroke:rgb(0%,0%,0%);stroke-opacity:1;stroke-miterlimit:10;" d="M 191.417969 244.800781 C 191.417969 248.398438 186.019531 248.398438 186.019531 244.800781 C 186.019531 241.199219 191.417969 241.199219 191.417969 244.800781 "/>
<path style="fill:none;stroke-width:0.75;stroke-linecap:round;stroke-linejoin:round;stroke:rgb(0%,0%,0%);stroke-opacity:1;stroke-miterlimit:10;" d="M 171.515625 244.800781 C 171.515625 248.398438 166.117188 248.398438 166.117188 244.800781 C 166.117188 241.199219 171.515625 241.199219 171.515625 244.800781 "/>
<path style="fill:none;stroke-width:0.75;stroke-linecap:round;stroke-linejoin:round;stroke:rgb(0%,0%,0%);stroke-opacity:1;stroke-miterlimit:10;" d="M 130.136719 244.800781 C 130.136719 248.398438 124.734375 248.398438 124.734375 244.800781 C 124.734375 241.199219 130.136719 241.199219 130.136719 244.800781 "/>
<path style="fill:none;stroke-width:0.75;stroke-linecap:round;stroke-linejoin:round;stroke:rgb(0%,0%,0%);stroke-opacity:1;stroke-miterlimit:10;" d="M 91.277344 244.800781 C 91.277344 248.398438 85.875 248.398438 85.875 244.800781 C 85.875 241.199219 91.277344 241.199219 91.277344 244.800781 "/>
<path style="fill:none;stroke-width:0.75;stroke-linecap:round;stroke-linejoin:round;stroke:rgb(0%,0%,0%);stroke-opacity:1;stroke-miterlimit:10;" d="M 128.714844 244.800781 C 128.714844 248.398438 123.3125 248.398438 123.3125 244.800781 C 123.3125 241.199219 128.714844 241.199219 128.714844 244.800781 "/>
<path style="fill:none;stroke-width:0.75;stroke-linecap:round;stroke-linejoin:round;stroke:rgb(0%,0%,0%);stroke-opacity:1;stroke-miterlimit:10;" d="M 454.46875 244.800781 C 454.46875 248.398438 449.070312 248.398438 449.070312 244.800781 C 449.070312 241.199219 454.46875 241.199219 454.46875 244.800781 "/>
<path style="fill:none;stroke-width:0.75;stroke-linecap:round;stroke-linejoin:round;stroke:rgb(0%,0%,0%);stroke-opacity:1;stroke-miterlimit:10;" d="M 132.707031 244.800781 C 132.707031 248.398438 127.308594 248.398438 127.308594 244.800781 C 127.308594 241.199219 132.707031 241.199219 132.707031 244.800781 "/>
<path style="fill:none;stroke-width:0.75;stroke-linecap:round;stroke-linejoin:round;stroke:rgb(0%,0%,0%);stroke-opacity:1;stroke-miterlimit:10;" d="M 323.582031 244.800781 C 323.582031 248.398438 318.179688 248.398438 318.179688 244.800781 C 318.179688 241.199219 323.582031 241.199219 323.582031 244.800781 "/>
<path style="fill:none;stroke-width:0.75;stroke-linecap:round;stroke-linejoin:round;stroke:rgb(0%,0%,0%);stroke-opacity:1;stroke-miterlimit:10;" d="M 108.398438 244.800781 C 108.398438 248.398438 103 248.398438 103 244.800781 C 103 241.199219 108.398438 241.199219 108.398438 244.800781 "/>
<path style="fill:none;stroke-width:0.75;stroke-linecap:round;stroke-linejoin:round;stroke:rgb(0%,0%,0%);stroke-opacity:1;stroke-miterlimit:10;" d="M 163.152344 244.800781 C 163.152344 248.398438 157.753906 248.398438 157.753906 244.800781 C 157.753906 241.199219 163.152344 241.199219 163.152344 244.800781 "/>
<path style="fill:none;stroke-width:0.75;stroke-linecap:round;stroke-linejoin:round;stroke:rgb(0%,0%,0%);stroke-opacity:1;stroke-miterlimit:10;" d="M 85.085938 244.800781 C 85.085938 248.398438 79.6875 248.398438 79.6875 244.800781 C 79.6875 241.199219 85.085938 241.199219 85.085938 244.800781 "/>
<path style="fill:none;stroke-width:0.75;stroke-linecap:round;stroke-linejoin:round;stroke:rgb(0%,0%,0%);stroke-opacity:1;stroke-miterlimit:10;" d="M 85.621094 244.800781 C 85.621094 248.398438 80.21875 248.398438 80.21875 244.800781 C 80.21875 241.199219 85.621094 241.199219 85.621094 244.800781 "/>
<path style="fill:none;stroke-width:0.75;stroke-linecap:round;stroke-linejoin:round;stroke:rgb(0%,0%,0%);stroke-opacity:1;stroke-miterlimit:10;" d="M 124.953125 244.800781 C 124.953125 248.398438 119.550781 248.398438 119.550781 244.800781 C 119.550781 241.199219 124.953125 241.199219 124.953125 244.800781 "/>
<path style="fill:none;stroke-width:0.75;stroke-linecap:round;stroke-linejoin:round;stroke:rgb(0%,0%,0%);stroke-opacity:1;stroke-miterlimit:10;" d="M 456.597656 244.800781 C 456.597656 248.398438 451.199219 248.398438 451.199219 244.800781 C 451.199219 241.199219 456.597656 241.199219 456.597656 244.800781 "/>
<path style="fill:none;stroke-width:0.75;stroke-linecap:round;stroke-linejoin:round;stroke:rgb(0%,0%,0%);stroke-opacity:1;stroke-miterlimit:10;" d="M 111.398438 244.800781 C 111.398438 248.398438 105.996094 248.398438 105.996094 244.800781 C 105.996094 241.199219 111.398438 241.199219 111.398438 244.800781 "/>
<path style="fill:none;stroke-width:0.75;stroke-linecap:round;stroke-linejoin:round;stroke:rgb(0%,0%,0%);stroke-opacity:1;stroke-miterlimit:10;" d="M 117.238281 244.800781 C 117.238281 248.398438 111.839844 248.398438 111.839844 244.800781 C 111.839844 241.199219 117.238281 241.199219 117.238281 244.800781 "/>
<path style="fill:none;stroke-width:0.75;stroke-linecap:round;stroke-linejoin:round;stroke:rgb(0%,0%,0%);stroke-opacity:1;stroke-miterlimit:10;" d="M 169.136719 244.800781 C 169.136719 248.398438 163.738281 248.398438 163.738281 244.800781 C 163.738281 241.199219 169.136719 241.199219 169.136719 244.800781 "/>
<path style="fill:none;stroke-width:0.75;stroke-linecap:round;stroke-linejoin:round;stroke:rgb(0%,0%,0%);stroke-opacity:1;stroke-miterlimit:10;" d="M 81.773438 244.800781 C 81.773438 248.398438 76.375 248.398438 76.375 244.800781 C 76.375 241.199219 81.773438 241.199219 81.773438 244.800781 "/>
<path style="fill:none;stroke-width:0.75;stroke-linecap:round;stroke-linejoin:round;stroke:rgb(0%,0%,0%);stroke-opacity:1;stroke-miterlimit:10;" d="M 77.101562 244.800781 C 77.101562 248.398438 71.699219 248.398438 71.699219 244.800781 C 71.699219 241.199219 77.101562 241.199219 77.101562 244.800781 "/>
<path style="fill:none;stroke-width:0.75;stroke-linecap:round;stroke-linejoin:round;stroke:rgb(0%,0%,0%);stroke-opacity:1;stroke-miterlimit:10;" d="M 155.074219 244.800781 C 155.074219 248.398438 149.671875 248.398438 149.671875 244.800781 C 149.671875 241.199219 155.074219 241.199219 155.074219 244.800781 "/>
<path style="fill:none;stroke-width:0.75;stroke-linecap:round;stroke-linejoin:round;stroke:rgb(0%,0%,0%);stroke-opacity:1;stroke-miterlimit:10;" d="M 117.148438 244.800781 C 117.148438 248.398438 111.75 248.398438 111.75 244.800781 C 111.75 241.199219 117.148438 241.199219 117.148438 244.800781 "/>
<path style="fill:none;stroke-width:0.75;stroke-linecap:round;stroke-linejoin:round;stroke:rgb(0%,0%,0%);stroke-opacity:1;stroke-miterlimit:10;" d="M 94.753906 244.800781 C 94.753906 248.398438 89.355469 248.398438 89.355469 244.800781 C 89.355469 241.199219 94.753906 241.199219 94.753906 244.800781 "/>
<path style="fill:none;stroke-width:0.75;stroke-linecap:round;stroke-linejoin:round;stroke:rgb(0%,0%,0%);stroke-opacity:1;stroke-miterlimit:10;" d="M 412.949219 244.800781 C 412.949219 248.398438 407.550781 248.398438 407.550781 244.800781 C 407.550781 241.199219 412.949219 241.199219 412.949219 244.800781 "/>
<path style="fill:none;stroke-width:0.75;stroke-linecap:round;stroke-linejoin:round;stroke:rgb(0%,0%,0%);stroke-opacity:1;stroke-miterlimit:10;" d="M 134.683594 244.800781 C 134.683594 248.398438 129.28125 248.398438 129.28125 244.800781 C 129.28125 241.199219 134.683594 241.199219 134.683594 244.800781 "/>
<path style="fill:none;stroke-width:0.75;stroke-linecap:round;stroke-linejoin:round;stroke:rgb(0%,0%,0%);stroke-opacity:1;stroke-miterlimit:10;" d="M 116.722656 244.800781 C 116.722656 248.398438 111.320312 248.398438 111.320312 244.800781 C 111.320312 241.199219 116.722656 241.199219 116.722656 244.800781 "/>
<path style="fill:none;stroke-width:0.75;stroke-linecap:round;stroke-linejoin:round;stroke:rgb(0%,0%,0%);stroke-opacity:1;stroke-miterlimit:10;" d="M 294.511719 244.800781 C 294.511719 248.398438 289.109375 248.398438 289.109375 244.800781 C 289.109375 241.199219 294.511719 241.199219 294.511719 244.800781 "/>
<path style="fill:none;stroke-width:0.75;stroke-linecap:round;stroke-linejoin:round;stroke:rgb(0%,0%,0%);stroke-opacity:1;stroke-miterlimit:10;" d="M 126.703125 244.800781 C 126.703125 248.398438 121.300781 248.398438 121.300781 244.800781 C 121.300781 241.199219 126.703125 241.199219 126.703125 244.800781 "/>
<path style="fill:none;stroke-width:0.75;stroke-linecap:round;stroke-linejoin:round;stroke:rgb(0%,0%,0%);stroke-opacity:1;stroke-miterlimit:10;" d="M 324.894531 244.800781 C 324.894531 248.398438 319.496094 248.398438 319.496094 244.800781 C 319.496094 241.199219 324.894531 241.199219 324.894531 244.800781 "/>
<path style="fill:none;stroke-width:0.75;stroke-linecap:round;stroke-linejoin:round;stroke:rgb(0%,0%,0%);stroke-opacity:1;stroke-miterlimit:10;" d="M 461.101562 244.800781 C 461.101562 248.398438 455.699219 248.398438 455.699219 244.800781 C 455.699219 241.199219 461.101562 241.199219 461.101562 244.800781 "/>
<path style="fill:none;stroke-width:0.75;stroke-linecap:round;stroke-linejoin:round;stroke:rgb(0%,0%,0%);stroke-opacity:1;stroke-miterlimit:10;" d="M 167.1875 244.800781 C 167.1875 248.398438 161.785156 248.398438 161.785156 244.800781 C 161.785156 241.199219 167.1875 241.199219 167.1875 244.800781 "/>
<path style="fill:none;stroke-width:0.75;stroke-linecap:round;stroke-linejoin:round;stroke:rgb(0%,0%,0%);stroke-opacity:1;stroke-miterlimit:10;" d="M 87.097656 244.800781 C 87.097656 248.398438 81.695312 248.398438 81.695312 244.800781 C 81.695312 241.199219 87.097656 241.199219 87.097656 244.800781 "/>
<path style="fill:none;stroke-width:0.75;stroke-linecap:round;stroke-linejoin:round;stroke:rgb(0%,0%,0%);stroke-opacity:1;stroke-miterlimit:10;" d="M 178.28125 244.800781 C 178.28125 248.398438 172.878906 248.398438 172.878906 244.800781 C 172.878906 241.199219 178.28125 241.199219 178.28125 244.800781 "/>
<path style="fill:none;stroke-width:0.75;stroke-linecap:round;stroke-linejoin:round;stroke:rgb(0%,0%,0%);stroke-opacity:1;stroke-miterlimit:10;" d="M 227.140625 244.800781 C 227.140625 248.398438 221.742188 248.398438 221.742188 244.800781 C 221.742188 241.199219 227.140625 241.199219 227.140625 244.800781 "/>
<path style="fill:none;stroke-width:0.75;stroke-linecap:round;stroke-linejoin:round;stroke:rgb(0%,0%,0%);stroke-opacity:1;stroke-miterlimit:10;" d="M 357.292969 244.800781 C 357.292969 248.398438 351.894531 248.398438 351.894531 244.800781 C 351.894531 241.199219 357.292969 241.199219 357.292969 244.800781 "/>
<path style="fill:none;stroke-width:0.75;stroke-linecap:round;stroke-linejoin:round;stroke:rgb(0%,0%,0%);stroke-opacity:1;stroke-miterlimit:10;" d="M 442.5 244.800781 C 442.5 248.398438 437.101562 248.398438 437.101562 244.800781 C 437.101562 241.199219 442.5 241.199219 442.5 244.800781 "/>
<path style="fill:none;stroke-width:0.75;stroke-linecap:round;stroke-linejoin:round;stroke:rgb(0%,0%,0%);stroke-opacity:1;stroke-miterlimit:10;" d="M 240.117188 244.800781 C 240.117188 248.398438 234.714844 248.398438 234.714844 244.800781 C 234.714844 241.199219 240.117188 241.199219 240.117188 244.800781 "/>
<path style="fill:none;stroke-width:0.75;stroke-linecap:round;stroke-linejoin:round;stroke:rgb(0%,0%,0%);stroke-opacity:1;stroke-miterlimit:10;" d="M 95.257812 244.800781 C 95.257812 248.398438 89.859375 248.398438 89.859375 244.800781 C 89.859375 241.199219 95.257812 241.199219 95.257812 244.800781 "/>
<path style="fill:none;stroke-width:0.75;stroke-linecap:round;stroke-linejoin:round;stroke:rgb(0%,0%,0%);stroke-opacity:1;stroke-miterlimit:10;" d="M 120.328125 244.800781 C 120.328125 248.398438 114.929688 248.398438 114.929688 244.800781 C 114.929688 241.199219 120.328125 241.199219 120.328125 244.800781 "/>
<path style="fill:none;stroke-width:0.75;stroke-linecap:round;stroke-linejoin:round;stroke:rgb(0%,0%,0%);stroke-opacity:1;stroke-miterlimit:10;" d="M 195.277344 244.800781 C 195.277344 248.398438 189.878906 248.398438 189.878906 244.800781 C 189.878906 241.199219 195.277344 241.199219 195.277344 244.800781 "/>
<path style="fill:none;stroke-width:0.75;stroke-linecap:round;stroke-linejoin:round;stroke:rgb(0%,0%,0%);stroke-opacity:1;stroke-miterlimit:10;" d="M 369.914062 244.800781 C 369.914062 248.398438 364.515625 248.398438 364.515625 244.800781 C 364.515625 241.199219 369.914062 241.199219 369.914062 244.800781 "/>
<path style="fill:none;stroke-width:0.75;stroke-linecap:round;stroke-linejoin:round;stroke:rgb(0%,0%,0%);stroke-opacity:1;stroke-miterlimit:10;" d="M 115.230469 244.800781 C 115.230469 248.398438 109.832031 248.398438 109.832031 244.800781 C 109.832031 241.199219 115.230469 241.199219 115.230469 244.800781 "/>
<path style="fill:none;stroke-width:0.75;stroke-linecap:round;stroke-linejoin:round;stroke:rgb(0%,0%,0%);stroke-opacity:1;stroke-miterlimit:10;" d="M 77.332031 244.800781 C 77.332031 248.398438 71.933594 248.398438 71.933594 244.800781 C 71.933594 241.199219 77.332031 241.199219 77.332031 244.800781 "/>
<path style="fill:none;stroke-width:0.75;stroke-linecap:round;stroke-linejoin:round;stroke:rgb(0%,0%,0%);stroke-opacity:1;stroke-miterlimit:10;" d="M 355.949219 244.800781 C 355.949219 248.398438 350.546875 248.398438 350.546875 244.800781 C 350.546875 241.199219 355.949219 241.199219 355.949219 244.800781 "/>
<path style="fill:none;stroke-width:0.75;stroke-linecap:round;stroke-linejoin:round;stroke:rgb(0%,0%,0%);stroke-opacity:1;stroke-miterlimit:10;" d="M 145.214844 244.800781 C 145.214844 248.398438 139.816406 248.398438 139.816406 244.800781 C 139.816406 241.199219 145.214844 241.199219 145.214844 244.800781 "/>
<path style="fill:none;stroke-width:0.75;stroke-linecap:round;stroke-linejoin:round;stroke:rgb(0%,0%,0%);stroke-opacity:1;stroke-miterlimit:10;" d="M 114.203125 244.800781 C 114.203125 248.398438 108.800781 248.398438 108.800781 244.800781 C 108.800781 241.199219 114.203125 241.199219 114.203125 244.800781 "/>
<path style="fill:none;stroke-width:0.75;stroke-linecap:round;stroke-linejoin:round;stroke:rgb(0%,0%,0%);stroke-opacity:1;stroke-miterlimit:10;" d="M 142.597656 244.800781 C 142.597656 248.398438 137.199219 248.398438 137.199219 244.800781 C 137.199219 241.199219 142.597656 241.199219 142.597656 244.800781 "/>
<path style="fill:none;stroke-width:0.75;stroke-linecap:round;stroke-linejoin:round;stroke:rgb(0%,0%,0%);stroke-opacity:1;stroke-miterlimit:10;" d="M 81.09375 244.800781 C 81.09375 248.398438 75.695312 248.398438 75.695312 244.800781 C 75.695312 241.199219 81.09375 241.199219 81.09375 244.800781 "/>
<path style="fill:none;stroke-width:0.75;stroke-linecap:round;stroke-linejoin:round;stroke:rgb(0%,0%,0%);stroke-opacity:1;stroke-miterlimit:10;" d="M 79.378906 244.800781 C 79.378906 248.398438 73.976562 248.398438 73.976562 244.800781 C 73.976562 241.199219 79.378906 241.199219 79.378906 244.800781 "/>
<path style="fill:none;stroke-width:0.75;stroke-linecap:round;stroke-linejoin:round;stroke:rgb(0%,0%,0%);stroke-opacity:1;stroke-miterlimit:10;" d="M 81.574219 244.800781 C 81.574219 248.398438 76.175781 248.398438 76.175781 244.800781 C 76.175781 241.199219 81.574219 241.199219 81.574219 244.800781 "/>
<path style="fill:none;stroke-width:0.75;stroke-linecap:round;stroke-linejoin:round;stroke:rgb(0%,0%,0%);stroke-opacity:1;stroke-miterlimit:10;" d="M 361.59375 244.800781 C 361.59375 248.398438 356.195312 248.398438 356.195312 244.800781 C 356.195312 241.199219 361.59375 241.199219 361.59375 244.800781 "/>
<path style="fill:none;stroke-width:0.75;stroke-linecap:round;stroke-linejoin:round;stroke:rgb(0%,0%,0%);stroke-opacity:1;stroke-miterlimit:10;" d="M 354.933594 244.800781 C 354.933594 248.398438 349.535156 248.398438 349.535156 244.800781 C 349.535156 241.199219 354.933594 241.199219 354.933594 244.800781 "/>
<g clip-path="url(#clip1)" clip-rule="nonzero">
<path style="fill:none;stroke-width:0.75;stroke-linecap:round;stroke-linejoin:round;stroke:rgb(0%,0%,0%);stroke-opacity:1;stroke-miterlimit:10;" d="M 59.039062 244.800781 L 473.761719 244.800781 "/>
</g>
</g>
</svg>
