<?xml version="1.0" encoding="UTF-8"?>
<svg xmlns="http://www.w3.org/2000/svg" xmlns:xlink="http://www.w3.org/1999/xlink" width="504pt" height="504pt" viewBox="0 0 504 504" version="1.1">
<defs>
<clipPath id="clip1">
  <path d="M 59.039062 244 L 473.757812 244 L 473.757812 246 L 59.039062 246 Z M 59.039062 244 "/>
</clipPath>
</defs>
<g id="surface5">
<rect x="0" y="0" width="504" height="504" style="fill:rgb(100%,100%,100%);fill-opacity:1;stroke:none;"/>
<path style="fill:none;stroke-width:0.75;stroke-linecap:round;stroke-linejoin:round;stroke:rgb(0%,0%,0%);stroke-opacity:1;stroke-miterlimit:10;" d="M 397.996094 244.800781 C 397.996094 248.398438 392.597656 248.398438 392.597656 244.800781 C 392.597656 241.199219 397.996094 241.199219 397.996094 244.800781 "/>
<path style="fill:none;stroke-width:0.75;stroke-linecap:round;stroke-linejoin:round;stroke:rgb(0%,0%,0%);stroke-opacity:1;stroke-miterlimit:10;" d="M 136.410156 244.800781 C 136.410156 248.398438 131.011719 248.398438 131.011719 244.800781 C 131.011719 241.199219 136.410156 241.199219 136.410156 244.800781 "/>
<path style="fill:none;stroke-width:0.75;stroke-linecap:round;stroke-linejoin:round;stroke:rgb(0%,0%,0%);stroke-opacity:1;stroke-miterlimit:10;" d="M 200.078125 244.800781 C 200.078125 248.398438 194.679688 248.398438 194.679688 244.800781 C 194.679688 241.199219 200.078125 241.199219 200.078125 244.800781 "/>
<path style="fill:none;stroke-width:0.75;stroke-linecap:round;stroke-linejoin:round;stroke:rgb(0%,0%,0%);stroke-opacity:1;stroke-miterlimit:10;" d="M 326.214844 244.800781 C 326.214844 248.398438 320.816406 248.398438 320.816406 244.800781 C 320.816406 241.199219 326.214844 241.199219 326.214844 244.800781 "/>
<path style="fill:none;stroke-width:0.75;stroke-linecap:round;stroke-linejoin:round;stroke:rgb(0%,0%,0%);stroke-opacity:1;stroke-miterlimit:10;" d="M 147.578125 244.800781 C 147.578125 248.398438 142.175781 248.398438 142.175781 244.800781 C 142.175781 241.199219 147.578125 241.199219 147.578125 244.800781 "/>
<path style="fill:none;stroke-width:0.75;stroke-linecap:round;stroke-linejoin:round;stroke:rgb(0%,0%,0%);stroke-opacity:1;stroke-miterlimit:10;" d="M 266.246094 244.800781 C 266.246094 248.398438 260.847656 248.398438 260.847656 244.800781 C 260.847656 241.199219 266.246094 241.199219 266.246094 244.800781 "/>
<path style="fill:none;stroke-width:0.75;stroke-linecap:round;stroke-linejoin:round;stroke:rgb(0%,0%,0%);stroke-opacity:1;stroke-miterlimit:10;" d="M 367.644531 244.800781 C 367.644531 248.398438 362.242188 248.398438 362.242188 244.800781 C 362.242188 241.199219 367.644531 241.199219 367.644531 244.800781 "/>
<path style="fill:none;stroke-width:0.75;stroke-linecap:round;stroke-linejoin:round;stroke:rgb(0%,0%,0%);stroke-opacity:1;stroke-miterlimit:10;" d="M 245.085938 244.800781 C 245.085938 248.398438 239.6875 248.398438 239.6875 244.800781 C 239.6875 241.199219 245.085938 241.199219 245.085938 244.800781 "/>
<path style="fill:none;stroke-width:0.75;stroke-linecap:round;stroke-linejoin:round;stroke:rgb(0%,0%,0%);stroke-opacity:1;stroke-miterlimit:10;" d="M 79.410156 244.800781 C 79.410156 248.398438 74.007812 248.398438 74.007812 244.800781 C 74.007812 241.199219 79.410156 241.199219 79.410156 244.800781 "/>
<path style="fill:none;stroke-width:0.75;stroke-linecap:round;stroke-linejoin:round;stroke:rgb(0%,0%,0%);stroke-opacity:1;stroke-miterlimit:10;" d="M 436.070312 244.800781 C 436.070312 248.398438 430.671875 248.398438 430.671875 244.800781 C 430.671875 241.199219 436.070312 241.199219 436.070312 244.800781 "/>
<path style="fill:none;stroke-width:0.75;stroke-linecap:round;stroke-linejoin:round;stroke:rgb(0%,0%,0%);stroke-opacity:1;stroke-miterlimit:10;" d="M 456.785156 244.800781 C 456.785156 248.398438 451.386719 248.398438 451.386719 244.800781 C 451.386719 241.199219 456.785156 241.199219 456.785156 244.800781 "/>
<path style="fill:none;stroke-width:0.75;stroke-linecap:round;stroke-linejoin:round;stroke:rgb(0%,0%,0%);stroke-opacity:1;stroke-miterlimit:10;" d="M 96.011719 244.800781 C 96.011719 248.398438 90.613281 248.398438 90.613281 244.800781 C 90.613281 241.199219 96.011719 241.199219 96.011719 244.800781 "/>
<path style="fill:none;stroke-width:0.75;stroke-linecap:round;stroke-linejoin:round;stroke:rgb(0%,0%,0%);stroke-opacity:1;stroke-miterlimit:10;" d="M 150.839844 244.800781 C 150.839844 248.398438 145.4375 248.398438 145.4375 244.800781 C 145.4375 241.199219 150.839844 241.199219 150.839844 244.800781 "/>
<path style="fill:none;stroke-width:0.75;stroke-linecap:round;stroke-linejoin:round;stroke:rgb(0%,0%,0%);stroke-opacity:1;stroke-miterlimit:10;" d="M 224.964844 244.800781 C 224.964844 248.398438 219.5625 248.398438 219.5625 244.800781 C 219.5625 241.199219 224.964844 241.199219 224.964844 244.800781 "/>
<path style="fill:none;stroke-width:0.75;stroke-linecap:round;stroke-linejoin:round;stroke:rgb(0%,0%,0%);stroke-opacity:1;stroke-miterlimit:10;" d="M 269.507812 244.800781 C 269.507812 248.398438 264.109375 248.398438 264.109375 244.800781 C 264.109375 241.199219 269.507812 241.199219 269.507812 244.800781 "/>
<path style="fill:none;stroke-width:0.75;stroke-linecap:round;stroke-linejoin:round;stroke:rgb(0%,0%,0%);stroke-opacity:1;stroke-miterlimit:10;" d="M 212.054688 244.800781 C 212.054688 248.398438 206.65625 248.398438 206.65625 244.800781 C 206.65625 241.199219 212.054688 241.199219 212.054688 244.800781 "/>
<path style="fill:none;stroke-width:0.75;stroke-linecap:round;stroke-linejoin:round;stroke:rgb(0%,0%,0%);stroke-opacity:1;stroke-miterlimit:10;" d="M 393.933594 244.800781 C 393.933594 248.398438 388.53125 248.398438 388.53125 244.800781 C 388.53125 241.199219 393.933594 241.199219 393.933594 244.800781 "/>
<path style="fill:none;stroke-width:0.75;stroke-linecap:round;stroke-linejoin:round;stroke:rgb(0%,0%,0%);stroke-opacity:1;stroke-miterlimit:10;" d="M 398.339844 244.800781 C 398.339844 248.398438 392.9375 248.398438 392.9375 244.800781 C 392.9375 241.199219 398.339844 241.199219 398.339844 244.800781 "/>
<path style="fill:none;stroke-width:0.75;stroke-linecap:round;stroke-linejoin:round;stroke:rgb(0%,0%,0%);stroke-opacity:1;stroke-miterlimit:10;" d="M 374.253906 244.800781 C 374.253906 248.398438 368.855469 248.398438 368.855469 244.800781 C 368.855469 241.199219 374.253906 241.199219 374.253906 244.800781 "/>
<path style="fill:none;stroke-width:0.75;stroke-linecap:round;stroke-linejoin:round;stroke:rgb(0%,0%,0%);stroke-opacity:1;stroke-miterlimit:10;" d="M 222.09375 244.800781 C 222.09375 248.398438 216.695312 248.398438 216.695312 244.800781 C 216.695312 241.199219 222.09375 241.199219 222.09375 244.800781 "/>
<path style="fill:none;stroke-width:0.75;stroke-linecap:round;stroke-linejoin:round;stroke:rgb(0%,0%,0%);stroke-opacity:1;stroke-miterlimit:10;" d="M 153.363281 244.800781 C 153.363281 248.398438 147.964844 248.398438 147.964844 244.800781 C 147.964844 241.199219 153.363281 241.199219 153.363281 244.800781 "/>
<path style="fill:none;stroke-width:0.75;stroke-linecap:round;stroke-linejoin:round;stroke:rgb(0%,0%,0%);stroke-opacity:1;stroke-miterlimit:10;" d="M 380.761719 244.800781 C 380.761719 248.398438 375.359375 248.398438 375.359375 244.800781 C 375.359375 241.199219 380.761719 241.199219 380.761719 244.800781 "/>
<path style="fill:none;stroke-width:0.75;stroke-linecap:round;stroke-linejoin:round;stroke:rgb(0%,0%,0%);stroke-opacity:1;stroke-miterlimit:10;" d="M 367.972656 244.800781 C 367.972656 248.398438 362.574219 248.398438 362.574219 244.800781 C 362.574219 241.199219 367.972656 241.199219 367.972656 244.800781 "/>
<path style="fill:none;stroke-width:0.75;stroke-linecap:round;stroke-linejoin:round;stroke:rgb(0%,0%,0%);stroke-opacity:1;stroke-miterlimit:10;" d="M 163.082031 244.800781 C 163.082031 248.398438 157.683594 248.398438 157.683594 244.800781 C 157.683594 241.199219 163.082031 241.199219 163.082031 244.800781 "/>
<path style="fill:none;stroke-width:0.75;stroke-linecap:round;stroke-linejoin:round;stroke:rgb(0%,0%,0%);stroke-opacity:1;stroke-miterlimit:10;" d="M 152.355469 244.800781 C 152.355469 248.398438 146.953125 248.398438 146.953125 244.800781 C 146.953125 241.199219 152.355469 241.199219 152.355469 244.800781 "/>
<path style="fill:none;stroke-width:0.75;stroke-linecap:round;stroke-linejoin:round;stroke:rgb(0%,0%,0%);stroke-opacity:1;stroke-miterlimit:10;" d="M 245.398438 244.800781 C 245.398438 248.398438 239.996094 248.398438 239.996094 244.800781 C 239.996094 241.199219 245.398438 241.199219 245.398438 244.800781 "/>
<path style="fill:none;stroke-width:0.75;stroke-linecap:round;stroke-linejoin:round;stroke:rgb(0%,0%,0%);stroke-opacity:1;stroke-miterlimit:10;" d="M 234.058594 244.800781 C 234.058594 248.398438 228.65625 248.398438 228.65625 244.800781 C 228.65625 241.199219 234.058594 241.199219 234.058594 244.800781 "/>
<path style="fill:none;stroke-width:0.75;stroke-linecap:round;stroke-linejoin:round;stroke:rgb(0%,0%,0%);stroke-opacity:1;stroke-miterlimit:10;" d="M 218.144531 244.800781 C 218.144531 248.398438 212.746094 248.398438 212.746094 244.800781 C 212.746094 241.199219 218.144531 241.199219 218.144531 244.800781 "/>
<path style="fill:none;stroke-width:0.75;stroke-linecap:round;stroke-linejoin:round;stroke:rgb(0%,0%,0%);stroke-opacity:1;stroke-miterlimit:10;" d="M 208.003906 244.800781 C 208.003906 248.398438 202.605469 248.398438 202.605469 244.800781 C 202.605469 241.199219 208.003906 241.199219 208.003906 244.800781 "/>
<path style="fill:none;stroke-width:0.75;stroke-linecap:round;stroke-linejoin:round;stroke:rgb(0%,0%,0%);stroke-opacity:1;stroke-miterlimit:10;" d="M 126.628906 244.800781 C 126.628906 248.398438 121.226562 248.398438 121.226562 244.800781 C 121.226562 241.199219 126.628906 241.199219 126.628906 244.800781 "/>
<path style="fill:none;stroke-width:0.75;stroke-linecap:round;stroke-linejoin:round;stroke:rgb(0%,0%,0%);stroke-opacity:1;stroke-miterlimit:10;" d="M 368.664062 244.800781 C 368.664062 248.398438 363.265625 248.398438 363.265625 244.800781 C 363.265625 241.199219 368.664062 241.199219 368.664062 244.800781 "/>
<path style="fill:none;stroke-width:0.75;stroke-linecap:round;stroke-linejoin:round;stroke:rgb(0%,0%,0%);stroke-opacity:1;stroke-miterlimit:10;" d="M 89.210938 244.800781 C 89.210938 248.398438 83.808594 248.398438 83.808594 244.800781 C 83.808594 241.199219 89.210938 241.199219 89.210938 244.800781 "/>
<path style="fill:none;stroke-width:0.75;stroke-linecap:round;stroke-linejoin:round;stroke:rgb(0%,0%,0%);stroke-opacity:1;stroke-miterlimit:10;" d="M 323.464844 244.800781 C 323.464844 248.398438 318.0625 248.398438 318.0625 244.800781 C 318.0625 241.199219 323.464844 241.199219 323.464844 244.800781 "/>
<path style="fill:none;stroke-width:0.75;stroke-linecap:round;stroke-linejoin:round;stroke:rgb(0%,0%,0%);stroke-opacity:1;stroke-miterlimit:10;" d="M 135.296875 244.800781 C 135.296875 248.398438 129.898438 248.398438 129.898438 244.800781 C 129.898438 241.199219 135.296875 241.199219 135.296875 244.800781 "/>
<path style="fill:none;stroke-width:0.75;stroke-linecap:round;stroke-linejoin:round;stroke:rgb(0%,0%,0%);stroke-opacity:1;stroke-miterlimit:10;" d="M 425.457031 244.800781 C 425.457031 248.398438 420.058594 248.398438 420.058594 244.800781 C 420.058594 241.199219 425.457031 241.199219 425.457031 244.800781 "/>
<path style="fill:none;stroke-width:0.75;stroke-linecap:round;stroke-linejoin:round;stroke:rgb(0%,0%,0%);stroke-opacity:1;stroke-miterlimit:10;" d="M 448.894531 244.800781 C 448.894531 248.398438 443.496094 248.398438 443.496094 244.800781 C 443.496094 241.199219 448.894531 241.199219 448.894531 244.800781 "/>
<path style="fill:none;stroke-width:0.75;stroke-linecap:round;stroke-linejoin:round;stroke:rgb(0%,0%,0%);stroke-opacity:1;stroke-miterlimit:10;" d="M 111.785156 244.800781 C 111.785156 248.398438 106.386719 248.398438 106.386719 244.800781 C 106.386719 241.199219 111.785156 241.199219 111.785156 244.800781 "/>
<path style="fill:none;stroke-width:0.75;stroke-linecap:round;stroke-linejoin:round;stroke:rgb(0%,0%,0%);stroke-opacity:1;stroke-miterlimit:10;" d="M 101.9375 244.800781 C 101.9375 248.398438 96.535156 248.398438 96.535156 244.800781 C 96.535156 241.199219 101.9375 241.199219 101.9375 244.800781 "/>
<path style="fill:none;stroke-width:0.75;stroke-linecap:round;stroke-linejoin:round;stroke:rgb(0%,0%,0%);stroke-opacity:1;stroke-miterlimit:10;" d="M 129.734375 244.800781 C 129.734375 248.398438 124.335938 248.398438 124.335938 244.800781 C 124.335938 241.199219 129.734375 241.199219 129.734375 244.800781 "/>
<path style="fill:none;stroke-width:0.75;stroke-linecap:round;stroke-linejoin:round;stroke:rgb(0%,0%,0%);stroke-opacity:1;stroke-miterlimit:10;" d="M 154.59375 244.800781 C 154.59375 248.398438 149.195312 248.398438 149.195312 244.800781 C 149.195312 241.199219 154.59375 241.199219 154.59375 244.800781 "/>
<path style="fill:none;stroke-width:0.75;stroke-linecap:round;stroke-linejoin:round;stroke:rgb(0%,0%,0%);stroke-opacity:1;stroke-miterlimit:10;" d="M 254.398438 244.800781 C 254.398438 248.398438 248.996094 248.398438 248.996094 244.800781 C 248.996094 241.199219 254.398438 241.199219 254.398438 244.800781 "/>
<path style="fill:none;stroke-width:0.75;stroke-linecap:round;stroke-linejoin:round;stroke:rgb(0%,0%,0%);stroke-opacity:1;stroke-miterlimit:10;" d="M 391.949219 244.800781 C 391.949219 248.398438 386.550781 248.398438 386.550781 244.800781 C 386.550781 241.199219 391.949219 241.199219 391.949219 244.800781 "/>
<path style="fill:none;stroke-width:0.75;stroke-linecap:round;stroke-linejoin:round;stroke:rgb(0%,0%,0%);stroke-opacity:1;stroke-miterlimit:10;" d="M 135.441406 244.800781 C 135.441406 248.398438 130.039062 248.398438 130.039062 244.800781 C 130.039062 241.199219 135.441406 241.199219 135.441406 244.800781 "/>
<path style="fill:none;stroke-width:0.75;stroke-linecap:round;stroke-linejoin:round;stroke:rgb(0%,0%,0%);stroke-opacity:1;stroke-miterlimit:10;" d="M 317.921875 244.800781 C 317.921875 248.398438 312.523438 248.398438 312.523438 244.800781 C 312.523438 241.199219 317.921875 241.199219 317.921875 244.800781 "/>
<path style="fill:none;stroke-width:0.75;stroke-linecap:round;stroke-linejoin:round;stroke:rgb(0%,0%,0%);stroke-opacity:1;stroke-miterlimit:10;" d="M 146.886719 244.800781 C 146.886719 248.398438 141.488281 248.398438 141.488281 244.800781 C 141.488281 241.199219 146.886719 241.199219 146.886719 244.800781 "/>
<path style="fill:none;stroke-width:0.75;stroke-linecap:round;stroke-linejoin:round;stroke:rgb(0%,0%,0%);stroke-opacity:1;stroke-miterlimit:10;" d="M 225.199219 244.800781 C 225.199219 248.398438 219.796875 248.398438 219.796875 244.800781 C 219.796875 241.199219 225.199219 241.199219 225.199219 244.800781 "/>
<path style="fill:none;stroke-width:0.75;stroke-linecap:round;stroke-linejoin:round;stroke:rgb(0%,0%,0%);stroke-opacity:1;stroke-miterlimit:10;" d="M 370.839844 244.800781 C 370.839844 248.398438 365.441406 248.398438 365.441406 244.800781 C 365.441406 241.199219 370.839844 241.199219 370.839844 244.800781 "/>
<path style="fill:none;stroke-width:0.75;stroke-linecap:round;stroke-linejoin:round;stroke:rgb(0%,0%,0%);stroke-opacity:1;stroke-miterlimit:10;" d="M 210.734375 244.800781 C 210.734375 248.398438 205.332031 248.398438 205.332031 244.800781 C 205.332031 241.199219 210.734375 241.199219 210.734375 244.800781 "/>
<path style="fill:none;stroke-width:0.75;stroke-linecap:round;stroke-linejoin:round;stroke:rgb(0%,0%,0%);stroke-opacity:1;stroke-miterlimit:10;" d="M 346.53125 244.800781 C 346.53125 248.398438 341.128906 248.398438 341.128906 244.800781 C 341.128906 241.199219 346.53125 241.199219 346.53125 244.800781 "/>
<path style="fill:none;stroke-width:0.75;stroke-linecap:round;stroke-linejoin:round;stroke:rgb(0%,0%,0%);stroke-opacity:1;stroke-miterlimit:10;" d="M 273.507812 244.800781 C 273.507812 248.398438 268.105469 248.398438 268.105469 244.800781 C 268.105469 241.199219 273.507812 241.199219 273.507812 244.800781 "/>
<path style="fill:none;stroke-width:0.75;stroke-linecap:round;stroke-linejoin:round;stroke:rgb(0%,0%,0%);stroke-opacity:1;stroke-miterlimit:10;" d="M 253.074219 244.800781 C 253.074219 248.398438 247.675781 248.398438 247.675781 244.800781 C 247.675781 241.199219 253.074219 241.199219 253.074219 244.800781 "/>
<path style="fill:none;stroke-width:0.75;stroke-linecap:round;stroke-linejoin:round;stroke:rgb(0%,0%,0%);stroke-opacity:1;stroke-miterlimit:10;" d="M 202.335938 244.800781 C 202.335938 248.398438 196.933594 248.398438 196.933594 244.800781 C 196.933594 241.199219 202.335938 241.199219 202.335938 244.800781 "/>
<path style="fill:none;stroke-width:0.75;stroke-linecap:round;stroke-linejoin:round;stroke:rgb(0%,0%,0%);stroke-opacity:1;stroke-miterlimit:10;" d="M 130.78125 244.800781 C 130.78125 248.398438 125.382812 248.398438 125.382812 244.800781 C 125.382812 241.199219 130.78125 241.199219 130.78125 244.800781 "/>
<path style="fill:none;stroke-width:0.75;stroke-linecap:round;stroke-linejoin:round;stroke:rgb(0%,0%,0%);stroke-opacity:1;stroke-miterlimit:10;" d="M 200.296875 244.800781 C 200.296875 248.398438 194.898438 248.398438 194.898438 244.800781 C 194.898438 241.199219 200.296875 241.199219 200.296875 244.800781 "/>
<path style="fill:none;stroke-width:0.75;stroke-linecap:round;stroke-linejoin:round;stroke:rgb(0%,0%,0%);stroke-opacity:1;stroke-miterlimit:10;" d="M 457.511719 244.800781 C 457.511719 248.398438 452.113281 248.398438 452.113281 244.800781 C 452.113281 241.199219 457.511719 241.199219 457.511719 244.800781 "/>
<path style="fill:none;stroke-width:0.75;stroke-linecap:round;stroke-linejoin:round;stroke:rgb(0%,0%,0%);stroke-opacity:1;stroke-miterlimit:10;" d="M 205.957031 244.800781 C 205.957031 248.398438 200.554688 248.398438 200.554688 244.800781 C 200.554688 241.199219 205.957031 241.199219 205.957031 244.800781 "/>
<path style="fill:none;stroke-width:0.75;stroke-linecap:round;stroke-linejoin:round;stroke:rgb(0%,0%,0%);stroke-opacity:1;stroke-miterlimit:10;" d="M 378.867188 244.800781 C 378.867188 248.398438 373.46875 248.398438 373.46875 244.800781 C 373.46875 241.199219 378.867188 241.199219 378.867188 244.800781 "/>
<path style="fill:none;stroke-width:0.75;stroke-linecap:round;stroke-linejoin:round;stroke:rgb(0%,0%,0%);stroke-opacity:1;stroke-miterlimit:10;" d="M 167.558594 244.800781 C 167.558594 248.398438 162.15625 248.398438 162.15625 244.800781 C 162.15625 241.199219 167.558594 241.199219 167.558594 244.800781 "/>
<path style="fill:none;stroke-width:0.75;stroke-linecap:round;stroke-linejoin:round;stroke:rgb(0%,0%,0%);stroke-opacity:1;stroke-miterlimit:10;" d="M 243.863281 244.800781 C 243.863281 248.398438 238.460938 248.398438 238.460938 244.800781 C 238.460938 241.199219 243.863281 241.199219 243.863281 244.800781 "/>
<path style="fill:none;stroke-width:0.75;stroke-linecap:round;stroke-linejoin:round;stroke:rgb(0%,0%,0%);stroke-opacity:1;stroke-miterlimit:10;" d="M 112.765625 244.800781 C 112.765625 248.398438 107.367188 248.398438 107.367188 244.800781 C 107.367188 241.199219 112.765625 241.199219 112.765625 244.800781 "/>
<path style="fill:none;stroke-width:0.75;stroke-linecap:round;stroke-linejoin:round;stroke:rgb(0%,0%,0%);stroke-opacity:1;stroke-miterlimit:10;" d="M 114.496094 244.800781 C 114.496094 248.398438 109.097656 248.398438 109.097656 244.800781 C 109.097656 241.199219 114.496094 241.199219 114.496094 244.800781 "/>
<path style="fill:none;stroke-width:0.75;stroke-linecap:round;stroke-linejoin:round;stroke:rgb(0%,0%,0%);stroke-opacity:1;stroke-miterlimit:10;" d="M 194.773438 244.800781 C 194.773438 248.398438 189.375 248.398438 189.375 244.800781 C 189.375 241.199219 194.773438 241.199219 194.773438 244.800781 "/>
<path style="fill:none;stroke-width:0.75;stroke-linecap:round;stroke-linejoin:round;stroke:rgb(0%,0%,0%);stroke-opacity:1;stroke-miterlimit:10;" d="M 458.667969 244.800781 C 458.667969 248.398438 453.265625 248.398438 453.265625 244.800781 C 453.265625 241.199219 458.667969 241.199219 458.667969 244.800781 "/>
<path style="fill:none;stroke-width:0.75;stroke-linecap:round;stroke-linejoin:round;stroke:rgb(0%,0%,0%);stroke-opacity:1;stroke-miterlimit:10;" d="M 172.917969 244.800781 C 172.917969 248.398438 167.515625 248.398438 167.515625 244.800781 C 167.515625 241.199219 172.917969 241.199219 172.917969 244.800781 "/>
<path style="fill:none;stroke-width:0.75;stroke-linecap:round;stroke-linejoin:round;stroke:rgb(0%,0%,0%);stroke-opacity:1;stroke-miterlimit:10;" d="M 182.761719 244.800781 C 182.761719 248.398438 177.359375 248.398438 177.359375 244.800781 C 177.359375 241.199219 182.761719 241.199219 182.761719 244.800781 "/>
<path style="fill:none;stroke-width:0.75;stroke-linecap:round;stroke-linejoin:round;stroke:rgb(0%,0%,0%);stroke-opacity:1;stroke-miterlimit:10;" d="M 250.496094 244.800781 C 250.496094 248.398438 245.097656 248.398438 245.097656 244.800781 C 245.097656 241.199219 250.496094 241.199219 250.496094 244.800781 "/>
<path style="fill:none;stroke-width:0.75;stroke-linecap:round;stroke-linejoin:round;stroke:rgb(0%,0%,0%);stroke-opacity:1;stroke-miterlimit:10;" d="M 100.796875 244.800781 C 100.796875 248.398438 95.394531 248.398438 95.394531 244.800781 C 95.394531 241.199219 100.796875 241.199219 100.796875 244.800781 "/>
<path style="fill:none;stroke-width:0.75;stroke-linecap:round;stroke-linejoin:round;stroke:rgb(0%,0%,0%);stroke-opacity:1;stroke-miterlimit:10;" d="M 77.101562 244.800781 C 77.101562 248.398438 71.699219 248.398438 71.699219 244.800781 C 71.699219 241.199219 77.101562 241.199219 77.101562 244.800781 "/>
<path style="fill:none;stroke-width:0.75;stroke-linecap:round;stroke-linejoin:round;stroke:rgb(0%,0%,0%);stroke-opacity:1;stroke-miterlimit:10;" d="M 234.542969 244.800781 C 234.542969 248.398438 229.144531 248.398438 229.144531 244.800781 C 229.144531 241.199219 234.542969 241.199219 234.542969 244.800781 "/>
<path style="fill:none;stroke-width:0.75;stroke-linecap:round;stroke-linejoin:round;stroke:rgb(0%,0%,0%);stroke-opacity:1;stroke-miterlimit:10;" d="M 182.613281 244.800781 C 182.613281 248.398438 177.214844 248.398438 177.214844 244.800781 C 177.214844 241.199219 182.613281 241.199219 182.613281 244.800781 "/>
<path style="fill:none;stroke-width:0.75;stroke-linecap:round;stroke-linejoin:round;stroke:rgb(0%,0%,0%);stroke-opacity:1;stroke-miterlimit:10;" d="M 139.414062 244.800781 C 139.414062 248.398438 134.015625 248.398438 134.015625 244.800781 C 134.015625 241.199219 139.414062 241.199219 139.414062 244.800781 "/>
<path style="fill:none;stroke-width:0.75;stroke-linecap:round;stroke-linejoin:round;stroke:rgb(0%,0%,0%);stroke-opacity:1;stroke-miterlimit:10;" d="M 434.289062 244.800781 C 434.289062 248.398438 428.886719 248.398438 428.886719 244.800781 C 428.886719 241.199219 434.289062 241.199219 434.289062 244.800781 "/>
<path style="fill:none;stroke-width:0.75;stroke-linecap:round;stroke-linejoin:round;stroke:rgb(0%,0%,0%);stroke-opacity:1;stroke-miterlimit:10;" d="M 208.679688 244.800781 C 208.679688 248.398438 203.277344 248.398438 203.277344 244.800781 C 203.277344 241.199219 208.679688 241.199219 208.679688 244.800781 "/>
<path style="fill:none;stroke-width:0.75;stroke-linecap:round;stroke-linejoin:round;stroke:rgb(0%,0%,0%);stroke-opacity:1;stroke-miterlimit:10;" d="M 181.917969 244.800781 C 181.917969 248.398438 176.515625 248.398438 176.515625 244.800781 C 176.515625 241.199219 181.917969 241.199219 181.917969 244.800781 "/>
<path style="fill:none;stroke-width:0.75;stroke-linecap:round;stroke-linejoin:round;stroke:rgb(0%,0%,0%);stroke-opacity:1;stroke-miterlimit:10;" d="M 358.738281 244.800781 C 358.738281 248.398438 353.339844 248.398438 353.339844 244.800781 C 353.339844 241.199219 358.738281 241.199219 358.738281 244.800781 "/>
<path style="fill:none;stroke-width:0.75;stroke-linecap:round;stroke-linejoin:round;stroke:rgb(0%,0%,0%);stroke-opacity:1;stroke-miterlimit:10;" d="M 197.367188 244.800781 C 197.367188 248.398438 191.96875 248.398438 191.96875 244.800781 C 191.96875 241.199219 197.367188 241.199219 197.367188 244.800781 "/>
<path style="fill:none;stroke-width:0.75;stroke-linecap:round;stroke-linejoin:round;stroke:rgb(0%,0%,0%);stroke-opacity:1;stroke-miterlimit:10;" d="M 379.75 244.800781 C 379.75 248.398438 374.347656 248.398438 374.347656 244.800781 C 374.347656 241.199219 379.75 241.199219 379.75 244.800781 "/>
<path style="fill:none;stroke-width:0.75;stroke-linecap:round;stroke-linejoin:round;stroke:rgb(0%,0%,0%);stroke-opacity:1;stroke-miterlimit:10;" d="M 461.101562 244.800781 C 461.101562 248.398438 455.699219 248.398438 455.699219 244.800781 C 455.699219 241.199219 461.101562 241.199219 461.101562 244.800781 "/>
<path style="fill:none;stroke-width:0.75;stroke-linecap:round;stroke-linejoin:round;stroke:rgb(0%,0%,0%);stroke-opacity:1;stroke-miterlimit:10;" d="M 248.355469 244.800781 C 248.355469 248.398438 242.957031 248.398438 242.957031 244.800781 C 242.957031 241.199219 248.355469 241.199219 248.355469 244.800781 "/>
<path style="fill:none;stroke-width:0.75;stroke-linecap:round;stroke-linejoin:round;stroke:rgb(0%,0%,0%);stroke-opacity:1;stroke-miterlimit:10;" d="M 119.09375 244.800781 C 119.09375 248.398438 113.691406 248.398438 113.691406 244.800781 C 113.691406 241.199219 119.09375 241.199219 119.09375 244.800781 "/>
<path style="fill:none;stroke-width:0.75;stroke-linecap:round;stroke-linejoin:round;stroke:rgb(0%,0%,0%);stroke-opacity:1;stroke-miterlimit:10;" d="M 260.234375 244.800781 C 260.234375 248.398438 254.835938 248.398438 254.835938 244.800781 C 254.835938 241.199219 260.234375 241.199219 260.234375 244.800781 "/>
<path style="fill:none;stroke-width:0.75;stroke-linecap:round;stroke-linejoin:round;stroke:rgb(0%,0%,0%);stroke-opacity:1;stroke-miterlimit:10;" d="M 306.203125 244.800781 C 306.203125 248.398438 300.804688 248.398438 300.804688 244.800781 C 300.804688 241.199219 306.203125 241.199219 306.203125 244.800781 "/>
<path style="fill:none;stroke-width:0.75;stroke-linecap:round;stroke-linejoin:round;stroke:rgb(0%,0%,0%);stroke-opacity:1;stroke-miterlimit:10;" d="M 400.789062 244.800781 C 400.789062 248.398438 395.386719 248.398438 395.386719 244.800781 C 395.386719 241.199219 400.789062 241.199219 400.789062 244.800781 "/>
<path style="fill:none;stroke-width:0.75;stroke-linecap:round;stroke-linejoin:round;stroke:rgb(0%,0%,0%);stroke-opacity:1;stroke-miterlimit:10;" d="M 450.953125 244.800781 C 450.953125 248.398438 445.554688 248.398438 445.554688 244.800781 C 445.554688 241.199219 450.953125 241.199219 450.953125 244.800781 "/>
<path style="fill:none;stroke-width:0.75;stroke-linecap:round;stroke-linejoin:round;stroke:rgb(0%,0%,0%);stroke-opacity:1;stroke-miterlimit:10;" d="M 317.109375 244.800781 C 317.109375 248.398438 311.710938 248.398438 311.710938 244.800781 C 311.710938 241.199219 317.109375 241.199219 317.109375 244.800781 "/>
<path style="fill:none;stroke-width:0.75;stroke-linecap:round;stroke-linejoin:round;stroke:rgb(0%,0%,0%);stroke-opacity:1;stroke-miterlimit:10;" d="M 140.597656 244.800781 C 140.597656 248.398438 135.199219 248.398438 135.199219 244.800781 C 135.199219 241.199219 140.597656 241.199219 140.597656 244.800781 "/>
<path style="fill:none;stroke-width:0.75;stroke-linecap:round;stroke-linejoin:round;stroke:rgb(0%,0%,0%);stroke-opacity:1;stroke-miterlimit:10;" d="M 187.695312 244.800781 C 187.695312 248.398438 182.292969 248.398438 182.292969 244.800781 C 182.292969 241.199219 187.695312 241.199219 187.695312 244.800781 "/>
<path style="fill:none;stroke-width:0.75;stroke-linecap:round;stroke-linejoin:round;stroke:rgb(0%,0%,0%);stroke-opacity:1;stroke-miterlimit:10;" d="M 277.261719 244.800781 C 277.261719 248.398438 271.859375 248.398438 271.859375 244.800781 C 271.859375 241.199219 277.261719 241.199219 277.261719 244.800781 "/>
<path style="fill:none;stroke-width:0.75;stroke-linecap:round;stroke-linejoin:round;stroke:rgb(0%,0%,0%);stroke-opacity:1;stroke-miterlimit:10;" d="M 408.65625 244.800781 C 408.65625 248.398438 403.253906 248.398438 403.253906 244.800781 C 403.253906 241.199219 408.65625 241.199219 408.65625 244.800781 "/>
<path style="fill:none;stroke-width:0.75;stroke-linecap:round;stroke-linejoin:round;stroke:rgb(0%,0%,0%);stroke-opacity:1;stroke-miterlimit:10;" d="M 179.460938 244.800781 C 179.460938 248.398438 174.058594 248.398438 174.058594 244.800781 C 174.058594 241.199219 179.460938 241.199219 179.460938 244.800781 "/>
<path style="fill:none;stroke-width:0.75;stroke-linecap:round;stroke-linejoin:round;stroke:rgb(0%,0%,0%);stroke-opacity:1;stroke-miterlimit:10;" d="M 78.675781 244.800781 C 78.675781 248.398438 73.273438 248.398438 73.273438 244.800781 C 73.273438 241.199219 78.675781 241.199219 78.675781 244.800781 "/>
<path style="fill:none;stroke-width:0.75;stroke-linecap:round;stroke-linejoin:round;stroke:rgb(0%,0%,0%);stroke-opacity:1;stroke-miterlimit:10;" d="M 399.9375 244.800781 C 399.9375 248.398438 394.539062 248.398438 394.539062 244.800781 C 394.539062 241.199219 399.9375 241.199219 399.9375 244.800781 "/>
<path style="fill:none;stroke-width:0.75;stroke-linecap:round;stroke-linejoin:round;stroke:rgb(0%,0%,0%);stroke-opacity:1;stroke-miterlimit:10;" d="M 222.507812 244.800781 C 222.507812 248.398438 217.109375 248.398438 217.109375 244.800781 C 217.109375 241.199219 222.507812 241.199219 222.507812 244.800781 "/>
<path style="fill:none;stroke-width:0.75;stroke-linecap:round;stroke-linejoin:round;stroke:rgb(0%,0%,0%);stroke-opacity:1;stroke-miterlimit:10;" d="M 177.734375 244.800781 C 177.734375 248.398438 172.335938 248.398438 172.335938 244.800781 C 172.335938 241.199219 177.734375 241.199219 177.734375 244.800781 "/>
<path style="fill:none;stroke-width:0.75;stroke-linecap:round;stroke-linejoin:round;stroke:rgb(0%,0%,0%);stroke-opacity:1;stroke-miterlimit:10;" d="M 219.175781 244.800781 C 219.175781 248.398438 213.777344 248.398438 213.777344 244.800781 C 213.777344 241.199219 219.175781 241.199219 219.175781 244.800781 "/>
<path style="fill:none;stroke-width:0.75;stroke-linecap:round;stroke-linejoin:round;stroke:rgb(0%,0%,0%);stroke-opacity:1;stroke-miterlimit:10;" d="M 98.011719 244.800781 C 98.011719 248.398438 92.609375 248.398438 92.609375 244.800781 C 92.609375 241.199219 98.011719 241.199219 98.011719 244.800781 "/>
<path style="fill:none;stroke-width:0.75;stroke-linecap:round;stroke-linejoin:round;stroke:rgb(0%,0%,0%);stroke-opacity:1;stroke-miterlimit:10;" d="M 90.210938 244.800781 C 90.210938 248.398438 84.808594 248.398438 84.808594 244.800781 C 84.808594 241.199219 90.210938 241.199219 90.210938 244.800781 "/>
<path style="fill:none;stroke-width:0.75;stroke-linecap:round;stroke-linejoin:round;stroke:rgb(0%,0%,0%);stroke-opacity:1;stroke-miterlimit:10;" d="M 99.996094 244.800781 C 99.996094 248.398438 94.597656 248.398438 94.597656 244.800781 C 94.597656 241.199219 99.996094 241.199219 99.996094 244.800781 "/>
<path style="fill:none;stroke-width:0.75;stroke-linecap:round;stroke-linejoin:round;stroke:rgb(0%,0%,0%);stroke-opacity:1;stroke-miterlimit:10;" d="M 403.488281 244.800781 C 403.488281 248.398438 398.085938 248.398438 398.085938 244.800781 C 398.085938 241.199219 403.488281 241.199219 403.488281 244.800781 "/>
<path style="fill:none;stroke-width:0.75;stroke-linecap:round;stroke-linejoin:round;stroke:rgb(0%,0%,0%);stroke-opacity:1;stroke-miterlimit:10;" d="M 399.296875 244.800781 C 399.296875 248.398438 393.898438 248.398438 393.898438 244.800781 C 393.898438 241.199219 399.296875 241.199219 399.296875 244.800781 "/>
<g clip-path="url(#clip1)" clip-rule="nonzero">
<path style="fill:none;stroke-width:0.75;stroke-linecap:round;stroke-linejoin:round;stroke:rgb(0%,0%,0%);stroke-opacity:1;stroke-miterlimit:10;" d="M 59.039062 244.800781 L 473.761719 244.800781 "/>
</g>
</g>
</svg>
