<?xml version="1.0" encoding="UTF-8"?>
<svg xmlns="http://www.w3.org/2000/svg" xmlns:xlink="http://www.w3.org/1999/xlink" width="504pt" height="504pt" viewBox="0 0 504 504" version="1.1">
<defs>
<clipPath id="clip1">
  <path d="M 109 59.039062 L 427 59.039062 L 427 411 L 109 411 Z M 109 59.039062 "/>
</clipPath>
<clipPath id="clip2">
  <path d="M 106 59.039062 L 424 59.039062 L 424 411 L 106 411 Z M 106 59.039062 "/>
</clipPath>
<clipPath id="clip3">
  <path d="M 59.039062 409 L 473.757812 409 L 473.757812 411 L 59.039062 411 Z M 59.039062 409 "/>
</clipPath>
<clipPath id="clip4">
  <path d="M 106 59.039062 L 107 59.039062 L 107 430.558594 L 106 430.558594 Z M 106 59.039062 "/>
</clipPath>
<clipPath id="clip5">
  <path d="M 426 59.039062 L 427 59.039062 L 427 430.558594 L 426 430.558594 Z M 426 59.039062 "/>
</clipPath>
</defs>
<g id="surface41">
<rect x="0" y="0" width="504" height="504" style="fill:rgb(100%,100%,100%);fill-opacity:1;stroke:none;"/>
<path style="fill:none;stroke-width:0.75;stroke-linecap:round;stroke-linejoin:round;stroke:rgb(0%,0%,0%);stroke-opacity:1;stroke-miterlimit:10;" d="M 106.398438 410.054688 L 109.632812 410.035156 L 112.863281 409.910156 L 116.097656 409.589844 L 119.328125 409 L 122.5625 408.078125 L 125.792969 406.78125 L 129.027344 405.074219 L 132.257812 402.941406 L 135.492188 400.363281 L 138.722656 397.339844 L 141.957031 393.882812 L 145.1875 389.996094 L 148.421875 385.703125 L 151.652344 381.03125 L 154.886719 376.007812 L 158.117188 370.667969 L 161.347656 365.046875 L 164.582031 359.183594 L 167.8125 353.128906 L 171.046875 346.914062 L 174.277344 340.59375 L 177.511719 334.210938 L 180.742188 327.804688 L 183.976562 321.425781 L 187.207031 315.117188 L 190.441406 308.917969 L 193.671875 302.875 L 196.90625 297.019531 L 200.136719 291.398438 L 203.371094 286.042969 L 206.601562 280.984375 L 209.835938 276.257812 L 213.066406 271.882812 L 216.300781 267.890625 L 219.53125 264.300781 L 222.761719 261.128906 L 225.996094 258.394531 L 229.226562 256.109375 L 232.460938 254.28125 L 235.691406 252.914062 L 238.925781 252.015625 L 242.15625 251.585938 L 245.390625 251.617188 L 248.621094 252.109375 L 251.855469 253.050781 L 255.085938 254.429688 L 258.320312 256.238281 L 261.550781 258.453125 L 264.785156 261.0625 L 268.015625 264.039062 L 271.25 267.371094 L 274.480469 271.027344 L 277.714844 274.984375 L 280.945312 279.21875 L 284.179688 283.699219 L 287.410156 288.398438 L 290.640625 293.289062 L 293.875 298.335938 L 297.105469 303.519531 L 300.339844 308.800781 L 303.570312 314.152344 L 306.804688 319.546875 L 310.035156 324.953125 L 313.269531 330.34375 L 316.5 335.691406 L 319.734375 340.96875 L 322.964844 346.152344 L 326.199219 351.214844 L 329.429688 356.136719 L 332.664062 360.898438 L 335.894531 365.476562 L 339.128906 369.863281 L 342.359375 374.035156 L 345.59375 377.980469 L 348.824219 381.695312 L 352.054688 385.164062 L 355.289062 388.382812 L 358.519531 391.355469 L 361.753906 394.070312 L 364.984375 396.535156 L 368.21875 398.75 L 371.449219 400.722656 L 374.683594 402.460938 L 377.914062 403.976562 L 381.148438 405.273438 L 384.378906 406.375 L 387.613281 407.289062 L 390.84375 408.03125 L 394.078125 408.625 L 397.308594 409.085938 L 400.542969 409.429688 L 403.773438 409.675781 L 407.007812 409.84375 L 410.238281 409.949219 L 413.472656 410.011719 L 416.703125 410.039062 L 419.933594 410.050781 L 423.167969 410.054688 L 426.398438 410.054688 "/>
<g clip-path="url(#clip1)" clip-rule="nonzero">
<path style="fill:none;stroke-width:0.75;stroke-linecap:round;stroke-linejoin:round;stroke:rgb(0%,0%,0%);stroke-opacity:1;stroke-miterlimit:10;" d="M 109.632812 -382.882812 L 112.863281 -128.101562 L 116.097656 -11.503906 L 119.328125 59.949219 L 122.5625 109.886719 L 125.792969 147.515625 L 129.027344 177.277344 L 132.257812 201.625 L 135.492188 222.042969 L 138.722656 239.488281 L 141.957031 254.613281 L 145.1875 267.878906 L 148.421875 279.628906 L 151.652344 290.121094 L 154.886719 299.542969 L 158.117188 308.058594 L 161.347656 315.785156 L 164.582031 322.832031 L 167.8125 329.273438 L 171.046875 335.179688 L 174.277344 340.617188 L 177.511719 345.625 L 180.742188 350.25 L 183.976562 354.53125 L 187.207031 358.496094 L 190.441406 362.175781 L 193.671875 365.59375 L 196.90625 368.769531 L 200.136719 371.726562 L 203.371094 374.476562 L 206.601562 377.042969 L 209.835938 379.429688 L 213.066406 381.660156 L 216.300781 383.738281 L 219.53125 385.675781 L 222.761719 387.484375 L 225.996094 389.171875 L 229.226562 390.746094 L 232.460938 392.214844 L 235.691406 393.585938 L 238.925781 394.863281 L 242.15625 396.050781 L 245.390625 397.160156 L 248.621094 398.195312 L 251.855469 399.15625 L 255.085938 400.054688 L 258.320312 400.886719 L 261.550781 401.660156 L 264.785156 402.378906 L 268.015625 403.046875 L 271.25 403.664062 L 274.480469 404.238281 L 277.714844 404.769531 L 280.945312 405.257812 L 284.179688 405.710938 L 287.410156 406.128906 L 290.640625 406.511719 L 293.875 406.863281 L 297.105469 407.191406 L 300.339844 407.488281 L 303.570312 407.761719 L 306.804688 408.007812 L 310.035156 408.234375 L 313.269531 408.441406 L 316.5 408.628906 L 319.734375 408.800781 L 322.964844 408.953125 L 326.199219 409.09375 L 329.429688 409.214844 L 332.664062 409.328125 L 335.894531 409.429688 L 339.128906 409.515625 L 342.359375 409.59375 L 345.59375 409.664062 L 348.824219 409.726562 L 352.054688 409.777344 L 355.289062 409.824219 L 358.519531 409.867188 L 361.753906 409.898438 L 364.984375 409.929688 L 368.21875 409.953125 L 371.449219 409.976562 L 374.683594 409.992188 L 377.914062 410.007812 L 381.148438 410.019531 L 384.378906 410.027344 L 387.613281 410.035156 L 390.84375 410.042969 L 394.078125 410.046875 L 397.308594 410.050781 L 400.542969 410.050781 L 403.773438 410.054688 L 426.398438 410.054688 "/>
</g>
<g clip-path="url(#clip2)" clip-rule="nonzero">
<path style="fill:none;stroke-width:0.75;stroke-linecap:round;stroke-linejoin:round;stroke:rgb(0%,0%,0%);stroke-opacity:1;stroke-miterlimit:10;" d="M 106.398438 410.054688 L 116.097656 410.054688 L 119.328125 410.050781 L 122.5625 410.046875 L 125.792969 410.039062 L 129.027344 410.027344 L 132.257812 410.015625 L 135.492188 409.996094 L 138.722656 409.976562 L 141.957031 409.949219 L 145.1875 409.914062 L 148.421875 409.875 L 151.652344 409.828125 L 154.886719 409.777344 L 158.117188 409.714844 L 161.347656 409.644531 L 164.582031 409.566406 L 167.8125 409.476562 L 171.046875 409.375 L 174.277344 409.261719 L 177.511719 409.136719 L 180.742188 409 L 183.976562 408.847656 L 187.207031 408.679688 L 190.441406 408.5 L 193.671875 408.300781 L 196.90625 408.085938 L 200.136719 407.851562 L 203.371094 407.597656 L 206.601562 407.320312 L 209.835938 407.027344 L 213.066406 406.707031 L 216.300781 406.367188 L 219.53125 406 L 222.761719 405.609375 L 225.996094 405.1875 L 229.226562 404.738281 L 232.460938 404.261719 L 235.691406 403.75 L 238.925781 403.207031 L 242.15625 402.632812 L 245.390625 402.015625 L 248.621094 401.367188 L 251.855469 400.671875 L 255.085938 399.941406 L 258.320312 399.164062 L 261.550781 398.339844 L 264.785156 397.46875 L 268.015625 396.546875 L 271.25 395.570312 L 274.480469 394.539062 L 277.714844 393.449219 L 280.945312 392.296875 L 284.179688 391.078125 L 287.410156 389.792969 L 290.640625 388.4375 L 293.875 387.003906 L 297.105469 385.488281 L 300.339844 383.890625 L 303.570312 382.199219 L 306.804688 380.414062 L 310.035156 378.527344 L 313.269531 376.535156 L 316.5 374.425781 L 319.734375 372.195312 L 322.964844 369.832031 L 326.199219 367.332031 L 329.429688 364.679688 L 332.664062 361.871094 L 335.894531 358.886719 L 339.128906 355.714844 L 342.359375 352.339844 L 345.59375 348.742188 L 348.824219 344.90625 L 352.054688 340.808594 L 355.289062 336.421875 L 358.519531 331.714844 L 361.753906 326.652344 L 364.984375 321.195312 L 368.21875 315.292969 L 371.449219 308.890625 L 374.683594 301.914062 L 377.914062 294.28125 L 381.148438 285.886719 L 384.378906 276.597656 L 387.613281 266.246094 L 390.84375 254.613281 L 394.078125 241.402344 L 397.308594 226.222656 L 400.542969 208.5 L 403.773438 187.398438 L 407.007812 161.632812 L 410.238281 129.046875 L 413.472656 85.746094 L 416.703125 23.625 L 419.933594 -78.167969 L 423.167969 -301.972656 "/>
</g>
<path style="fill:none;stroke-width:0.75;stroke-linecap:round;stroke-linejoin:round;stroke:rgb(0%,0%,0%);stroke-opacity:1;stroke-miterlimit:10;" d="M 106.398438 410.054688 L 109.632812 410.054688 L 112.863281 410.050781 L 116.097656 410.046875 L 119.328125 410.035156 L 122.5625 410.019531 L 125.792969 409.996094 L 129.027344 409.960938 L 132.257812 409.914062 L 135.492188 409.851562 L 138.722656 409.777344 L 141.957031 409.683594 L 145.1875 409.574219 L 148.421875 409.445312 L 151.652344 409.292969 L 154.886719 409.117188 L 158.117188 408.914062 L 161.347656 408.6875 L 164.582031 408.433594 L 167.8125 408.148438 L 171.046875 407.832031 L 174.277344 407.480469 L 177.511719 407.09375 L 180.742188 406.671875 L 183.976562 406.210938 L 187.207031 405.710938 L 190.441406 405.167969 L 193.671875 404.582031 L 196.90625 403.949219 L 200.136719 403.273438 L 203.371094 402.546875 L 206.601562 401.769531 L 209.835938 400.941406 L 213.066406 400.0625 L 216.300781 399.125 L 219.53125 398.132812 L 222.761719 397.082031 L 225.996094 395.96875 L 229.226562 394.796875 L 232.460938 393.558594 L 235.691406 392.257812 L 238.925781 390.890625 L 242.15625 389.453125 L 245.390625 387.945312 L 248.621094 386.367188 L 251.855469 384.714844 L 255.085938 382.988281 L 258.320312 381.1875 L 261.550781 379.304688 L 264.785156 377.339844 L 268.015625 375.296875 L 271.25 373.167969 L 274.480469 370.957031 L 277.714844 368.65625 L 280.945312 366.269531 L 284.179688 363.792969 L 287.410156 361.222656 L 290.640625 358.558594 L 293.875 355.800781 L 297.105469 352.945312 L 300.339844 349.992188 L 303.570312 346.941406 L 306.804688 343.785156 L 310.035156 340.527344 L 313.269531 337.164062 L 316.5 333.691406 L 319.734375 330.113281 L 322.964844 326.425781 L 326.199219 322.625 L 329.429688 318.707031 L 332.664062 314.679688 L 335.894531 310.535156 L 339.128906 306.269531 L 342.359375 301.882812 L 345.59375 297.378906 L 348.824219 292.746094 L 352.054688 287.992188 L 355.289062 283.109375 L 358.519531 278.101562 L 361.753906 272.960938 L 364.984375 267.6875 L 368.21875 262.28125 L 371.449219 256.738281 L 374.683594 251.0625 L 377.914062 245.246094 L 381.148438 239.289062 L 384.378906 233.191406 L 387.613281 226.949219 L 390.84375 220.5625 L 394.078125 214.03125 L 397.308594 207.347656 L 400.542969 200.515625 L 403.773438 193.53125 L 407.007812 186.394531 L 410.238281 179.101562 L 413.472656 171.652344 L 416.703125 164.042969 L 419.933594 156.273438 L 423.167969 148.34375 L 426.398438 140.25 "/>
<g clip-path="url(#clip3)" clip-rule="nonzero">
<path style="fill:none;stroke-width:0.75;stroke-linecap:round;stroke-linejoin:round;stroke:rgb(0%,0%,0%);stroke-opacity:1;stroke-miterlimit:10;" d="M 59.039062 410.054688 L 473.761719 410.054688 "/>
</g>
<g clip-path="url(#clip4)" clip-rule="nonzero">
<path style="fill:none;stroke-width:0.75;stroke-linecap:round;stroke-linejoin:round;stroke:rgb(0%,0%,0%);stroke-opacity:1;stroke-miterlimit:10;" d="M 106.398438 430.558594 L 106.398438 59.039062 "/>
</g>
<g clip-path="url(#clip5)" clip-rule="nonzero">
<path style="fill:none;stroke-width:0.75;stroke-linecap:round;stroke-linejoin:round;stroke:rgb(0%,0%,0%);stroke-opacity:1;stroke-miterlimit:10;" d="M 426.398438 430.558594 L 426.398438 59.039062 "/>
</g>
</g>
</svg>
