<?xml version="1.0" encoding="UTF-8" standalone="no"?>
<svg
   width="504pt"
   height="504pt"
   viewBox="0 0 504 504"
   version="1.1"
   id="svg3181"
   sodipodi:docname="bivsq2.svg"
   inkscape:version="1.1.2 (1:1.1+202202050950+0a00cf5339)"
   inkscape:export-filename="/home/asu/na/s/git/arnabc74.github.io/prob2_2025/image/bivsq2.png"
   inkscape:export-xdpi="143.216"
   inkscape:export-ydpi="143.216"
   xmlns:inkscape="http://www.inkscape.org/namespaces/inkscape"
   xmlns:sodipodi="http://sodipodi.sourceforge.net/DTD/sodipodi-0.dtd"
   xmlns="http://www.w3.org/2000/svg"
   xmlns:svg="http://www.w3.org/2000/svg">
  <sodipodi:namedview
     id="namedview3183"
     pagecolor="#ffffff"
     bordercolor="#666666"
     borderopacity="1.0"
     inkscape:pageshadow="2"
     inkscape:pageopacity="0.0"
     inkscape:pagecheckerboard="0"
     inkscape:document-units="pt"
     showgrid="false"
     inkscape:zoom="0.58820341"
     inkscape:cx="100.30544"
     inkscape:cy="334.91815"
     inkscape:window-width="1362"
     inkscape:window-height="727"
     inkscape:window-x="0"
     inkscape:window-y="20"
     inkscape:window-maximized="1"
     inkscape:current-layer="svg3181" />
  <defs
     id="defs3102">
    <clipPath
       id="clip1">
      <path
         d="M 59.039062 412 L 473.757812 412 L 473.757812 414 L 59.039062 414 Z M 59.039062 412 "
         id="path3048" />
    </clipPath>
    <clipPath
       id="clip2">
      <path
         d="M 59.039062 402 L 473.757812 402 L 473.757812 404 L 59.039062 404 Z M 59.039062 402 "
         id="path3051" />
    </clipPath>
    <clipPath
       id="clip3">
      <path
         d="M 59.039062 385 L 473.757812 385 L 473.757812 387 L 59.039062 387 Z M 59.039062 385 "
         id="path3054" />
    </clipPath>
    <clipPath
       id="clip4">
      <path
         d="M 59.039062 361 L 473.757812 361 L 473.757812 363 L 59.039062 363 Z M 59.039062 361 "
         id="path3057" />
    </clipPath>
    <clipPath
       id="clip5">
      <path
         d="M 59.039062 330 L 473.757812 330 L 473.757812 332 L 59.039062 332 Z M 59.039062 330 "
         id="path3060" />
    </clipPath>
    <clipPath
       id="clip6">
      <path
         d="M 59.039062 292 L 473.757812 292 L 473.757812 294 L 59.039062 294 Z M 59.039062 292 "
         id="path3063" />
    </clipPath>
    <clipPath
       id="clip7">
      <path
         d="M 59.039062 247 L 473.757812 247 L 473.757812 249 L 59.039062 249 Z M 59.039062 247 "
         id="path3066" />
    </clipPath>
    <clipPath
       id="clip8">
      <path
         d="M 59.039062 196 L 473.757812 196 L 473.757812 198 L 59.039062 198 Z M 59.039062 196 "
         id="path3069" />
    </clipPath>
    <clipPath
       id="clip9">
      <path
         d="M 59.039062 137 L 473.757812 137 L 473.757812 139 L 59.039062 139 Z M 59.039062 137 "
         id="path3072" />
    </clipPath>
    <clipPath
       id="clip10">
      <path
         d="M 97 59.039062 L 99 59.039062 L 99 430.558594 L 97 430.558594 Z M 97 59.039062 "
         id="path3075" />
    </clipPath>
    <clipPath
       id="clip11">
      <path
         d="M 107 59.039062 L 109 59.039062 L 109 430.558594 L 107 430.558594 Z M 107 59.039062 "
         id="path3078" />
    </clipPath>
    <clipPath
       id="clip12">
      <path
         d="M 124 59.039062 L 126 59.039062 L 126 430.558594 L 124 430.558594 Z M 124 59.039062 "
         id="path3081" />
    </clipPath>
    <clipPath
       id="clip13">
      <path
         d="M 149 59.039062 L 150 59.039062 L 150 430.558594 L 149 430.558594 Z M 149 59.039062 "
         id="path3084" />
    </clipPath>
    <clipPath
       id="clip14">
      <path
         d="M 180 59.039062 L 181 59.039062 L 181 430.558594 L 180 430.558594 Z M 180 59.039062 "
         id="path3087" />
    </clipPath>
    <clipPath
       id="clip15">
      <path
         d="M 217 59.039062 L 219 59.039062 L 219 430.558594 L 217 430.558594 Z M 217 59.039062 "
         id="path3090" />
    </clipPath>
    <clipPath
       id="clip16">
      <path
         d="M 262 59.039062 L 264 59.039062 L 264 430.558594 L 262 430.558594 Z M 262 59.039062 "
         id="path3093" />
    </clipPath>
    <clipPath
       id="clip17">
      <path
         d="M 314 59.039062 L 315 59.039062 L 315 430.558594 L 314 430.558594 Z M 314 59.039062 "
         id="path3096" />
    </clipPath>
    <clipPath
       id="clip18">
      <path
         d="M 372 59.039062 L 374 59.039062 L 374 430.558594 L 372 430.558594 Z M 372 59.039062 "
         id="path3099" />
    </clipPath>
  </defs>
  <path
     style="fill:none;stroke:#000000;stroke-width:3;stroke-linecap:round;stroke-linejoin:round;stroke-miterlimit:10;stroke-opacity:1"
     d="M 94.398438,416.80078 H 438.39844 V 72.800781 H 94.398438 Z m 0,0"
     id="path3106" />
  <path
     style="clip-rule:nonzero;fill:none;stroke:#000000;stroke-width:0.75;stroke-linecap:round;stroke-linejoin:round;stroke-miterlimit:10;stroke-opacity:1"
     d="M 94.768546,413.35937 H 438.03223"
     id="path3108" />
  <path
     style="clip-rule:nonzero;fill:none;stroke:#000000;stroke-width:0.75;stroke-linecap:round;stroke-linejoin:round;stroke-miterlimit:10;stroke-opacity:1"
     d="M 94.768546,403.03906 H 438.03223"
     id="path3112" />
  <path
     style="clip-rule:nonzero;fill:none;stroke:#000000;stroke-width:0.75;stroke-linecap:round;stroke-linejoin:round;stroke-miterlimit:10;stroke-opacity:1"
     d="M 94.768546,385.83984 H 438.03223"
     id="path3116" />
  <path
     style="clip-rule:nonzero;fill:none;stroke:#000000;stroke-width:0.75;stroke-linecap:round;stroke-linejoin:round;stroke-miterlimit:10;stroke-opacity:1"
     d="M 94.768546,361.76172 H 438.03223"
     id="path3120" />
  <path
     style="clip-rule:nonzero;fill:none;stroke:#000000;stroke-width:0.75;stroke-linecap:round;stroke-linejoin:round;stroke-miterlimit:10;stroke-opacity:1"
     d="M 94.768546,330.80078 H 438.03223"
     id="path3124" />
  <path
     style="clip-rule:nonzero;fill:none;stroke:#000000;stroke-width:0.75;stroke-linecap:round;stroke-linejoin:round;stroke-miterlimit:10;stroke-opacity:1"
     d="M 94.768546,292.96094 H 438.03223"
     id="path3128" />
  <path
     style="clip-rule:nonzero;fill:none;stroke:#000000;stroke-width:0.75;stroke-linecap:round;stroke-linejoin:round;stroke-miterlimit:10;stroke-opacity:1"
     d="M 94.768546,248.23828 H 438.03223"
     id="path3132" />
  <path
     style="clip-rule:nonzero;fill:none;stroke:#000000;stroke-width:0.75;stroke-linecap:round;stroke-linejoin:round;stroke-miterlimit:10;stroke-opacity:1"
     d="M 94.768546,196.64062 H 438.03223"
     id="path3136" />
  <path
     style="clip-rule:nonzero;fill:none;stroke:#000000;stroke-width:0.75;stroke-linecap:round;stroke-linejoin:round;stroke-miterlimit:10;stroke-opacity:1"
     d="M 94.768546,138.16016 H 438.03223"
     id="path3140" />
  <path
     style="clip-rule:nonzero;fill:none;stroke:#000000;stroke-width:0.75;stroke-linecap:round;stroke-linejoin:round;stroke-miterlimit:10;stroke-opacity:1"
     d="M 97.839844,416.63598 V 72.961667"
     id="path3144" />
  <path
     style="clip-rule:nonzero;fill:none;stroke:#000000;stroke-width:0.75;stroke-linecap:round;stroke-linejoin:round;stroke-miterlimit:10;stroke-opacity:1"
     d="M 108.16016,416.63598 V 72.961667"
     id="path3148" />
  <path
     style="clip-rule:nonzero;fill:none;stroke:#000000;stroke-width:0.75;stroke-linecap:round;stroke-linejoin:round;stroke-miterlimit:10;stroke-opacity:1"
     d="M 125.35938,416.63598 V 72.961667"
     id="path3152" />
  <path
     style="clip-rule:nonzero;fill:none;stroke:#000000;stroke-width:0.75;stroke-linecap:round;stroke-linejoin:round;stroke-miterlimit:10;stroke-opacity:1"
     d="M 149.44141,416.63598 V 72.961667"
     id="path3156" />
  <path
     style="clip-rule:nonzero;fill:none;stroke:#000000;stroke-width:0.75;stroke-linecap:round;stroke-linejoin:round;stroke-miterlimit:10;stroke-opacity:1"
     d="M 180.39844,416.63598 V 72.961667"
     id="path3160" />
  <path
     style="clip-rule:nonzero;fill:none;stroke:#000000;stroke-width:0.75;stroke-linecap:round;stroke-linejoin:round;stroke-miterlimit:10;stroke-opacity:1"
     d="M 218.23828,416.63598 V 72.961667"
     id="path3164" />
  <path
     style="clip-rule:nonzero;fill:none;stroke:#000000;stroke-width:0.75;stroke-linecap:round;stroke-linejoin:round;stroke-miterlimit:10;stroke-opacity:1"
     d="M 262.96094,416.63598 V 72.961667"
     id="path3168" />
  <path
     style="clip-rule:nonzero;fill:none;stroke:#000000;stroke-width:0.75;stroke-linecap:round;stroke-linejoin:round;stroke-miterlimit:10;stroke-opacity:1"
     d="M 314.55859,416.63598 V 72.961667"
     id="path3172" />
  <path
     style="clip-rule:nonzero;fill:none;stroke:#000000;stroke-width:0.75;stroke-linecap:round;stroke-linejoin:round;stroke-miterlimit:10;stroke-opacity:1"
     d="M 373.03906,416.63598 V 72.961667"
     id="path3176" />
</svg>
