<?xml version="1.0" encoding="UTF-8"?>
<svg xmlns="http://www.w3.org/2000/svg" xmlns:xlink="http://www.w3.org/1999/xlink" width="504pt" height="504pt" viewBox="0 0 504 504" version="1.1">
<defs>
<clipPath id="clip1">
  <path d="M 81 59.039062 L 459 59.039062 L 459 410 L 81 410 Z M 81 59.039062 "/>
</clipPath>
<clipPath id="clip2">
  <path d="M 59.039062 409 L 473.757812 409 L 473.757812 411 L 59.039062 411 Z M 59.039062 409 "/>
</clipPath>
<clipPath id="clip3">
  <path d="M 81 59.039062 L 83 59.039062 L 83 430.558594 L 81 430.558594 Z M 81 59.039062 "/>
</clipPath>
</defs>
<g id="surface26">
<rect x="0" y="0" width="504" height="504" style="fill:rgb(100%,100%,100%);fill-opacity:1;stroke:none;"/>
<path style="fill:none;stroke-width:0.75;stroke-linecap:round;stroke-linejoin:round;stroke:rgb(0%,0%,0%);stroke-opacity:1;stroke-miterlimit:10;" d="M 81.929688 376.328125 L 82.304688 376.414062 L 82.683594 376.496094 L 83.058594 376.582031 L 83.4375 376.664062 L 83.8125 376.75 L 84.191406 376.832031 L 84.566406 376.914062 L 84.945312 376.996094 L 85.320312 377.082031 L 85.699219 377.164062 L 86.074219 377.246094 L 86.453125 377.328125 L 86.828125 377.410156 L 87.207031 377.492188 L 87.582031 377.570312 L 87.957031 377.652344 L 88.335938 377.734375 L 88.710938 377.816406 L 89.089844 377.894531 L 89.464844 377.976562 L 89.84375 378.054688 L 90.21875 378.136719 L 90.597656 378.214844 L 90.972656 378.296875 L 91.351562 378.375 L 91.726562 378.453125 L 92.105469 378.53125 L 92.480469 378.613281 L 92.859375 378.691406 L 93.234375 378.769531 L 93.613281 378.847656 L 93.988281 378.925781 L 94.367188 379.003906 L 94.742188 379.082031 L 95.117188 379.15625 L 95.496094 379.234375 L 95.871094 379.3125 L 96.25 379.390625 L 96.625 379.464844 L 97.003906 379.542969 L 97.378906 379.617188 L 97.757812 379.695312 L 98.132812 379.769531 L 98.511719 379.847656 L 98.886719 379.921875 L 99.265625 379.996094 L 99.640625 380.070312 L 100.019531 380.148438 L 100.394531 380.222656 L 100.773438 380.296875 L 101.148438 380.371094 L 101.527344 380.445312 L 102.277344 380.59375 L 102.65625 380.667969 L 103.03125 380.738281 L 103.410156 380.8125 L 103.785156 380.886719 L 104.164062 380.957031 L 104.539062 381.03125 L 104.917969 381.105469 L 105.292969 381.175781 L 105.671875 381.25 L 106.046875 381.320312 L 106.425781 381.390625 L 106.800781 381.464844 L 107.179688 381.535156 L 107.554688 381.605469 L 107.933594 381.679688 L 108.308594 381.75 L 108.6875 381.820312 L 109.4375 381.960938 L 109.816406 382.03125 L 110.191406 382.101562 L 110.570312 382.171875 L 110.945312 382.242188 L 111.324219 382.308594 L 111.699219 382.378906 L 112.078125 382.449219 L 112.453125 382.515625 L 112.832031 382.585938 L 113.207031 382.65625 L 113.585938 382.722656 L 113.960938 382.792969 L 114.339844 382.859375 L 114.714844 382.925781 L 115.09375 382.996094 L 115.84375 383.128906 L 116.222656 383.199219 L 116.597656 383.265625 L 116.976562 383.332031 L 117.351562 383.398438 L 117.730469 383.464844 L 118.105469 383.53125 L 118.484375 383.597656 L 118.859375 383.664062 L 119.238281 383.730469 L 119.613281 383.796875 L 119.992188 383.863281 L 120.367188 383.925781 L 120.746094 383.992188 L 121.121094 384.058594 L 121.5 384.121094 L 121.875 384.1875 L 122.253906 384.253906 L 123.003906 384.378906 L 123.382812 384.445312 L 123.757812 384.507812 L 124.136719 384.574219 L 124.511719 384.636719 L 124.890625 384.699219 L 125.265625 384.761719 L 125.644531 384.828125 L 126.019531 384.890625 L 126.398438 384.953125 L 126.773438 385.015625 L 127.152344 385.078125 L 127.527344 385.140625 L 127.90625 385.203125 L 128.28125 385.265625 L 128.660156 385.328125 L 129.035156 385.386719 L 129.414062 385.449219 L 130.164062 385.574219 L 130.542969 385.632812 L 130.917969 385.695312 L 131.296875 385.757812 L 131.671875 385.816406 L 132.050781 385.878906 L 132.425781 385.9375 L 132.804688 386 L 133.179688 386.058594 L 133.558594 386.117188 L 133.933594 386.179688 L 134.3125 386.238281 L 134.6875 386.296875 L 135.066406 386.355469 L 135.441406 386.414062 L 135.820312 386.476562 L 136.195312 386.535156 L 136.574219 386.59375 L 137.324219 386.710938 L 137.703125 386.769531 L 138.078125 386.828125 L 138.457031 386.882812 L 138.832031 386.941406 L 139.210938 387 L 139.585938 387.058594 L 139.964844 387.113281 L 140.339844 387.171875 L 140.71875 387.230469 L 141.09375 387.285156 L 141.472656 387.34375 L 141.847656 387.402344 L 142.226562 387.457031 L 142.601562 387.511719 L 142.980469 387.570312 L 143.355469 387.625 L 143.730469 387.683594 L 144.109375 387.738281 L 144.484375 387.792969 L 144.863281 387.847656 L 145.238281 387.90625 L 145.617188 387.960938 L 145.992188 388.015625 L 146.371094 388.070312 L 146.746094 388.125 L 147.125 388.179688 L 147.5 388.234375 L 147.878906 388.289062 L 148.253906 388.34375 L 148.632812 388.398438 L 149.007812 388.453125 L 149.386719 388.507812 L 149.761719 388.558594 L 150.140625 388.613281 L 150.890625 388.722656 L 151.269531 388.773438 L 151.644531 388.828125 L 152.023438 388.878906 L 152.398438 388.933594 L 152.777344 388.984375 L 153.152344 389.039062 L 153.53125 389.089844 L 153.90625 389.144531 L 154.285156 389.195312 L 154.660156 389.25 L 155.039062 389.300781 L 155.414062 389.351562 L 155.792969 389.402344 L 156.167969 389.457031 L 156.546875 389.507812 L 156.921875 389.558594 L 157.300781 389.609375 L 158.050781 389.710938 L 158.429688 389.761719 L 158.804688 389.8125 L 159.183594 389.863281 L 159.558594 389.914062 L 159.9375 389.964844 L 160.3125 390.015625 L 160.691406 390.066406 L 161.066406 390.113281 L 161.445312 390.164062 L 161.820312 390.214844 L 162.199219 390.265625 L 162.574219 390.3125 L 162.953125 390.363281 L 163.328125 390.410156 L 163.707031 390.460938 L 164.082031 390.511719 L 164.460938 390.558594 L 164.835938 390.609375 L 165.210938 390.65625 L 165.589844 390.703125 L 165.964844 390.753906 L 166.34375 390.800781 L 166.71875 390.847656 L 167.097656 390.898438 L 167.472656 390.945312 L 167.851562 390.992188 L 168.226562 391.039062 L 168.605469 391.089844 L 168.980469 391.136719 L 169.359375 391.183594 L 169.734375 391.230469 L 170.113281 391.277344 L 170.488281 391.324219 L 170.867188 391.371094 L 171.617188 391.464844 L 171.996094 391.511719 L 172.371094 391.558594 L 172.75 391.601562 L 173.125 391.648438 L 173.503906 391.695312 L 173.878906 391.742188 L 174.257812 391.785156 L 174.632812 391.832031 L 175.011719 391.878906 L 175.386719 391.921875 L 175.765625 391.96875 L 176.140625 392.015625 L 176.519531 392.058594 L 176.894531 392.105469 L 177.273438 392.148438 L 177.648438 392.195312 L 178.027344 392.238281 L 178.402344 392.28125 L 178.777344 392.328125 L 179.15625 392.371094 L 179.53125 392.417969 L 179.910156 392.460938 L 180.285156 392.503906 L 180.664062 392.546875 L 181.039062 392.589844 L 181.417969 392.636719 L 181.792969 392.679688 L 182.171875 392.722656 L 182.546875 392.765625 L 182.925781 392.808594 L 183.300781 392.851562 L 183.679688 392.894531 L 184.054688 392.9375 L 184.433594 392.980469 L 184.808594 393.023438 L 185.1875 393.066406 L 185.9375 393.152344 L 186.316406 393.191406 L 186.691406 393.234375 L 187.070312 393.277344 L 187.445312 393.320312 L 187.824219 393.359375 L 188.199219 393.402344 L 188.578125 393.445312 L 188.953125 393.484375 L 189.332031 393.527344 L 189.707031 393.570312 L 190.085938 393.609375 L 190.460938 393.652344 L 190.839844 393.691406 L 191.214844 393.734375 L 191.59375 393.773438 L 191.96875 393.8125 L 192.347656 393.855469 L 192.722656 393.894531 L 193.097656 393.9375 L 193.476562 393.976562 L 193.851562 394.015625 L 194.230469 394.054688 L 194.605469 394.097656 L 194.984375 394.136719 L 195.359375 394.175781 L 195.738281 394.214844 L 196.113281 394.253906 L 196.492188 394.292969 L 196.867188 394.335938 L 197.246094 394.375 L 197.621094 394.414062 L 198 394.453125 L 198.375 394.492188 L 198.753906 394.53125 L 199.128906 394.566406 L 199.503906 394.605469 L 199.882812 394.644531 L 200.257812 394.683594 L 200.636719 394.722656 L 201.011719 394.761719 L 201.390625 394.800781 L 201.765625 394.835938 L 202.144531 394.875 L 202.519531 394.914062 L 202.898438 394.949219 L 203.273438 394.988281 L 203.652344 395.027344 L 204.027344 395.0625 L 204.40625 395.101562 L 204.78125 395.140625 L 205.160156 395.175781 L 205.535156 395.214844 L 205.914062 395.25 L 206.289062 395.289062 L 206.664062 395.324219 L 207.042969 395.359375 L 207.417969 395.398438 L 207.796875 395.433594 L 208.171875 395.472656 L 208.550781 395.507812 L 208.925781 395.542969 L 209.304688 395.582031 L 209.679688 395.617188 L 210.058594 395.652344 L 210.433594 395.6875 L 210.8125 395.722656 L 211.1875 395.761719 L 211.566406 395.796875 L 211.941406 395.832031 L 212.320312 395.867188 L 212.695312 395.902344 L 213.074219 395.9375 L 213.824219 396.007812 L 214.203125 396.042969 L 214.578125 396.078125 L 214.957031 396.113281 L 215.332031 396.148438 L 215.710938 396.183594 L 216.085938 396.21875 L 216.464844 396.253906 L 216.839844 396.285156 L 217.21875 396.320312 L 217.59375 396.355469 L 217.972656 396.390625 L 218.347656 396.425781 L 218.726562 396.457031 L 219.101562 396.492188 L 219.480469 396.527344 L 219.855469 396.558594 L 220.230469 396.59375 L 220.609375 396.628906 L 220.984375 396.660156 L 221.363281 396.695312 L 221.738281 396.726562 L 222.117188 396.761719 L 222.492188 396.792969 L 222.871094 396.828125 L 223.246094 396.859375 L 223.625 396.894531 L 224 396.925781 L 224.378906 396.957031 L 224.753906 396.992188 L 225.132812 397.023438 L 225.507812 397.058594 L 225.886719 397.089844 L 226.261719 397.121094 L 226.640625 397.152344 L 227.015625 397.1875 L 227.390625 397.21875 L 227.769531 397.25 L 228.144531 397.28125 L 228.523438 397.316406 L 228.898438 397.347656 L 229.277344 397.378906 L 229.652344 397.410156 L 230.03125 397.441406 L 230.40625 397.472656 L 230.785156 397.503906 L 231.160156 397.535156 L 231.539062 397.566406 L 231.914062 397.597656 L 232.292969 397.628906 L 232.667969 397.660156 L 233.046875 397.691406 L 233.421875 397.722656 L 233.800781 397.753906 L 234.550781 397.816406 L 234.929688 397.84375 L 235.304688 397.875 L 235.683594 397.90625 L 236.058594 397.9375 L 236.4375 397.964844 L 236.8125 397.996094 L 237.191406 398.027344 L 237.566406 398.058594 L 237.945312 398.085938 L 238.320312 398.117188 L 238.699219 398.148438 L 239.074219 398.175781 L 239.453125 398.207031 L 239.828125 398.234375 L 240.207031 398.265625 L 240.582031 398.296875 L 240.960938 398.324219 L 241.335938 398.355469 L 241.710938 398.382812 L 242.089844 398.410156 L 242.464844 398.441406 L 242.84375 398.46875 L 243.21875 398.5 L 243.597656 398.527344 L 243.972656 398.558594 L 244.351562 398.585938 L 244.726562 398.613281 L 245.105469 398.644531 L 245.480469 398.671875 L 245.859375 398.699219 L 246.234375 398.726562 L 246.613281 398.757812 L 246.988281 398.785156 L 247.367188 398.8125 L 248.117188 398.867188 L 248.496094 398.898438 L 248.871094 398.925781 L 249.25 398.953125 L 249.625 398.980469 L 250.003906 399.007812 L 250.378906 399.035156 L 250.757812 399.0625 L 251.132812 399.089844 L 251.511719 399.117188 L 251.886719 399.144531 L 252.265625 399.171875 L 252.640625 399.199219 L 253.019531 399.226562 L 253.394531 399.253906 L 253.773438 399.28125 L 254.148438 399.308594 L 254.527344 399.335938 L 254.902344 399.363281 L 255.277344 399.386719 L 255.65625 399.414062 L 256.03125 399.441406 L 256.410156 399.46875 L 256.785156 399.496094 L 257.164062 399.519531 L 257.539062 399.546875 L 257.917969 399.574219 L 258.292969 399.601562 L 258.671875 399.625 L 259.046875 399.652344 L 259.425781 399.679688 L 259.800781 399.703125 L 260.179688 399.730469 L 260.554688 399.753906 L 260.933594 399.78125 L 261.308594 399.808594 L 261.6875 399.832031 L 262.0625 399.859375 L 262.4375 399.882812 L 262.816406 399.910156 L 263.191406 399.933594 L 263.570312 399.960938 L 263.945312 399.984375 L 264.324219 400.011719 L 264.699219 400.035156 L 265.078125 400.058594 L 265.453125 400.085938 L 265.832031 400.109375 L 266.207031 400.136719 L 266.585938 400.160156 L 266.960938 400.183594 L 267.339844 400.210938 L 267.714844 400.234375 L 268.09375 400.257812 L 268.46875 400.28125 L 268.847656 400.308594 L 269.597656 400.355469 L 269.976562 400.378906 L 270.351562 400.40625 L 270.730469 400.429688 L 271.105469 400.453125 L 271.484375 400.476562 L 271.859375 400.5 L 272.238281 400.523438 L 272.613281 400.546875 L 272.992188 400.570312 L 273.367188 400.597656 L 273.746094 400.621094 L 274.121094 400.644531 L 274.5 400.667969 L 274.875 400.691406 L 275.253906 400.714844 L 276.003906 400.761719 L 276.382812 400.785156 L 276.757812 400.804688 L 277.136719 400.828125 L 277.511719 400.851562 L 277.890625 400.875 L 278.265625 400.898438 L 278.644531 400.921875 L 279.019531 400.945312 L 279.398438 400.96875 L 279.773438 400.988281 L 280.152344 401.011719 L 280.527344 401.035156 L 280.90625 401.058594 L 281.28125 401.078125 L 281.660156 401.101562 L 282.035156 401.125 L 282.414062 401.148438 L 282.789062 401.167969 L 283.164062 401.191406 L 283.542969 401.214844 L 283.917969 401.234375 L 284.296875 401.257812 L 284.671875 401.28125 L 285.050781 401.300781 L 285.425781 401.324219 L 285.804688 401.34375 L 286.179688 401.367188 L 286.558594 401.390625 L 286.933594 401.410156 L 287.3125 401.433594 L 287.6875 401.453125 L 288.066406 401.476562 L 288.441406 401.496094 L 288.820312 401.519531 L 289.195312 401.539062 L 289.574219 401.5625 L 290.324219 401.601562 L 290.703125 401.625 L 291.078125 401.644531 L 291.457031 401.667969 L 291.832031 401.6875 L 292.210938 401.707031 L 292.585938 401.730469 L 292.964844 401.75 L 293.339844 401.769531 L 293.71875 401.792969 L 294.09375 401.8125 L 294.472656 401.832031 L 294.847656 401.851562 L 295.226562 401.875 L 295.601562 401.894531 L 295.980469 401.914062 L 296.355469 401.933594 L 296.734375 401.957031 L 297.484375 401.996094 L 297.863281 402.015625 L 298.238281 402.035156 L 298.617188 402.054688 L 298.992188 402.074219 L 299.371094 402.097656 L 299.746094 402.117188 L 300.125 402.136719 L 300.5 402.15625 L 300.878906 402.175781 L 301.253906 402.195312 L 301.632812 402.214844 L 302.007812 402.234375 L 302.386719 402.253906 L 302.761719 402.273438 L 303.140625 402.292969 L 303.890625 402.332031 L 304.269531 402.351562 L 304.644531 402.371094 L 305.023438 402.390625 L 305.398438 402.410156 L 305.777344 402.425781 L 306.152344 402.445312 L 306.53125 402.464844 L 306.90625 402.484375 L 307.285156 402.503906 L 307.660156 402.523438 L 308.039062 402.542969 L 308.414062 402.558594 L 308.792969 402.578125 L 309.167969 402.597656 L 309.546875 402.617188 L 309.921875 402.632812 L 310.300781 402.652344 L 311.050781 402.691406 L 311.429688 402.707031 L 311.804688 402.726562 L 312.183594 402.746094 L 312.558594 402.761719 L 312.9375 402.78125 L 313.3125 402.800781 L 313.691406 402.816406 L 314.066406 402.835938 L 314.445312 402.855469 L 314.820312 402.871094 L 315.199219 402.890625 L 315.574219 402.90625 L 315.953125 402.925781 L 316.328125 402.945312 L 316.707031 402.960938 L 317.082031 402.980469 L 317.460938 402.996094 L 317.835938 403.015625 L 318.210938 403.03125 L 318.589844 403.050781 L 318.964844 403.066406 L 319.34375 403.085938 L 319.71875 403.101562 L 320.097656 403.121094 L 320.472656 403.136719 L 320.851562 403.152344 L 321.226562 403.171875 L 321.605469 403.1875 L 321.980469 403.207031 L 322.359375 403.222656 L 322.734375 403.238281 L 323.113281 403.257812 L 323.488281 403.273438 L 323.867188 403.289062 L 324.242188 403.308594 L 324.621094 403.324219 L 324.996094 403.339844 L 325.371094 403.359375 L 325.75 403.375 L 326.125 403.390625 L 326.503906 403.40625 L 326.878906 403.425781 L 327.257812 403.441406 L 327.632812 403.457031 L 328.011719 403.472656 L 328.386719 403.492188 L 328.765625 403.507812 L 329.140625 403.523438 L 329.519531 403.539062 L 329.894531 403.554688 L 330.273438 403.574219 L 330.648438 403.589844 L 331.027344 403.605469 L 331.777344 403.636719 L 332.15625 403.652344 L 332.53125 403.667969 L 332.910156 403.683594 L 333.285156 403.699219 L 333.664062 403.714844 L 334.039062 403.734375 L 334.417969 403.75 L 334.792969 403.765625 L 335.171875 403.78125 L 335.546875 403.796875 L 335.925781 403.8125 L 336.300781 403.828125 L 336.679688 403.84375 L 337.054688 403.859375 L 337.433594 403.875 L 337.808594 403.890625 L 338.1875 403.902344 L 338.9375 403.933594 L 339.316406 403.949219 L 339.691406 403.964844 L 340.070312 403.980469 L 340.445312 403.996094 L 340.824219 404.011719 L 341.199219 404.027344 L 341.578125 404.042969 L 341.953125 404.054688 L 342.332031 404.070312 L 342.707031 404.085938 L 343.085938 404.101562 L 343.460938 404.117188 L 343.839844 404.132812 L 344.214844 404.144531 L 344.59375 404.160156 L 344.96875 404.175781 L 345.347656 404.191406 L 345.722656 404.203125 L 346.097656 404.21875 L 346.476562 404.234375 L 346.851562 404.25 L 347.230469 404.261719 L 347.605469 404.277344 L 347.984375 404.292969 L 348.359375 404.304688 L 348.738281 404.320312 L 349.113281 404.335938 L 349.492188 404.347656 L 349.867188 404.363281 L 350.246094 404.378906 L 350.621094 404.390625 L 351 404.40625 L 351.375 404.421875 L 351.753906 404.433594 L 352.128906 404.449219 L 352.507812 404.460938 L 352.882812 404.476562 L 353.257812 404.488281 L 353.636719 404.503906 L 354.011719 404.519531 L 354.390625 404.53125 L 354.765625 404.546875 L 355.144531 404.558594 L 355.519531 404.574219 L 355.898438 404.585938 L 356.273438 404.601562 L 356.652344 404.613281 L 357.027344 404.628906 L 357.40625 404.640625 L 357.78125 404.65625 L 358.160156 404.667969 L 358.535156 404.683594 L 358.914062 404.695312 L 359.289062 404.707031 L 359.664062 404.722656 L 360.042969 404.734375 L 360.417969 404.75 L 360.796875 404.761719 L 361.171875 404.773438 L 361.550781 404.789062 L 361.925781 404.800781 L 362.304688 404.816406 L 362.679688 404.828125 L 363.058594 404.839844 L 363.433594 404.855469 L 363.8125 404.867188 L 364.1875 404.878906 L 364.566406 404.894531 L 364.941406 404.90625 L 365.320312 404.917969 L 365.695312 404.929688 L 366.074219 404.945312 L 366.824219 404.96875 L 367.203125 404.980469 L 367.578125 404.996094 L 367.957031 405.007812 L 368.332031 405.019531 L 368.710938 405.03125 L 369.085938 405.046875 L 369.464844 405.058594 L 369.839844 405.070312 L 370.21875 405.082031 L 370.59375 405.09375 L 370.972656 405.109375 L 371.347656 405.121094 L 371.726562 405.132812 L 372.101562 405.144531 L 372.480469 405.15625 L 372.855469 405.167969 L 373.234375 405.179688 L 373.609375 405.195312 L 373.984375 405.207031 L 374.363281 405.21875 L 374.738281 405.230469 L 375.117188 405.242188 L 375.492188 405.253906 L 375.871094 405.265625 L 376.246094 405.277344 L 376.625 405.289062 L 377 405.300781 L 377.378906 405.3125 L 377.753906 405.324219 L 378.132812 405.335938 L 378.507812 405.347656 L 378.886719 405.359375 L 379.261719 405.371094 L 379.640625 405.382812 L 380.015625 405.394531 L 380.394531 405.40625 L 381.144531 405.429688 L 381.523438 405.441406 L 381.898438 405.453125 L 382.277344 405.464844 L 382.652344 405.476562 L 383.03125 405.488281 L 383.40625 405.5 L 383.785156 405.511719 L 384.160156 405.523438 L 384.539062 405.535156 L 384.914062 405.546875 L 385.292969 405.554688 L 385.667969 405.566406 L 386.046875 405.578125 L 386.421875 405.589844 L 386.800781 405.601562 L 387.550781 405.625 L 387.929688 405.632812 L 388.304688 405.644531 L 388.683594 405.65625 L 389.058594 405.667969 L 389.4375 405.679688 L 389.8125 405.691406 L 390.191406 405.699219 L 390.566406 405.710938 L 390.945312 405.722656 L 391.320312 405.734375 L 391.699219 405.742188 L 392.074219 405.753906 L 392.453125 405.765625 L 392.828125 405.777344 L 393.207031 405.785156 L 393.582031 405.796875 L 393.960938 405.808594 L 394.335938 405.820312 L 394.710938 405.828125 L 395.089844 405.839844 L 395.464844 405.851562 L 395.84375 405.859375 L 396.21875 405.871094 L 396.597656 405.882812 L 396.972656 405.890625 L 397.351562 405.902344 L 397.726562 405.914062 L 398.105469 405.921875 L 398.480469 405.933594 L 398.859375 405.945312 L 399.234375 405.953125 L 399.613281 405.964844 L 399.988281 405.976562 L 400.367188 405.984375 L 400.742188 405.996094 L 401.121094 406.003906 L 401.871094 406.027344 L 402.25 406.035156 L 402.625 406.046875 L 403.003906 406.054688 L 403.378906 406.066406 L 403.757812 406.074219 L 404.132812 406.085938 L 404.511719 406.09375 L 404.886719 406.105469 L 405.265625 406.113281 L 405.640625 406.125 L 406.019531 406.136719 L 406.394531 406.144531 L 406.773438 406.15625 L 407.148438 406.164062 L 407.527344 406.175781 L 408.277344 406.191406 L 408.65625 406.203125 L 409.03125 406.210938 L 409.410156 406.222656 L 409.785156 406.230469 L 410.164062 406.242188 L 410.539062 406.25 L 410.917969 406.261719 L 411.292969 406.269531 L 411.671875 406.277344 L 412.046875 406.289062 L 412.425781 406.296875 L 412.800781 406.308594 L 413.179688 406.316406 L 413.554688 406.328125 L 413.933594 406.335938 L 414.308594 406.34375 L 414.6875 406.355469 L 415.4375 406.371094 L 415.816406 406.382812 L 416.191406 406.390625 L 416.570312 406.398438 L 416.945312 406.410156 L 417.324219 406.417969 L 417.699219 406.425781 L 418.078125 406.4375 L 418.453125 406.445312 L 418.832031 406.453125 L 419.207031 406.464844 L 419.585938 406.472656 L 419.960938 406.480469 L 420.339844 406.492188 L 420.714844 406.5 L 421.09375 406.507812 L 421.46875 406.515625 L 421.847656 406.527344 L 422.597656 406.542969 L 422.976562 406.550781 L 423.351562 406.5625 L 423.730469 406.570312 L 424.105469 406.578125 L 424.484375 406.585938 L 424.859375 406.597656 L 425.238281 406.605469 L 425.613281 406.613281 L 425.992188 406.621094 L 426.367188 406.628906 L 426.746094 406.640625 L 427.121094 406.648438 L 427.5 406.65625 L 427.875 406.664062 L 428.253906 406.671875 L 428.628906 406.679688 L 429.007812 406.691406 L 429.757812 406.707031 L 430.136719 406.714844 L 430.511719 406.722656 L 430.890625 406.730469 L 431.265625 406.738281 L 431.644531 406.75 L 432.019531 406.757812 L 432.398438 406.765625 L 432.773438 406.773438 L 433.152344 406.78125 L 433.527344 406.789062 L 433.90625 406.796875 L 434.28125 406.804688 L 434.660156 406.8125 L 435.035156 406.820312 L 435.414062 406.828125 L 435.789062 406.839844 L 436.164062 406.847656 L 436.542969 406.855469 L 436.917969 406.863281 L 437.296875 406.871094 L 437.671875 406.878906 L 438.050781 406.886719 L 438.425781 406.894531 L 438.804688 406.902344 L 439.179688 406.910156 L 439.558594 406.917969 L 439.933594 406.925781 L 440.3125 406.933594 L 440.6875 406.941406 L 441.066406 406.949219 L 441.441406 406.957031 L 441.820312 406.964844 L 442.195312 406.972656 L 442.574219 406.980469 L 443.324219 406.996094 L 443.703125 407.003906 L 444.078125 407.011719 L 444.457031 407.019531 L 444.832031 407.027344 L 445.210938 407.03125 L 445.585938 407.039062 L 445.964844 407.046875 L 446.339844 407.054688 L 446.71875 407.0625 L 447.09375 407.070312 L 447.472656 407.078125 L 447.847656 407.085938 L 448.226562 407.09375 L 448.601562 407.101562 L 448.980469 407.109375 L 449.355469 407.113281 L 449.734375 407.121094 L 450.484375 407.136719 L 450.863281 407.144531 L 451.238281 407.152344 L 451.617188 407.160156 L 451.992188 407.167969 L 452.371094 407.171875 L 452.746094 407.179688 L 453.125 407.1875 L 453.5 407.195312 L 453.878906 407.203125 L 454.253906 407.210938 L 454.632812 407.214844 L 455.007812 407.222656 L 455.386719 407.230469 L 455.761719 407.238281 L 456.140625 407.246094 L 456.515625 407.25 L 456.894531 407.257812 L 457.644531 407.273438 L 458.023438 407.28125 L 458.398438 407.285156 "/>
<path style="fill:none;stroke-width:0.75;stroke-linecap:round;stroke-linejoin:round;stroke:rgb(0%,0%,0%);stroke-opacity:1;stroke-miterlimit:10;" d="M 81.929688 410.054688 L 82.304688 409.972656 L 82.683594 409.886719 L 83.058594 409.804688 L 83.4375 409.71875 L 83.8125 409.636719 L 84.191406 409.554688 L 84.566406 409.472656 L 84.945312 409.394531 L 85.320312 409.3125 L 85.699219 409.230469 L 86.074219 409.152344 L 86.453125 409.070312 L 86.828125 408.992188 L 87.207031 408.914062 L 87.957031 408.757812 L 88.335938 408.679688 L 88.710938 408.601562 L 89.089844 408.527344 L 89.464844 408.449219 L 89.84375 408.375 L 90.21875 408.296875 L 90.597656 408.222656 L 90.972656 408.148438 L 91.351562 408.074219 L 91.726562 408 L 92.105469 407.925781 L 92.480469 407.851562 L 92.859375 407.777344 L 93.234375 407.707031 L 93.613281 407.632812 L 93.988281 407.5625 L 94.367188 407.492188 L 94.742188 407.417969 L 95.117188 407.347656 L 95.496094 407.277344 L 95.871094 407.207031 L 96.25 407.140625 L 96.625 407.070312 L 97.003906 407 L 97.378906 406.933594 L 97.757812 406.863281 L 98.132812 406.796875 L 98.511719 406.730469 L 98.886719 406.660156 L 99.265625 406.59375 L 99.640625 406.527344 L 100.019531 406.460938 L 100.394531 406.398438 L 100.773438 406.332031 L 101.148438 406.265625 L 101.527344 406.203125 L 101.902344 406.136719 L 102.277344 406.074219 L 102.65625 406.011719 L 103.03125 405.945312 L 103.410156 405.882812 L 103.785156 405.820312 L 104.164062 405.757812 L 104.539062 405.695312 L 104.917969 405.636719 L 105.292969 405.574219 L 105.671875 405.511719 L 106.046875 405.453125 L 106.425781 405.390625 L 106.800781 405.332031 L 107.179688 405.273438 L 107.554688 405.214844 L 107.933594 405.15625 L 108.308594 405.097656 L 108.6875 405.039062 L 109.4375 404.921875 L 109.816406 404.863281 L 110.191406 404.808594 L 110.570312 404.75 L 110.945312 404.695312 L 111.324219 404.640625 L 111.699219 404.582031 L 112.078125 404.527344 L 112.453125 404.472656 L 112.832031 404.417969 L 113.207031 404.363281 L 113.585938 404.308594 L 113.960938 404.253906 L 114.339844 404.203125 L 114.714844 404.148438 L 115.09375 404.097656 L 115.46875 404.042969 L 115.84375 403.992188 L 116.222656 403.9375 L 116.597656 403.886719 L 116.976562 403.835938 L 117.351562 403.785156 L 117.730469 403.734375 L 118.105469 403.683594 L 118.484375 403.632812 L 118.859375 403.582031 L 119.238281 403.53125 L 119.613281 403.484375 L 119.992188 403.433594 L 120.367188 403.386719 L 120.746094 403.335938 L 121.121094 403.289062 L 121.5 403.242188 L 121.875 403.191406 L 122.253906 403.144531 L 123.003906 403.050781 L 123.382812 403.003906 L 123.757812 402.957031 L 124.136719 402.914062 L 124.511719 402.867188 L 124.890625 402.820312 L 125.265625 402.777344 L 125.644531 402.730469 L 126.019531 402.6875 L 126.398438 402.640625 L 126.773438 402.597656 L 127.152344 402.554688 L 127.527344 402.511719 L 127.90625 402.46875 L 128.28125 402.425781 L 128.660156 402.382812 L 129.035156 402.339844 L 129.414062 402.296875 L 130.164062 402.210938 L 130.542969 402.171875 L 130.917969 402.128906 L 131.296875 402.089844 L 131.671875 402.046875 L 132.050781 402.007812 L 132.425781 401.96875 L 132.804688 401.925781 L 133.179688 401.886719 L 133.558594 401.847656 L 133.933594 401.808594 L 134.3125 401.769531 L 134.6875 401.730469 L 135.066406 401.691406 L 135.441406 401.65625 L 135.820312 401.617188 L 136.195312 401.578125 L 136.574219 401.542969 L 136.949219 401.503906 L 137.324219 401.46875 L 137.703125 401.429688 L 138.078125 401.394531 L 138.457031 401.355469 L 138.832031 401.320312 L 139.210938 401.285156 L 139.585938 401.25 L 139.964844 401.214844 L 140.339844 401.179688 L 140.71875 401.144531 L 141.09375 401.109375 L 141.472656 401.074219 L 141.847656 401.039062 L 142.226562 401.007812 L 142.601562 400.972656 L 142.980469 400.9375 L 143.355469 400.90625 L 143.730469 400.871094 L 144.109375 400.839844 L 144.484375 400.808594 L 144.863281 400.773438 L 145.238281 400.742188 L 145.617188 400.710938 L 145.992188 400.679688 L 146.371094 400.648438 L 146.746094 400.617188 L 147.125 400.585938 L 147.5 400.554688 L 147.878906 400.523438 L 148.253906 400.492188 L 148.632812 400.460938 L 149.007812 400.433594 L 149.386719 400.402344 L 149.761719 400.371094 L 150.140625 400.34375 L 150.515625 400.3125 L 150.890625 400.285156 L 151.269531 400.257812 L 151.644531 400.226562 L 152.023438 400.199219 L 152.398438 400.171875 L 152.777344 400.144531 L 153.152344 400.113281 L 153.53125 400.085938 L 153.90625 400.058594 L 154.285156 400.03125 L 154.660156 400.003906 L 155.039062 399.980469 L 155.414062 399.953125 L 155.792969 399.925781 L 156.167969 399.898438 L 156.546875 399.875 L 156.921875 399.847656 L 157.300781 399.820312 L 157.675781 399.796875 L 158.050781 399.769531 L 158.429688 399.746094 L 158.804688 399.722656 L 159.183594 399.695312 L 159.558594 399.671875 L 159.9375 399.648438 L 160.3125 399.625 L 160.691406 399.601562 L 161.066406 399.574219 L 161.445312 399.550781 L 161.820312 399.527344 L 162.199219 399.503906 L 162.574219 399.484375 L 162.953125 399.460938 L 163.328125 399.4375 L 163.707031 399.414062 L 164.082031 399.390625 L 164.460938 399.371094 L 164.835938 399.347656 L 165.210938 399.328125 L 165.589844 399.304688 L 165.964844 399.285156 L 166.34375 399.261719 L 166.71875 399.242188 L 167.097656 399.21875 L 167.472656 399.199219 L 167.851562 399.179688 L 168.226562 399.160156 L 168.605469 399.136719 L 168.980469 399.117188 L 169.359375 399.097656 L 169.734375 399.078125 L 170.113281 399.058594 L 170.488281 399.039062 L 170.867188 399.019531 L 171.617188 398.980469 L 171.996094 398.964844 L 172.371094 398.945312 L 172.75 398.925781 L 173.125 398.910156 L 173.503906 398.890625 L 173.878906 398.871094 L 174.257812 398.855469 L 174.632812 398.835938 L 175.011719 398.820312 L 175.386719 398.800781 L 175.765625 398.785156 L 176.140625 398.769531 L 176.519531 398.75 L 176.894531 398.734375 L 177.273438 398.71875 L 177.648438 398.703125 L 178.027344 398.6875 L 178.402344 398.667969 L 178.777344 398.652344 L 179.15625 398.636719 L 179.53125 398.621094 L 179.910156 398.605469 L 180.285156 398.589844 L 180.664062 398.578125 L 181.039062 398.5625 L 181.417969 398.546875 L 181.792969 398.53125 L 182.171875 398.515625 L 182.546875 398.503906 L 182.925781 398.488281 L 183.300781 398.472656 L 183.679688 398.460938 L 184.054688 398.445312 L 184.433594 398.433594 L 184.808594 398.417969 L 185.1875 398.40625 L 185.5625 398.390625 L 185.9375 398.378906 L 186.316406 398.367188 L 186.691406 398.351562 L 187.070312 398.339844 L 187.445312 398.328125 L 187.824219 398.316406 L 188.199219 398.304688 L 188.578125 398.292969 L 188.953125 398.277344 L 189.332031 398.265625 L 189.707031 398.253906 L 190.085938 398.242188 L 190.460938 398.230469 L 190.839844 398.222656 L 191.214844 398.210938 L 191.59375 398.199219 L 191.96875 398.1875 L 192.347656 398.175781 L 192.722656 398.164062 L 193.097656 398.15625 L 193.476562 398.144531 L 193.851562 398.132812 L 194.230469 398.125 L 194.605469 398.113281 L 194.984375 398.105469 L 195.359375 398.09375 L 195.738281 398.085938 L 196.113281 398.074219 L 196.492188 398.066406 L 196.867188 398.054688 L 197.246094 398.046875 L 197.621094 398.039062 L 198 398.027344 L 198.375 398.019531 L 198.753906 398.011719 L 199.128906 398.003906 L 199.503906 397.992188 L 199.882812 397.984375 L 200.257812 397.976562 L 200.636719 397.96875 L 201.011719 397.960938 L 201.390625 397.953125 L 201.765625 397.945312 L 202.144531 397.9375 L 202.519531 397.929688 L 202.898438 397.921875 L 203.273438 397.914062 L 203.652344 397.90625 L 204.027344 397.898438 L 204.40625 397.894531 L 204.78125 397.886719 L 205.160156 397.878906 L 205.535156 397.871094 L 205.914062 397.867188 L 206.664062 397.851562 L 207.042969 397.847656 L 207.417969 397.839844 L 207.796875 397.835938 L 208.171875 397.828125 L 208.550781 397.824219 L 208.925781 397.816406 L 209.304688 397.8125 L 209.679688 397.804688 L 210.058594 397.800781 L 210.433594 397.796875 L 210.8125 397.789062 L 211.1875 397.785156 L 211.566406 397.78125 L 211.941406 397.773438 L 212.320312 397.769531 L 212.695312 397.765625 L 213.074219 397.761719 L 213.449219 397.757812 L 213.824219 397.75 L 214.203125 397.746094 L 214.578125 397.742188 L 214.957031 397.738281 L 215.332031 397.734375 L 215.710938 397.730469 L 216.085938 397.726562 L 216.464844 397.722656 L 216.839844 397.71875 L 217.21875 397.714844 L 217.59375 397.714844 L 217.972656 397.710938 L 218.347656 397.707031 L 218.726562 397.703125 L 219.101562 397.699219 L 219.480469 397.699219 L 220.230469 397.691406 L 220.609375 397.6875 L 220.984375 397.6875 L 221.363281 397.683594 L 221.738281 397.679688 L 222.117188 397.679688 L 222.492188 397.675781 L 222.871094 397.675781 L 223.246094 397.671875 L 223.625 397.671875 L 224 397.667969 L 224.378906 397.667969 L 224.753906 397.664062 L 225.132812 397.664062 L 225.507812 397.660156 L 226.261719 397.660156 L 226.640625 397.65625 L 227.390625 397.65625 L 227.769531 397.652344 L 229.277344 397.652344 L 229.652344 397.648438 L 235.304688 397.648438 L 235.683594 397.652344 L 237.191406 397.652344 L 237.566406 397.65625 L 238.699219 397.65625 L 239.074219 397.660156 L 239.453125 397.660156 L 239.828125 397.664062 L 240.582031 397.664062 L 240.960938 397.667969 L 241.335938 397.667969 L 241.710938 397.671875 L 242.089844 397.671875 L 242.464844 397.675781 L 242.84375 397.675781 L 243.21875 397.679688 L 243.597656 397.679688 L 243.972656 397.683594 L 244.351562 397.683594 L 244.726562 397.6875 L 245.105469 397.6875 L 245.480469 397.691406 L 245.859375 397.695312 L 246.234375 397.695312 L 246.613281 397.699219 L 246.988281 397.703125 L 247.367188 397.703125 L 248.117188 397.710938 L 248.496094 397.714844 L 248.871094 397.714844 L 249.25 397.71875 L 249.625 397.722656 L 250.003906 397.726562 L 250.378906 397.730469 L 250.757812 397.730469 L 251.132812 397.734375 L 251.511719 397.738281 L 251.886719 397.742188 L 252.265625 397.746094 L 252.640625 397.75 L 253.019531 397.753906 L 253.394531 397.757812 L 253.773438 397.761719 L 254.148438 397.765625 L 254.527344 397.769531 L 255.277344 397.777344 L 255.65625 397.78125 L 256.03125 397.785156 L 256.410156 397.789062 L 256.785156 397.792969 L 257.164062 397.796875 L 257.539062 397.800781 L 257.917969 397.804688 L 258.292969 397.808594 L 258.671875 397.816406 L 259.046875 397.820312 L 259.425781 397.824219 L 259.800781 397.828125 L 260.179688 397.832031 L 260.554688 397.839844 L 260.933594 397.84375 L 261.308594 397.847656 L 261.6875 397.851562 L 262.0625 397.859375 L 262.4375 397.863281 L 262.816406 397.867188 L 263.191406 397.871094 L 263.570312 397.878906 L 263.945312 397.882812 L 264.324219 397.890625 L 264.699219 397.894531 L 265.078125 397.898438 L 265.453125 397.90625 L 265.832031 397.910156 L 266.207031 397.914062 L 266.585938 397.921875 L 266.960938 397.925781 L 267.339844 397.933594 L 267.714844 397.9375 L 268.09375 397.945312 L 268.46875 397.949219 L 268.847656 397.957031 L 269.222656 397.960938 L 269.597656 397.96875 L 269.976562 397.972656 L 270.351562 397.980469 L 270.730469 397.984375 L 271.105469 397.992188 L 271.484375 398 L 271.859375 398.003906 L 272.238281 398.011719 L 272.613281 398.015625 L 272.992188 398.023438 L 273.367188 398.03125 L 273.746094 398.035156 L 274.121094 398.042969 L 274.5 398.050781 L 274.875 398.054688 L 275.253906 398.0625 L 275.628906 398.070312 L 276.003906 398.074219 L 276.382812 398.082031 L 276.757812 398.089844 L 277.136719 398.097656 L 277.511719 398.101562 L 277.890625 398.109375 L 278.265625 398.117188 L 278.644531 398.125 L 279.019531 398.128906 L 279.398438 398.136719 L 279.773438 398.144531 L 280.152344 398.152344 L 280.527344 398.160156 L 280.90625 398.167969 L 281.28125 398.171875 L 281.660156 398.179688 L 282.035156 398.1875 L 282.414062 398.195312 L 283.164062 398.210938 L 283.542969 398.21875 L 283.917969 398.226562 L 284.296875 398.234375 L 284.671875 398.242188 L 285.050781 398.25 L 285.425781 398.257812 L 285.804688 398.265625 L 286.179688 398.269531 L 286.558594 398.277344 L 286.933594 398.285156 L 287.3125 398.292969 L 287.6875 398.300781 L 288.066406 398.3125 L 288.441406 398.320312 L 288.820312 398.328125 L 289.195312 398.335938 L 289.574219 398.34375 L 290.324219 398.359375 L 290.703125 398.367188 L 291.078125 398.375 L 291.457031 398.382812 L 291.832031 398.390625 L 292.210938 398.398438 L 292.585938 398.40625 L 292.964844 398.417969 L 293.339844 398.425781 L 293.71875 398.433594 L 294.09375 398.441406 L 294.472656 398.449219 L 294.847656 398.457031 L 295.226562 398.46875 L 295.601562 398.476562 L 295.980469 398.484375 L 296.355469 398.492188 L 296.734375 398.5 L 297.109375 398.511719 L 297.484375 398.519531 L 297.863281 398.527344 L 298.238281 398.535156 L 298.617188 398.542969 L 298.992188 398.554688 L 299.371094 398.5625 L 299.746094 398.570312 L 300.125 398.582031 L 300.5 398.589844 L 300.878906 398.597656 L 301.253906 398.605469 L 301.632812 398.617188 L 302.007812 398.625 L 302.386719 398.632812 L 302.761719 398.644531 L 303.140625 398.652344 L 303.515625 398.660156 L 303.890625 398.671875 L 304.269531 398.679688 L 304.644531 398.6875 L 305.023438 398.699219 L 305.398438 398.707031 L 305.777344 398.714844 L 306.152344 398.726562 L 306.53125 398.734375 L 306.90625 398.746094 L 307.285156 398.753906 L 307.660156 398.761719 L 308.039062 398.773438 L 308.414062 398.78125 L 308.792969 398.792969 L 309.167969 398.800781 L 309.546875 398.8125 L 309.921875 398.820312 L 310.300781 398.828125 L 310.675781 398.839844 L 311.050781 398.847656 L 311.429688 398.859375 L 311.804688 398.867188 L 312.183594 398.878906 L 312.558594 398.886719 L 312.9375 398.898438 L 313.3125 398.90625 L 313.691406 398.917969 L 314.066406 398.925781 L 314.445312 398.9375 L 314.820312 398.945312 L 315.199219 398.957031 L 315.574219 398.964844 L 315.953125 398.976562 L 316.328125 398.984375 L 316.707031 398.996094 L 317.082031 399.003906 L 317.460938 399.015625 L 317.835938 399.027344 L 318.210938 399.035156 L 318.589844 399.046875 L 318.964844 399.054688 L 319.34375 399.066406 L 319.71875 399.074219 L 320.097656 399.085938 L 320.472656 399.097656 L 320.851562 399.105469 L 321.226562 399.117188 L 321.605469 399.125 L 321.980469 399.136719 L 322.359375 399.148438 L 322.734375 399.15625 L 323.113281 399.167969 L 323.488281 399.175781 L 323.867188 399.1875 L 324.242188 399.199219 L 324.621094 399.207031 L 325.371094 399.230469 L 325.75 399.238281 L 326.125 399.25 L 326.503906 399.257812 L 326.878906 399.269531 L 327.257812 399.28125 L 327.632812 399.289062 L 328.011719 399.300781 L 328.386719 399.3125 L 328.765625 399.324219 L 329.140625 399.332031 L 329.519531 399.34375 L 329.894531 399.355469 L 330.273438 399.363281 L 330.648438 399.375 L 331.027344 399.386719 L 331.402344 399.394531 L 331.777344 399.40625 L 332.15625 399.417969 L 332.53125 399.429688 L 332.910156 399.4375 L 333.285156 399.449219 L 333.664062 399.460938 L 334.039062 399.46875 L 334.417969 399.480469 L 334.792969 399.492188 L 335.171875 399.503906 L 335.546875 399.511719 L 335.925781 399.523438 L 336.300781 399.535156 L 336.679688 399.546875 L 337.054688 399.554688 L 337.433594 399.566406 L 337.808594 399.578125 L 338.1875 399.589844 L 338.5625 399.597656 L 338.9375 399.609375 L 339.316406 399.621094 L 339.691406 399.632812 L 340.070312 399.640625 L 340.445312 399.652344 L 340.824219 399.664062 L 341.199219 399.675781 L 341.578125 399.6875 L 341.953125 399.695312 L 342.332031 399.707031 L 342.707031 399.71875 L 343.085938 399.730469 L 343.460938 399.742188 L 343.839844 399.75 L 344.214844 399.761719 L 344.59375 399.773438 L 344.96875 399.785156 L 345.347656 399.796875 L 345.722656 399.804688 L 346.097656 399.816406 L 346.476562 399.828125 L 346.851562 399.839844 L 347.230469 399.851562 L 347.605469 399.863281 L 347.984375 399.871094 L 348.359375 399.882812 L 348.738281 399.894531 L 349.113281 399.90625 L 349.492188 399.917969 L 349.867188 399.929688 L 350.246094 399.9375 L 350.621094 399.949219 L 351 399.960938 L 351.375 399.972656 L 351.753906 399.984375 L 352.128906 399.996094 L 352.507812 400.007812 L 352.882812 400.015625 L 353.257812 400.027344 L 353.636719 400.039062 L 354.011719 400.050781 L 354.390625 400.0625 L 354.765625 400.074219 L 355.144531 400.085938 L 355.519531 400.09375 L 355.898438 400.105469 L 356.273438 400.117188 L 356.652344 400.128906 L 357.027344 400.140625 L 357.40625 400.152344 L 357.78125 400.164062 L 358.160156 400.175781 L 358.535156 400.183594 L 358.914062 400.195312 L 359.664062 400.21875 L 360.042969 400.230469 L 360.417969 400.242188 L 360.796875 400.253906 L 361.171875 400.265625 L 361.550781 400.277344 L 361.925781 400.285156 L 362.304688 400.296875 L 362.679688 400.308594 L 363.058594 400.320312 L 363.433594 400.332031 L 363.8125 400.34375 L 364.1875 400.355469 L 364.566406 400.367188 L 364.941406 400.378906 L 365.320312 400.386719 L 365.695312 400.398438 L 366.074219 400.410156 L 366.824219 400.433594 L 367.203125 400.445312 L 367.578125 400.457031 L 367.957031 400.46875 L 368.332031 400.480469 L 368.710938 400.492188 L 369.085938 400.503906 L 369.464844 400.511719 L 369.839844 400.523438 L 370.21875 400.535156 L 370.59375 400.546875 L 370.972656 400.558594 L 371.347656 400.570312 L 371.726562 400.582031 L 372.101562 400.59375 L 372.480469 400.605469 L 372.855469 400.617188 L 373.234375 400.628906 L 373.609375 400.640625 L 373.984375 400.648438 L 374.363281 400.660156 L 374.738281 400.671875 L 375.117188 400.683594 L 375.492188 400.695312 L 375.871094 400.707031 L 376.246094 400.71875 L 376.625 400.730469 L 377 400.742188 L 377.378906 400.753906 L 377.753906 400.765625 L 378.132812 400.777344 L 378.507812 400.785156 L 378.886719 400.796875 L 379.261719 400.808594 L 379.640625 400.820312 L 380.015625 400.832031 L 380.394531 400.84375 L 381.144531 400.867188 L 381.523438 400.878906 L 381.898438 400.890625 L 382.277344 400.902344 L 382.652344 400.914062 L 383.03125 400.925781 L 383.40625 400.933594 L 383.785156 400.945312 L 384.160156 400.957031 L 384.539062 400.96875 L 384.914062 400.980469 L 385.292969 400.992188 L 385.667969 401.003906 L 386.046875 401.015625 L 386.421875 401.027344 L 386.800781 401.039062 L 387.550781 401.0625 L 387.929688 401.074219 L 388.304688 401.085938 L 388.683594 401.09375 L 389.058594 401.105469 L 389.4375 401.117188 L 389.8125 401.128906 L 390.191406 401.140625 L 390.566406 401.152344 L 390.945312 401.164062 L 391.320312 401.175781 L 391.699219 401.1875 L 392.074219 401.199219 L 392.453125 401.210938 L 392.828125 401.222656 L 393.207031 401.230469 L 393.582031 401.242188 L 393.960938 401.253906 L 394.710938 401.277344 L 395.089844 401.289062 L 395.464844 401.300781 L 395.84375 401.3125 L 396.21875 401.324219 L 396.597656 401.335938 L 396.972656 401.347656 L 397.351562 401.359375 L 397.726562 401.367188 L 398.105469 401.378906 L 398.480469 401.390625 L 398.859375 401.402344 L 399.234375 401.414062 L 399.613281 401.425781 L 399.988281 401.4375 L 400.367188 401.449219 L 400.742188 401.460938 L 401.121094 401.472656 L 401.496094 401.484375 L 401.871094 401.492188 L 402.25 401.503906 L 402.625 401.515625 L 403.003906 401.527344 L 403.378906 401.539062 L 403.757812 401.550781 L 404.132812 401.5625 L 404.511719 401.574219 L 404.886719 401.585938 L 405.265625 401.597656 L 405.640625 401.605469 L 406.019531 401.617188 L 406.394531 401.628906 L 406.773438 401.640625 L 407.148438 401.652344 L 407.527344 401.664062 L 408.277344 401.6875 L 408.65625 401.699219 L 409.03125 401.707031 L 409.410156 401.71875 L 409.785156 401.730469 L 410.164062 401.742188 L 410.539062 401.753906 L 410.917969 401.765625 L 411.292969 401.777344 L 411.671875 401.789062 L 412.046875 401.796875 L 412.425781 401.808594 L 412.800781 401.820312 L 413.179688 401.832031 L 413.554688 401.84375 L 413.933594 401.855469 L 414.308594 401.867188 L 414.6875 401.878906 L 415.0625 401.886719 L 415.4375 401.898438 L 415.816406 401.910156 L 416.191406 401.921875 L 416.570312 401.933594 L 416.945312 401.945312 L 417.324219 401.957031 L 417.699219 401.964844 L 418.078125 401.976562 L 418.453125 401.988281 L 418.832031 402 L 419.207031 402.011719 L 419.585938 402.023438 L 419.960938 402.035156 L 420.339844 402.042969 L 420.714844 402.054688 L 421.09375 402.066406 L 421.46875 402.078125 L 421.847656 402.089844 L 422.597656 402.113281 L 422.976562 402.121094 L 423.351562 402.132812 L 423.730469 402.144531 L 424.105469 402.15625 L 424.484375 402.167969 L 424.859375 402.179688 L 425.238281 402.1875 L 425.613281 402.199219 L 425.992188 402.210938 L 426.367188 402.222656 L 426.746094 402.234375 L 427.121094 402.242188 L 427.5 402.253906 L 427.875 402.265625 L 428.253906 402.277344 L 428.628906 402.289062 L 429.007812 402.300781 L 429.382812 402.308594 L 429.757812 402.320312 L 430.136719 402.332031 L 430.511719 402.34375 L 430.890625 402.355469 L 431.265625 402.363281 L 431.644531 402.375 L 432.019531 402.386719 L 432.398438 402.398438 L 432.773438 402.410156 L 433.152344 402.417969 L 433.527344 402.429688 L 433.90625 402.441406 L 434.28125 402.453125 L 434.660156 402.464844 L 435.035156 402.472656 L 435.414062 402.484375 L 436.164062 402.507812 L 436.542969 402.515625 L 436.917969 402.527344 L 437.296875 402.539062 L 437.671875 402.550781 L 438.050781 402.5625 L 438.425781 402.570312 L 438.804688 402.582031 L 439.179688 402.59375 L 439.558594 402.605469 L 439.933594 402.613281 L 440.3125 402.625 L 440.6875 402.636719 L 441.066406 402.648438 L 441.441406 402.65625 L 441.820312 402.667969 L 442.195312 402.679688 L 442.574219 402.691406 L 442.949219 402.699219 L 443.324219 402.710938 L 443.703125 402.722656 L 444.078125 402.734375 L 444.457031 402.742188 L 444.832031 402.753906 L 445.210938 402.765625 L 445.585938 402.777344 L 445.964844 402.785156 L 446.339844 402.796875 L 446.71875 402.808594 L 447.09375 402.820312 L 447.472656 402.828125 L 447.847656 402.839844 L 448.226562 402.851562 L 448.601562 402.859375 L 448.980469 402.871094 L 449.355469 402.882812 L 449.734375 402.894531 L 450.109375 402.902344 L 450.484375 402.914062 L 450.863281 402.925781 L 451.238281 402.933594 L 451.617188 402.945312 L 451.992188 402.957031 L 452.371094 402.964844 L 452.746094 402.976562 L 453.125 402.988281 L 453.5 403 L 453.878906 403.007812 L 454.253906 403.019531 L 454.632812 403.03125 L 455.007812 403.039062 L 455.386719 403.050781 L 455.761719 403.0625 L 456.140625 403.070312 L 456.515625 403.082031 L 456.894531 403.09375 L 457.269531 403.101562 L 457.644531 403.113281 L 458.023438 403.125 L 458.398438 403.132812 "/>
<g clip-path="url(#clip1)" clip-rule="nonzero">
<path style="fill:none;stroke-width:0.75;stroke-linecap:round;stroke-linejoin:round;stroke:rgb(0%,0%,0%);stroke-opacity:1;stroke-miterlimit:10;" d="M 82.304688 30.644531 L 82.683594 142.441406 L 83.058594 192.097656 L 83.4375 221.769531 L 83.8125 242.066406 L 84.191406 257.085938 L 84.566406 268.789062 L 84.945312 278.242188 L 85.320312 286.089844 L 85.699219 292.746094 L 86.074219 298.484375 L 86.453125 303.503906 L 86.828125 307.9375 L 87.207031 311.898438 L 87.582031 315.464844 L 87.957031 318.695312 L 88.335938 321.644531 L 88.710938 324.351562 L 89.089844 326.847656 L 89.464844 329.15625 L 89.84375 331.300781 L 90.21875 333.304688 L 90.597656 335.179688 L 90.972656 336.941406 L 91.351562 338.597656 L 91.726562 340.160156 L 92.105469 341.636719 L 92.480469 343.039062 L 92.859375 344.367188 L 93.234375 345.632812 L 93.613281 346.839844 L 93.988281 347.992188 L 94.367188 349.089844 L 94.742188 350.144531 L 95.117188 351.152344 L 95.496094 352.121094 L 95.871094 353.054688 L 96.25 353.949219 L 96.625 354.8125 L 97.003906 355.644531 L 97.378906 356.445312 L 97.757812 357.21875 L 98.132812 357.96875 L 98.511719 358.691406 L 98.886719 359.394531 L 99.265625 360.070312 L 99.640625 360.730469 L 100.019531 361.367188 L 100.394531 361.988281 L 100.773438 362.589844 L 101.148438 363.175781 L 101.527344 363.746094 L 101.902344 364.296875 L 102.277344 364.835938 L 102.65625 365.363281 L 103.03125 365.875 L 103.410156 366.371094 L 103.785156 366.859375 L 104.164062 367.332031 L 104.539062 367.796875 L 104.917969 368.25 L 105.292969 368.691406 L 105.671875 369.125 L 106.046875 369.546875 L 106.425781 369.960938 L 106.800781 370.363281 L 107.179688 370.757812 L 107.554688 371.148438 L 107.933594 371.527344 L 108.308594 371.898438 L 108.6875 372.261719 L 109.0625 372.621094 L 109.4375 372.96875 L 109.816406 373.3125 L 110.191406 373.652344 L 110.570312 373.980469 L 110.945312 374.304688 L 111.324219 374.625 L 111.699219 374.9375 L 112.078125 375.246094 L 112.453125 375.546875 L 112.832031 375.84375 L 113.207031 376.136719 L 113.585938 376.421875 L 113.960938 376.703125 L 114.339844 376.980469 L 114.714844 377.253906 L 115.09375 377.523438 L 115.84375 378.046875 L 116.222656 378.300781 L 116.597656 378.554688 L 116.976562 378.804688 L 117.351562 379.046875 L 117.730469 379.289062 L 118.105469 379.523438 L 118.484375 379.757812 L 118.859375 379.988281 L 119.238281 380.214844 L 119.613281 380.441406 L 119.992188 380.660156 L 120.367188 380.878906 L 120.746094 381.09375 L 121.121094 381.304688 L 121.5 381.511719 L 121.875 381.71875 L 122.253906 381.921875 L 123.003906 382.320312 L 123.382812 382.515625 L 123.757812 382.707031 L 124.136719 382.898438 L 124.511719 383.085938 L 124.890625 383.273438 L 125.265625 383.457031 L 125.644531 383.636719 L 126.019531 383.816406 L 126.398438 383.992188 L 126.773438 384.167969 L 127.152344 384.339844 L 127.527344 384.511719 L 127.90625 384.679688 L 128.28125 384.84375 L 128.660156 385.011719 L 129.035156 385.171875 L 129.414062 385.332031 L 129.789062 385.492188 L 130.164062 385.648438 L 130.542969 385.804688 L 130.917969 385.960938 L 131.296875 386.113281 L 131.671875 386.261719 L 132.050781 386.410156 L 132.425781 386.558594 L 132.804688 386.703125 L 133.179688 386.847656 L 133.558594 386.992188 L 133.933594 387.132812 L 134.3125 387.269531 L 134.6875 387.410156 L 135.066406 387.546875 L 135.441406 387.683594 L 135.820312 387.816406 L 136.195312 387.949219 L 136.574219 388.082031 L 137.324219 388.339844 L 137.703125 388.464844 L 138.078125 388.59375 L 138.457031 388.71875 L 138.832031 388.84375 L 139.210938 388.964844 L 139.585938 389.085938 L 139.964844 389.207031 L 140.339844 389.328125 L 140.71875 389.445312 L 141.09375 389.5625 L 141.472656 389.675781 L 141.847656 389.792969 L 142.226562 389.90625 L 142.601562 390.019531 L 142.980469 390.132812 L 143.730469 390.351562 L 144.109375 390.460938 L 144.484375 390.570312 L 144.863281 390.675781 L 145.238281 390.78125 L 145.617188 390.886719 L 145.992188 390.992188 L 146.371094 391.09375 L 146.746094 391.195312 L 147.125 391.296875 L 147.5 391.398438 L 147.878906 391.5 L 148.253906 391.597656 L 148.632812 391.695312 L 149.007812 391.792969 L 149.386719 391.890625 L 149.761719 391.984375 L 150.140625 392.082031 L 150.890625 392.269531 L 151.269531 392.363281 L 151.644531 392.453125 L 152.023438 392.542969 L 152.398438 392.636719 L 152.777344 392.726562 L 153.152344 392.8125 L 153.53125 392.902344 L 153.90625 392.992188 L 154.285156 393.078125 L 154.660156 393.164062 L 155.039062 393.25 L 155.414062 393.335938 L 155.792969 393.417969 L 156.167969 393.503906 L 156.546875 393.585938 L 156.921875 393.667969 L 157.300781 393.75 L 157.675781 393.832031 L 158.050781 393.910156 L 158.429688 393.992188 L 158.804688 394.070312 L 159.183594 394.148438 L 159.558594 394.230469 L 159.9375 394.304688 L 160.3125 394.382812 L 160.691406 394.460938 L 161.066406 394.535156 L 161.445312 394.613281 L 161.820312 394.6875 L 162.199219 394.761719 L 162.574219 394.835938 L 162.953125 394.910156 L 163.328125 394.980469 L 163.707031 395.054688 L 164.082031 395.125 L 164.460938 395.195312 L 164.835938 395.269531 L 165.210938 395.339844 L 165.589844 395.40625 L 165.964844 395.476562 L 166.34375 395.546875 L 166.71875 395.613281 L 167.097656 395.683594 L 167.472656 395.75 L 167.851562 395.816406 L 168.226562 395.882812 L 168.605469 395.949219 L 168.980469 396.015625 L 169.359375 396.082031 L 169.734375 396.144531 L 170.113281 396.210938 L 170.488281 396.273438 L 170.867188 396.339844 L 171.617188 396.464844 L 171.996094 396.527344 L 172.371094 396.589844 L 172.75 396.648438 L 173.125 396.710938 L 173.503906 396.773438 L 173.878906 396.832031 L 174.257812 396.890625 L 174.632812 396.953125 L 175.011719 397.011719 L 175.386719 397.070312 L 175.765625 397.128906 L 176.140625 397.1875 L 176.519531 397.246094 L 176.894531 397.300781 L 177.273438 397.359375 L 177.648438 397.414062 L 178.027344 397.472656 L 178.777344 397.582031 L 179.15625 397.640625 L 179.53125 397.695312 L 179.910156 397.75 L 180.285156 397.800781 L 180.664062 397.855469 L 181.039062 397.910156 L 181.417969 397.964844 L 181.792969 398.015625 L 182.171875 398.070312 L 182.546875 398.121094 L 182.925781 398.171875 L 183.300781 398.226562 L 183.679688 398.277344 L 184.054688 398.328125 L 184.433594 398.378906 L 184.808594 398.429688 L 185.1875 398.480469 L 185.5625 398.53125 L 185.9375 398.578125 L 186.316406 398.628906 L 186.691406 398.675781 L 187.070312 398.726562 L 187.445312 398.773438 L 187.824219 398.824219 L 188.199219 398.871094 L 188.578125 398.917969 L 188.953125 398.964844 L 189.332031 399.011719 L 189.707031 399.058594 L 190.085938 399.105469 L 190.460938 399.152344 L 190.839844 399.199219 L 191.214844 399.246094 L 191.59375 399.289062 L 191.96875 399.335938 L 192.347656 399.382812 L 193.097656 399.46875 L 193.476562 399.515625 L 193.851562 399.558594 L 194.230469 399.601562 L 194.605469 399.644531 L 194.984375 399.6875 L 195.359375 399.734375 L 195.738281 399.777344 L 196.113281 399.816406 L 196.492188 399.859375 L 196.867188 399.902344 L 197.246094 399.945312 L 197.621094 399.984375 L 198 400.027344 L 198.375 400.070312 L 198.753906 400.109375 L 199.128906 400.152344 L 199.503906 400.191406 L 199.882812 400.230469 L 200.257812 400.273438 L 200.636719 400.3125 L 201.011719 400.351562 L 201.390625 400.390625 L 201.765625 400.429688 L 202.144531 400.46875 L 202.519531 400.507812 L 202.898438 400.546875 L 203.273438 400.585938 L 203.652344 400.625 L 204.027344 400.664062 L 204.40625 400.699219 L 204.78125 400.738281 L 205.160156 400.773438 L 205.535156 400.8125 L 205.914062 400.851562 L 206.664062 400.921875 L 207.042969 400.960938 L 207.417969 400.996094 L 207.796875 401.03125 L 208.171875 401.070312 L 208.550781 401.105469 L 208.925781 401.140625 L 209.304688 401.175781 L 209.679688 401.210938 L 210.058594 401.246094 L 210.433594 401.28125 L 210.8125 401.316406 L 211.1875 401.351562 L 211.566406 401.382812 L 211.941406 401.417969 L 212.320312 401.453125 L 212.695312 401.488281 L 213.074219 401.519531 L 213.449219 401.554688 L 213.824219 401.585938 L 214.203125 401.621094 L 214.578125 401.652344 L 214.957031 401.6875 L 215.332031 401.71875 L 215.710938 401.75 L 216.085938 401.785156 L 216.464844 401.816406 L 216.839844 401.847656 L 217.21875 401.878906 L 217.59375 401.910156 L 217.972656 401.945312 L 218.347656 401.976562 L 218.726562 402.007812 L 219.101562 402.039062 L 219.480469 402.066406 L 220.230469 402.128906 L 220.609375 402.160156 L 220.984375 402.191406 L 221.363281 402.222656 L 221.738281 402.25 L 222.117188 402.28125 L 222.492188 402.3125 L 222.871094 402.339844 L 223.246094 402.371094 L 223.625 402.398438 L 224 402.429688 L 224.378906 402.457031 L 224.753906 402.488281 L 225.132812 402.515625 L 225.507812 402.542969 L 225.886719 402.574219 L 226.261719 402.601562 L 226.640625 402.628906 L 227.015625 402.65625 L 227.390625 402.6875 L 227.769531 402.714844 L 228.144531 402.742188 L 228.523438 402.769531 L 228.898438 402.796875 L 229.277344 402.824219 L 229.652344 402.851562 L 230.03125 402.878906 L 230.40625 402.90625 L 230.785156 402.933594 L 231.160156 402.960938 L 231.539062 402.984375 L 231.914062 403.011719 L 232.292969 403.039062 L 232.667969 403.066406 L 233.046875 403.089844 L 233.421875 403.117188 L 233.800781 403.144531 L 234.175781 403.167969 L 234.550781 403.195312 L 234.929688 403.222656 L 235.304688 403.246094 L 235.683594 403.273438 L 236.058594 403.296875 L 236.4375 403.320312 L 236.8125 403.347656 L 237.191406 403.371094 L 237.566406 403.398438 L 237.945312 403.421875 L 238.320312 403.445312 L 238.699219 403.46875 L 239.074219 403.496094 L 239.453125 403.519531 L 239.828125 403.542969 L 240.207031 403.566406 L 240.582031 403.589844 L 240.960938 403.613281 L 241.710938 403.660156 L 242.089844 403.683594 L 242.464844 403.707031 L 242.84375 403.730469 L 243.21875 403.753906 L 243.597656 403.777344 L 243.972656 403.800781 L 244.351562 403.824219 L 244.726562 403.847656 L 245.105469 403.871094 L 245.480469 403.890625 L 245.859375 403.914062 L 246.234375 403.9375 L 246.613281 403.960938 L 246.988281 403.980469 L 247.367188 404.003906 L 247.742188 404.027344 L 248.117188 404.046875 L 248.496094 404.070312 L 248.871094 404.089844 L 249.25 404.113281 L 249.625 404.132812 L 250.003906 404.15625 L 250.378906 404.175781 L 250.757812 404.199219 L 251.132812 404.21875 L 251.511719 404.242188 L 251.886719 404.261719 L 252.265625 404.28125 L 252.640625 404.304688 L 253.019531 404.324219 L 253.394531 404.34375 L 253.773438 404.363281 L 254.148438 404.386719 L 254.527344 404.40625 L 255.277344 404.445312 L 255.65625 404.464844 L 256.03125 404.484375 L 256.410156 404.507812 L 256.785156 404.527344 L 257.164062 404.546875 L 257.539062 404.566406 L 257.917969 404.585938 L 258.292969 404.605469 L 258.671875 404.625 L 259.046875 404.644531 L 259.425781 404.664062 L 259.800781 404.679688 L 260.179688 404.699219 L 260.554688 404.71875 L 260.933594 404.738281 L 261.308594 404.757812 L 261.6875 404.777344 L 262.0625 404.796875 L 262.4375 404.8125 L 262.816406 404.832031 L 263.191406 404.851562 L 263.570312 404.867188 L 263.945312 404.886719 L 264.324219 404.90625 L 264.699219 404.921875 L 265.078125 404.941406 L 265.453125 404.960938 L 265.832031 404.976562 L 266.207031 404.996094 L 266.585938 405.011719 L 266.960938 405.03125 L 267.339844 405.050781 L 267.714844 405.066406 L 268.09375 405.082031 L 268.46875 405.101562 L 268.847656 405.117188 L 269.222656 405.136719 L 269.597656 405.152344 L 269.976562 405.171875 L 270.351562 405.1875 L 270.730469 405.203125 L 271.105469 405.222656 L 271.484375 405.238281 L 271.859375 405.253906 L 272.238281 405.273438 L 272.613281 405.289062 L 272.992188 405.304688 L 273.367188 405.320312 L 273.746094 405.339844 L 274.121094 405.355469 L 274.5 405.371094 L 274.875 405.386719 L 275.253906 405.402344 L 275.628906 405.417969 L 276.003906 405.4375 L 276.382812 405.453125 L 276.757812 405.46875 L 277.136719 405.484375 L 277.511719 405.5 L 277.890625 405.515625 L 278.265625 405.53125 L 278.644531 405.546875 L 279.019531 405.5625 L 279.398438 405.578125 L 279.773438 405.59375 L 280.152344 405.609375 L 280.527344 405.625 L 280.90625 405.640625 L 281.28125 405.652344 L 281.660156 405.667969 L 282.035156 405.683594 L 282.414062 405.699219 L 283.164062 405.730469 L 283.542969 405.742188 L 283.917969 405.757812 L 284.296875 405.773438 L 284.671875 405.789062 L 285.050781 405.804688 L 285.425781 405.816406 L 285.804688 405.832031 L 286.179688 405.847656 L 286.558594 405.859375 L 286.933594 405.875 L 287.3125 405.890625 L 287.6875 405.902344 L 288.066406 405.917969 L 288.441406 405.933594 L 288.820312 405.945312 L 289.195312 405.960938 L 289.574219 405.972656 L 289.949219 405.988281 L 290.324219 406 L 290.703125 406.015625 L 291.078125 406.027344 L 291.457031 406.042969 L 291.832031 406.054688 L 292.210938 406.070312 L 292.585938 406.082031 L 292.964844 406.097656 L 293.339844 406.109375 L 293.71875 406.125 L 294.09375 406.136719 L 294.472656 406.148438 L 294.847656 406.164062 L 295.226562 406.175781 L 295.601562 406.191406 L 295.980469 406.203125 L 296.355469 406.214844 L 296.734375 406.230469 L 297.484375 406.253906 L 297.863281 406.265625 L 298.238281 406.28125 L 298.617188 406.292969 L 298.992188 406.304688 L 299.371094 406.316406 L 299.746094 406.332031 L 300.125 406.34375 L 300.5 406.355469 L 300.878906 406.367188 L 301.253906 406.378906 L 301.632812 406.394531 L 302.007812 406.40625 L 302.386719 406.417969 L 302.761719 406.429688 L 303.140625 406.441406 L 303.890625 406.464844 L 304.269531 406.476562 L 304.644531 406.488281 L 305.023438 406.5 L 305.398438 406.511719 L 305.777344 406.523438 L 306.152344 406.535156 L 306.53125 406.546875 L 306.90625 406.558594 L 307.285156 406.570312 L 307.660156 406.582031 L 308.039062 406.59375 L 308.414062 406.605469 L 308.792969 406.617188 L 309.167969 406.628906 L 309.546875 406.640625 L 309.921875 406.652344 L 310.300781 406.664062 L 311.050781 406.6875 L 311.429688 406.699219 L 311.804688 406.707031 L 312.183594 406.71875 L 312.558594 406.730469 L 312.9375 406.742188 L 313.3125 406.753906 L 313.691406 406.761719 L 314.066406 406.773438 L 314.445312 406.785156 L 314.820312 406.796875 L 315.199219 406.808594 L 315.574219 406.816406 L 315.953125 406.828125 L 316.328125 406.839844 L 316.707031 406.851562 L 317.082031 406.859375 L 317.460938 406.871094 L 317.835938 406.882812 L 318.210938 406.890625 L 318.589844 406.902344 L 318.964844 406.914062 L 319.34375 406.921875 L 319.71875 406.933594 L 320.097656 406.945312 L 320.472656 406.953125 L 320.851562 406.964844 L 321.226562 406.972656 L 321.605469 406.984375 L 321.980469 406.996094 L 322.359375 407.003906 L 322.734375 407.015625 L 323.113281 407.023438 L 323.488281 407.035156 L 323.867188 407.042969 L 324.242188 407.054688 L 324.621094 407.0625 L 324.996094 407.074219 L 325.371094 407.082031 L 325.75 407.09375 L 326.125 407.101562 L 326.503906 407.113281 L 326.878906 407.121094 L 327.257812 407.132812 L 327.632812 407.140625 L 328.011719 407.152344 L 328.386719 407.160156 L 328.765625 407.167969 L 329.140625 407.179688 L 329.519531 407.1875 L 329.894531 407.199219 L 330.273438 407.207031 L 330.648438 407.214844 L 331.027344 407.226562 L 331.777344 407.242188 L 332.15625 407.253906 L 332.53125 407.261719 L 332.910156 407.269531 L 333.285156 407.28125 L 333.664062 407.289062 L 334.039062 407.296875 L 334.417969 407.308594 L 334.792969 407.316406 L 335.171875 407.324219 L 335.546875 407.332031 L 335.925781 407.34375 L 336.300781 407.351562 L 336.679688 407.359375 L 337.054688 407.367188 L 337.433594 407.378906 L 337.808594 407.386719 L 338.1875 407.394531 L 338.9375 407.410156 L 339.316406 407.421875 L 339.691406 407.429688 L 340.070312 407.4375 L 340.445312 407.445312 L 340.824219 407.453125 L 341.199219 407.460938 L 341.578125 407.472656 L 341.953125 407.480469 L 342.332031 407.488281 L 342.707031 407.496094 L 343.085938 407.503906 L 343.460938 407.511719 L 343.839844 407.519531 L 344.214844 407.527344 L 344.59375 407.535156 L 344.96875 407.546875 L 345.347656 407.554688 L 346.097656 407.570312 L 346.476562 407.578125 L 346.851562 407.585938 L 347.230469 407.59375 L 347.605469 407.601562 L 347.984375 407.609375 L 348.359375 407.617188 L 348.738281 407.625 L 349.113281 407.632812 L 349.492188 407.640625 L 349.867188 407.648438 L 350.246094 407.65625 L 350.621094 407.664062 L 351 407.671875 L 351.375 407.679688 L 351.753906 407.6875 L 352.128906 407.695312 L 352.507812 407.699219 L 353.257812 407.714844 L 353.636719 407.722656 L 354.011719 407.730469 L 354.390625 407.738281 L 354.765625 407.746094 L 355.144531 407.753906 L 355.519531 407.761719 L 355.898438 407.769531 L 356.273438 407.773438 L 356.652344 407.78125 L 357.027344 407.789062 L 357.40625 407.796875 L 357.78125 407.804688 L 358.160156 407.8125 L 358.535156 407.816406 L 358.914062 407.824219 L 359.664062 407.839844 L 360.042969 407.847656 L 360.417969 407.851562 L 360.796875 407.859375 L 361.171875 407.867188 L 361.550781 407.875 L 361.925781 407.882812 L 362.304688 407.886719 L 362.679688 407.894531 L 363.058594 407.902344 L 363.433594 407.910156 L 363.8125 407.914062 L 364.1875 407.921875 L 364.566406 407.929688 L 364.941406 407.9375 L 365.320312 407.941406 L 365.695312 407.949219 L 366.074219 407.957031 L 366.449219 407.960938 L 366.824219 407.96875 L 367.203125 407.976562 L 367.578125 407.980469 L 367.957031 407.988281 L 368.332031 407.996094 L 368.710938 408 L 369.085938 408.007812 L 369.464844 408.015625 L 369.839844 408.019531 L 370.21875 408.027344 L 370.59375 408.035156 L 370.972656 408.039062 L 371.347656 408.046875 L 371.726562 408.054688 L 372.101562 408.058594 L 372.480469 408.066406 L 372.855469 408.070312 L 373.234375 408.078125 L 373.609375 408.085938 L 373.984375 408.089844 L 374.363281 408.097656 L 374.738281 408.101562 L 375.117188 408.109375 L 375.492188 408.113281 L 375.871094 408.121094 L 376.246094 408.128906 L 376.625 408.132812 L 377 408.140625 L 377.378906 408.144531 L 377.753906 408.152344 L 378.132812 408.15625 L 378.507812 408.164062 L 378.886719 408.167969 L 379.261719 408.175781 L 379.640625 408.179688 L 380.015625 408.1875 L 380.394531 408.191406 L 380.769531 408.199219 L 381.144531 408.203125 L 381.523438 408.210938 L 381.898438 408.214844 L 382.277344 408.222656 L 382.652344 408.226562 L 383.03125 408.234375 L 383.40625 408.238281 L 383.785156 408.246094 L 384.160156 408.25 L 384.539062 408.253906 L 384.914062 408.261719 L 385.292969 408.265625 L 385.667969 408.273438 L 386.046875 408.277344 L 386.421875 408.285156 L 386.800781 408.289062 L 387.175781 408.292969 L 387.550781 408.300781 L 387.929688 408.304688 L 388.304688 408.3125 L 388.683594 408.316406 L 389.058594 408.320312 L 389.4375 408.328125 L 389.8125 408.332031 L 390.191406 408.335938 L 390.566406 408.34375 L 390.945312 408.347656 L 391.320312 408.355469 L 391.699219 408.359375 L 392.074219 408.363281 L 392.453125 408.371094 L 392.828125 408.375 L 393.207031 408.378906 L 393.582031 408.386719 L 393.960938 408.390625 L 394.335938 408.394531 L 394.710938 408.402344 L 395.089844 408.40625 L 395.464844 408.410156 L 395.84375 408.414062 L 396.21875 408.421875 L 396.597656 408.425781 L 396.972656 408.429688 L 397.351562 408.4375 L 397.726562 408.441406 L 398.105469 408.445312 L 398.480469 408.453125 L 398.859375 408.457031 L 399.234375 408.460938 L 399.613281 408.464844 L 399.988281 408.472656 L 400.367188 408.476562 L 400.742188 408.480469 L 401.121094 408.484375 L 401.496094 408.492188 L 401.871094 408.496094 L 402.25 408.5 L 402.625 408.503906 L 403.003906 408.507812 L 403.378906 408.515625 L 403.757812 408.519531 L 404.132812 408.523438 L 404.511719 408.527344 L 404.886719 408.535156 L 405.265625 408.539062 L 405.640625 408.542969 L 406.019531 408.546875 L 406.394531 408.550781 L 406.773438 408.554688 L 407.148438 408.5625 L 407.527344 408.566406 L 408.277344 408.574219 L 408.65625 408.578125 L 409.03125 408.585938 L 409.410156 408.589844 L 409.785156 408.59375 L 410.164062 408.597656 L 410.539062 408.601562 L 410.917969 408.605469 L 411.292969 408.609375 L 411.671875 408.617188 L 412.046875 408.621094 L 412.425781 408.625 L 412.800781 408.628906 L 413.179688 408.632812 L 413.554688 408.636719 L 413.933594 408.640625 L 414.308594 408.644531 L 414.6875 408.648438 L 415.0625 408.65625 L 415.4375 408.660156 L 415.816406 408.664062 L 416.191406 408.667969 L 416.570312 408.671875 L 416.945312 408.675781 L 417.324219 408.679688 L 417.699219 408.683594 L 418.078125 408.6875 L 418.453125 408.691406 L 418.832031 408.695312 L 419.207031 408.699219 L 419.585938 408.707031 L 419.960938 408.710938 L 420.339844 408.714844 L 420.714844 408.71875 L 421.09375 408.722656 L 421.46875 408.726562 L 421.847656 408.730469 L 422.597656 408.738281 L 422.976562 408.742188 L 423.351562 408.746094 L 423.730469 408.75 L 424.105469 408.753906 L 424.484375 408.757812 L 424.859375 408.761719 L 425.238281 408.765625 L 425.613281 408.769531 L 425.992188 408.773438 L 426.367188 408.777344 L 426.746094 408.78125 L 427.121094 408.785156 L 427.5 408.789062 L 427.875 408.792969 L 428.253906 408.796875 L 428.628906 408.800781 L 429.007812 408.804688 L 429.757812 408.8125 L 430.136719 408.816406 L 430.511719 408.820312 L 430.890625 408.824219 L 431.265625 408.828125 L 431.644531 408.832031 L 432.019531 408.835938 L 432.398438 408.839844 L 432.773438 408.84375 L 433.152344 408.84375 L 433.527344 408.847656 L 433.90625 408.851562 L 434.28125 408.855469 L 434.660156 408.859375 L 435.035156 408.863281 L 435.414062 408.867188 L 436.164062 408.875 L 436.542969 408.878906 L 436.917969 408.882812 L 437.296875 408.886719 L 437.671875 408.890625 L 438.050781 408.890625 L 438.425781 408.894531 L 438.804688 408.898438 L 439.179688 408.902344 L 439.558594 408.90625 L 439.933594 408.910156 L 440.3125 408.914062 L 440.6875 408.917969 L 441.066406 408.921875 L 441.441406 408.921875 L 441.820312 408.925781 L 442.195312 408.929688 L 442.574219 408.933594 L 443.324219 408.941406 L 443.703125 408.945312 L 444.078125 408.945312 L 444.457031 408.949219 L 444.832031 408.953125 L 445.210938 408.957031 L 445.585938 408.960938 L 445.964844 408.964844 L 446.339844 408.96875 L 446.71875 408.96875 L 447.09375 408.972656 L 447.472656 408.976562 L 447.847656 408.980469 L 448.226562 408.984375 L 448.601562 408.988281 L 448.980469 408.988281 L 449.355469 408.992188 L 449.734375 408.996094 L 450.484375 409.003906 L 450.863281 409.003906 L 451.238281 409.007812 L 451.617188 409.011719 L 451.992188 409.015625 L 452.371094 409.019531 L 452.746094 409.023438 L 453.125 409.023438 L 453.5 409.027344 L 453.878906 409.03125 L 454.253906 409.035156 L 454.632812 409.035156 L 455.007812 409.039062 L 455.386719 409.042969 L 455.761719 409.046875 L 456.140625 409.050781 L 456.515625 409.050781 L 456.894531 409.054688 L 457.644531 409.0625 L 458.023438 409.0625 L 458.398438 409.066406 "/>
</g>
<g clip-path="url(#clip2)" clip-rule="nonzero">
<path style="fill:none;stroke-width:0.75;stroke-linecap:round;stroke-linejoin:round;stroke:rgb(0%,0%,0%);stroke-opacity:1;stroke-miterlimit:10;" d="M 59.039062 410.054688 L 473.761719 410.054688 "/>
</g>
<g clip-path="url(#clip3)" clip-rule="nonzero">
<path style="fill:none;stroke-width:0.75;stroke-linecap:round;stroke-linejoin:round;stroke:rgb(0%,0%,0%);stroke-opacity:1;stroke-miterlimit:10;" d="M 81.929688 430.558594 L 81.929688 59.039062 "/>
</g>
</g>
</svg>
