<?xml version="1.0" encoding="UTF-8"?>
<svg xmlns="http://www.w3.org/2000/svg" xmlns:xlink="http://www.w3.org/1999/xlink" width="504pt" height="504pt" viewBox="0 0 504 504" version="1.1">
<defs>
<clipPath id="clip1">
  <path d="M 81 59.039062 L 459 59.039062 L 459 411 L 81 411 Z M 81 59.039062 "/>
</clipPath>
<clipPath id="clip2">
  <path d="M 59.039062 409 L 473.757812 409 L 473.757812 411 L 59.039062 411 Z M 59.039062 409 "/>
</clipPath>
<clipPath id="clip3">
  <path d="M 81 59.039062 L 83 59.039062 L 83 430.558594 L 81 430.558594 Z M 81 59.039062 "/>
</clipPath>
</defs>
<g id="surface21">
<rect x="0" y="0" width="504" height="504" style="fill:rgb(100%,100%,100%);fill-opacity:1;stroke:none;"/>
<path style="fill:none;stroke-width:0.75;stroke-linecap:round;stroke-linejoin:round;stroke:rgb(0%,0%,0%);stroke-opacity:1;stroke-miterlimit:10;" d="M 81.929688 275.152344 L 82.304688 276.496094 L 82.683594 277.828125 L 83.058594 279.144531 L 83.4375 280.449219 L 83.8125 281.738281 L 84.191406 283.015625 L 84.566406 284.28125 L 84.945312 285.535156 L 85.320312 286.773438 L 85.699219 288.003906 L 86.074219 289.21875 L 86.453125 290.421875 L 86.828125 291.613281 L 87.207031 292.792969 L 87.582031 293.960938 L 87.957031 295.117188 L 88.335938 296.261719 L 88.710938 297.394531 L 89.089844 298.519531 L 89.464844 299.628906 L 89.84375 300.726562 L 90.21875 301.816406 L 90.597656 302.894531 L 90.972656 303.960938 L 91.351562 305.019531 L 91.726562 306.066406 L 92.105469 307.101562 L 92.480469 308.125 L 92.859375 309.140625 L 93.234375 310.148438 L 93.613281 311.140625 L 93.988281 312.128906 L 94.367188 313.101562 L 94.742188 314.070312 L 95.117188 315.023438 L 95.496094 315.972656 L 95.871094 316.90625 L 96.25 317.835938 L 96.625 318.753906 L 97.003906 319.664062 L 97.378906 320.5625 L 97.757812 321.457031 L 98.132812 322.335938 L 98.511719 323.210938 L 98.886719 324.078125 L 99.265625 324.933594 L 99.640625 325.78125 L 100.019531 326.621094 L 100.394531 327.449219 L 100.773438 328.273438 L 101.148438 329.089844 L 101.527344 329.894531 L 101.902344 330.691406 L 102.277344 331.484375 L 102.65625 332.265625 L 103.03125 333.039062 L 103.410156 333.808594 L 103.785156 334.566406 L 104.164062 335.320312 L 104.539062 336.0625 L 104.917969 336.800781 L 105.292969 337.53125 L 105.671875 338.253906 L 106.046875 338.96875 L 106.425781 339.675781 L 106.800781 340.375 L 107.179688 341.070312 L 107.554688 341.757812 L 107.933594 342.4375 L 108.308594 343.113281 L 108.6875 343.777344 L 109.0625 344.4375 L 109.4375 345.09375 L 109.816406 345.738281 L 110.191406 346.378906 L 110.570312 347.015625 L 110.945312 347.640625 L 111.324219 348.261719 L 111.699219 348.878906 L 112.078125 349.488281 L 112.453125 350.089844 L 112.832031 350.6875 L 113.207031 351.28125 L 113.585938 351.867188 L 113.960938 352.445312 L 114.339844 353.019531 L 114.714844 353.585938 L 115.09375 354.148438 L 115.46875 354.707031 L 115.84375 355.257812 L 116.222656 355.804688 L 116.597656 356.34375 L 116.976562 356.878906 L 117.351562 357.40625 L 117.730469 357.933594 L 118.105469 358.453125 L 118.484375 358.964844 L 118.859375 359.472656 L 119.238281 359.976562 L 119.613281 360.476562 L 119.992188 360.96875 L 120.367188 361.460938 L 120.746094 361.945312 L 121.121094 362.421875 L 121.5 362.898438 L 121.875 363.367188 L 122.253906 363.832031 L 122.628906 364.292969 L 123.003906 364.75 L 123.382812 365.199219 L 123.757812 365.644531 L 124.136719 366.089844 L 124.511719 366.527344 L 124.890625 366.960938 L 125.265625 367.390625 L 125.644531 367.8125 L 126.019531 368.234375 L 126.398438 368.652344 L 126.773438 369.0625 L 127.152344 369.472656 L 127.527344 369.875 L 127.90625 370.277344 L 128.28125 370.671875 L 128.660156 371.066406 L 129.035156 371.453125 L 129.414062 371.835938 L 129.789062 372.21875 L 130.164062 372.59375 L 130.542969 372.96875 L 130.917969 373.335938 L 131.296875 373.703125 L 131.671875 374.066406 L 132.050781 374.425781 L 132.425781 374.777344 L 132.804688 375.128906 L 133.179688 375.476562 L 133.558594 375.824219 L 133.933594 376.164062 L 134.3125 376.5 L 134.6875 376.835938 L 135.066406 377.164062 L 135.441406 377.492188 L 135.820312 377.816406 L 136.195312 378.140625 L 136.574219 378.457031 L 136.949219 378.773438 L 137.324219 379.082031 L 137.703125 379.390625 L 138.078125 379.695312 L 138.457031 380 L 138.832031 380.296875 L 139.210938 380.59375 L 139.585938 380.886719 L 139.964844 381.179688 L 140.339844 381.464844 L 140.71875 381.75 L 141.09375 382.035156 L 141.472656 382.3125 L 141.847656 382.589844 L 142.226562 382.863281 L 142.601562 383.132812 L 142.980469 383.402344 L 143.355469 383.667969 L 143.730469 383.929688 L 144.109375 384.191406 L 144.484375 384.449219 L 144.863281 384.703125 L 145.238281 384.953125 L 145.617188 385.203125 L 145.992188 385.453125 L 146.371094 385.699219 L 146.746094 385.941406 L 147.125 386.179688 L 147.5 386.417969 L 147.878906 386.652344 L 148.253906 386.886719 L 148.632812 387.117188 L 149.007812 387.347656 L 149.386719 387.570312 L 149.761719 387.796875 L 150.140625 388.019531 L 150.515625 388.238281 L 150.890625 388.453125 L 151.269531 388.667969 L 151.644531 388.882812 L 152.023438 389.09375 L 152.398438 389.300781 L 152.777344 389.507812 L 153.152344 389.714844 L 153.53125 389.917969 L 153.90625 390.117188 L 154.285156 390.316406 L 154.660156 390.511719 L 155.039062 390.707031 L 155.414062 390.898438 L 155.792969 391.089844 L 156.167969 391.277344 L 156.546875 391.464844 L 156.921875 391.652344 L 157.300781 391.835938 L 158.050781 392.195312 L 158.429688 392.375 L 158.804688 392.550781 L 159.183594 392.722656 L 159.558594 392.898438 L 159.9375 393.066406 L 160.3125 393.238281 L 160.691406 393.402344 L 161.066406 393.570312 L 161.445312 393.734375 L 161.820312 393.898438 L 162.199219 394.058594 L 162.574219 394.21875 L 162.953125 394.375 L 163.328125 394.53125 L 163.707031 394.683594 L 164.082031 394.839844 L 164.460938 394.988281 L 164.835938 395.140625 L 165.210938 395.289062 L 165.589844 395.4375 L 165.964844 395.582031 L 166.34375 395.726562 L 166.71875 395.867188 L 167.097656 396.007812 L 167.472656 396.148438 L 167.851562 396.289062 L 168.226562 396.425781 L 168.605469 396.5625 L 168.980469 396.695312 L 169.359375 396.828125 L 169.734375 396.960938 L 170.113281 397.089844 L 170.488281 397.21875 L 170.867188 397.347656 L 171.617188 397.597656 L 171.996094 397.722656 L 172.371094 397.847656 L 172.75 397.96875 L 173.125 398.089844 L 173.503906 398.207031 L 173.878906 398.324219 L 174.257812 398.441406 L 174.632812 398.558594 L 175.011719 398.671875 L 175.386719 398.785156 L 175.765625 398.898438 L 176.140625 399.007812 L 176.519531 399.121094 L 176.894531 399.226562 L 177.273438 399.335938 L 177.648438 399.441406 L 178.027344 399.546875 L 178.777344 399.757812 L 179.15625 399.859375 L 179.53125 399.960938 L 179.910156 400.0625 L 180.285156 400.160156 L 180.664062 400.257812 L 181.039062 400.355469 L 181.417969 400.453125 L 181.792969 400.550781 L 182.171875 400.644531 L 182.546875 400.738281 L 182.925781 400.832031 L 183.300781 400.921875 L 183.679688 401.011719 L 184.054688 401.101562 L 184.433594 401.191406 L 184.808594 401.28125 L 185.1875 401.367188 L 185.9375 401.539062 L 186.316406 401.625 L 186.691406 401.710938 L 187.070312 401.792969 L 187.445312 401.875 L 187.824219 401.957031 L 188.199219 402.035156 L 188.578125 402.117188 L 188.953125 402.195312 L 189.332031 402.273438 L 189.707031 402.351562 L 190.085938 402.429688 L 190.460938 402.503906 L 190.839844 402.578125 L 191.214844 402.652344 L 191.59375 402.726562 L 191.96875 402.800781 L 192.347656 402.871094 L 192.722656 402.945312 L 193.097656 403.015625 L 193.476562 403.085938 L 193.851562 403.15625 L 194.230469 403.222656 L 194.605469 403.292969 L 194.984375 403.359375 L 195.359375 403.425781 L 195.738281 403.492188 L 196.113281 403.558594 L 196.492188 403.621094 L 196.867188 403.6875 L 197.246094 403.75 L 197.621094 403.8125 L 198 403.875 L 198.375 403.9375 L 198.753906 403.996094 L 199.128906 404.058594 L 199.503906 404.117188 L 199.882812 404.175781 L 200.257812 404.234375 L 200.636719 404.292969 L 201.011719 404.351562 L 201.390625 404.40625 L 201.765625 404.460938 L 202.144531 404.519531 L 202.519531 404.574219 L 202.898438 404.628906 L 203.273438 404.683594 L 203.652344 404.734375 L 204.027344 404.789062 L 204.40625 404.839844 L 204.78125 404.894531 L 205.160156 404.945312 L 205.535156 404.996094 L 205.914062 405.046875 L 206.289062 405.09375 L 206.664062 405.144531 L 207.042969 405.195312 L 207.417969 405.242188 L 207.796875 405.289062 L 208.171875 405.335938 L 208.550781 405.386719 L 208.925781 405.429688 L 209.304688 405.476562 L 209.679688 405.523438 L 210.058594 405.566406 L 210.433594 405.613281 L 210.8125 405.65625 L 211.1875 405.699219 L 211.566406 405.746094 L 211.941406 405.789062 L 212.320312 405.828125 L 212.695312 405.871094 L 213.074219 405.914062 L 213.449219 405.953125 L 213.824219 405.996094 L 214.203125 406.035156 L 214.578125 406.074219 L 214.957031 406.117188 L 215.332031 406.15625 L 215.710938 406.195312 L 216.085938 406.230469 L 216.464844 406.269531 L 216.839844 406.308594 L 217.21875 406.34375 L 217.59375 406.382812 L 217.972656 406.417969 L 218.347656 406.453125 L 218.726562 406.492188 L 219.101562 406.527344 L 219.480469 406.5625 L 219.855469 406.597656 L 220.230469 406.628906 L 220.609375 406.664062 L 220.984375 406.699219 L 221.363281 406.730469 L 221.738281 406.765625 L 222.117188 406.796875 L 222.492188 406.832031 L 222.871094 406.863281 L 223.246094 406.894531 L 223.625 406.925781 L 224 406.957031 L 224.378906 406.988281 L 224.753906 407.019531 L 225.132812 407.046875 L 225.507812 407.078125 L 225.886719 407.109375 L 226.261719 407.136719 L 226.640625 407.167969 L 227.390625 407.222656 L 227.769531 407.25 L 228.144531 407.28125 L 228.523438 407.308594 L 228.898438 407.335938 L 229.277344 407.363281 L 229.652344 407.390625 L 230.03125 407.414062 L 230.40625 407.441406 L 230.785156 407.46875 L 231.160156 407.492188 L 231.539062 407.519531 L 231.914062 407.542969 L 232.292969 407.570312 L 232.667969 407.59375 L 233.046875 407.617188 L 233.421875 407.644531 L 233.800781 407.667969 L 234.550781 407.714844 L 234.929688 407.738281 L 235.304688 407.761719 L 235.683594 407.785156 L 236.058594 407.804688 L 236.4375 407.828125 L 236.8125 407.851562 L 237.191406 407.871094 L 237.566406 407.894531 L 237.945312 407.914062 L 238.320312 407.9375 L 238.699219 407.957031 L 239.074219 407.980469 L 239.453125 408 L 239.828125 408.019531 L 240.207031 408.039062 L 240.582031 408.058594 L 240.960938 408.082031 L 241.710938 408.121094 L 242.089844 408.140625 L 242.464844 408.15625 L 242.84375 408.175781 L 243.21875 408.195312 L 243.597656 408.214844 L 243.972656 408.230469 L 244.351562 408.25 L 244.726562 408.269531 L 245.105469 408.285156 L 245.480469 408.304688 L 245.859375 408.320312 L 246.234375 408.339844 L 246.613281 408.355469 L 246.988281 408.371094 L 247.367188 408.390625 L 248.117188 408.421875 L 248.496094 408.4375 L 248.871094 408.453125 L 249.25 408.46875 L 249.625 408.488281 L 250.003906 408.503906 L 250.378906 408.515625 L 250.757812 408.53125 L 251.132812 408.546875 L 251.511719 408.5625 L 251.886719 408.578125 L 252.265625 408.59375 L 252.640625 408.605469 L 253.019531 408.621094 L 253.394531 408.636719 L 253.773438 408.648438 L 254.148438 408.664062 L 254.527344 408.679688 L 254.902344 408.691406 L 255.277344 408.707031 L 255.65625 408.71875 L 256.03125 408.730469 L 256.410156 408.746094 L 256.785156 408.757812 L 257.164062 408.769531 L 257.539062 408.785156 L 257.917969 408.796875 L 258.292969 408.808594 L 258.671875 408.820312 L 259.046875 408.832031 L 259.425781 408.847656 L 259.800781 408.859375 L 260.179688 408.871094 L 260.554688 408.882812 L 260.933594 408.894531 L 261.308594 408.90625 L 261.6875 408.917969 L 262.0625 408.925781 L 262.4375 408.9375 L 262.816406 408.949219 L 263.191406 408.960938 L 263.570312 408.972656 L 263.945312 408.984375 L 264.324219 408.992188 L 264.699219 409.003906 L 265.078125 409.015625 L 265.453125 409.023438 L 265.832031 409.035156 L 266.207031 409.046875 L 266.585938 409.054688 L 266.960938 409.066406 L 267.339844 409.074219 L 267.714844 409.085938 L 268.09375 409.09375 L 268.46875 409.105469 L 268.847656 409.113281 L 269.222656 409.121094 L 269.597656 409.132812 L 269.976562 409.140625 L 270.351562 409.152344 L 270.730469 409.160156 L 271.105469 409.167969 L 271.484375 409.175781 L 271.859375 409.1875 L 272.238281 409.195312 L 272.613281 409.203125 L 272.992188 409.210938 L 273.367188 409.21875 L 273.746094 409.226562 L 274.121094 409.238281 L 274.5 409.246094 L 274.875 409.253906 L 275.253906 409.261719 L 276.003906 409.277344 L 276.382812 409.285156 L 276.757812 409.292969 L 277.136719 409.300781 L 277.511719 409.308594 L 277.890625 409.316406 L 278.265625 409.320312 L 278.644531 409.328125 L 279.019531 409.335938 L 279.398438 409.34375 L 279.773438 409.351562 L 280.152344 409.359375 L 280.527344 409.363281 L 280.90625 409.371094 L 281.28125 409.378906 L 281.660156 409.386719 L 282.035156 409.390625 L 282.414062 409.398438 L 282.789062 409.40625 L 283.164062 409.410156 L 283.542969 409.417969 L 283.917969 409.425781 L 284.296875 409.429688 L 284.671875 409.4375 L 285.050781 409.441406 L 285.425781 409.449219 L 285.804688 409.453125 L 286.179688 409.460938 L 286.558594 409.46875 L 286.933594 409.472656 L 287.3125 409.476562 L 287.6875 409.484375 L 288.066406 409.488281 L 288.441406 409.496094 L 288.820312 409.5 L 289.195312 409.507812 L 289.574219 409.511719 L 289.949219 409.515625 L 290.324219 409.523438 L 290.703125 409.527344 L 291.078125 409.535156 L 291.457031 409.539062 L 291.832031 409.542969 L 292.210938 409.546875 L 292.585938 409.554688 L 292.964844 409.558594 L 293.339844 409.5625 L 293.71875 409.570312 L 294.09375 409.574219 L 294.472656 409.578125 L 294.847656 409.582031 L 295.226562 409.585938 L 295.601562 409.59375 L 295.980469 409.597656 L 296.355469 409.601562 L 296.734375 409.605469 L 297.484375 409.613281 L 297.863281 409.621094 L 298.238281 409.625 L 298.617188 409.628906 L 298.992188 409.632812 L 299.371094 409.636719 L 299.746094 409.640625 L 300.125 409.644531 L 300.5 409.648438 L 300.878906 409.652344 L 301.253906 409.65625 L 301.632812 409.660156 L 302.007812 409.664062 L 302.386719 409.667969 L 302.761719 409.671875 L 303.140625 409.675781 L 303.890625 409.683594 L 304.269531 409.6875 L 304.644531 409.691406 L 305.023438 409.695312 L 305.398438 409.699219 L 305.777344 409.703125 L 306.152344 409.707031 L 306.53125 409.707031 L 306.90625 409.710938 L 307.285156 409.714844 L 307.660156 409.71875 L 308.039062 409.722656 L 308.414062 409.726562 L 308.792969 409.730469 L 309.167969 409.730469 L 309.546875 409.734375 L 309.921875 409.738281 L 310.300781 409.742188 L 311.050781 409.75 L 311.429688 409.75 L 311.804688 409.753906 L 312.183594 409.757812 L 312.558594 409.761719 L 312.9375 409.761719 L 313.3125 409.765625 L 313.691406 409.769531 L 314.066406 409.773438 L 314.445312 409.773438 L 314.820312 409.777344 L 315.199219 409.78125 L 315.574219 409.78125 L 315.953125 409.785156 L 316.328125 409.789062 L 316.707031 409.789062 L 317.082031 409.792969 L 317.460938 409.796875 L 317.835938 409.796875 L 318.210938 409.800781 L 318.589844 409.804688 L 318.964844 409.804688 L 319.34375 409.808594 L 319.71875 409.8125 L 320.097656 409.8125 L 320.472656 409.816406 L 320.851562 409.820312 L 321.226562 409.820312 L 321.605469 409.824219 L 321.980469 409.824219 L 322.359375 409.828125 L 322.734375 409.828125 L 323.113281 409.832031 L 323.488281 409.835938 L 323.867188 409.835938 L 324.242188 409.839844 L 324.621094 409.839844 L 324.996094 409.84375 L 325.371094 409.84375 L 325.75 409.847656 L 326.125 409.847656 L 326.503906 409.851562 L 326.878906 409.851562 L 327.257812 409.855469 L 327.632812 409.855469 L 328.011719 409.859375 L 328.386719 409.859375 L 328.765625 409.863281 L 329.140625 409.863281 L 329.519531 409.867188 L 329.894531 409.867188 L 330.273438 409.871094 L 330.648438 409.871094 L 331.027344 409.875 L 331.402344 409.875 L 331.777344 409.878906 L 332.15625 409.878906 L 332.53125 409.882812 L 332.910156 409.882812 L 333.285156 409.886719 L 334.039062 409.886719 L 334.417969 409.890625 L 334.792969 409.890625 L 335.171875 409.894531 L 335.925781 409.894531 L 336.300781 409.898438 L 336.679688 409.898438 L 337.054688 409.902344 L 337.808594 409.902344 L 338.1875 409.90625 L 338.5625 409.90625 L 338.9375 409.910156 L 339.691406 409.910156 L 340.070312 409.914062 L 340.824219 409.914062 L 341.199219 409.917969 L 341.953125 409.917969 L 342.332031 409.921875 L 342.707031 409.921875 L 343.085938 409.925781 L 343.839844 409.925781 L 344.214844 409.929688 L 345.347656 409.929688 L 345.722656 409.933594 L 346.476562 409.933594 L 346.851562 409.9375 L 347.605469 409.9375 L 347.984375 409.941406 L 349.113281 409.941406 L 349.492188 409.945312 L 350.246094 409.945312 L 350.621094 409.949219 L 351.753906 409.949219 L 352.128906 409.953125 L 353.257812 409.953125 L 353.636719 409.957031 L 354.765625 409.957031 L 355.144531 409.960938 L 356.273438 409.960938 L 356.652344 409.964844 L 357.78125 409.964844 L 358.160156 409.96875 L 359.664062 409.96875 L 360.042969 409.972656 L 361.171875 409.972656 L 361.550781 409.976562 L 363.058594 409.976562 L 363.433594 409.980469 L 365.320312 409.980469 L 365.695312 409.984375 L 367.203125 409.984375 L 367.578125 409.988281 L 369.464844 409.988281 L 369.839844 409.992188 L 371.726562 409.992188 L 372.101562 409.996094 L 374.363281 409.996094 L 374.738281 410 L 377 410 L 377.378906 410.003906 L 380.015625 410.003906 L 380.394531 410.007812 L 383.03125 410.007812 L 383.40625 410.011719 L 386.421875 410.011719 L 386.800781 410.015625 L 390.191406 410.015625 L 390.566406 410.019531 L 394.335938 410.019531 L 394.710938 410.023438 L 398.859375 410.023438 L 399.234375 410.027344 L 404.511719 410.027344 L 404.886719 410.03125 L 410.539062 410.03125 L 410.917969 410.035156 L 418.078125 410.035156 L 418.453125 410.039062 L 427.5 410.039062 L 427.875 410.042969 L 439.933594 410.042969 L 440.3125 410.046875 L 458.398438 410.046875 "/>
<path style="fill:none;stroke-width:0.75;stroke-linecap:round;stroke-linejoin:round;stroke:rgb(0%,0%,0%);stroke-opacity:1;stroke-miterlimit:10;" d="M 81.929688 410.054688 L 82.304688 408.71875 L 82.683594 407.40625 L 83.058594 406.125 L 83.4375 404.867188 L 83.8125 403.632812 L 84.191406 402.425781 L 84.566406 401.242188 L 84.945312 400.082031 L 85.320312 398.949219 L 85.699219 397.835938 L 86.074219 396.75 L 86.453125 395.683594 L 86.828125 394.640625 L 87.207031 393.621094 L 87.582031 392.625 L 87.957031 391.648438 L 88.335938 390.691406 L 88.710938 389.757812 L 89.089844 388.839844 L 89.464844 387.949219 L 89.84375 387.074219 L 90.21875 386.21875 L 90.597656 385.382812 L 90.972656 384.566406 L 91.351562 383.769531 L 91.726562 382.992188 L 92.105469 382.230469 L 92.480469 381.488281 L 92.859375 380.761719 L 93.234375 380.050781 L 93.613281 379.359375 L 93.988281 378.6875 L 94.367188 378.027344 L 94.742188 377.386719 L 95.117188 376.761719 L 95.496094 376.152344 L 95.871094 375.554688 L 96.25 374.976562 L 96.625 374.410156 L 97.003906 373.863281 L 97.378906 373.328125 L 97.757812 372.804688 L 98.132812 372.296875 L 98.511719 371.804688 L 98.886719 371.324219 L 99.265625 370.859375 L 99.640625 370.40625 L 100.019531 369.964844 L 100.394531 369.539062 L 100.773438 369.125 L 101.148438 368.71875 L 101.527344 368.328125 L 101.902344 367.949219 L 102.277344 367.582031 L 102.65625 367.226562 L 103.03125 366.882812 L 103.410156 366.550781 L 103.785156 366.226562 L 104.164062 365.917969 L 104.539062 365.617188 L 104.917969 365.324219 L 105.292969 365.042969 L 105.671875 364.773438 L 106.046875 364.511719 L 106.425781 364.261719 L 106.800781 364.019531 L 107.179688 363.789062 L 107.554688 363.566406 L 107.933594 363.351562 L 108.308594 363.148438 L 108.6875 362.953125 L 109.0625 362.765625 L 109.4375 362.585938 L 109.816406 362.414062 L 110.191406 362.25 L 110.570312 362.09375 L 110.945312 361.949219 L 111.324219 361.808594 L 111.699219 361.675781 L 112.078125 361.554688 L 112.453125 361.4375 L 112.832031 361.324219 L 113.207031 361.222656 L 113.585938 361.125 L 113.960938 361.039062 L 114.339844 360.953125 L 114.714844 360.878906 L 115.09375 360.808594 L 115.46875 360.746094 L 115.84375 360.6875 L 116.222656 360.636719 L 116.597656 360.589844 L 116.976562 360.550781 L 117.351562 360.515625 L 117.730469 360.488281 L 118.105469 360.464844 L 118.484375 360.449219 L 118.859375 360.4375 L 119.238281 360.429688 L 119.613281 360.425781 L 119.992188 360.429688 L 120.367188 360.4375 L 120.746094 360.449219 L 121.121094 360.46875 L 121.5 360.488281 L 121.875 360.515625 L 122.253906 360.546875 L 122.628906 360.582031 L 123.003906 360.621094 L 123.382812 360.664062 L 123.757812 360.710938 L 124.136719 360.761719 L 124.511719 360.820312 L 124.890625 360.878906 L 125.265625 360.941406 L 125.644531 361.007812 L 126.019531 361.078125 L 126.398438 361.148438 L 126.773438 361.226562 L 127.152344 361.308594 L 127.527344 361.390625 L 127.90625 361.476562 L 128.28125 361.566406 L 128.660156 361.660156 L 129.035156 361.753906 L 129.414062 361.851562 L 129.789062 361.953125 L 130.164062 362.058594 L 130.542969 362.164062 L 130.917969 362.273438 L 131.296875 362.386719 L 131.671875 362.5 L 132.050781 362.617188 L 132.425781 362.738281 L 132.804688 362.859375 L 133.179688 362.984375 L 133.558594 363.109375 L 133.933594 363.238281 L 134.3125 363.367188 L 134.6875 363.5 L 135.066406 363.636719 L 135.441406 363.769531 L 135.820312 363.910156 L 136.195312 364.050781 L 136.574219 364.191406 L 137.324219 364.480469 L 137.703125 364.628906 L 138.078125 364.777344 L 138.457031 364.925781 L 138.832031 365.078125 L 139.210938 365.230469 L 139.585938 365.386719 L 139.964844 365.542969 L 140.339844 365.699219 L 140.71875 365.855469 L 141.09375 366.015625 L 141.472656 366.179688 L 141.847656 366.339844 L 142.226562 366.503906 L 142.601562 366.667969 L 142.980469 366.832031 L 143.730469 367.167969 L 144.109375 367.335938 L 144.484375 367.503906 L 144.863281 367.675781 L 145.238281 367.84375 L 145.617188 368.015625 L 145.992188 368.1875 L 146.371094 368.363281 L 146.746094 368.535156 L 147.125 368.710938 L 147.5 368.886719 L 147.878906 369.0625 L 148.253906 369.238281 L 148.632812 369.414062 L 149.007812 369.59375 L 149.386719 369.769531 L 149.761719 369.949219 L 150.140625 370.128906 L 150.890625 370.488281 L 151.269531 370.667969 L 151.644531 370.847656 L 152.023438 371.027344 L 152.398438 371.207031 L 152.777344 371.390625 L 153.152344 371.570312 L 153.53125 371.753906 L 153.90625 371.933594 L 154.285156 372.117188 L 154.660156 372.300781 L 155.039062 372.480469 L 155.414062 372.664062 L 155.792969 372.847656 L 156.167969 373.027344 L 156.546875 373.210938 L 156.921875 373.394531 L 157.300781 373.578125 L 157.675781 373.761719 L 158.050781 373.941406 L 158.429688 374.125 L 158.804688 374.308594 L 159.183594 374.492188 L 159.558594 374.671875 L 159.9375 374.855469 L 160.3125 375.039062 L 160.691406 375.21875 L 161.066406 375.402344 L 161.445312 375.582031 L 161.820312 375.765625 L 162.199219 375.945312 L 162.574219 376.128906 L 162.953125 376.308594 L 163.328125 376.488281 L 163.707031 376.671875 L 164.082031 376.851562 L 164.460938 377.03125 L 165.210938 377.390625 L 165.589844 377.566406 L 165.964844 377.746094 L 166.34375 377.925781 L 166.71875 378.101562 L 167.097656 378.28125 L 167.472656 378.457031 L 167.851562 378.636719 L 168.226562 378.8125 L 168.605469 378.988281 L 168.980469 379.164062 L 169.359375 379.339844 L 169.734375 379.511719 L 170.113281 379.6875 L 170.488281 379.863281 L 170.867188 380.035156 L 171.242188 380.207031 L 171.617188 380.382812 L 171.996094 380.554688 L 172.371094 380.726562 L 172.75 380.894531 L 173.125 381.066406 L 173.503906 381.238281 L 173.878906 381.40625 L 174.257812 381.574219 L 174.632812 381.742188 L 175.011719 381.910156 L 175.386719 382.078125 L 175.765625 382.246094 L 176.140625 382.414062 L 176.519531 382.578125 L 176.894531 382.742188 L 177.273438 382.910156 L 177.648438 383.074219 L 178.027344 383.238281 L 178.402344 383.398438 L 178.777344 383.5625 L 179.15625 383.722656 L 179.53125 383.886719 L 179.910156 384.046875 L 180.285156 384.207031 L 180.664062 384.363281 L 181.039062 384.523438 L 181.417969 384.683594 L 181.792969 384.839844 L 182.171875 384.996094 L 182.546875 385.152344 L 182.925781 385.308594 L 183.300781 385.464844 L 183.679688 385.617188 L 184.054688 385.773438 L 184.433594 385.925781 L 184.808594 386.078125 L 185.1875 386.230469 L 185.5625 386.378906 L 185.9375 386.53125 L 186.316406 386.679688 L 186.691406 386.832031 L 187.070312 386.980469 L 187.445312 387.125 L 187.824219 387.273438 L 188.199219 387.421875 L 188.578125 387.566406 L 188.953125 387.710938 L 189.332031 387.855469 L 189.707031 388 L 190.085938 388.144531 L 190.460938 388.285156 L 190.839844 388.429688 L 191.214844 388.570312 L 191.59375 388.710938 L 191.96875 388.851562 L 192.347656 388.988281 L 192.722656 389.128906 L 193.097656 389.265625 L 193.476562 389.402344 L 193.851562 389.539062 L 194.230469 389.675781 L 194.605469 389.8125 L 194.984375 389.945312 L 195.359375 390.078125 L 195.738281 390.214844 L 196.113281 390.347656 L 196.492188 390.476562 L 196.867188 390.609375 L 197.246094 390.738281 L 197.621094 390.871094 L 198 391 L 198.375 391.128906 L 198.753906 391.253906 L 199.128906 391.382812 L 199.503906 391.507812 L 199.882812 391.632812 L 200.257812 391.761719 L 200.636719 391.882812 L 201.011719 392.007812 L 201.390625 392.132812 L 201.765625 392.253906 L 202.144531 392.375 L 202.519531 392.496094 L 202.898438 392.617188 L 203.273438 392.738281 L 203.652344 392.855469 L 204.027344 392.976562 L 204.40625 393.09375 L 204.78125 393.210938 L 205.160156 393.328125 L 205.535156 393.441406 L 205.914062 393.558594 L 206.289062 393.671875 L 206.664062 393.789062 L 207.042969 393.902344 L 207.417969 394.011719 L 207.796875 394.125 L 208.171875 394.238281 L 208.550781 394.347656 L 208.925781 394.457031 L 209.304688 394.566406 L 209.679688 394.675781 L 210.058594 394.785156 L 210.433594 394.890625 L 210.8125 395 L 211.1875 395.105469 L 211.566406 395.210938 L 211.941406 395.316406 L 212.320312 395.421875 L 212.695312 395.523438 L 213.074219 395.628906 L 213.824219 395.832031 L 214.203125 395.933594 L 214.578125 396.035156 L 214.957031 396.136719 L 215.332031 396.234375 L 215.710938 396.332031 L 216.085938 396.433594 L 216.464844 396.53125 L 216.839844 396.628906 L 217.21875 396.722656 L 217.59375 396.820312 L 217.972656 396.914062 L 218.347656 397.011719 L 218.726562 397.105469 L 219.101562 397.199219 L 219.480469 397.289062 L 220.230469 397.476562 L 220.609375 397.566406 L 220.984375 397.65625 L 221.363281 397.746094 L 221.738281 397.835938 L 222.117188 397.925781 L 222.492188 398.015625 L 222.871094 398.101562 L 223.246094 398.191406 L 223.625 398.277344 L 224 398.363281 L 224.378906 398.449219 L 224.753906 398.535156 L 225.132812 398.617188 L 225.507812 398.703125 L 225.886719 398.785156 L 226.261719 398.871094 L 226.640625 398.953125 L 227.390625 399.117188 L 227.769531 399.195312 L 228.144531 399.277344 L 228.523438 399.355469 L 228.898438 399.4375 L 229.277344 399.515625 L 229.652344 399.59375 L 230.03125 399.671875 L 230.40625 399.75 L 230.785156 399.824219 L 231.160156 399.902344 L 231.539062 399.976562 L 231.914062 400.050781 L 232.292969 400.128906 L 232.667969 400.203125 L 233.046875 400.273438 L 233.421875 400.347656 L 233.800781 400.421875 L 234.175781 400.492188 L 234.550781 400.566406 L 234.929688 400.636719 L 235.304688 400.707031 L 235.683594 400.777344 L 236.058594 400.847656 L 236.4375 400.917969 L 236.8125 400.984375 L 237.191406 401.054688 L 237.566406 401.121094 L 237.945312 401.191406 L 238.320312 401.257812 L 238.699219 401.324219 L 239.074219 401.390625 L 239.453125 401.457031 L 239.828125 401.519531 L 240.207031 401.585938 L 240.582031 401.648438 L 240.960938 401.714844 L 241.710938 401.839844 L 242.089844 401.902344 L 242.464844 401.964844 L 242.84375 402.027344 L 243.21875 402.089844 L 243.597656 402.148438 L 243.972656 402.210938 L 244.351562 402.269531 L 244.726562 402.328125 L 245.105469 402.390625 L 245.480469 402.449219 L 245.859375 402.507812 L 246.234375 402.5625 L 246.613281 402.621094 L 246.988281 402.679688 L 247.367188 402.734375 L 247.742188 402.792969 L 248.117188 402.847656 L 248.496094 402.902344 L 248.871094 402.960938 L 249.25 403.015625 L 249.625 403.066406 L 250.003906 403.121094 L 250.378906 403.175781 L 250.757812 403.230469 L 251.132812 403.28125 L 251.511719 403.335938 L 251.886719 403.386719 L 252.265625 403.4375 L 252.640625 403.488281 L 253.019531 403.542969 L 253.394531 403.589844 L 253.773438 403.640625 L 254.148438 403.691406 L 254.527344 403.742188 L 254.902344 403.789062 L 255.277344 403.839844 L 255.65625 403.886719 L 256.03125 403.9375 L 256.410156 403.984375 L 256.785156 404.03125 L 257.164062 404.078125 L 257.539062 404.125 L 257.917969 404.171875 L 258.292969 404.21875 L 258.671875 404.265625 L 259.046875 404.308594 L 259.425781 404.355469 L 259.800781 404.398438 L 260.179688 404.445312 L 260.554688 404.488281 L 260.933594 404.53125 L 261.308594 404.574219 L 261.6875 404.617188 L 262.4375 404.703125 L 262.816406 404.746094 L 263.191406 404.789062 L 263.570312 404.828125 L 263.945312 404.871094 L 264.324219 404.910156 L 264.699219 404.953125 L 265.078125 404.992188 L 265.453125 405.035156 L 265.832031 405.074219 L 266.207031 405.113281 L 266.585938 405.152344 L 266.960938 405.191406 L 267.339844 405.230469 L 267.714844 405.269531 L 268.09375 405.304688 L 268.46875 405.34375 L 268.847656 405.382812 L 269.222656 405.417969 L 269.597656 405.457031 L 269.976562 405.492188 L 270.351562 405.527344 L 270.730469 405.5625 L 271.105469 405.601562 L 271.484375 405.636719 L 271.859375 405.671875 L 272.238281 405.707031 L 272.613281 405.742188 L 272.992188 405.777344 L 273.367188 405.808594 L 273.746094 405.84375 L 274.121094 405.878906 L 274.5 405.910156 L 274.875 405.945312 L 275.253906 405.976562 L 275.628906 406.011719 L 276.003906 406.042969 L 276.382812 406.074219 L 276.757812 406.105469 L 277.136719 406.136719 L 277.511719 406.171875 L 277.890625 406.203125 L 278.265625 406.230469 L 278.644531 406.261719 L 279.019531 406.292969 L 279.398438 406.324219 L 279.773438 406.355469 L 280.152344 406.382812 L 280.527344 406.414062 L 280.90625 406.441406 L 281.28125 406.472656 L 281.660156 406.5 L 282.035156 406.53125 L 282.414062 406.558594 L 283.164062 406.613281 L 283.542969 406.644531 L 283.917969 406.671875 L 284.296875 406.699219 L 284.671875 406.726562 L 285.050781 406.753906 L 285.425781 406.777344 L 285.804688 406.804688 L 286.179688 406.832031 L 286.558594 406.859375 L 286.933594 406.882812 L 287.3125 406.910156 L 287.6875 406.9375 L 288.066406 406.960938 L 288.441406 406.988281 L 288.820312 407.011719 L 289.195312 407.035156 L 289.574219 407.0625 L 290.324219 407.109375 L 290.703125 407.132812 L 291.078125 407.15625 L 291.457031 407.179688 L 291.832031 407.203125 L 292.210938 407.226562 L 292.585938 407.25 L 292.964844 407.273438 L 293.339844 407.296875 L 293.71875 407.320312 L 294.09375 407.34375 L 294.472656 407.363281 L 294.847656 407.386719 L 295.226562 407.410156 L 295.601562 407.429688 L 295.980469 407.453125 L 296.355469 407.472656 L 296.734375 407.492188 L 297.109375 407.515625 L 297.484375 407.535156 L 297.863281 407.558594 L 298.238281 407.578125 L 298.617188 407.597656 L 298.992188 407.617188 L 299.371094 407.636719 L 299.746094 407.65625 L 300.125 407.679688 L 300.5 407.699219 L 300.878906 407.71875 L 301.253906 407.734375 L 301.632812 407.753906 L 302.007812 407.773438 L 302.386719 407.792969 L 302.761719 407.8125 L 303.140625 407.832031 L 303.515625 407.847656 L 303.890625 407.867188 L 304.269531 407.886719 L 304.644531 407.902344 L 305.023438 407.921875 L 305.398438 407.9375 L 305.777344 407.957031 L 306.152344 407.972656 L 306.53125 407.992188 L 306.90625 408.007812 L 307.285156 408.023438 L 307.660156 408.042969 L 308.039062 408.058594 L 308.414062 408.074219 L 308.792969 408.089844 L 309.167969 408.109375 L 309.546875 408.125 L 309.921875 408.140625 L 310.300781 408.15625 L 311.050781 408.1875 L 311.429688 408.203125 L 311.804688 408.21875 L 312.183594 408.234375 L 312.558594 408.25 L 312.9375 408.265625 L 313.3125 408.277344 L 313.691406 408.292969 L 314.066406 408.308594 L 314.445312 408.324219 L 314.820312 408.335938 L 315.199219 408.351562 L 315.574219 408.367188 L 315.953125 408.378906 L 316.328125 408.394531 L 316.707031 408.410156 L 317.082031 408.421875 L 317.460938 408.4375 L 318.210938 408.460938 L 318.589844 408.476562 L 318.964844 408.488281 L 319.34375 408.503906 L 319.71875 408.515625 L 320.097656 408.527344 L 320.472656 408.542969 L 320.851562 408.554688 L 321.226562 408.566406 L 321.605469 408.578125 L 321.980469 408.589844 L 322.359375 408.605469 L 322.734375 408.617188 L 323.113281 408.628906 L 323.488281 408.640625 L 323.867188 408.652344 L 324.242188 408.664062 L 324.621094 408.675781 L 325.371094 408.699219 L 325.75 408.710938 L 326.125 408.722656 L 326.503906 408.734375 L 326.878906 408.742188 L 327.257812 408.753906 L 327.632812 408.765625 L 328.011719 408.777344 L 328.386719 408.789062 L 328.765625 408.796875 L 329.140625 408.808594 L 329.519531 408.820312 L 329.894531 408.828125 L 330.273438 408.839844 L 330.648438 408.851562 L 331.027344 408.859375 L 331.402344 408.871094 L 331.777344 408.878906 L 332.15625 408.890625 L 332.53125 408.902344 L 332.910156 408.910156 L 333.285156 408.921875 L 333.664062 408.929688 L 334.039062 408.9375 L 334.417969 408.949219 L 334.792969 408.957031 L 335.171875 408.96875 L 335.546875 408.976562 L 335.925781 408.984375 L 336.300781 408.996094 L 336.679688 409.003906 L 337.054688 409.011719 L 337.433594 409.023438 L 337.808594 409.03125 L 338.1875 409.039062 L 338.9375 409.054688 L 339.316406 409.066406 L 339.691406 409.074219 L 340.070312 409.082031 L 340.445312 409.089844 L 340.824219 409.097656 L 341.199219 409.105469 L 341.578125 409.113281 L 341.953125 409.121094 L 342.332031 409.128906 L 342.707031 409.136719 L 343.085938 409.144531 L 343.460938 409.152344 L 343.839844 409.160156 L 344.214844 409.167969 L 344.59375 409.175781 L 344.96875 409.183594 L 345.347656 409.191406 L 346.097656 409.207031 L 346.476562 409.214844 L 346.851562 409.222656 L 347.230469 409.226562 L 347.605469 409.234375 L 347.984375 409.242188 L 348.359375 409.25 L 348.738281 409.253906 L 349.113281 409.261719 L 349.492188 409.269531 L 349.867188 409.277344 L 350.246094 409.28125 L 350.621094 409.289062 L 351 409.296875 L 351.375 409.300781 L 351.753906 409.308594 L 352.128906 409.316406 L 352.507812 409.320312 L 353.257812 409.335938 L 353.636719 409.339844 L 354.011719 409.347656 L 354.390625 409.351562 L 354.765625 409.359375 L 355.144531 409.363281 L 355.519531 409.371094 L 355.898438 409.375 L 356.273438 409.382812 L 356.652344 409.386719 L 357.027344 409.394531 L 357.40625 409.398438 L 357.78125 409.40625 L 358.160156 409.410156 L 358.535156 409.417969 L 358.914062 409.421875 L 359.289062 409.425781 L 359.664062 409.433594 L 360.042969 409.4375 L 360.417969 409.441406 L 360.796875 409.449219 L 361.171875 409.453125 L 361.550781 409.460938 L 361.925781 409.464844 L 362.304688 409.46875 L 362.679688 409.472656 L 363.058594 409.480469 L 363.433594 409.484375 L 363.8125 409.488281 L 364.1875 409.492188 L 364.566406 409.5 L 364.941406 409.503906 L 365.320312 409.507812 L 365.695312 409.511719 L 366.074219 409.519531 L 366.824219 409.527344 L 367.203125 409.53125 L 367.578125 409.535156 L 367.957031 409.539062 L 368.332031 409.546875 L 368.710938 409.550781 L 369.085938 409.554688 L 369.464844 409.558594 L 369.839844 409.5625 L 370.21875 409.566406 L 370.59375 409.570312 L 370.972656 409.574219 L 371.347656 409.578125 L 371.726562 409.582031 L 372.101562 409.585938 L 372.480469 409.589844 L 372.855469 409.597656 L 373.234375 409.601562 L 373.984375 409.609375 L 374.363281 409.613281 L 374.738281 409.617188 L 375.117188 409.621094 L 375.492188 409.621094 L 375.871094 409.625 L 376.246094 409.628906 L 376.625 409.632812 L 377 409.636719 L 377.378906 409.640625 L 377.753906 409.644531 L 378.132812 409.648438 L 378.507812 409.652344 L 378.886719 409.65625 L 379.261719 409.660156 L 379.640625 409.664062 L 380.015625 409.664062 L 380.394531 409.667969 L 381.144531 409.675781 L 381.523438 409.679688 L 381.898438 409.683594 L 382.277344 409.6875 L 382.652344 409.6875 L 383.03125 409.691406 L 383.40625 409.695312 L 383.785156 409.699219 L 384.160156 409.703125 L 384.539062 409.703125 L 384.914062 409.707031 L 385.292969 409.710938 L 385.667969 409.714844 L 386.046875 409.714844 L 386.421875 409.71875 L 386.800781 409.722656 L 387.175781 409.726562 L 387.550781 409.726562 L 387.929688 409.730469 L 388.304688 409.734375 L 388.683594 409.738281 L 389.058594 409.738281 L 389.4375 409.742188 L 389.8125 409.746094 L 390.191406 409.746094 L 390.566406 409.75 L 390.945312 409.753906 L 391.320312 409.757812 L 391.699219 409.757812 L 392.074219 409.761719 L 392.453125 409.765625 L 392.828125 409.765625 L 393.207031 409.769531 L 393.582031 409.769531 L 393.960938 409.773438 L 394.335938 409.777344 L 394.710938 409.777344 L 395.089844 409.78125 L 395.464844 409.785156 L 395.84375 409.785156 L 396.21875 409.789062 L 396.597656 409.789062 L 396.972656 409.792969 L 397.351562 409.796875 L 397.726562 409.796875 L 398.105469 409.800781 L 398.480469 409.800781 L 398.859375 409.804688 L 399.234375 409.804688 L 399.613281 409.808594 L 399.988281 409.8125 L 400.367188 409.8125 L 400.742188 409.816406 L 401.121094 409.816406 L 401.496094 409.820312 L 401.871094 409.820312 L 402.25 409.824219 L 402.625 409.824219 L 403.003906 409.828125 L 403.378906 409.828125 L 403.757812 409.832031 L 404.132812 409.832031 L 404.511719 409.835938 L 404.886719 409.835938 L 405.265625 409.839844 L 405.640625 409.839844 L 406.019531 409.84375 L 406.394531 409.84375 L 406.773438 409.847656 L 407.148438 409.847656 L 407.527344 409.851562 L 407.902344 409.851562 L 408.277344 409.855469 L 408.65625 409.855469 L 409.03125 409.859375 L 409.785156 409.859375 L 410.164062 409.863281 L 410.539062 409.863281 L 410.917969 409.867188 L 411.292969 409.867188 L 411.671875 409.871094 L 412.425781 409.871094 L 412.800781 409.875 L 413.179688 409.875 L 413.554688 409.878906 L 414.308594 409.878906 L 414.6875 409.882812 L 415.0625 409.882812 L 415.4375 409.886719 L 416.191406 409.886719 L 416.570312 409.890625 L 417.324219 409.890625 L 417.699219 409.894531 L 418.078125 409.894531 L 418.453125 409.898438 L 419.207031 409.898438 L 419.585938 409.902344 L 420.339844 409.902344 L 420.714844 409.90625 L 421.46875 409.90625 L 421.847656 409.910156 L 422.597656 409.910156 L 422.976562 409.914062 L 423.730469 409.914062 L 424.105469 409.917969 L 424.859375 409.917969 L 425.238281 409.921875 L 426.367188 409.921875 L 426.746094 409.925781 L 427.5 409.925781 L 427.875 409.929688 L 429.007812 409.929688 L 429.382812 409.933594 L 430.136719 409.933594 L 430.511719 409.9375 L 431.644531 409.9375 L 432.019531 409.941406 L 433.152344 409.941406 L 433.527344 409.945312 L 434.660156 409.945312 L 435.035156 409.949219 L 436.164062 409.949219 L 436.542969 409.953125 L 437.671875 409.953125 L 438.050781 409.957031 L 439.558594 409.957031 L 439.933594 409.960938 L 441.066406 409.960938 L 441.441406 409.964844 L 442.949219 409.964844 L 443.324219 409.96875 L 444.832031 409.96875 L 445.210938 409.972656 L 446.71875 409.972656 L 447.09375 409.976562 L 448.980469 409.976562 L 449.355469 409.980469 L 451.238281 409.980469 L 451.617188 409.984375 L 453.5 409.984375 L 453.878906 409.988281 L 455.761719 409.988281 L 456.140625 409.992188 L 458.398438 409.992188 "/>
<g clip-path="url(#clip1)" clip-rule="nonzero">
<path style="fill:none;stroke-width:0.75;stroke-linecap:round;stroke-linejoin:round;stroke:rgb(0%,0%,0%);stroke-opacity:1;stroke-miterlimit:10;" d="M 82.304688 -343.089844 L 82.683594 -117.195312 L 83.058594 -16.15625 L 83.4375 44.621094 L 83.8125 86.457031 L 84.191406 117.59375 L 84.566406 141.984375 L 84.945312 161.796875 L 85.320312 178.328125 L 85.699219 192.40625 L 86.074219 204.601562 L 86.453125 215.308594 L 86.828125 224.8125 L 87.207031 233.328125 L 87.582031 241.023438 L 87.957031 248.019531 L 88.335938 254.421875 L 88.710938 260.316406 L 89.089844 265.761719 L 89.464844 270.816406 L 89.84375 275.523438 L 90.21875 279.925781 L 90.597656 284.054688 L 90.972656 287.933594 L 91.351562 291.59375 L 91.726562 295.050781 L 92.105469 298.324219 L 92.480469 301.429688 L 92.859375 304.382812 L 93.234375 307.195312 L 93.613281 309.875 L 93.988281 312.433594 L 94.367188 314.882812 L 94.742188 317.226562 L 95.117188 319.472656 L 95.496094 321.628906 L 95.871094 323.703125 L 96.25 325.695312 L 96.625 327.613281 L 97.003906 329.460938 L 97.378906 331.242188 L 97.757812 332.960938 L 98.132812 334.621094 L 98.511719 336.226562 L 98.886719 337.78125 L 99.265625 339.28125 L 99.640625 340.734375 L 100.019531 342.144531 L 100.394531 343.511719 L 100.773438 344.835938 L 101.148438 346.121094 L 101.527344 347.371094 L 101.902344 348.582031 L 102.277344 349.761719 L 102.65625 350.90625 L 103.03125 352.019531 L 103.410156 353.105469 L 103.785156 354.160156 L 104.164062 355.1875 L 104.539062 356.1875 L 104.917969 357.164062 L 105.292969 358.117188 L 105.671875 359.042969 L 106.046875 359.945312 L 106.425781 360.828125 L 106.800781 361.691406 L 107.179688 362.53125 L 107.554688 363.351562 L 107.933594 364.152344 L 108.308594 364.933594 L 108.6875 365.699219 L 109.0625 366.449219 L 109.4375 367.179688 L 109.816406 367.894531 L 110.191406 368.59375 L 110.570312 369.277344 L 110.945312 369.945312 L 111.324219 370.601562 L 111.699219 371.242188 L 112.078125 371.871094 L 112.453125 372.484375 L 112.832031 373.085938 L 113.207031 373.675781 L 113.585938 374.253906 L 113.960938 374.816406 L 114.339844 375.371094 L 114.714844 375.914062 L 115.09375 376.449219 L 115.46875 376.96875 L 115.84375 377.484375 L 116.222656 377.984375 L 116.597656 378.476562 L 116.976562 378.960938 L 117.351562 379.433594 L 117.730469 379.898438 L 118.105469 380.355469 L 118.484375 380.804688 L 118.859375 381.242188 L 119.238281 381.675781 L 119.613281 382.097656 L 119.992188 382.511719 L 120.367188 382.921875 L 120.746094 383.324219 L 121.121094 383.714844 L 121.5 384.101562 L 121.875 384.484375 L 122.253906 384.855469 L 122.628906 385.222656 L 123.003906 385.582031 L 123.382812 385.9375 L 123.757812 386.285156 L 124.136719 386.628906 L 124.511719 386.964844 L 124.890625 387.292969 L 125.265625 387.621094 L 125.644531 387.9375 L 126.019531 388.253906 L 126.398438 388.5625 L 126.773438 388.863281 L 127.152344 389.164062 L 127.527344 389.457031 L 127.90625 389.746094 L 128.28125 390.03125 L 128.660156 390.308594 L 129.035156 390.585938 L 129.414062 390.855469 L 129.789062 391.121094 L 130.164062 391.382812 L 130.542969 391.640625 L 130.917969 391.894531 L 131.296875 392.144531 L 131.671875 392.390625 L 132.050781 392.632812 L 132.425781 392.871094 L 132.804688 393.105469 L 133.179688 393.335938 L 133.558594 393.5625 L 133.933594 393.785156 L 134.3125 394.007812 L 134.6875 394.222656 L 135.066406 394.4375 L 135.441406 394.644531 L 135.820312 394.851562 L 136.195312 395.058594 L 136.574219 395.257812 L 136.949219 395.457031 L 137.324219 395.648438 L 137.703125 395.839844 L 138.078125 396.03125 L 138.457031 396.214844 L 138.832031 396.398438 L 139.210938 396.582031 L 139.585938 396.757812 L 139.964844 396.933594 L 140.339844 397.105469 L 140.71875 397.277344 L 141.09375 397.445312 L 141.472656 397.609375 L 141.847656 397.773438 L 142.226562 397.933594 L 142.601562 398.089844 L 142.980469 398.246094 L 143.730469 398.550781 L 144.109375 398.699219 L 144.484375 398.847656 L 144.863281 398.992188 L 145.238281 399.136719 L 145.617188 399.277344 L 145.992188 399.414062 L 146.371094 399.550781 L 146.746094 399.6875 L 147.125 399.820312 L 147.5 399.949219 L 147.878906 400.078125 L 148.253906 400.207031 L 148.632812 400.332031 L 149.007812 400.457031 L 149.386719 400.578125 L 149.761719 400.699219 L 150.140625 400.816406 L 150.890625 401.050781 L 151.269531 401.164062 L 151.644531 401.277344 L 152.023438 401.386719 L 152.398438 401.496094 L 152.777344 401.605469 L 153.152344 401.710938 L 153.53125 401.816406 L 153.90625 401.917969 L 154.285156 402.023438 L 154.660156 402.121094 L 155.039062 402.222656 L 155.414062 402.320312 L 155.792969 402.417969 L 156.167969 402.511719 L 156.546875 402.605469 L 156.921875 402.699219 L 157.300781 402.789062 L 158.050781 402.96875 L 158.429688 403.058594 L 158.804688 403.144531 L 159.183594 403.230469 L 159.558594 403.3125 L 159.9375 403.398438 L 160.3125 403.480469 L 160.691406 403.558594 L 161.066406 403.640625 L 161.445312 403.71875 L 161.820312 403.796875 L 162.199219 403.875 L 162.574219 403.949219 L 162.953125 404.023438 L 163.328125 404.097656 L 163.707031 404.171875 L 164.082031 404.242188 L 164.460938 404.3125 L 165.210938 404.453125 L 165.589844 404.523438 L 165.964844 404.589844 L 166.34375 404.65625 L 166.71875 404.722656 L 167.097656 404.785156 L 167.472656 404.851562 L 167.851562 404.914062 L 168.226562 404.976562 L 168.605469 405.039062 L 168.980469 405.097656 L 169.359375 405.15625 L 169.734375 405.21875 L 170.113281 405.277344 L 170.488281 405.332031 L 170.867188 405.390625 L 171.242188 405.445312 L 171.617188 405.503906 L 171.996094 405.558594 L 172.371094 405.609375 L 172.75 405.664062 L 173.125 405.71875 L 173.503906 405.769531 L 173.878906 405.820312 L 174.257812 405.871094 L 174.632812 405.921875 L 175.011719 405.972656 L 175.386719 406.019531 L 175.765625 406.066406 L 176.140625 406.117188 L 176.519531 406.164062 L 176.894531 406.207031 L 177.273438 406.253906 L 177.648438 406.300781 L 178.027344 406.34375 L 178.402344 406.390625 L 178.777344 406.433594 L 179.15625 406.476562 L 179.53125 406.519531 L 179.910156 406.558594 L 180.285156 406.601562 L 180.664062 406.640625 L 181.039062 406.683594 L 181.417969 406.722656 L 181.792969 406.761719 L 182.171875 406.800781 L 182.546875 406.839844 L 182.925781 406.878906 L 183.300781 406.914062 L 183.679688 406.953125 L 184.054688 406.988281 L 184.433594 407.023438 L 184.808594 407.058594 L 185.1875 407.09375 L 185.9375 407.164062 L 186.316406 407.199219 L 186.691406 407.230469 L 187.070312 407.265625 L 187.445312 407.296875 L 187.824219 407.332031 L 188.199219 407.363281 L 188.578125 407.394531 L 188.953125 407.425781 L 189.332031 407.457031 L 189.707031 407.484375 L 190.085938 407.515625 L 190.460938 407.546875 L 190.839844 407.574219 L 191.214844 407.605469 L 191.59375 407.632812 L 191.96875 407.660156 L 192.347656 407.6875 L 193.097656 407.742188 L 193.476562 407.769531 L 193.851562 407.796875 L 194.230469 407.824219 L 194.605469 407.847656 L 194.984375 407.875 L 195.359375 407.898438 L 195.738281 407.925781 L 196.113281 407.949219 L 196.492188 407.972656 L 196.867188 408 L 197.246094 408.023438 L 197.621094 408.046875 L 198 408.070312 L 198.375 408.09375 L 198.753906 408.113281 L 199.503906 408.160156 L 199.882812 408.179688 L 200.257812 408.203125 L 200.636719 408.222656 L 201.011719 408.246094 L 201.390625 408.265625 L 201.765625 408.285156 L 202.144531 408.308594 L 202.519531 408.328125 L 202.898438 408.347656 L 203.273438 408.367188 L 203.652344 408.386719 L 204.027344 408.40625 L 204.40625 408.425781 L 204.78125 408.441406 L 205.160156 408.460938 L 205.535156 408.480469 L 205.914062 408.496094 L 206.289062 408.515625 L 206.664062 408.53125 L 207.042969 408.550781 L 207.417969 408.566406 L 207.796875 408.585938 L 208.171875 408.601562 L 208.550781 408.617188 L 208.925781 408.632812 L 209.304688 408.652344 L 209.679688 408.667969 L 210.058594 408.683594 L 210.433594 408.699219 L 210.8125 408.714844 L 211.1875 408.730469 L 211.566406 408.746094 L 211.941406 408.757812 L 212.320312 408.773438 L 212.695312 408.789062 L 213.074219 408.804688 L 213.449219 408.816406 L 213.824219 408.832031 L 214.203125 408.84375 L 214.578125 408.859375 L 214.957031 408.871094 L 215.332031 408.886719 L 215.710938 408.898438 L 216.085938 408.914062 L 216.464844 408.925781 L 216.839844 408.9375 L 217.21875 408.949219 L 217.59375 408.964844 L 217.972656 408.976562 L 218.347656 408.988281 L 218.726562 409 L 219.101562 409.011719 L 219.480469 409.023438 L 220.230469 409.046875 L 220.609375 409.058594 L 220.984375 409.070312 L 221.363281 409.082031 L 221.738281 409.089844 L 222.117188 409.101562 L 222.492188 409.113281 L 222.871094 409.125 L 223.246094 409.132812 L 223.625 409.144531 L 224 409.15625 L 224.378906 409.164062 L 224.753906 409.175781 L 225.132812 409.183594 L 225.507812 409.195312 L 225.886719 409.203125 L 226.261719 409.214844 L 226.640625 409.222656 L 227.015625 409.234375 L 227.390625 409.242188 L 227.769531 409.25 L 228.144531 409.261719 L 228.523438 409.269531 L 228.898438 409.277344 L 229.277344 409.285156 L 229.652344 409.296875 L 230.03125 409.304688 L 230.40625 409.3125 L 230.785156 409.320312 L 231.160156 409.328125 L 231.539062 409.335938 L 231.914062 409.34375 L 232.292969 409.351562 L 232.667969 409.359375 L 233.046875 409.367188 L 233.421875 409.375 L 233.800781 409.382812 L 234.550781 409.398438 L 234.929688 409.40625 L 235.304688 409.414062 L 235.683594 409.421875 L 236.058594 409.429688 L 236.4375 409.433594 L 236.8125 409.441406 L 237.191406 409.449219 L 237.566406 409.457031 L 237.945312 409.460938 L 238.320312 409.46875 L 238.699219 409.476562 L 239.074219 409.480469 L 239.453125 409.488281 L 239.828125 409.496094 L 240.207031 409.5 L 240.582031 409.507812 L 240.960938 409.511719 L 241.335938 409.519531 L 241.710938 409.523438 L 242.089844 409.53125 L 242.464844 409.535156 L 242.84375 409.542969 L 243.21875 409.546875 L 243.597656 409.554688 L 243.972656 409.558594 L 244.351562 409.566406 L 244.726562 409.570312 L 245.105469 409.574219 L 245.480469 409.582031 L 245.859375 409.585938 L 246.234375 409.589844 L 246.613281 409.597656 L 246.988281 409.601562 L 247.367188 409.605469 L 247.742188 409.613281 L 248.117188 409.617188 L 248.496094 409.621094 L 248.871094 409.625 L 249.25 409.632812 L 249.625 409.636719 L 250.003906 409.640625 L 250.378906 409.644531 L 250.757812 409.648438 L 251.132812 409.652344 L 251.511719 409.660156 L 251.886719 409.664062 L 252.265625 409.667969 L 252.640625 409.671875 L 253.019531 409.675781 L 253.394531 409.679688 L 253.773438 409.683594 L 254.148438 409.6875 L 254.527344 409.691406 L 255.277344 409.699219 L 255.65625 409.703125 L 256.03125 409.707031 L 256.410156 409.710938 L 256.785156 409.714844 L 257.164062 409.71875 L 257.539062 409.722656 L 257.917969 409.726562 L 258.292969 409.730469 L 258.671875 409.734375 L 259.046875 409.738281 L 259.425781 409.742188 L 259.800781 409.746094 L 260.179688 409.746094 L 260.554688 409.75 L 260.933594 409.753906 L 261.308594 409.757812 L 261.6875 409.761719 L 262.0625 409.765625 L 262.4375 409.765625 L 262.816406 409.769531 L 263.191406 409.773438 L 263.570312 409.777344 L 263.945312 409.78125 L 264.324219 409.78125 L 264.699219 409.785156 L 265.078125 409.789062 L 265.453125 409.792969 L 265.832031 409.792969 L 266.207031 409.796875 L 266.585938 409.800781 L 266.960938 409.804688 L 267.339844 409.804688 L 267.714844 409.808594 L 268.09375 409.8125 L 268.46875 409.8125 L 268.847656 409.816406 L 269.222656 409.820312 L 269.597656 409.820312 L 269.976562 409.824219 L 270.351562 409.828125 L 270.730469 409.828125 L 271.105469 409.832031 L 271.484375 409.835938 L 271.859375 409.835938 L 272.238281 409.839844 L 272.613281 409.839844 L 272.992188 409.84375 L 273.367188 409.847656 L 273.746094 409.847656 L 274.121094 409.851562 L 274.5 409.851562 L 274.875 409.855469 L 275.253906 409.855469 L 276.003906 409.863281 L 276.382812 409.863281 L 276.757812 409.867188 L 277.136719 409.867188 L 277.511719 409.871094 L 277.890625 409.871094 L 278.265625 409.875 L 278.644531 409.875 L 279.019531 409.878906 L 279.398438 409.878906 L 279.773438 409.882812 L 280.152344 409.882812 L 280.527344 409.886719 L 280.90625 409.886719 L 281.28125 409.890625 L 281.660156 409.890625 L 282.035156 409.894531 L 282.789062 409.894531 L 283.164062 409.898438 L 283.542969 409.898438 L 283.917969 409.902344 L 284.296875 409.902344 L 284.671875 409.90625 L 285.425781 409.90625 L 285.804688 409.910156 L 286.179688 409.910156 L 286.558594 409.914062 L 287.3125 409.914062 L 287.6875 409.917969 L 288.066406 409.917969 L 288.441406 409.921875 L 289.195312 409.921875 L 289.574219 409.925781 L 290.324219 409.925781 L 290.703125 409.929688 L 291.457031 409.929688 L 291.832031 409.933594 L 292.585938 409.933594 L 292.964844 409.9375 L 293.71875 409.9375 L 294.09375 409.941406 L 294.847656 409.941406 L 295.226562 409.945312 L 295.980469 409.945312 L 296.355469 409.949219 L 297.109375 409.949219 L 297.484375 409.953125 L 298.617188 409.953125 L 298.992188 409.957031 L 300.125 409.957031 L 300.5 409.960938 L 301.632812 409.960938 L 302.007812 409.964844 L 303.140625 409.964844 L 303.515625 409.96875 L 304.644531 409.96875 L 305.023438 409.972656 L 306.152344 409.972656 L 306.53125 409.976562 L 308.039062 409.976562 L 308.414062 409.980469 L 309.921875 409.980469 L 310.300781 409.984375 L 311.804688 409.984375 L 312.183594 409.988281 L 313.691406 409.988281 L 314.066406 409.992188 L 315.953125 409.992188 L 316.328125 409.996094 L 318.210938 409.996094 L 318.589844 410 L 320.851562 410 L 321.226562 410.003906 L 323.488281 410.003906 L 323.867188 410.007812 L 326.125 410.007812 L 326.503906 410.011719 L 329.519531 410.011719 L 329.894531 410.015625 L 332.910156 410.015625 L 333.285156 410.019531 L 336.679688 410.019531 L 337.054688 410.023438 L 341.199219 410.023438 L 341.578125 410.027344 L 346.097656 410.027344 L 346.476562 410.03125 L 352.128906 410.03125 L 352.507812 410.035156 L 358.914062 410.035156 L 359.289062 410.039062 L 367.578125 410.039062 L 367.957031 410.042969 L 379.261719 410.042969 L 379.640625 410.046875 L 396.972656 410.046875 L 397.351562 410.050781 L 433.527344 410.050781 L 433.90625 410.054688 L 458.398438 410.054688 "/>
</g>
<g clip-path="url(#clip2)" clip-rule="nonzero">
<path style="fill:none;stroke-width:0.75;stroke-linecap:round;stroke-linejoin:round;stroke:rgb(0%,0%,0%);stroke-opacity:1;stroke-miterlimit:10;" d="M 59.039062 410.054688 L 473.761719 410.054688 "/>
</g>
<g clip-path="url(#clip3)" clip-rule="nonzero">
<path style="fill:none;stroke-width:0.75;stroke-linecap:round;stroke-linejoin:round;stroke:rgb(0%,0%,0%);stroke-opacity:1;stroke-miterlimit:10;" d="M 81.929688 430.558594 L 81.929688 59.039062 "/>
</g>
</g>
</svg>
