<?xml version="1.0" encoding="UTF-8"?>
<svg xmlns="http://www.w3.org/2000/svg" xmlns:xlink="http://www.w3.org/1999/xlink" width="504pt" height="504pt" viewBox="0 0 504 504" version="1.1">
<g id="surface438">
<rect x="0" y="0" width="504" height="504" style="fill:rgb(100%,100%,100%);fill-opacity:1;stroke:none;"/>
<path style="fill-rule:nonzero;fill:rgb(0%,0%,0%);fill-opacity:1;stroke-width:0.75;stroke-linecap:round;stroke-linejoin:round;stroke:rgb(0%,0%,0%);stroke-opacity:1;stroke-miterlimit:10;" d="M 76.199219 185.722656 C 76.199219 188.125 72.601562 188.125 72.601562 185.722656 C 72.601562 183.324219 76.199219 183.324219 76.199219 185.722656 "/>
<path style="fill-rule:nonzero;fill:rgb(0%,0%,0%);fill-opacity:1;stroke-width:0.75;stroke-linecap:round;stroke-linejoin:round;stroke:rgb(0%,0%,0%);stroke-opacity:1;stroke-miterlimit:10;" d="M 96.285156 174.488281 C 96.285156 176.886719 92.6875 176.886719 92.6875 174.488281 C 92.6875 172.089844 96.285156 172.089844 96.285156 174.488281 "/>
<path style="fill-rule:nonzero;fill:rgb(0%,0%,0%);fill-opacity:1;stroke-width:0.75;stroke-linecap:round;stroke-linejoin:round;stroke:rgb(0%,0%,0%);stroke-opacity:1;stroke-miterlimit:10;" d="M 117.160156 164.375 C 117.160156 166.777344 113.558594 166.777344 113.558594 164.375 C 113.558594 161.976562 117.160156 161.976562 117.160156 164.375 "/>
<path style="fill-rule:nonzero;fill:rgb(0%,0%,0%);fill-opacity:1;stroke-width:0.75;stroke-linecap:round;stroke-linejoin:round;stroke:rgb(0%,0%,0%);stroke-opacity:1;stroke-miterlimit:10;" d="M 138.820312 155.328125 C 138.820312 157.726562 135.222656 157.726562 135.222656 155.328125 C 135.222656 152.929688 138.820312 152.929688 138.820312 155.328125 "/>
<path style="fill-rule:nonzero;fill:rgb(0%,0%,0%);fill-opacity:1;stroke-width:0.75;stroke-linecap:round;stroke-linejoin:round;stroke:rgb(0%,0%,0%);stroke-opacity:1;stroke-miterlimit:10;" d="M 161.269531 147.285156 C 161.269531 149.683594 157.671875 149.683594 157.671875 147.285156 C 157.671875 144.882812 161.269531 144.882812 161.269531 147.285156 "/>
<path style="fill-rule:nonzero;fill:rgb(0%,0%,0%);fill-opacity:1;stroke-width:0.75;stroke-linecap:round;stroke-linejoin:round;stroke:rgb(0%,0%,0%);stroke-opacity:1;stroke-miterlimit:10;" d="M 184.507812 140.183594 C 184.507812 142.585938 180.90625 142.585938 180.90625 140.183594 C 180.90625 137.785156 184.507812 137.785156 184.507812 140.183594 "/>
<path style="fill-rule:nonzero;fill:rgb(0%,0%,0%);fill-opacity:1;stroke-width:0.75;stroke-linecap:round;stroke-linejoin:round;stroke:rgb(0%,0%,0%);stroke-opacity:1;stroke-miterlimit:10;" d="M 208.53125 133.972656 C 208.53125 136.371094 204.933594 136.371094 204.933594 133.972656 C 204.933594 131.570312 208.53125 131.570312 208.53125 133.972656 "/>
<path style="fill-rule:nonzero;fill:rgb(0%,0%,0%);fill-opacity:1;stroke-width:0.75;stroke-linecap:round;stroke-linejoin:round;stroke:rgb(0%,0%,0%);stroke-opacity:1;stroke-miterlimit:10;" d="M 233.34375 128.585938 C 233.34375 130.984375 229.746094 130.984375 229.746094 128.585938 C 229.746094 126.1875 233.34375 126.1875 233.34375 128.585938 "/>
<path style="fill-rule:nonzero;fill:rgb(0%,0%,0%);fill-opacity:1;stroke-width:0.75;stroke-linecap:round;stroke-linejoin:round;stroke:rgb(0%,0%,0%);stroke-opacity:1;stroke-miterlimit:10;" d="M 258.945312 123.96875 C 258.945312 126.367188 255.34375 126.367188 255.34375 123.96875 C 255.34375 121.566406 258.945312 121.566406 258.945312 123.96875 "/>
<path style="fill-rule:nonzero;fill:rgb(0%,0%,0%);fill-opacity:1;stroke-width:0.75;stroke-linecap:round;stroke-linejoin:round;stroke:rgb(0%,0%,0%);stroke-opacity:1;stroke-miterlimit:10;" d="M 285.332031 120.058594 C 285.332031 122.460938 281.730469 122.460938 281.730469 120.058594 C 281.730469 117.660156 285.332031 117.660156 285.332031 120.058594 "/>
<path style="fill-rule:nonzero;fill:rgb(0%,0%,0%);fill-opacity:1;stroke-width:0.75;stroke-linecap:round;stroke-linejoin:round;stroke:rgb(0%,0%,0%);stroke-opacity:1;stroke-miterlimit:10;" d="M 312.507812 116.800781 C 312.507812 119.199219 308.90625 119.199219 308.90625 116.800781 C 308.90625 114.398438 312.507812 114.398438 312.507812 116.800781 "/>
<path style="fill-rule:nonzero;fill:rgb(0%,0%,0%);fill-opacity:1;stroke-width:0.75;stroke-linecap:round;stroke-linejoin:round;stroke:rgb(0%,0%,0%);stroke-opacity:1;stroke-miterlimit:10;" d="M 86.144531 198.140625 C 86.144531 200.539062 82.542969 200.539062 82.542969 198.140625 C 82.542969 195.738281 86.144531 195.738281 86.144531 198.140625 "/>
<path style="fill-rule:nonzero;fill:rgb(0%,0%,0%);fill-opacity:1;stroke-width:0.75;stroke-linecap:round;stroke-linejoin:round;stroke:rgb(0%,0%,0%);stroke-opacity:1;stroke-miterlimit:10;" d="M 106.625 185.722656 C 106.625 188.125 103.023438 188.125 103.023438 185.722656 C 103.023438 183.324219 106.625 183.324219 106.625 185.722656 "/>
<path style="fill-rule:nonzero;fill:rgb(0%,0%,0%);fill-opacity:1;stroke-width:0.75;stroke-linecap:round;stroke-linejoin:round;stroke:rgb(0%,0%,0%);stroke-opacity:1;stroke-miterlimit:10;" d="M 127.890625 174.488281 C 127.890625 176.886719 124.292969 176.886719 124.292969 174.488281 C 124.292969 172.089844 127.890625 172.089844 127.890625 174.488281 "/>
<path style="fill-rule:nonzero;fill:rgb(0%,0%,0%);fill-opacity:1;stroke-width:0.75;stroke-linecap:round;stroke-linejoin:round;stroke:rgb(0%,0%,0%);stroke-opacity:1;stroke-miterlimit:10;" d="M 149.949219 164.375 C 149.949219 166.777344 146.347656 166.777344 146.347656 164.375 C 146.347656 161.976562 149.949219 161.976562 149.949219 164.375 "/>
<path style="fill-rule:nonzero;fill:rgb(0%,0%,0%);fill-opacity:1;stroke-width:0.75;stroke-linecap:round;stroke-linejoin:round;stroke:rgb(0%,0%,0%);stroke-opacity:1;stroke-miterlimit:10;" d="M 172.789062 155.328125 C 172.789062 157.726562 169.191406 157.726562 169.191406 155.328125 C 169.191406 152.929688 172.789062 152.929688 172.789062 155.328125 "/>
<path style="fill-rule:nonzero;fill:rgb(0%,0%,0%);fill-opacity:1;stroke-width:0.75;stroke-linecap:round;stroke-linejoin:round;stroke:rgb(0%,0%,0%);stroke-opacity:1;stroke-miterlimit:10;" d="M 196.421875 147.285156 C 196.421875 149.683594 192.820312 149.683594 192.820312 147.285156 C 192.820312 144.882812 196.421875 144.882812 196.421875 147.285156 "/>
<path style="fill-rule:nonzero;fill:rgb(0%,0%,0%);fill-opacity:1;stroke-width:0.75;stroke-linecap:round;stroke-linejoin:round;stroke:rgb(0%,0%,0%);stroke-opacity:1;stroke-miterlimit:10;" d="M 220.839844 140.183594 C 220.839844 142.585938 217.238281 142.585938 217.238281 140.183594 C 217.238281 137.785156 220.839844 137.785156 220.839844 140.183594 "/>
<path style="fill-rule:nonzero;fill:rgb(0%,0%,0%);fill-opacity:1;stroke-width:0.75;stroke-linecap:round;stroke-linejoin:round;stroke:rgb(0%,0%,0%);stroke-opacity:1;stroke-miterlimit:10;" d="M 246.046875 133.972656 C 246.046875 136.371094 242.445312 136.371094 242.445312 133.972656 C 242.445312 131.570312 246.046875 131.570312 246.046875 133.972656 "/>
<path style="fill-rule:nonzero;fill:rgb(0%,0%,0%);fill-opacity:1;stroke-width:0.75;stroke-linecap:round;stroke-linejoin:round;stroke:rgb(0%,0%,0%);stroke-opacity:1;stroke-miterlimit:10;" d="M 272.039062 128.585938 C 272.039062 130.984375 268.441406 130.984375 268.441406 128.585938 C 268.441406 126.1875 272.039062 126.1875 272.039062 128.585938 "/>
<path style="fill-rule:nonzero;fill:rgb(0%,0%,0%);fill-opacity:1;stroke-width:0.75;stroke-linecap:round;stroke-linejoin:round;stroke:rgb(0%,0%,0%);stroke-opacity:1;stroke-miterlimit:10;" d="M 298.820312 123.96875 C 298.820312 126.367188 295.222656 126.367188 295.222656 123.96875 C 295.222656 121.566406 298.820312 121.566406 298.820312 123.96875 "/>
<path style="fill-rule:nonzero;fill:rgb(0%,0%,0%);fill-opacity:1;stroke-width:0.75;stroke-linecap:round;stroke-linejoin:round;stroke:rgb(0%,0%,0%);stroke-opacity:1;stroke-miterlimit:10;" d="M 326.390625 120.058594 C 326.390625 122.460938 322.789062 122.460938 322.789062 120.058594 C 322.789062 117.660156 326.390625 117.660156 326.390625 120.058594 "/>
<path style="fill-rule:nonzero;fill:rgb(0%,0%,0%);fill-opacity:1;stroke-width:0.75;stroke-linecap:round;stroke-linejoin:round;stroke:rgb(0%,0%,0%);stroke-opacity:1;stroke-miterlimit:10;" d="M 96.285156 211.796875 C 96.285156 214.195312 92.6875 214.195312 92.6875 211.796875 C 92.6875 209.394531 96.285156 209.394531 96.285156 211.796875 "/>
<path style="fill-rule:nonzero;fill:rgb(0%,0%,0%);fill-opacity:1;stroke-width:0.75;stroke-linecap:round;stroke-linejoin:round;stroke:rgb(0%,0%,0%);stroke-opacity:1;stroke-miterlimit:10;" d="M 117.160156 198.140625 C 117.160156 200.539062 113.558594 200.539062 113.558594 198.140625 C 113.558594 195.738281 117.160156 195.738281 117.160156 198.140625 "/>
<path style="fill-rule:nonzero;fill:rgb(0%,0%,0%);fill-opacity:1;stroke-width:0.75;stroke-linecap:round;stroke-linejoin:round;stroke:rgb(0%,0%,0%);stroke-opacity:1;stroke-miterlimit:10;" d="M 138.820312 185.722656 C 138.820312 188.125 135.222656 188.125 135.222656 185.722656 C 135.222656 183.324219 138.820312 183.324219 138.820312 185.722656 "/>
<path style="fill-rule:nonzero;fill:rgb(0%,0%,0%);fill-opacity:1;stroke-width:0.75;stroke-linecap:round;stroke-linejoin:round;stroke:rgb(0%,0%,0%);stroke-opacity:1;stroke-miterlimit:10;" d="M 161.269531 174.488281 C 161.269531 176.886719 157.671875 176.886719 157.671875 174.488281 C 157.671875 172.089844 161.269531 172.089844 161.269531 174.488281 "/>
<path style="fill-rule:nonzero;fill:rgb(0%,0%,0%);fill-opacity:1;stroke-width:0.75;stroke-linecap:round;stroke-linejoin:round;stroke:rgb(0%,0%,0%);stroke-opacity:1;stroke-miterlimit:10;" d="M 184.507812 164.375 C 184.507812 166.777344 180.90625 166.777344 180.90625 164.375 C 180.90625 161.976562 184.507812 161.976562 184.507812 164.375 "/>
<path style="fill-rule:nonzero;fill:rgb(0%,0%,0%);fill-opacity:1;stroke-width:0.75;stroke-linecap:round;stroke-linejoin:round;stroke:rgb(0%,0%,0%);stroke-opacity:1;stroke-miterlimit:10;" d="M 208.53125 155.328125 C 208.53125 157.726562 204.933594 157.726562 204.933594 155.328125 C 204.933594 152.929688 208.53125 152.929688 208.53125 155.328125 "/>
<path style="fill-rule:nonzero;fill:rgb(0%,0%,0%);fill-opacity:1;stroke-width:0.75;stroke-linecap:round;stroke-linejoin:round;stroke:rgb(0%,0%,0%);stroke-opacity:1;stroke-miterlimit:10;" d="M 233.34375 147.285156 C 233.34375 149.683594 229.746094 149.683594 229.746094 147.285156 C 229.746094 144.882812 233.34375 144.882812 233.34375 147.285156 "/>
<path style="fill-rule:nonzero;fill:rgb(0%,0%,0%);fill-opacity:1;stroke-width:0.75;stroke-linecap:round;stroke-linejoin:round;stroke:rgb(0%,0%,0%);stroke-opacity:1;stroke-miterlimit:10;" d="M 258.945312 140.183594 C 258.945312 142.585938 255.34375 142.585938 255.34375 140.183594 C 255.34375 137.785156 258.945312 137.785156 258.945312 140.183594 "/>
<path style="fill-rule:nonzero;fill:rgb(0%,0%,0%);fill-opacity:1;stroke-width:0.75;stroke-linecap:round;stroke-linejoin:round;stroke:rgb(0%,0%,0%);stroke-opacity:1;stroke-miterlimit:10;" d="M 285.332031 133.972656 C 285.332031 136.371094 281.730469 136.371094 281.730469 133.972656 C 281.730469 131.570312 285.332031 131.570312 285.332031 133.972656 "/>
<path style="fill-rule:nonzero;fill:rgb(0%,0%,0%);fill-opacity:1;stroke-width:0.75;stroke-linecap:round;stroke-linejoin:round;stroke:rgb(0%,0%,0%);stroke-opacity:1;stroke-miterlimit:10;" d="M 312.507812 128.585938 C 312.507812 130.984375 308.90625 130.984375 308.90625 128.585938 C 308.90625 126.1875 312.507812 126.1875 312.507812 128.585938 "/>
<path style="fill-rule:nonzero;fill:rgb(0%,0%,0%);fill-opacity:1;stroke-width:0.75;stroke-linecap:round;stroke-linejoin:round;stroke:rgb(0%,0%,0%);stroke-opacity:1;stroke-miterlimit:10;" d="M 340.472656 123.96875 C 340.472656 126.367188 336.871094 126.367188 336.871094 123.96875 C 336.871094 121.566406 340.472656 121.566406 340.472656 123.96875 "/>
<path style="fill-rule:nonzero;fill:rgb(0%,0%,0%);fill-opacity:1;stroke-width:0.75;stroke-linecap:round;stroke-linejoin:round;stroke:rgb(0%,0%,0%);stroke-opacity:1;stroke-miterlimit:10;" d="M 106.625 226.753906 C 106.625 229.152344 103.023438 229.152344 103.023438 226.753906 C 103.023438 224.351562 106.625 224.351562 106.625 226.753906 "/>
<path style="fill-rule:nonzero;fill:rgb(0%,0%,0%);fill-opacity:1;stroke-width:0.75;stroke-linecap:round;stroke-linejoin:round;stroke:rgb(0%,0%,0%);stroke-opacity:1;stroke-miterlimit:10;" d="M 127.890625 211.796875 C 127.890625 214.195312 124.292969 214.195312 124.292969 211.796875 C 124.292969 209.394531 127.890625 209.394531 127.890625 211.796875 "/>
<path style="fill-rule:nonzero;fill:rgb(0%,0%,0%);fill-opacity:1;stroke-width:0.75;stroke-linecap:round;stroke-linejoin:round;stroke:rgb(0%,0%,0%);stroke-opacity:1;stroke-miterlimit:10;" d="M 149.949219 198.140625 C 149.949219 200.539062 146.347656 200.539062 146.347656 198.140625 C 146.347656 195.738281 149.949219 195.738281 149.949219 198.140625 "/>
<path style="fill-rule:nonzero;fill:rgb(0%,0%,0%);fill-opacity:1;stroke-width:0.75;stroke-linecap:round;stroke-linejoin:round;stroke:rgb(0%,0%,0%);stroke-opacity:1;stroke-miterlimit:10;" d="M 172.789062 185.722656 C 172.789062 188.125 169.191406 188.125 169.191406 185.722656 C 169.191406 183.324219 172.789062 183.324219 172.789062 185.722656 "/>
<path style="fill-rule:nonzero;fill:rgb(0%,0%,0%);fill-opacity:1;stroke-width:0.75;stroke-linecap:round;stroke-linejoin:round;stroke:rgb(0%,0%,0%);stroke-opacity:1;stroke-miterlimit:10;" d="M 196.421875 174.488281 C 196.421875 176.886719 192.820312 176.886719 192.820312 174.488281 C 192.820312 172.089844 196.421875 172.089844 196.421875 174.488281 "/>
<path style="fill-rule:nonzero;fill:rgb(0%,0%,0%);fill-opacity:1;stroke-width:0.75;stroke-linecap:round;stroke-linejoin:round;stroke:rgb(0%,0%,0%);stroke-opacity:1;stroke-miterlimit:10;" d="M 220.839844 164.375 C 220.839844 166.777344 217.238281 166.777344 217.238281 164.375 C 217.238281 161.976562 220.839844 161.976562 220.839844 164.375 "/>
<path style="fill-rule:nonzero;fill:rgb(0%,0%,0%);fill-opacity:1;stroke-width:0.75;stroke-linecap:round;stroke-linejoin:round;stroke:rgb(0%,0%,0%);stroke-opacity:1;stroke-miterlimit:10;" d="M 246.046875 155.328125 C 246.046875 157.726562 242.445312 157.726562 242.445312 155.328125 C 242.445312 152.929688 246.046875 152.929688 246.046875 155.328125 "/>
<path style="fill-rule:nonzero;fill:rgb(0%,0%,0%);fill-opacity:1;stroke-width:0.75;stroke-linecap:round;stroke-linejoin:round;stroke:rgb(0%,0%,0%);stroke-opacity:1;stroke-miterlimit:10;" d="M 272.039062 147.285156 C 272.039062 149.683594 268.441406 149.683594 268.441406 147.285156 C 268.441406 144.882812 272.039062 144.882812 272.039062 147.285156 "/>
<path style="fill-rule:nonzero;fill:rgb(0%,0%,0%);fill-opacity:1;stroke-width:0.75;stroke-linecap:round;stroke-linejoin:round;stroke:rgb(0%,0%,0%);stroke-opacity:1;stroke-miterlimit:10;" d="M 298.820312 140.183594 C 298.820312 142.585938 295.222656 142.585938 295.222656 140.183594 C 295.222656 137.785156 298.820312 137.785156 298.820312 140.183594 "/>
<path style="fill-rule:nonzero;fill:rgb(0%,0%,0%);fill-opacity:1;stroke-width:0.75;stroke-linecap:round;stroke-linejoin:round;stroke:rgb(0%,0%,0%);stroke-opacity:1;stroke-miterlimit:10;" d="M 326.390625 133.972656 C 326.390625 136.371094 322.789062 136.371094 322.789062 133.972656 C 322.789062 131.570312 326.390625 131.570312 326.390625 133.972656 "/>
<path style="fill-rule:nonzero;fill:rgb(0%,0%,0%);fill-opacity:1;stroke-width:0.75;stroke-linecap:round;stroke-linejoin:round;stroke:rgb(0%,0%,0%);stroke-opacity:1;stroke-miterlimit:10;" d="M 354.746094 128.585938 C 354.746094 130.984375 351.148438 130.984375 351.148438 128.585938 C 351.148438 126.1875 354.746094 126.1875 354.746094 128.585938 "/>
<path style="fill-rule:nonzero;fill:rgb(0%,0%,0%);fill-opacity:1;stroke-width:0.75;stroke-linecap:round;stroke-linejoin:round;stroke:rgb(0%,0%,0%);stroke-opacity:1;stroke-miterlimit:10;" d="M 117.160156 243.066406 C 117.160156 245.46875 113.558594 245.46875 113.558594 243.066406 C 113.558594 240.667969 117.160156 240.667969 117.160156 243.066406 "/>
<path style="fill-rule:nonzero;fill:rgb(0%,0%,0%);fill-opacity:1;stroke-width:0.75;stroke-linecap:round;stroke-linejoin:round;stroke:rgb(0%,0%,0%);stroke-opacity:1;stroke-miterlimit:10;" d="M 138.820312 226.753906 C 138.820312 229.152344 135.222656 229.152344 135.222656 226.753906 C 135.222656 224.351562 138.820312 224.351562 138.820312 226.753906 "/>
<path style="fill-rule:nonzero;fill:rgb(0%,0%,0%);fill-opacity:1;stroke-width:0.75;stroke-linecap:round;stroke-linejoin:round;stroke:rgb(0%,0%,0%);stroke-opacity:1;stroke-miterlimit:10;" d="M 161.269531 211.796875 C 161.269531 214.195312 157.671875 214.195312 157.671875 211.796875 C 157.671875 209.394531 161.269531 209.394531 161.269531 211.796875 "/>
<path style="fill-rule:nonzero;fill:rgb(0%,0%,0%);fill-opacity:1;stroke-width:0.75;stroke-linecap:round;stroke-linejoin:round;stroke:rgb(0%,0%,0%);stroke-opacity:1;stroke-miterlimit:10;" d="M 184.507812 198.140625 C 184.507812 200.539062 180.90625 200.539062 180.90625 198.140625 C 180.90625 195.738281 184.507812 195.738281 184.507812 198.140625 "/>
<path style="fill-rule:nonzero;fill:rgb(0%,0%,0%);fill-opacity:1;stroke-width:0.75;stroke-linecap:round;stroke-linejoin:round;stroke:rgb(0%,0%,0%);stroke-opacity:1;stroke-miterlimit:10;" d="M 208.53125 185.722656 C 208.53125 188.125 204.933594 188.125 204.933594 185.722656 C 204.933594 183.324219 208.53125 183.324219 208.53125 185.722656 "/>
<path style="fill-rule:nonzero;fill:rgb(0%,0%,0%);fill-opacity:1;stroke-width:0.75;stroke-linecap:round;stroke-linejoin:round;stroke:rgb(0%,0%,0%);stroke-opacity:1;stroke-miterlimit:10;" d="M 233.34375 174.488281 C 233.34375 176.886719 229.746094 176.886719 229.746094 174.488281 C 229.746094 172.089844 233.34375 172.089844 233.34375 174.488281 "/>
<path style="fill-rule:nonzero;fill:rgb(0%,0%,0%);fill-opacity:1;stroke-width:0.75;stroke-linecap:round;stroke-linejoin:round;stroke:rgb(0%,0%,0%);stroke-opacity:1;stroke-miterlimit:10;" d="M 258.945312 164.375 C 258.945312 166.777344 255.34375 166.777344 255.34375 164.375 C 255.34375 161.976562 258.945312 161.976562 258.945312 164.375 "/>
<path style="fill-rule:nonzero;fill:rgb(0%,0%,0%);fill-opacity:1;stroke-width:0.75;stroke-linecap:round;stroke-linejoin:round;stroke:rgb(0%,0%,0%);stroke-opacity:1;stroke-miterlimit:10;" d="M 285.332031 155.328125 C 285.332031 157.726562 281.730469 157.726562 281.730469 155.328125 C 281.730469 152.929688 285.332031 152.929688 285.332031 155.328125 "/>
<path style="fill-rule:nonzero;fill:rgb(0%,0%,0%);fill-opacity:1;stroke-width:0.75;stroke-linecap:round;stroke-linejoin:round;stroke:rgb(0%,0%,0%);stroke-opacity:1;stroke-miterlimit:10;" d="M 312.507812 147.285156 C 312.507812 149.683594 308.90625 149.683594 308.90625 147.285156 C 308.90625 144.882812 312.507812 144.882812 312.507812 147.285156 "/>
<path style="fill-rule:nonzero;fill:rgb(0%,0%,0%);fill-opacity:1;stroke-width:0.75;stroke-linecap:round;stroke-linejoin:round;stroke:rgb(0%,0%,0%);stroke-opacity:1;stroke-miterlimit:10;" d="M 340.472656 140.183594 C 340.472656 142.585938 336.871094 142.585938 336.871094 140.183594 C 336.871094 137.785156 340.472656 137.785156 340.472656 140.183594 "/>
<path style="fill-rule:nonzero;fill:rgb(0%,0%,0%);fill-opacity:1;stroke-width:0.75;stroke-linecap:round;stroke-linejoin:round;stroke:rgb(0%,0%,0%);stroke-opacity:1;stroke-miterlimit:10;" d="M 369.222656 133.972656 C 369.222656 136.371094 365.621094 136.371094 365.621094 133.972656 C 365.621094 131.570312 369.222656 131.570312 369.222656 133.972656 "/>
<path style="fill-rule:nonzero;fill:rgb(0%,0%,0%);fill-opacity:1;stroke-width:0.75;stroke-linecap:round;stroke-linejoin:round;stroke:rgb(0%,0%,0%);stroke-opacity:1;stroke-miterlimit:10;" d="M 127.890625 260.800781 C 127.890625 263.199219 124.292969 263.199219 124.292969 260.800781 C 124.292969 258.398438 127.890625 258.398438 127.890625 260.800781 "/>
<path style="fill-rule:nonzero;fill:rgb(0%,0%,0%);fill-opacity:1;stroke-width:0.75;stroke-linecap:round;stroke-linejoin:round;stroke:rgb(0%,0%,0%);stroke-opacity:1;stroke-miterlimit:10;" d="M 149.949219 243.066406 C 149.949219 245.46875 146.347656 245.46875 146.347656 243.066406 C 146.347656 240.667969 149.949219 240.667969 149.949219 243.066406 "/>
<path style="fill-rule:nonzero;fill:rgb(0%,0%,0%);fill-opacity:1;stroke-width:0.75;stroke-linecap:round;stroke-linejoin:round;stroke:rgb(0%,0%,0%);stroke-opacity:1;stroke-miterlimit:10;" d="M 172.789062 226.753906 C 172.789062 229.152344 169.191406 229.152344 169.191406 226.753906 C 169.191406 224.351562 172.789062 224.351562 172.789062 226.753906 "/>
<path style="fill-rule:nonzero;fill:rgb(0%,0%,0%);fill-opacity:1;stroke-width:0.75;stroke-linecap:round;stroke-linejoin:round;stroke:rgb(0%,0%,0%);stroke-opacity:1;stroke-miterlimit:10;" d="M 196.421875 211.796875 C 196.421875 214.195312 192.820312 214.195312 192.820312 211.796875 C 192.820312 209.394531 196.421875 209.394531 196.421875 211.796875 "/>
<path style="fill-rule:nonzero;fill:rgb(0%,0%,0%);fill-opacity:1;stroke-width:0.75;stroke-linecap:round;stroke-linejoin:round;stroke:rgb(0%,0%,0%);stroke-opacity:1;stroke-miterlimit:10;" d="M 220.839844 198.140625 C 220.839844 200.539062 217.238281 200.539062 217.238281 198.140625 C 217.238281 195.738281 220.839844 195.738281 220.839844 198.140625 "/>
<path style="fill-rule:nonzero;fill:rgb(0%,0%,0%);fill-opacity:1;stroke-width:0.75;stroke-linecap:round;stroke-linejoin:round;stroke:rgb(0%,0%,0%);stroke-opacity:1;stroke-miterlimit:10;" d="M 246.046875 185.722656 C 246.046875 188.125 242.445312 188.125 242.445312 185.722656 C 242.445312 183.324219 246.046875 183.324219 246.046875 185.722656 "/>
<path style="fill-rule:nonzero;fill:rgb(0%,0%,0%);fill-opacity:1;stroke-width:0.75;stroke-linecap:round;stroke-linejoin:round;stroke:rgb(0%,0%,0%);stroke-opacity:1;stroke-miterlimit:10;" d="M 272.039062 174.488281 C 272.039062 176.886719 268.441406 176.886719 268.441406 174.488281 C 268.441406 172.089844 272.039062 172.089844 272.039062 174.488281 "/>
<path style="fill-rule:nonzero;fill:rgb(0%,0%,0%);fill-opacity:1;stroke-width:0.75;stroke-linecap:round;stroke-linejoin:round;stroke:rgb(0%,0%,0%);stroke-opacity:1;stroke-miterlimit:10;" d="M 298.820312 164.375 C 298.820312 166.777344 295.222656 166.777344 295.222656 164.375 C 295.222656 161.976562 298.820312 161.976562 298.820312 164.375 "/>
<path style="fill-rule:nonzero;fill:rgb(0%,0%,0%);fill-opacity:1;stroke-width:0.75;stroke-linecap:round;stroke-linejoin:round;stroke:rgb(0%,0%,0%);stroke-opacity:1;stroke-miterlimit:10;" d="M 326.390625 155.328125 C 326.390625 157.726562 322.789062 157.726562 322.789062 155.328125 C 322.789062 152.929688 326.390625 152.929688 326.390625 155.328125 "/>
<path style="fill-rule:nonzero;fill:rgb(0%,0%,0%);fill-opacity:1;stroke-width:0.75;stroke-linecap:round;stroke-linejoin:round;stroke:rgb(0%,0%,0%);stroke-opacity:1;stroke-miterlimit:10;" d="M 354.746094 147.285156 C 354.746094 149.683594 351.148438 149.683594 351.148438 147.285156 C 351.148438 144.882812 354.746094 144.882812 354.746094 147.285156 "/>
<path style="fill-rule:nonzero;fill:rgb(0%,0%,0%);fill-opacity:1;stroke-width:0.75;stroke-linecap:round;stroke-linejoin:round;stroke:rgb(0%,0%,0%);stroke-opacity:1;stroke-miterlimit:10;" d="M 383.890625 140.183594 C 383.890625 142.585938 380.292969 142.585938 380.292969 140.183594 C 380.292969 137.785156 383.890625 137.785156 383.890625 140.183594 "/>
<path style="fill-rule:nonzero;fill:rgb(0%,0%,0%);fill-opacity:1;stroke-width:0.75;stroke-linecap:round;stroke-linejoin:round;stroke:rgb(0%,0%,0%);stroke-opacity:1;stroke-miterlimit:10;" d="M 138.820312 280.011719 C 138.820312 282.410156 135.222656 282.410156 135.222656 280.011719 C 135.222656 277.609375 138.820312 277.609375 138.820312 280.011719 "/>
<path style="fill-rule:nonzero;fill:rgb(0%,0%,0%);fill-opacity:1;stroke-width:0.75;stroke-linecap:round;stroke-linejoin:round;stroke:rgb(0%,0%,0%);stroke-opacity:1;stroke-miterlimit:10;" d="M 161.269531 260.800781 C 161.269531 263.199219 157.671875 263.199219 157.671875 260.800781 C 157.671875 258.398438 161.269531 258.398438 161.269531 260.800781 "/>
<path style="fill-rule:nonzero;fill:rgb(0%,0%,0%);fill-opacity:1;stroke-width:0.75;stroke-linecap:round;stroke-linejoin:round;stroke:rgb(0%,0%,0%);stroke-opacity:1;stroke-miterlimit:10;" d="M 184.507812 243.066406 C 184.507812 245.46875 180.90625 245.46875 180.90625 243.066406 C 180.90625 240.667969 184.507812 240.667969 184.507812 243.066406 "/>
<path style="fill-rule:nonzero;fill:rgb(0%,0%,0%);fill-opacity:1;stroke-width:0.75;stroke-linecap:round;stroke-linejoin:round;stroke:rgb(0%,0%,0%);stroke-opacity:1;stroke-miterlimit:10;" d="M 208.53125 226.753906 C 208.53125 229.152344 204.933594 229.152344 204.933594 226.753906 C 204.933594 224.351562 208.53125 224.351562 208.53125 226.753906 "/>
<path style="fill-rule:nonzero;fill:rgb(0%,0%,0%);fill-opacity:1;stroke-width:0.75;stroke-linecap:round;stroke-linejoin:round;stroke:rgb(0%,0%,0%);stroke-opacity:1;stroke-miterlimit:10;" d="M 233.34375 211.796875 C 233.34375 214.195312 229.746094 214.195312 229.746094 211.796875 C 229.746094 209.394531 233.34375 209.394531 233.34375 211.796875 "/>
<path style="fill-rule:nonzero;fill:rgb(0%,0%,0%);fill-opacity:1;stroke-width:0.75;stroke-linecap:round;stroke-linejoin:round;stroke:rgb(0%,0%,0%);stroke-opacity:1;stroke-miterlimit:10;" d="M 258.945312 198.140625 C 258.945312 200.539062 255.34375 200.539062 255.34375 198.140625 C 255.34375 195.738281 258.945312 195.738281 258.945312 198.140625 "/>
<path style="fill-rule:nonzero;fill:rgb(0%,0%,0%);fill-opacity:1;stroke-width:0.75;stroke-linecap:round;stroke-linejoin:round;stroke:rgb(0%,0%,0%);stroke-opacity:1;stroke-miterlimit:10;" d="M 285.332031 185.722656 C 285.332031 188.125 281.730469 188.125 281.730469 185.722656 C 281.730469 183.324219 285.332031 183.324219 285.332031 185.722656 "/>
<path style="fill-rule:nonzero;fill:rgb(0%,0%,0%);fill-opacity:1;stroke-width:0.75;stroke-linecap:round;stroke-linejoin:round;stroke:rgb(0%,0%,0%);stroke-opacity:1;stroke-miterlimit:10;" d="M 312.507812 174.488281 C 312.507812 176.886719 308.90625 176.886719 308.90625 174.488281 C 308.90625 172.089844 312.507812 172.089844 312.507812 174.488281 "/>
<path style="fill-rule:nonzero;fill:rgb(0%,0%,0%);fill-opacity:1;stroke-width:0.75;stroke-linecap:round;stroke-linejoin:round;stroke:rgb(0%,0%,0%);stroke-opacity:1;stroke-miterlimit:10;" d="M 340.472656 164.375 C 340.472656 166.777344 336.871094 166.777344 336.871094 164.375 C 336.871094 161.976562 340.472656 161.976562 340.472656 164.375 "/>
<path style="fill-rule:nonzero;fill:rgb(0%,0%,0%);fill-opacity:1;stroke-width:0.75;stroke-linecap:round;stroke-linejoin:round;stroke:rgb(0%,0%,0%);stroke-opacity:1;stroke-miterlimit:10;" d="M 369.222656 155.328125 C 369.222656 157.726562 365.621094 157.726562 365.621094 155.328125 C 365.621094 152.929688 369.222656 152.929688 369.222656 155.328125 "/>
<path style="fill-rule:nonzero;fill:rgb(0%,0%,0%);fill-opacity:1;stroke-width:0.75;stroke-linecap:round;stroke-linejoin:round;stroke:rgb(0%,0%,0%);stroke-opacity:1;stroke-miterlimit:10;" d="M 398.761719 147.285156 C 398.761719 149.683594 395.160156 149.683594 395.160156 147.285156 C 395.160156 144.882812 398.761719 144.882812 398.761719 147.285156 "/>
<path style="fill-rule:nonzero;fill:rgb(0%,0%,0%);fill-opacity:1;stroke-width:0.75;stroke-linecap:round;stroke-linejoin:round;stroke:rgb(0%,0%,0%);stroke-opacity:1;stroke-miterlimit:10;" d="M 149.949219 300.753906 C 149.949219 303.15625 146.347656 303.15625 146.347656 300.753906 C 146.347656 298.355469 149.949219 298.355469 149.949219 300.753906 "/>
<path style="fill-rule:nonzero;fill:rgb(0%,0%,0%);fill-opacity:1;stroke-width:0.75;stroke-linecap:round;stroke-linejoin:round;stroke:rgb(0%,0%,0%);stroke-opacity:1;stroke-miterlimit:10;" d="M 172.789062 280.011719 C 172.789062 282.410156 169.191406 282.410156 169.191406 280.011719 C 169.191406 277.609375 172.789062 277.609375 172.789062 280.011719 "/>
<path style="fill-rule:nonzero;fill:rgb(0%,0%,0%);fill-opacity:1;stroke-width:0.75;stroke-linecap:round;stroke-linejoin:round;stroke:rgb(0%,0%,0%);stroke-opacity:1;stroke-miterlimit:10;" d="M 196.421875 260.800781 C 196.421875 263.199219 192.820312 263.199219 192.820312 260.800781 C 192.820312 258.398438 196.421875 258.398438 196.421875 260.800781 "/>
<path style="fill-rule:nonzero;fill:rgb(0%,0%,0%);fill-opacity:1;stroke-width:0.75;stroke-linecap:round;stroke-linejoin:round;stroke:rgb(0%,0%,0%);stroke-opacity:1;stroke-miterlimit:10;" d="M 220.839844 243.066406 C 220.839844 245.46875 217.238281 245.46875 217.238281 243.066406 C 217.238281 240.667969 220.839844 240.667969 220.839844 243.066406 "/>
<path style="fill-rule:nonzero;fill:rgb(0%,0%,0%);fill-opacity:1;stroke-width:0.75;stroke-linecap:round;stroke-linejoin:round;stroke:rgb(0%,0%,0%);stroke-opacity:1;stroke-miterlimit:10;" d="M 246.046875 226.753906 C 246.046875 229.152344 242.445312 229.152344 242.445312 226.753906 C 242.445312 224.351562 246.046875 224.351562 246.046875 226.753906 "/>
<path style="fill-rule:nonzero;fill:rgb(0%,0%,0%);fill-opacity:1;stroke-width:0.75;stroke-linecap:round;stroke-linejoin:round;stroke:rgb(0%,0%,0%);stroke-opacity:1;stroke-miterlimit:10;" d="M 272.039062 211.796875 C 272.039062 214.195312 268.441406 214.195312 268.441406 211.796875 C 268.441406 209.394531 272.039062 209.394531 272.039062 211.796875 "/>
<path style="fill-rule:nonzero;fill:rgb(0%,0%,0%);fill-opacity:1;stroke-width:0.75;stroke-linecap:round;stroke-linejoin:round;stroke:rgb(0%,0%,0%);stroke-opacity:1;stroke-miterlimit:10;" d="M 298.820312 198.140625 C 298.820312 200.539062 295.222656 200.539062 295.222656 198.140625 C 295.222656 195.738281 298.820312 195.738281 298.820312 198.140625 "/>
<path style="fill-rule:nonzero;fill:rgb(0%,0%,0%);fill-opacity:1;stroke-width:0.75;stroke-linecap:round;stroke-linejoin:round;stroke:rgb(0%,0%,0%);stroke-opacity:1;stroke-miterlimit:10;" d="M 326.390625 185.722656 C 326.390625 188.125 322.789062 188.125 322.789062 185.722656 C 322.789062 183.324219 326.390625 183.324219 326.390625 185.722656 "/>
<path style="fill-rule:nonzero;fill:rgb(0%,0%,0%);fill-opacity:1;stroke-width:0.75;stroke-linecap:round;stroke-linejoin:round;stroke:rgb(0%,0%,0%);stroke-opacity:1;stroke-miterlimit:10;" d="M 354.746094 174.488281 C 354.746094 176.886719 351.148438 176.886719 351.148438 174.488281 C 351.148438 172.089844 354.746094 172.089844 354.746094 174.488281 "/>
<path style="fill-rule:nonzero;fill:rgb(0%,0%,0%);fill-opacity:1;stroke-width:0.75;stroke-linecap:round;stroke-linejoin:round;stroke:rgb(0%,0%,0%);stroke-opacity:1;stroke-miterlimit:10;" d="M 383.890625 164.375 C 383.890625 166.777344 380.292969 166.777344 380.292969 164.375 C 380.292969 161.976562 383.890625 161.976562 383.890625 164.375 "/>
<path style="fill-rule:nonzero;fill:rgb(0%,0%,0%);fill-opacity:1;stroke-width:0.75;stroke-linecap:round;stroke-linejoin:round;stroke:rgb(0%,0%,0%);stroke-opacity:1;stroke-miterlimit:10;" d="M 413.824219 155.328125 C 413.824219 157.726562 410.226562 157.726562 410.226562 155.328125 C 410.226562 152.929688 413.824219 152.929688 413.824219 155.328125 "/>
<path style="fill-rule:nonzero;fill:rgb(0%,0%,0%);fill-opacity:1;stroke-width:0.75;stroke-linecap:round;stroke-linejoin:round;stroke:rgb(0%,0%,0%);stroke-opacity:1;stroke-miterlimit:10;" d="M 161.269531 323.097656 C 161.269531 325.496094 157.671875 325.496094 157.671875 323.097656 C 157.671875 320.695312 161.269531 320.695312 161.269531 323.097656 "/>
<path style="fill-rule:nonzero;fill:rgb(0%,0%,0%);fill-opacity:1;stroke-width:0.75;stroke-linecap:round;stroke-linejoin:round;stroke:rgb(0%,0%,0%);stroke-opacity:1;stroke-miterlimit:10;" d="M 184.507812 300.753906 C 184.507812 303.15625 180.90625 303.15625 180.90625 300.753906 C 180.90625 298.355469 184.507812 298.355469 184.507812 300.753906 "/>
<path style="fill-rule:nonzero;fill:rgb(0%,0%,0%);fill-opacity:1;stroke-width:0.75;stroke-linecap:round;stroke-linejoin:round;stroke:rgb(0%,0%,0%);stroke-opacity:1;stroke-miterlimit:10;" d="M 208.53125 280.011719 C 208.53125 282.410156 204.933594 282.410156 204.933594 280.011719 C 204.933594 277.609375 208.53125 277.609375 208.53125 280.011719 "/>
<path style="fill-rule:nonzero;fill:rgb(0%,0%,0%);fill-opacity:1;stroke-width:0.75;stroke-linecap:round;stroke-linejoin:round;stroke:rgb(0%,0%,0%);stroke-opacity:1;stroke-miterlimit:10;" d="M 233.34375 260.800781 C 233.34375 263.199219 229.746094 263.199219 229.746094 260.800781 C 229.746094 258.398438 233.34375 258.398438 233.34375 260.800781 "/>
<path style="fill-rule:nonzero;fill:rgb(0%,0%,0%);fill-opacity:1;stroke-width:0.75;stroke-linecap:round;stroke-linejoin:round;stroke:rgb(0%,0%,0%);stroke-opacity:1;stroke-miterlimit:10;" d="M 258.945312 243.066406 C 258.945312 245.46875 255.34375 245.46875 255.34375 243.066406 C 255.34375 240.667969 258.945312 240.667969 258.945312 243.066406 "/>
<path style="fill-rule:nonzero;fill:rgb(0%,0%,0%);fill-opacity:1;stroke-width:0.75;stroke-linecap:round;stroke-linejoin:round;stroke:rgb(0%,0%,0%);stroke-opacity:1;stroke-miterlimit:10;" d="M 285.332031 226.753906 C 285.332031 229.152344 281.730469 229.152344 281.730469 226.753906 C 281.730469 224.351562 285.332031 224.351562 285.332031 226.753906 "/>
<path style="fill-rule:nonzero;fill:rgb(0%,0%,0%);fill-opacity:1;stroke-width:0.75;stroke-linecap:round;stroke-linejoin:round;stroke:rgb(0%,0%,0%);stroke-opacity:1;stroke-miterlimit:10;" d="M 312.507812 211.796875 C 312.507812 214.195312 308.90625 214.195312 308.90625 211.796875 C 308.90625 209.394531 312.507812 209.394531 312.507812 211.796875 "/>
<path style="fill-rule:nonzero;fill:rgb(0%,0%,0%);fill-opacity:1;stroke-width:0.75;stroke-linecap:round;stroke-linejoin:round;stroke:rgb(0%,0%,0%);stroke-opacity:1;stroke-miterlimit:10;" d="M 340.472656 198.140625 C 340.472656 200.539062 336.871094 200.539062 336.871094 198.140625 C 336.871094 195.738281 340.472656 195.738281 340.472656 198.140625 "/>
<path style="fill-rule:nonzero;fill:rgb(0%,0%,0%);fill-opacity:1;stroke-width:0.75;stroke-linecap:round;stroke-linejoin:round;stroke:rgb(0%,0%,0%);stroke-opacity:1;stroke-miterlimit:10;" d="M 369.222656 185.722656 C 369.222656 188.125 365.621094 188.125 365.621094 185.722656 C 365.621094 183.324219 369.222656 183.324219 369.222656 185.722656 "/>
<path style="fill-rule:nonzero;fill:rgb(0%,0%,0%);fill-opacity:1;stroke-width:0.75;stroke-linecap:round;stroke-linejoin:round;stroke:rgb(0%,0%,0%);stroke-opacity:1;stroke-miterlimit:10;" d="M 398.761719 174.488281 C 398.761719 176.886719 395.160156 176.886719 395.160156 174.488281 C 395.160156 172.089844 398.761719 172.089844 398.761719 174.488281 "/>
<path style="fill-rule:nonzero;fill:rgb(0%,0%,0%);fill-opacity:1;stroke-width:0.75;stroke-linecap:round;stroke-linejoin:round;stroke:rgb(0%,0%,0%);stroke-opacity:1;stroke-miterlimit:10;" d="M 429.085938 164.375 C 429.085938 166.777344 425.484375 166.777344 425.484375 164.375 C 425.484375 161.976562 429.085938 161.976562 429.085938 164.375 "/>
<path style="fill-rule:nonzero;fill:rgb(0%,0%,0%);fill-opacity:1;stroke-width:0.75;stroke-linecap:round;stroke-linejoin:round;stroke:rgb(0%,0%,0%);stroke-opacity:1;stroke-miterlimit:10;" d="M 172.789062 347.089844 C 172.789062 349.492188 169.191406 349.492188 169.191406 347.089844 C 169.191406 344.691406 172.789062 344.691406 172.789062 347.089844 "/>
<path style="fill-rule:nonzero;fill:rgb(0%,0%,0%);fill-opacity:1;stroke-width:0.75;stroke-linecap:round;stroke-linejoin:round;stroke:rgb(0%,0%,0%);stroke-opacity:1;stroke-miterlimit:10;" d="M 196.421875 323.097656 C 196.421875 325.496094 192.820312 325.496094 192.820312 323.097656 C 192.820312 320.695312 196.421875 320.695312 196.421875 323.097656 "/>
<path style="fill-rule:nonzero;fill:rgb(0%,0%,0%);fill-opacity:1;stroke-width:0.75;stroke-linecap:round;stroke-linejoin:round;stroke:rgb(0%,0%,0%);stroke-opacity:1;stroke-miterlimit:10;" d="M 220.839844 300.753906 C 220.839844 303.15625 217.238281 303.15625 217.238281 300.753906 C 217.238281 298.355469 220.839844 298.355469 220.839844 300.753906 "/>
<path style="fill-rule:nonzero;fill:rgb(0%,0%,0%);fill-opacity:1;stroke-width:0.75;stroke-linecap:round;stroke-linejoin:round;stroke:rgb(0%,0%,0%);stroke-opacity:1;stroke-miterlimit:10;" d="M 246.046875 280.011719 C 246.046875 282.410156 242.445312 282.410156 242.445312 280.011719 C 242.445312 277.609375 246.046875 277.609375 246.046875 280.011719 "/>
<path style="fill-rule:nonzero;fill:rgb(0%,0%,0%);fill-opacity:1;stroke-width:0.75;stroke-linecap:round;stroke-linejoin:round;stroke:rgb(0%,0%,0%);stroke-opacity:1;stroke-miterlimit:10;" d="M 272.039062 260.800781 C 272.039062 263.199219 268.441406 263.199219 268.441406 260.800781 C 268.441406 258.398438 272.039062 258.398438 272.039062 260.800781 "/>
<path style="fill-rule:nonzero;fill:rgb(0%,0%,0%);fill-opacity:1;stroke-width:0.75;stroke-linecap:round;stroke-linejoin:round;stroke:rgb(0%,0%,0%);stroke-opacity:1;stroke-miterlimit:10;" d="M 298.820312 243.066406 C 298.820312 245.46875 295.222656 245.46875 295.222656 243.066406 C 295.222656 240.667969 298.820312 240.667969 298.820312 243.066406 "/>
<path style="fill-rule:nonzero;fill:rgb(0%,0%,0%);fill-opacity:1;stroke-width:0.75;stroke-linecap:round;stroke-linejoin:round;stroke:rgb(0%,0%,0%);stroke-opacity:1;stroke-miterlimit:10;" d="M 326.390625 226.753906 C 326.390625 229.152344 322.789062 229.152344 322.789062 226.753906 C 322.789062 224.351562 326.390625 224.351562 326.390625 226.753906 "/>
<path style="fill-rule:nonzero;fill:rgb(0%,0%,0%);fill-opacity:1;stroke-width:0.75;stroke-linecap:round;stroke-linejoin:round;stroke:rgb(0%,0%,0%);stroke-opacity:1;stroke-miterlimit:10;" d="M 354.746094 211.796875 C 354.746094 214.195312 351.148438 214.195312 351.148438 211.796875 C 351.148438 209.394531 354.746094 209.394531 354.746094 211.796875 "/>
<path style="fill-rule:nonzero;fill:rgb(0%,0%,0%);fill-opacity:1;stroke-width:0.75;stroke-linecap:round;stroke-linejoin:round;stroke:rgb(0%,0%,0%);stroke-opacity:1;stroke-miterlimit:10;" d="M 383.890625 198.140625 C 383.890625 200.539062 380.292969 200.539062 380.292969 198.140625 C 380.292969 195.738281 383.890625 195.738281 383.890625 198.140625 "/>
<path style="fill-rule:nonzero;fill:rgb(0%,0%,0%);fill-opacity:1;stroke-width:0.75;stroke-linecap:round;stroke-linejoin:round;stroke:rgb(0%,0%,0%);stroke-opacity:1;stroke-miterlimit:10;" d="M 413.824219 185.722656 C 413.824219 188.125 410.226562 188.125 410.226562 185.722656 C 410.226562 183.324219 413.824219 183.324219 413.824219 185.722656 "/>
<path style="fill-rule:nonzero;fill:rgb(0%,0%,0%);fill-opacity:1;stroke-width:0.75;stroke-linecap:round;stroke-linejoin:round;stroke:rgb(0%,0%,0%);stroke-opacity:1;stroke-miterlimit:10;" d="M 444.542969 174.488281 C 444.542969 176.886719 440.945312 176.886719 440.945312 174.488281 C 440.945312 172.089844 444.542969 172.089844 444.542969 174.488281 "/>
<path style="fill-rule:nonzero;fill:rgb(0%,0%,0%);fill-opacity:1;stroke-width:0.75;stroke-linecap:round;stroke-linejoin:round;stroke:rgb(0%,0%,0%);stroke-opacity:1;stroke-miterlimit:10;" d="M 184.507812 372.800781 C 184.507812 375.199219 180.90625 375.199219 180.90625 372.800781 C 180.90625 370.398438 184.507812 370.398438 184.507812 372.800781 "/>
<path style="fill-rule:nonzero;fill:rgb(0%,0%,0%);fill-opacity:1;stroke-width:0.75;stroke-linecap:round;stroke-linejoin:round;stroke:rgb(0%,0%,0%);stroke-opacity:1;stroke-miterlimit:10;" d="M 208.53125 347.089844 C 208.53125 349.492188 204.933594 349.492188 204.933594 347.089844 C 204.933594 344.691406 208.53125 344.691406 208.53125 347.089844 "/>
<path style="fill-rule:nonzero;fill:rgb(0%,0%,0%);fill-opacity:1;stroke-width:0.75;stroke-linecap:round;stroke-linejoin:round;stroke:rgb(0%,0%,0%);stroke-opacity:1;stroke-miterlimit:10;" d="M 233.34375 323.097656 C 233.34375 325.496094 229.746094 325.496094 229.746094 323.097656 C 229.746094 320.695312 233.34375 320.695312 233.34375 323.097656 "/>
<path style="fill-rule:nonzero;fill:rgb(0%,0%,0%);fill-opacity:1;stroke-width:0.75;stroke-linecap:round;stroke-linejoin:round;stroke:rgb(0%,0%,0%);stroke-opacity:1;stroke-miterlimit:10;" d="M 258.945312 300.753906 C 258.945312 303.15625 255.34375 303.15625 255.34375 300.753906 C 255.34375 298.355469 258.945312 298.355469 258.945312 300.753906 "/>
<path style="fill-rule:nonzero;fill:rgb(0%,0%,0%);fill-opacity:1;stroke-width:0.75;stroke-linecap:round;stroke-linejoin:round;stroke:rgb(0%,0%,0%);stroke-opacity:1;stroke-miterlimit:10;" d="M 285.332031 280.011719 C 285.332031 282.410156 281.730469 282.410156 281.730469 280.011719 C 281.730469 277.609375 285.332031 277.609375 285.332031 280.011719 "/>
<path style="fill-rule:nonzero;fill:rgb(0%,0%,0%);fill-opacity:1;stroke-width:0.75;stroke-linecap:round;stroke-linejoin:round;stroke:rgb(0%,0%,0%);stroke-opacity:1;stroke-miterlimit:10;" d="M 312.507812 260.800781 C 312.507812 263.199219 308.90625 263.199219 308.90625 260.800781 C 308.90625 258.398438 312.507812 258.398438 312.507812 260.800781 "/>
<path style="fill-rule:nonzero;fill:rgb(0%,0%,0%);fill-opacity:1;stroke-width:0.75;stroke-linecap:round;stroke-linejoin:round;stroke:rgb(0%,0%,0%);stroke-opacity:1;stroke-miterlimit:10;" d="M 340.472656 243.066406 C 340.472656 245.46875 336.871094 245.46875 336.871094 243.066406 C 336.871094 240.667969 340.472656 240.667969 340.472656 243.066406 "/>
<path style="fill-rule:nonzero;fill:rgb(0%,0%,0%);fill-opacity:1;stroke-width:0.75;stroke-linecap:round;stroke-linejoin:round;stroke:rgb(0%,0%,0%);stroke-opacity:1;stroke-miterlimit:10;" d="M 369.222656 226.753906 C 369.222656 229.152344 365.621094 229.152344 365.621094 226.753906 C 365.621094 224.351562 369.222656 224.351562 369.222656 226.753906 "/>
<path style="fill-rule:nonzero;fill:rgb(0%,0%,0%);fill-opacity:1;stroke-width:0.75;stroke-linecap:round;stroke-linejoin:round;stroke:rgb(0%,0%,0%);stroke-opacity:1;stroke-miterlimit:10;" d="M 398.761719 211.796875 C 398.761719 214.195312 395.160156 214.195312 395.160156 211.796875 C 395.160156 209.394531 398.761719 209.394531 398.761719 211.796875 "/>
<path style="fill-rule:nonzero;fill:rgb(0%,0%,0%);fill-opacity:1;stroke-width:0.75;stroke-linecap:round;stroke-linejoin:round;stroke:rgb(0%,0%,0%);stroke-opacity:1;stroke-miterlimit:10;" d="M 429.085938 198.140625 C 429.085938 200.539062 425.484375 200.539062 425.484375 198.140625 C 425.484375 195.738281 429.085938 195.738281 429.085938 198.140625 "/>
<path style="fill-rule:nonzero;fill:rgb(0%,0%,0%);fill-opacity:1;stroke-width:0.75;stroke-linecap:round;stroke-linejoin:round;stroke:rgb(0%,0%,0%);stroke-opacity:1;stroke-miterlimit:10;" d="M 460.199219 185.722656 C 460.199219 188.125 456.601562 188.125 456.601562 185.722656 C 456.601562 183.324219 460.199219 183.324219 460.199219 185.722656 "/>
<path style="fill:none;stroke-width:0.75;stroke-linecap:round;stroke-linejoin:round;stroke:rgb(100%,0%,0%);stroke-opacity:1;stroke-miterlimit:10;" d="M 74.398438 185.722656 L 84.34375 198.140625 L 94.484375 211.796875 L 104.824219 226.753906 L 115.359375 243.066406 L 126.09375 260.800781 L 137.023438 280.011719 L 148.148438 300.753906 L 159.472656 323.097656 L 170.992188 347.089844 L 182.707031 372.800781 "/>
<path style="fill:none;stroke-width:0.75;stroke-linecap:round;stroke-linejoin:round;stroke:rgb(100%,0%,0%);stroke-opacity:1;stroke-miterlimit:10;" d="M 94.484375 174.488281 L 104.824219 185.722656 L 115.359375 198.140625 L 126.09375 211.796875 L 137.023438 226.753906 L 148.148438 243.066406 L 159.472656 260.800781 L 170.992188 280.011719 L 182.707031 300.753906 L 194.621094 323.097656 L 206.730469 347.089844 "/>
<path style="fill:none;stroke-width:0.75;stroke-linecap:round;stroke-linejoin:round;stroke:rgb(100%,0%,0%);stroke-opacity:1;stroke-miterlimit:10;" d="M 115.359375 164.375 L 126.09375 174.488281 L 137.023438 185.722656 L 148.148438 198.140625 L 159.472656 211.796875 L 170.992188 226.753906 L 182.707031 243.066406 L 194.621094 260.800781 L 206.730469 280.011719 L 219.039062 300.753906 L 231.542969 323.097656 "/>
<path style="fill:none;stroke-width:0.75;stroke-linecap:round;stroke-linejoin:round;stroke:rgb(100%,0%,0%);stroke-opacity:1;stroke-miterlimit:10;" d="M 137.023438 155.328125 L 148.148438 164.375 L 159.472656 174.488281 L 170.992188 185.722656 L 182.707031 198.140625 L 194.621094 211.796875 L 206.730469 226.753906 L 219.039062 243.066406 L 231.542969 260.800781 L 244.246094 280.011719 L 257.144531 300.753906 "/>
<path style="fill:none;stroke-width:0.75;stroke-linecap:round;stroke-linejoin:round;stroke:rgb(100%,0%,0%);stroke-opacity:1;stroke-miterlimit:10;" d="M 159.472656 147.285156 L 170.992188 155.328125 L 182.707031 164.375 L 194.621094 174.488281 L 206.730469 185.722656 L 219.039062 198.140625 L 231.542969 211.796875 L 244.246094 226.753906 L 257.144531 243.066406 L 270.238281 260.800781 L 283.53125 280.011719 "/>
<path style="fill:none;stroke-width:0.75;stroke-linecap:round;stroke-linejoin:round;stroke:rgb(100%,0%,0%);stroke-opacity:1;stroke-miterlimit:10;" d="M 182.707031 140.183594 L 194.621094 147.285156 L 206.730469 155.328125 L 219.039062 164.375 L 231.542969 174.488281 L 244.246094 185.722656 L 257.144531 198.140625 L 270.238281 211.796875 L 283.53125 226.753906 L 297.023438 243.066406 L 310.707031 260.800781 "/>
<path style="fill:none;stroke-width:0.75;stroke-linecap:round;stroke-linejoin:round;stroke:rgb(100%,0%,0%);stroke-opacity:1;stroke-miterlimit:10;" d="M 206.730469 133.972656 L 219.039062 140.183594 L 231.542969 147.285156 L 244.246094 155.328125 L 257.144531 164.375 L 270.238281 174.488281 L 283.53125 185.722656 L 297.023438 198.140625 L 310.707031 211.796875 L 324.589844 226.753906 L 338.671875 243.066406 "/>
<path style="fill:none;stroke-width:0.75;stroke-linecap:round;stroke-linejoin:round;stroke:rgb(100%,0%,0%);stroke-opacity:1;stroke-miterlimit:10;" d="M 231.542969 128.585938 L 244.246094 133.972656 L 257.144531 140.183594 L 270.238281 147.285156 L 283.53125 155.328125 L 297.023438 164.375 L 310.707031 174.488281 L 324.589844 185.722656 L 338.671875 198.140625 L 352.949219 211.796875 L 367.421875 226.753906 "/>
<path style="fill:none;stroke-width:0.75;stroke-linecap:round;stroke-linejoin:round;stroke:rgb(100%,0%,0%);stroke-opacity:1;stroke-miterlimit:10;" d="M 257.144531 123.96875 L 270.238281 128.585938 L 283.53125 133.972656 L 297.023438 140.183594 L 310.707031 147.285156 L 324.589844 155.328125 L 338.671875 164.375 L 352.949219 174.488281 L 367.421875 185.722656 L 382.09375 198.140625 L 396.960938 211.796875 "/>
<path style="fill:none;stroke-width:0.75;stroke-linecap:round;stroke-linejoin:round;stroke:rgb(100%,0%,0%);stroke-opacity:1;stroke-miterlimit:10;" d="M 283.53125 120.058594 L 297.023438 123.96875 L 310.707031 128.585938 L 324.589844 133.972656 L 338.671875 140.183594 L 352.949219 147.285156 L 367.421875 155.328125 L 382.09375 164.375 L 396.960938 174.488281 L 412.023438 185.722656 L 427.285156 198.140625 "/>
<path style="fill:none;stroke-width:0.75;stroke-linecap:round;stroke-linejoin:round;stroke:rgb(100%,0%,0%);stroke-opacity:1;stroke-miterlimit:10;" d="M 310.707031 116.800781 L 324.589844 120.058594 L 338.671875 123.96875 L 352.949219 128.585938 L 367.421875 133.972656 L 382.09375 140.183594 L 396.960938 147.285156 L 412.023438 155.328125 L 427.285156 164.375 L 442.746094 174.488281 L 458.398438 185.722656 "/>
<path style="fill:none;stroke-width:0.75;stroke-linecap:round;stroke-linejoin:round;stroke:rgb(0%,0%,100%);stroke-opacity:1;stroke-miterlimit:10;" d="M 74.398438 185.722656 L 94.484375 174.488281 L 115.359375 164.375 L 137.023438 155.328125 L 159.472656 147.285156 L 182.707031 140.183594 L 206.730469 133.972656 L 231.542969 128.585938 L 257.144531 123.96875 L 283.53125 120.058594 L 310.707031 116.800781 "/>
<path style="fill:none;stroke-width:0.75;stroke-linecap:round;stroke-linejoin:round;stroke:rgb(0%,0%,100%);stroke-opacity:1;stroke-miterlimit:10;" d="M 84.34375 198.140625 L 104.824219 185.722656 L 126.09375 174.488281 L 148.148438 164.375 L 170.992188 155.328125 L 194.621094 147.285156 L 219.039062 140.183594 L 244.246094 133.972656 L 270.238281 128.585938 L 297.023438 123.96875 L 324.589844 120.058594 "/>
<path style="fill:none;stroke-width:0.75;stroke-linecap:round;stroke-linejoin:round;stroke:rgb(0%,0%,100%);stroke-opacity:1;stroke-miterlimit:10;" d="M 94.484375 211.796875 L 115.359375 198.140625 L 137.023438 185.722656 L 159.472656 174.488281 L 182.707031 164.375 L 206.730469 155.328125 L 231.542969 147.285156 L 257.144531 140.183594 L 283.53125 133.972656 L 310.707031 128.585938 L 338.671875 123.96875 "/>
<path style="fill:none;stroke-width:0.75;stroke-linecap:round;stroke-linejoin:round;stroke:rgb(0%,0%,100%);stroke-opacity:1;stroke-miterlimit:10;" d="M 104.824219 226.753906 L 126.09375 211.796875 L 148.148438 198.140625 L 170.992188 185.722656 L 194.621094 174.488281 L 219.039062 164.375 L 244.246094 155.328125 L 270.238281 147.285156 L 297.023438 140.183594 L 324.589844 133.972656 L 352.949219 128.585938 "/>
<path style="fill:none;stroke-width:0.75;stroke-linecap:round;stroke-linejoin:round;stroke:rgb(0%,0%,100%);stroke-opacity:1;stroke-miterlimit:10;" d="M 115.359375 243.066406 L 137.023438 226.753906 L 159.472656 211.796875 L 182.707031 198.140625 L 206.730469 185.722656 L 231.542969 174.488281 L 257.144531 164.375 L 283.53125 155.328125 L 310.707031 147.285156 L 338.671875 140.183594 L 367.421875 133.972656 "/>
<path style="fill:none;stroke-width:0.75;stroke-linecap:round;stroke-linejoin:round;stroke:rgb(0%,0%,100%);stroke-opacity:1;stroke-miterlimit:10;" d="M 126.09375 260.800781 L 148.148438 243.066406 L 170.992188 226.753906 L 194.621094 211.796875 L 219.039062 198.140625 L 244.246094 185.722656 L 270.238281 174.488281 L 297.023438 164.375 L 324.589844 155.328125 L 352.949219 147.285156 L 382.09375 140.183594 "/>
<path style="fill:none;stroke-width:0.75;stroke-linecap:round;stroke-linejoin:round;stroke:rgb(0%,0%,100%);stroke-opacity:1;stroke-miterlimit:10;" d="M 137.023438 280.011719 L 159.472656 260.800781 L 182.707031 243.066406 L 206.730469 226.753906 L 231.542969 211.796875 L 257.144531 198.140625 L 283.53125 185.722656 L 310.707031 174.488281 L 338.671875 164.375 L 367.421875 155.328125 L 396.960938 147.285156 "/>
<path style="fill:none;stroke-width:0.75;stroke-linecap:round;stroke-linejoin:round;stroke:rgb(0%,0%,100%);stroke-opacity:1;stroke-miterlimit:10;" d="M 148.148438 300.753906 L 170.992188 280.011719 L 194.621094 260.800781 L 219.039062 243.066406 L 244.246094 226.753906 L 270.238281 211.796875 L 297.023438 198.140625 L 324.589844 185.722656 L 352.949219 174.488281 L 382.09375 164.375 L 412.023438 155.328125 "/>
<path style="fill:none;stroke-width:0.75;stroke-linecap:round;stroke-linejoin:round;stroke:rgb(0%,0%,100%);stroke-opacity:1;stroke-miterlimit:10;" d="M 159.472656 323.097656 L 182.707031 300.753906 L 206.730469 280.011719 L 231.542969 260.800781 L 257.144531 243.066406 L 283.53125 226.753906 L 310.707031 211.796875 L 338.671875 198.140625 L 367.421875 185.722656 L 396.960938 174.488281 L 427.285156 164.375 "/>
<path style="fill:none;stroke-width:0.75;stroke-linecap:round;stroke-linejoin:round;stroke:rgb(0%,0%,100%);stroke-opacity:1;stroke-miterlimit:10;" d="M 170.992188 347.089844 L 194.621094 323.097656 L 219.039062 300.753906 L 244.246094 280.011719 L 270.238281 260.800781 L 297.023438 243.066406 L 324.589844 226.753906 L 352.949219 211.796875 L 382.09375 198.140625 L 412.023438 185.722656 L 442.746094 174.488281 "/>
<path style="fill:none;stroke-width:0.75;stroke-linecap:round;stroke-linejoin:round;stroke:rgb(0%,0%,100%);stroke-opacity:1;stroke-miterlimit:10;" d="M 182.707031 372.800781 L 206.730469 347.089844 L 231.542969 323.097656 L 257.144531 300.753906 L 283.53125 280.011719 L 310.707031 260.800781 L 338.671875 243.066406 L 367.421875 226.753906 L 396.960938 211.796875 L 427.285156 198.140625 L 458.398438 185.722656 "/>
<path style="fill-rule:nonzero;fill:rgb(0%,0%,0%);fill-opacity:1;stroke-width:0.75;stroke-linecap:round;stroke-linejoin:round;stroke:rgb(0%,0%,0%);stroke-opacity:1;stroke-miterlimit:10;" d="M 76.199219 185.722656 C 76.199219 188.125 72.601562 188.125 72.601562 185.722656 C 72.601562 183.324219 76.199219 183.324219 76.199219 185.722656 "/>
</g>
</svg>
