<?xml version="1.0" encoding="UTF-8"?>
<svg xmlns="http://www.w3.org/2000/svg" xmlns:xlink="http://www.w3.org/1999/xlink" width="504pt" height="504pt" viewBox="0 0 504 504" version="1.1">
<g id="surface433">
<rect x="0" y="0" width="504" height="504" style="fill:rgb(100%,100%,100%);fill-opacity:1;stroke:none;"/>
<path style="fill-rule:nonzero;fill:rgb(0%,0%,0%);fill-opacity:1;stroke-width:0.75;stroke-linecap:round;stroke-linejoin:round;stroke:rgb(0%,0%,0%);stroke-opacity:1;stroke-miterlimit:10;" d="M 96.199219 416.800781 C 96.199219 419.199219 92.601562 419.199219 92.601562 416.800781 C 92.601562 414.398438 96.199219 414.398438 96.199219 416.800781 "/>
<path style="fill-rule:nonzero;fill:rgb(0%,0%,0%);fill-opacity:1;stroke-width:0.75;stroke-linecap:round;stroke-linejoin:round;stroke:rgb(0%,0%,0%);stroke-opacity:1;stroke-miterlimit:10;" d="M 130.601562 416.800781 C 130.601562 419.199219 127 419.199219 127 416.800781 C 127 414.398438 130.601562 414.398438 130.601562 416.800781 "/>
<path style="fill-rule:nonzero;fill:rgb(0%,0%,0%);fill-opacity:1;stroke-width:0.75;stroke-linecap:round;stroke-linejoin:round;stroke:rgb(0%,0%,0%);stroke-opacity:1;stroke-miterlimit:10;" d="M 165 416.800781 C 165 419.199219 161.398438 419.199219 161.398438 416.800781 C 161.398438 414.398438 165 414.398438 165 416.800781 "/>
<path style="fill-rule:nonzero;fill:rgb(0%,0%,0%);fill-opacity:1;stroke-width:0.75;stroke-linecap:round;stroke-linejoin:round;stroke:rgb(0%,0%,0%);stroke-opacity:1;stroke-miterlimit:10;" d="M 199.398438 416.800781 C 199.398438 419.199219 195.800781 419.199219 195.800781 416.800781 C 195.800781 414.398438 199.398438 414.398438 199.398438 416.800781 "/>
<path style="fill-rule:nonzero;fill:rgb(0%,0%,0%);fill-opacity:1;stroke-width:0.75;stroke-linecap:round;stroke-linejoin:round;stroke:rgb(0%,0%,0%);stroke-opacity:1;stroke-miterlimit:10;" d="M 233.800781 416.800781 C 233.800781 419.199219 230.199219 419.199219 230.199219 416.800781 C 230.199219 414.398438 233.800781 414.398438 233.800781 416.800781 "/>
<path style="fill-rule:nonzero;fill:rgb(0%,0%,0%);fill-opacity:1;stroke-width:0.75;stroke-linecap:round;stroke-linejoin:round;stroke:rgb(0%,0%,0%);stroke-opacity:1;stroke-miterlimit:10;" d="M 268.199219 416.800781 C 268.199219 419.199219 264.601562 419.199219 264.601562 416.800781 C 264.601562 414.398438 268.199219 414.398438 268.199219 416.800781 "/>
<path style="fill-rule:nonzero;fill:rgb(0%,0%,0%);fill-opacity:1;stroke-width:0.75;stroke-linecap:round;stroke-linejoin:round;stroke:rgb(0%,0%,0%);stroke-opacity:1;stroke-miterlimit:10;" d="M 302.601562 416.800781 C 302.601562 419.199219 299 419.199219 299 416.800781 C 299 414.398438 302.601562 414.398438 302.601562 416.800781 "/>
<path style="fill-rule:nonzero;fill:rgb(0%,0%,0%);fill-opacity:1;stroke-width:0.75;stroke-linecap:round;stroke-linejoin:round;stroke:rgb(0%,0%,0%);stroke-opacity:1;stroke-miterlimit:10;" d="M 337 416.800781 C 337 419.199219 333.398438 419.199219 333.398438 416.800781 C 333.398438 414.398438 337 414.398438 337 416.800781 "/>
<path style="fill-rule:nonzero;fill:rgb(0%,0%,0%);fill-opacity:1;stroke-width:0.75;stroke-linecap:round;stroke-linejoin:round;stroke:rgb(0%,0%,0%);stroke-opacity:1;stroke-miterlimit:10;" d="M 371.398438 416.800781 C 371.398438 419.199219 367.800781 419.199219 367.800781 416.800781 C 367.800781 414.398438 371.398438 414.398438 371.398438 416.800781 "/>
<path style="fill-rule:nonzero;fill:rgb(0%,0%,0%);fill-opacity:1;stroke-width:0.75;stroke-linecap:round;stroke-linejoin:round;stroke:rgb(0%,0%,0%);stroke-opacity:1;stroke-miterlimit:10;" d="M 405.800781 416.800781 C 405.800781 419.199219 402.199219 419.199219 402.199219 416.800781 C 402.199219 414.398438 405.800781 414.398438 405.800781 416.800781 "/>
<path style="fill-rule:nonzero;fill:rgb(0%,0%,0%);fill-opacity:1;stroke-width:0.75;stroke-linecap:round;stroke-linejoin:round;stroke:rgb(0%,0%,0%);stroke-opacity:1;stroke-miterlimit:10;" d="M 440.199219 416.800781 C 440.199219 419.199219 436.601562 419.199219 436.601562 416.800781 C 436.601562 414.398438 440.199219 414.398438 440.199219 416.800781 "/>
<path style="fill-rule:nonzero;fill:rgb(0%,0%,0%);fill-opacity:1;stroke-width:0.75;stroke-linecap:round;stroke-linejoin:round;stroke:rgb(0%,0%,0%);stroke-opacity:1;stroke-miterlimit:10;" d="M 96.199219 382.398438 C 96.199219 384.800781 92.601562 384.800781 92.601562 382.398438 C 92.601562 380 96.199219 380 96.199219 382.398438 "/>
<path style="fill-rule:nonzero;fill:rgb(0%,0%,0%);fill-opacity:1;stroke-width:0.75;stroke-linecap:round;stroke-linejoin:round;stroke:rgb(0%,0%,0%);stroke-opacity:1;stroke-miterlimit:10;" d="M 130.601562 382.398438 C 130.601562 384.800781 127 384.800781 127 382.398438 C 127 380 130.601562 380 130.601562 382.398438 "/>
<path style="fill-rule:nonzero;fill:rgb(0%,0%,0%);fill-opacity:1;stroke-width:0.75;stroke-linecap:round;stroke-linejoin:round;stroke:rgb(0%,0%,0%);stroke-opacity:1;stroke-miterlimit:10;" d="M 165 382.398438 C 165 384.800781 161.398438 384.800781 161.398438 382.398438 C 161.398438 380 165 380 165 382.398438 "/>
<path style="fill-rule:nonzero;fill:rgb(0%,0%,0%);fill-opacity:1;stroke-width:0.75;stroke-linecap:round;stroke-linejoin:round;stroke:rgb(0%,0%,0%);stroke-opacity:1;stroke-miterlimit:10;" d="M 199.398438 382.398438 C 199.398438 384.800781 195.800781 384.800781 195.800781 382.398438 C 195.800781 380 199.398438 380 199.398438 382.398438 "/>
<path style="fill-rule:nonzero;fill:rgb(0%,0%,0%);fill-opacity:1;stroke-width:0.75;stroke-linecap:round;stroke-linejoin:round;stroke:rgb(0%,0%,0%);stroke-opacity:1;stroke-miterlimit:10;" d="M 233.800781 382.398438 C 233.800781 384.800781 230.199219 384.800781 230.199219 382.398438 C 230.199219 380 233.800781 380 233.800781 382.398438 "/>
<path style="fill-rule:nonzero;fill:rgb(0%,0%,0%);fill-opacity:1;stroke-width:0.75;stroke-linecap:round;stroke-linejoin:round;stroke:rgb(0%,0%,0%);stroke-opacity:1;stroke-miterlimit:10;" d="M 268.199219 382.398438 C 268.199219 384.800781 264.601562 384.800781 264.601562 382.398438 C 264.601562 380 268.199219 380 268.199219 382.398438 "/>
<path style="fill-rule:nonzero;fill:rgb(0%,0%,0%);fill-opacity:1;stroke-width:0.75;stroke-linecap:round;stroke-linejoin:round;stroke:rgb(0%,0%,0%);stroke-opacity:1;stroke-miterlimit:10;" d="M 302.601562 382.398438 C 302.601562 384.800781 299 384.800781 299 382.398438 C 299 380 302.601562 380 302.601562 382.398438 "/>
<path style="fill-rule:nonzero;fill:rgb(0%,0%,0%);fill-opacity:1;stroke-width:0.75;stroke-linecap:round;stroke-linejoin:round;stroke:rgb(0%,0%,0%);stroke-opacity:1;stroke-miterlimit:10;" d="M 337 382.398438 C 337 384.800781 333.398438 384.800781 333.398438 382.398438 C 333.398438 380 337 380 337 382.398438 "/>
<path style="fill-rule:nonzero;fill:rgb(0%,0%,0%);fill-opacity:1;stroke-width:0.75;stroke-linecap:round;stroke-linejoin:round;stroke:rgb(0%,0%,0%);stroke-opacity:1;stroke-miterlimit:10;" d="M 371.398438 382.398438 C 371.398438 384.800781 367.800781 384.800781 367.800781 382.398438 C 367.800781 380 371.398438 380 371.398438 382.398438 "/>
<path style="fill-rule:nonzero;fill:rgb(0%,0%,0%);fill-opacity:1;stroke-width:0.75;stroke-linecap:round;stroke-linejoin:round;stroke:rgb(0%,0%,0%);stroke-opacity:1;stroke-miterlimit:10;" d="M 405.800781 382.398438 C 405.800781 384.800781 402.199219 384.800781 402.199219 382.398438 C 402.199219 380 405.800781 380 405.800781 382.398438 "/>
<path style="fill-rule:nonzero;fill:rgb(0%,0%,0%);fill-opacity:1;stroke-width:0.75;stroke-linecap:round;stroke-linejoin:round;stroke:rgb(0%,0%,0%);stroke-opacity:1;stroke-miterlimit:10;" d="M 440.199219 382.398438 C 440.199219 384.800781 436.601562 384.800781 436.601562 382.398438 C 436.601562 380 440.199219 380 440.199219 382.398438 "/>
<path style="fill-rule:nonzero;fill:rgb(0%,0%,0%);fill-opacity:1;stroke-width:0.75;stroke-linecap:round;stroke-linejoin:round;stroke:rgb(0%,0%,0%);stroke-opacity:1;stroke-miterlimit:10;" d="M 96.199219 348 C 96.199219 350.398438 92.601562 350.398438 92.601562 348 C 92.601562 345.601562 96.199219 345.601562 96.199219 348 "/>
<path style="fill-rule:nonzero;fill:rgb(0%,0%,0%);fill-opacity:1;stroke-width:0.75;stroke-linecap:round;stroke-linejoin:round;stroke:rgb(0%,0%,0%);stroke-opacity:1;stroke-miterlimit:10;" d="M 130.601562 348 C 130.601562 350.398438 127 350.398438 127 348 C 127 345.601562 130.601562 345.601562 130.601562 348 "/>
<path style="fill-rule:nonzero;fill:rgb(0%,0%,0%);fill-opacity:1;stroke-width:0.75;stroke-linecap:round;stroke-linejoin:round;stroke:rgb(0%,0%,0%);stroke-opacity:1;stroke-miterlimit:10;" d="M 165 348 C 165 350.398438 161.398438 350.398438 161.398438 348 C 161.398438 345.601562 165 345.601562 165 348 "/>
<path style="fill-rule:nonzero;fill:rgb(0%,0%,0%);fill-opacity:1;stroke-width:0.75;stroke-linecap:round;stroke-linejoin:round;stroke:rgb(0%,0%,0%);stroke-opacity:1;stroke-miterlimit:10;" d="M 199.398438 348 C 199.398438 350.398438 195.800781 350.398438 195.800781 348 C 195.800781 345.601562 199.398438 345.601562 199.398438 348 "/>
<path style="fill-rule:nonzero;fill:rgb(0%,0%,0%);fill-opacity:1;stroke-width:0.75;stroke-linecap:round;stroke-linejoin:round;stroke:rgb(0%,0%,0%);stroke-opacity:1;stroke-miterlimit:10;" d="M 233.800781 348 C 233.800781 350.398438 230.199219 350.398438 230.199219 348 C 230.199219 345.601562 233.800781 345.601562 233.800781 348 "/>
<path style="fill-rule:nonzero;fill:rgb(0%,0%,0%);fill-opacity:1;stroke-width:0.75;stroke-linecap:round;stroke-linejoin:round;stroke:rgb(0%,0%,0%);stroke-opacity:1;stroke-miterlimit:10;" d="M 268.199219 348 C 268.199219 350.398438 264.601562 350.398438 264.601562 348 C 264.601562 345.601562 268.199219 345.601562 268.199219 348 "/>
<path style="fill-rule:nonzero;fill:rgb(0%,0%,0%);fill-opacity:1;stroke-width:0.75;stroke-linecap:round;stroke-linejoin:round;stroke:rgb(0%,0%,0%);stroke-opacity:1;stroke-miterlimit:10;" d="M 302.601562 348 C 302.601562 350.398438 299 350.398438 299 348 C 299 345.601562 302.601562 345.601562 302.601562 348 "/>
<path style="fill-rule:nonzero;fill:rgb(0%,0%,0%);fill-opacity:1;stroke-width:0.75;stroke-linecap:round;stroke-linejoin:round;stroke:rgb(0%,0%,0%);stroke-opacity:1;stroke-miterlimit:10;" d="M 337 348 C 337 350.398438 333.398438 350.398438 333.398438 348 C 333.398438 345.601562 337 345.601562 337 348 "/>
<path style="fill-rule:nonzero;fill:rgb(0%,0%,0%);fill-opacity:1;stroke-width:0.75;stroke-linecap:round;stroke-linejoin:round;stroke:rgb(0%,0%,0%);stroke-opacity:1;stroke-miterlimit:10;" d="M 371.398438 348 C 371.398438 350.398438 367.800781 350.398438 367.800781 348 C 367.800781 345.601562 371.398438 345.601562 371.398438 348 "/>
<path style="fill-rule:nonzero;fill:rgb(0%,0%,0%);fill-opacity:1;stroke-width:0.75;stroke-linecap:round;stroke-linejoin:round;stroke:rgb(0%,0%,0%);stroke-opacity:1;stroke-miterlimit:10;" d="M 405.800781 348 C 405.800781 350.398438 402.199219 350.398438 402.199219 348 C 402.199219 345.601562 405.800781 345.601562 405.800781 348 "/>
<path style="fill-rule:nonzero;fill:rgb(0%,0%,0%);fill-opacity:1;stroke-width:0.75;stroke-linecap:round;stroke-linejoin:round;stroke:rgb(0%,0%,0%);stroke-opacity:1;stroke-miterlimit:10;" d="M 440.199219 348 C 440.199219 350.398438 436.601562 350.398438 436.601562 348 C 436.601562 345.601562 440.199219 345.601562 440.199219 348 "/>
<path style="fill-rule:nonzero;fill:rgb(0%,0%,0%);fill-opacity:1;stroke-width:0.75;stroke-linecap:round;stroke-linejoin:round;stroke:rgb(0%,0%,0%);stroke-opacity:1;stroke-miterlimit:10;" d="M 96.199219 313.601562 C 96.199219 316 92.601562 316 92.601562 313.601562 C 92.601562 311.199219 96.199219 311.199219 96.199219 313.601562 "/>
<path style="fill-rule:nonzero;fill:rgb(0%,0%,0%);fill-opacity:1;stroke-width:0.75;stroke-linecap:round;stroke-linejoin:round;stroke:rgb(0%,0%,0%);stroke-opacity:1;stroke-miterlimit:10;" d="M 130.601562 313.601562 C 130.601562 316 127 316 127 313.601562 C 127 311.199219 130.601562 311.199219 130.601562 313.601562 "/>
<path style="fill-rule:nonzero;fill:rgb(0%,0%,0%);fill-opacity:1;stroke-width:0.75;stroke-linecap:round;stroke-linejoin:round;stroke:rgb(0%,0%,0%);stroke-opacity:1;stroke-miterlimit:10;" d="M 165 313.601562 C 165 316 161.398438 316 161.398438 313.601562 C 161.398438 311.199219 165 311.199219 165 313.601562 "/>
<path style="fill-rule:nonzero;fill:rgb(0%,0%,0%);fill-opacity:1;stroke-width:0.75;stroke-linecap:round;stroke-linejoin:round;stroke:rgb(0%,0%,0%);stroke-opacity:1;stroke-miterlimit:10;" d="M 199.398438 313.601562 C 199.398438 316 195.800781 316 195.800781 313.601562 C 195.800781 311.199219 199.398438 311.199219 199.398438 313.601562 "/>
<path style="fill-rule:nonzero;fill:rgb(0%,0%,0%);fill-opacity:1;stroke-width:0.75;stroke-linecap:round;stroke-linejoin:round;stroke:rgb(0%,0%,0%);stroke-opacity:1;stroke-miterlimit:10;" d="M 233.800781 313.601562 C 233.800781 316 230.199219 316 230.199219 313.601562 C 230.199219 311.199219 233.800781 311.199219 233.800781 313.601562 "/>
<path style="fill-rule:nonzero;fill:rgb(0%,0%,0%);fill-opacity:1;stroke-width:0.75;stroke-linecap:round;stroke-linejoin:round;stroke:rgb(0%,0%,0%);stroke-opacity:1;stroke-miterlimit:10;" d="M 268.199219 313.601562 C 268.199219 316 264.601562 316 264.601562 313.601562 C 264.601562 311.199219 268.199219 311.199219 268.199219 313.601562 "/>
<path style="fill-rule:nonzero;fill:rgb(0%,0%,0%);fill-opacity:1;stroke-width:0.75;stroke-linecap:round;stroke-linejoin:round;stroke:rgb(0%,0%,0%);stroke-opacity:1;stroke-miterlimit:10;" d="M 302.601562 313.601562 C 302.601562 316 299 316 299 313.601562 C 299 311.199219 302.601562 311.199219 302.601562 313.601562 "/>
<path style="fill-rule:nonzero;fill:rgb(0%,0%,0%);fill-opacity:1;stroke-width:0.75;stroke-linecap:round;stroke-linejoin:round;stroke:rgb(0%,0%,0%);stroke-opacity:1;stroke-miterlimit:10;" d="M 337 313.601562 C 337 316 333.398438 316 333.398438 313.601562 C 333.398438 311.199219 337 311.199219 337 313.601562 "/>
<path style="fill-rule:nonzero;fill:rgb(0%,0%,0%);fill-opacity:1;stroke-width:0.75;stroke-linecap:round;stroke-linejoin:round;stroke:rgb(0%,0%,0%);stroke-opacity:1;stroke-miterlimit:10;" d="M 371.398438 313.601562 C 371.398438 316 367.800781 316 367.800781 313.601562 C 367.800781 311.199219 371.398438 311.199219 371.398438 313.601562 "/>
<path style="fill-rule:nonzero;fill:rgb(0%,0%,0%);fill-opacity:1;stroke-width:0.75;stroke-linecap:round;stroke-linejoin:round;stroke:rgb(0%,0%,0%);stroke-opacity:1;stroke-miterlimit:10;" d="M 405.800781 313.601562 C 405.800781 316 402.199219 316 402.199219 313.601562 C 402.199219 311.199219 405.800781 311.199219 405.800781 313.601562 "/>
<path style="fill-rule:nonzero;fill:rgb(0%,0%,0%);fill-opacity:1;stroke-width:0.75;stroke-linecap:round;stroke-linejoin:round;stroke:rgb(0%,0%,0%);stroke-opacity:1;stroke-miterlimit:10;" d="M 440.199219 313.601562 C 440.199219 316 436.601562 316 436.601562 313.601562 C 436.601562 311.199219 440.199219 311.199219 440.199219 313.601562 "/>
<path style="fill-rule:nonzero;fill:rgb(0%,0%,0%);fill-opacity:1;stroke-width:0.75;stroke-linecap:round;stroke-linejoin:round;stroke:rgb(0%,0%,0%);stroke-opacity:1;stroke-miterlimit:10;" d="M 96.199219 279.199219 C 96.199219 281.601562 92.601562 281.601562 92.601562 279.199219 C 92.601562 276.800781 96.199219 276.800781 96.199219 279.199219 "/>
<path style="fill-rule:nonzero;fill:rgb(0%,0%,0%);fill-opacity:1;stroke-width:0.75;stroke-linecap:round;stroke-linejoin:round;stroke:rgb(0%,0%,0%);stroke-opacity:1;stroke-miterlimit:10;" d="M 130.601562 279.199219 C 130.601562 281.601562 127 281.601562 127 279.199219 C 127 276.800781 130.601562 276.800781 130.601562 279.199219 "/>
<path style="fill-rule:nonzero;fill:rgb(0%,0%,0%);fill-opacity:1;stroke-width:0.75;stroke-linecap:round;stroke-linejoin:round;stroke:rgb(0%,0%,0%);stroke-opacity:1;stroke-miterlimit:10;" d="M 165 279.199219 C 165 281.601562 161.398438 281.601562 161.398438 279.199219 C 161.398438 276.800781 165 276.800781 165 279.199219 "/>
<path style="fill-rule:nonzero;fill:rgb(0%,0%,0%);fill-opacity:1;stroke-width:0.75;stroke-linecap:round;stroke-linejoin:round;stroke:rgb(0%,0%,0%);stroke-opacity:1;stroke-miterlimit:10;" d="M 199.398438 279.199219 C 199.398438 281.601562 195.800781 281.601562 195.800781 279.199219 C 195.800781 276.800781 199.398438 276.800781 199.398438 279.199219 "/>
<path style="fill-rule:nonzero;fill:rgb(0%,0%,0%);fill-opacity:1;stroke-width:0.75;stroke-linecap:round;stroke-linejoin:round;stroke:rgb(0%,0%,0%);stroke-opacity:1;stroke-miterlimit:10;" d="M 233.800781 279.199219 C 233.800781 281.601562 230.199219 281.601562 230.199219 279.199219 C 230.199219 276.800781 233.800781 276.800781 233.800781 279.199219 "/>
<path style="fill-rule:nonzero;fill:rgb(0%,0%,0%);fill-opacity:1;stroke-width:0.75;stroke-linecap:round;stroke-linejoin:round;stroke:rgb(0%,0%,0%);stroke-opacity:1;stroke-miterlimit:10;" d="M 268.199219 279.199219 C 268.199219 281.601562 264.601562 281.601562 264.601562 279.199219 C 264.601562 276.800781 268.199219 276.800781 268.199219 279.199219 "/>
<path style="fill-rule:nonzero;fill:rgb(0%,0%,0%);fill-opacity:1;stroke-width:0.75;stroke-linecap:round;stroke-linejoin:round;stroke:rgb(0%,0%,0%);stroke-opacity:1;stroke-miterlimit:10;" d="M 302.601562 279.199219 C 302.601562 281.601562 299 281.601562 299 279.199219 C 299 276.800781 302.601562 276.800781 302.601562 279.199219 "/>
<path style="fill-rule:nonzero;fill:rgb(0%,0%,0%);fill-opacity:1;stroke-width:0.75;stroke-linecap:round;stroke-linejoin:round;stroke:rgb(0%,0%,0%);stroke-opacity:1;stroke-miterlimit:10;" d="M 337 279.199219 C 337 281.601562 333.398438 281.601562 333.398438 279.199219 C 333.398438 276.800781 337 276.800781 337 279.199219 "/>
<path style="fill-rule:nonzero;fill:rgb(0%,0%,0%);fill-opacity:1;stroke-width:0.75;stroke-linecap:round;stroke-linejoin:round;stroke:rgb(0%,0%,0%);stroke-opacity:1;stroke-miterlimit:10;" d="M 371.398438 279.199219 C 371.398438 281.601562 367.800781 281.601562 367.800781 279.199219 C 367.800781 276.800781 371.398438 276.800781 371.398438 279.199219 "/>
<path style="fill-rule:nonzero;fill:rgb(0%,0%,0%);fill-opacity:1;stroke-width:0.75;stroke-linecap:round;stroke-linejoin:round;stroke:rgb(0%,0%,0%);stroke-opacity:1;stroke-miterlimit:10;" d="M 405.800781 279.199219 C 405.800781 281.601562 402.199219 281.601562 402.199219 279.199219 C 402.199219 276.800781 405.800781 276.800781 405.800781 279.199219 "/>
<path style="fill-rule:nonzero;fill:rgb(0%,0%,0%);fill-opacity:1;stroke-width:0.75;stroke-linecap:round;stroke-linejoin:round;stroke:rgb(0%,0%,0%);stroke-opacity:1;stroke-miterlimit:10;" d="M 440.199219 279.199219 C 440.199219 281.601562 436.601562 281.601562 436.601562 279.199219 C 436.601562 276.800781 440.199219 276.800781 440.199219 279.199219 "/>
<path style="fill-rule:nonzero;fill:rgb(0%,0%,0%);fill-opacity:1;stroke-width:0.75;stroke-linecap:round;stroke-linejoin:round;stroke:rgb(0%,0%,0%);stroke-opacity:1;stroke-miterlimit:10;" d="M 96.199219 244.800781 C 96.199219 247.199219 92.601562 247.199219 92.601562 244.800781 C 92.601562 242.398438 96.199219 242.398438 96.199219 244.800781 "/>
<path style="fill-rule:nonzero;fill:rgb(0%,0%,0%);fill-opacity:1;stroke-width:0.75;stroke-linecap:round;stroke-linejoin:round;stroke:rgb(0%,0%,0%);stroke-opacity:1;stroke-miterlimit:10;" d="M 130.601562 244.800781 C 130.601562 247.199219 127 247.199219 127 244.800781 C 127 242.398438 130.601562 242.398438 130.601562 244.800781 "/>
<path style="fill-rule:nonzero;fill:rgb(0%,0%,0%);fill-opacity:1;stroke-width:0.75;stroke-linecap:round;stroke-linejoin:round;stroke:rgb(0%,0%,0%);stroke-opacity:1;stroke-miterlimit:10;" d="M 165 244.800781 C 165 247.199219 161.398438 247.199219 161.398438 244.800781 C 161.398438 242.398438 165 242.398438 165 244.800781 "/>
<path style="fill-rule:nonzero;fill:rgb(0%,0%,0%);fill-opacity:1;stroke-width:0.75;stroke-linecap:round;stroke-linejoin:round;stroke:rgb(0%,0%,0%);stroke-opacity:1;stroke-miterlimit:10;" d="M 199.398438 244.800781 C 199.398438 247.199219 195.800781 247.199219 195.800781 244.800781 C 195.800781 242.398438 199.398438 242.398438 199.398438 244.800781 "/>
<path style="fill-rule:nonzero;fill:rgb(0%,0%,0%);fill-opacity:1;stroke-width:0.75;stroke-linecap:round;stroke-linejoin:round;stroke:rgb(0%,0%,0%);stroke-opacity:1;stroke-miterlimit:10;" d="M 233.800781 244.800781 C 233.800781 247.199219 230.199219 247.199219 230.199219 244.800781 C 230.199219 242.398438 233.800781 242.398438 233.800781 244.800781 "/>
<path style="fill-rule:nonzero;fill:rgb(0%,0%,0%);fill-opacity:1;stroke-width:0.75;stroke-linecap:round;stroke-linejoin:round;stroke:rgb(0%,0%,0%);stroke-opacity:1;stroke-miterlimit:10;" d="M 268.199219 244.800781 C 268.199219 247.199219 264.601562 247.199219 264.601562 244.800781 C 264.601562 242.398438 268.199219 242.398438 268.199219 244.800781 "/>
<path style="fill-rule:nonzero;fill:rgb(0%,0%,0%);fill-opacity:1;stroke-width:0.75;stroke-linecap:round;stroke-linejoin:round;stroke:rgb(0%,0%,0%);stroke-opacity:1;stroke-miterlimit:10;" d="M 302.601562 244.800781 C 302.601562 247.199219 299 247.199219 299 244.800781 C 299 242.398438 302.601562 242.398438 302.601562 244.800781 "/>
<path style="fill-rule:nonzero;fill:rgb(0%,0%,0%);fill-opacity:1;stroke-width:0.75;stroke-linecap:round;stroke-linejoin:round;stroke:rgb(0%,0%,0%);stroke-opacity:1;stroke-miterlimit:10;" d="M 337 244.800781 C 337 247.199219 333.398438 247.199219 333.398438 244.800781 C 333.398438 242.398438 337 242.398438 337 244.800781 "/>
<path style="fill-rule:nonzero;fill:rgb(0%,0%,0%);fill-opacity:1;stroke-width:0.75;stroke-linecap:round;stroke-linejoin:round;stroke:rgb(0%,0%,0%);stroke-opacity:1;stroke-miterlimit:10;" d="M 371.398438 244.800781 C 371.398438 247.199219 367.800781 247.199219 367.800781 244.800781 C 367.800781 242.398438 371.398438 242.398438 371.398438 244.800781 "/>
<path style="fill-rule:nonzero;fill:rgb(0%,0%,0%);fill-opacity:1;stroke-width:0.75;stroke-linecap:round;stroke-linejoin:round;stroke:rgb(0%,0%,0%);stroke-opacity:1;stroke-miterlimit:10;" d="M 405.800781 244.800781 C 405.800781 247.199219 402.199219 247.199219 402.199219 244.800781 C 402.199219 242.398438 405.800781 242.398438 405.800781 244.800781 "/>
<path style="fill-rule:nonzero;fill:rgb(0%,0%,0%);fill-opacity:1;stroke-width:0.75;stroke-linecap:round;stroke-linejoin:round;stroke:rgb(0%,0%,0%);stroke-opacity:1;stroke-miterlimit:10;" d="M 440.199219 244.800781 C 440.199219 247.199219 436.601562 247.199219 436.601562 244.800781 C 436.601562 242.398438 440.199219 242.398438 440.199219 244.800781 "/>
<path style="fill-rule:nonzero;fill:rgb(0%,0%,0%);fill-opacity:1;stroke-width:0.75;stroke-linecap:round;stroke-linejoin:round;stroke:rgb(0%,0%,0%);stroke-opacity:1;stroke-miterlimit:10;" d="M 96.199219 210.398438 C 96.199219 212.800781 92.601562 212.800781 92.601562 210.398438 C 92.601562 208 96.199219 208 96.199219 210.398438 "/>
<path style="fill-rule:nonzero;fill:rgb(0%,0%,0%);fill-opacity:1;stroke-width:0.75;stroke-linecap:round;stroke-linejoin:round;stroke:rgb(0%,0%,0%);stroke-opacity:1;stroke-miterlimit:10;" d="M 130.601562 210.398438 C 130.601562 212.800781 127 212.800781 127 210.398438 C 127 208 130.601562 208 130.601562 210.398438 "/>
<path style="fill-rule:nonzero;fill:rgb(0%,0%,0%);fill-opacity:1;stroke-width:0.75;stroke-linecap:round;stroke-linejoin:round;stroke:rgb(0%,0%,0%);stroke-opacity:1;stroke-miterlimit:10;" d="M 165 210.398438 C 165 212.800781 161.398438 212.800781 161.398438 210.398438 C 161.398438 208 165 208 165 210.398438 "/>
<path style="fill-rule:nonzero;fill:rgb(0%,0%,0%);fill-opacity:1;stroke-width:0.75;stroke-linecap:round;stroke-linejoin:round;stroke:rgb(0%,0%,0%);stroke-opacity:1;stroke-miterlimit:10;" d="M 199.398438 210.398438 C 199.398438 212.800781 195.800781 212.800781 195.800781 210.398438 C 195.800781 208 199.398438 208 199.398438 210.398438 "/>
<path style="fill-rule:nonzero;fill:rgb(0%,0%,0%);fill-opacity:1;stroke-width:0.75;stroke-linecap:round;stroke-linejoin:round;stroke:rgb(0%,0%,0%);stroke-opacity:1;stroke-miterlimit:10;" d="M 233.800781 210.398438 C 233.800781 212.800781 230.199219 212.800781 230.199219 210.398438 C 230.199219 208 233.800781 208 233.800781 210.398438 "/>
<path style="fill-rule:nonzero;fill:rgb(0%,0%,0%);fill-opacity:1;stroke-width:0.75;stroke-linecap:round;stroke-linejoin:round;stroke:rgb(0%,0%,0%);stroke-opacity:1;stroke-miterlimit:10;" d="M 268.199219 210.398438 C 268.199219 212.800781 264.601562 212.800781 264.601562 210.398438 C 264.601562 208 268.199219 208 268.199219 210.398438 "/>
<path style="fill-rule:nonzero;fill:rgb(0%,0%,0%);fill-opacity:1;stroke-width:0.75;stroke-linecap:round;stroke-linejoin:round;stroke:rgb(0%,0%,0%);stroke-opacity:1;stroke-miterlimit:10;" d="M 302.601562 210.398438 C 302.601562 212.800781 299 212.800781 299 210.398438 C 299 208 302.601562 208 302.601562 210.398438 "/>
<path style="fill-rule:nonzero;fill:rgb(0%,0%,0%);fill-opacity:1;stroke-width:0.75;stroke-linecap:round;stroke-linejoin:round;stroke:rgb(0%,0%,0%);stroke-opacity:1;stroke-miterlimit:10;" d="M 337 210.398438 C 337 212.800781 333.398438 212.800781 333.398438 210.398438 C 333.398438 208 337 208 337 210.398438 "/>
<path style="fill-rule:nonzero;fill:rgb(0%,0%,0%);fill-opacity:1;stroke-width:0.75;stroke-linecap:round;stroke-linejoin:round;stroke:rgb(0%,0%,0%);stroke-opacity:1;stroke-miterlimit:10;" d="M 371.398438 210.398438 C 371.398438 212.800781 367.800781 212.800781 367.800781 210.398438 C 367.800781 208 371.398438 208 371.398438 210.398438 "/>
<path style="fill-rule:nonzero;fill:rgb(0%,0%,0%);fill-opacity:1;stroke-width:0.75;stroke-linecap:round;stroke-linejoin:round;stroke:rgb(0%,0%,0%);stroke-opacity:1;stroke-miterlimit:10;" d="M 405.800781 210.398438 C 405.800781 212.800781 402.199219 212.800781 402.199219 210.398438 C 402.199219 208 405.800781 208 405.800781 210.398438 "/>
<path style="fill-rule:nonzero;fill:rgb(0%,0%,0%);fill-opacity:1;stroke-width:0.75;stroke-linecap:round;stroke-linejoin:round;stroke:rgb(0%,0%,0%);stroke-opacity:1;stroke-miterlimit:10;" d="M 440.199219 210.398438 C 440.199219 212.800781 436.601562 212.800781 436.601562 210.398438 C 436.601562 208 440.199219 208 440.199219 210.398438 "/>
<path style="fill-rule:nonzero;fill:rgb(0%,0%,0%);fill-opacity:1;stroke-width:0.75;stroke-linecap:round;stroke-linejoin:round;stroke:rgb(0%,0%,0%);stroke-opacity:1;stroke-miterlimit:10;" d="M 96.199219 176 C 96.199219 178.398438 92.601562 178.398438 92.601562 176 C 92.601562 173.601562 96.199219 173.601562 96.199219 176 "/>
<path style="fill-rule:nonzero;fill:rgb(0%,0%,0%);fill-opacity:1;stroke-width:0.75;stroke-linecap:round;stroke-linejoin:round;stroke:rgb(0%,0%,0%);stroke-opacity:1;stroke-miterlimit:10;" d="M 130.601562 176 C 130.601562 178.398438 127 178.398438 127 176 C 127 173.601562 130.601562 173.601562 130.601562 176 "/>
<path style="fill-rule:nonzero;fill:rgb(0%,0%,0%);fill-opacity:1;stroke-width:0.75;stroke-linecap:round;stroke-linejoin:round;stroke:rgb(0%,0%,0%);stroke-opacity:1;stroke-miterlimit:10;" d="M 165 176 C 165 178.398438 161.398438 178.398438 161.398438 176 C 161.398438 173.601562 165 173.601562 165 176 "/>
<path style="fill-rule:nonzero;fill:rgb(0%,0%,0%);fill-opacity:1;stroke-width:0.75;stroke-linecap:round;stroke-linejoin:round;stroke:rgb(0%,0%,0%);stroke-opacity:1;stroke-miterlimit:10;" d="M 199.398438 176 C 199.398438 178.398438 195.800781 178.398438 195.800781 176 C 195.800781 173.601562 199.398438 173.601562 199.398438 176 "/>
<path style="fill-rule:nonzero;fill:rgb(0%,0%,0%);fill-opacity:1;stroke-width:0.75;stroke-linecap:round;stroke-linejoin:round;stroke:rgb(0%,0%,0%);stroke-opacity:1;stroke-miterlimit:10;" d="M 233.800781 176 C 233.800781 178.398438 230.199219 178.398438 230.199219 176 C 230.199219 173.601562 233.800781 173.601562 233.800781 176 "/>
<path style="fill-rule:nonzero;fill:rgb(0%,0%,0%);fill-opacity:1;stroke-width:0.75;stroke-linecap:round;stroke-linejoin:round;stroke:rgb(0%,0%,0%);stroke-opacity:1;stroke-miterlimit:10;" d="M 268.199219 176 C 268.199219 178.398438 264.601562 178.398438 264.601562 176 C 264.601562 173.601562 268.199219 173.601562 268.199219 176 "/>
<path style="fill-rule:nonzero;fill:rgb(0%,0%,0%);fill-opacity:1;stroke-width:0.75;stroke-linecap:round;stroke-linejoin:round;stroke:rgb(0%,0%,0%);stroke-opacity:1;stroke-miterlimit:10;" d="M 302.601562 176 C 302.601562 178.398438 299 178.398438 299 176 C 299 173.601562 302.601562 173.601562 302.601562 176 "/>
<path style="fill-rule:nonzero;fill:rgb(0%,0%,0%);fill-opacity:1;stroke-width:0.75;stroke-linecap:round;stroke-linejoin:round;stroke:rgb(0%,0%,0%);stroke-opacity:1;stroke-miterlimit:10;" d="M 337 176 C 337 178.398438 333.398438 178.398438 333.398438 176 C 333.398438 173.601562 337 173.601562 337 176 "/>
<path style="fill-rule:nonzero;fill:rgb(0%,0%,0%);fill-opacity:1;stroke-width:0.75;stroke-linecap:round;stroke-linejoin:round;stroke:rgb(0%,0%,0%);stroke-opacity:1;stroke-miterlimit:10;" d="M 371.398438 176 C 371.398438 178.398438 367.800781 178.398438 367.800781 176 C 367.800781 173.601562 371.398438 173.601562 371.398438 176 "/>
<path style="fill-rule:nonzero;fill:rgb(0%,0%,0%);fill-opacity:1;stroke-width:0.75;stroke-linecap:round;stroke-linejoin:round;stroke:rgb(0%,0%,0%);stroke-opacity:1;stroke-miterlimit:10;" d="M 405.800781 176 C 405.800781 178.398438 402.199219 178.398438 402.199219 176 C 402.199219 173.601562 405.800781 173.601562 405.800781 176 "/>
<path style="fill-rule:nonzero;fill:rgb(0%,0%,0%);fill-opacity:1;stroke-width:0.75;stroke-linecap:round;stroke-linejoin:round;stroke:rgb(0%,0%,0%);stroke-opacity:1;stroke-miterlimit:10;" d="M 440.199219 176 C 440.199219 178.398438 436.601562 178.398438 436.601562 176 C 436.601562 173.601562 440.199219 173.601562 440.199219 176 "/>
<path style="fill-rule:nonzero;fill:rgb(0%,0%,0%);fill-opacity:1;stroke-width:0.75;stroke-linecap:round;stroke-linejoin:round;stroke:rgb(0%,0%,0%);stroke-opacity:1;stroke-miterlimit:10;" d="M 96.199219 141.601562 C 96.199219 144 92.601562 144 92.601562 141.601562 C 92.601562 139.199219 96.199219 139.199219 96.199219 141.601562 "/>
<path style="fill-rule:nonzero;fill:rgb(0%,0%,0%);fill-opacity:1;stroke-width:0.75;stroke-linecap:round;stroke-linejoin:round;stroke:rgb(0%,0%,0%);stroke-opacity:1;stroke-miterlimit:10;" d="M 130.601562 141.601562 C 130.601562 144 127 144 127 141.601562 C 127 139.199219 130.601562 139.199219 130.601562 141.601562 "/>
<path style="fill-rule:nonzero;fill:rgb(0%,0%,0%);fill-opacity:1;stroke-width:0.75;stroke-linecap:round;stroke-linejoin:round;stroke:rgb(0%,0%,0%);stroke-opacity:1;stroke-miterlimit:10;" d="M 165 141.601562 C 165 144 161.398438 144 161.398438 141.601562 C 161.398438 139.199219 165 139.199219 165 141.601562 "/>
<path style="fill-rule:nonzero;fill:rgb(0%,0%,0%);fill-opacity:1;stroke-width:0.75;stroke-linecap:round;stroke-linejoin:round;stroke:rgb(0%,0%,0%);stroke-opacity:1;stroke-miterlimit:10;" d="M 199.398438 141.601562 C 199.398438 144 195.800781 144 195.800781 141.601562 C 195.800781 139.199219 199.398438 139.199219 199.398438 141.601562 "/>
<path style="fill-rule:nonzero;fill:rgb(0%,0%,0%);fill-opacity:1;stroke-width:0.75;stroke-linecap:round;stroke-linejoin:round;stroke:rgb(0%,0%,0%);stroke-opacity:1;stroke-miterlimit:10;" d="M 233.800781 141.601562 C 233.800781 144 230.199219 144 230.199219 141.601562 C 230.199219 139.199219 233.800781 139.199219 233.800781 141.601562 "/>
<path style="fill-rule:nonzero;fill:rgb(0%,0%,0%);fill-opacity:1;stroke-width:0.75;stroke-linecap:round;stroke-linejoin:round;stroke:rgb(0%,0%,0%);stroke-opacity:1;stroke-miterlimit:10;" d="M 268.199219 141.601562 C 268.199219 144 264.601562 144 264.601562 141.601562 C 264.601562 139.199219 268.199219 139.199219 268.199219 141.601562 "/>
<path style="fill-rule:nonzero;fill:rgb(0%,0%,0%);fill-opacity:1;stroke-width:0.75;stroke-linecap:round;stroke-linejoin:round;stroke:rgb(0%,0%,0%);stroke-opacity:1;stroke-miterlimit:10;" d="M 302.601562 141.601562 C 302.601562 144 299 144 299 141.601562 C 299 139.199219 302.601562 139.199219 302.601562 141.601562 "/>
<path style="fill-rule:nonzero;fill:rgb(0%,0%,0%);fill-opacity:1;stroke-width:0.75;stroke-linecap:round;stroke-linejoin:round;stroke:rgb(0%,0%,0%);stroke-opacity:1;stroke-miterlimit:10;" d="M 337 141.601562 C 337 144 333.398438 144 333.398438 141.601562 C 333.398438 139.199219 337 139.199219 337 141.601562 "/>
<path style="fill-rule:nonzero;fill:rgb(0%,0%,0%);fill-opacity:1;stroke-width:0.75;stroke-linecap:round;stroke-linejoin:round;stroke:rgb(0%,0%,0%);stroke-opacity:1;stroke-miterlimit:10;" d="M 371.398438 141.601562 C 371.398438 144 367.800781 144 367.800781 141.601562 C 367.800781 139.199219 371.398438 139.199219 371.398438 141.601562 "/>
<path style="fill-rule:nonzero;fill:rgb(0%,0%,0%);fill-opacity:1;stroke-width:0.75;stroke-linecap:round;stroke-linejoin:round;stroke:rgb(0%,0%,0%);stroke-opacity:1;stroke-miterlimit:10;" d="M 405.800781 141.601562 C 405.800781 144 402.199219 144 402.199219 141.601562 C 402.199219 139.199219 405.800781 139.199219 405.800781 141.601562 "/>
<path style="fill-rule:nonzero;fill:rgb(0%,0%,0%);fill-opacity:1;stroke-width:0.75;stroke-linecap:round;stroke-linejoin:round;stroke:rgb(0%,0%,0%);stroke-opacity:1;stroke-miterlimit:10;" d="M 440.199219 141.601562 C 440.199219 144 436.601562 144 436.601562 141.601562 C 436.601562 139.199219 440.199219 139.199219 440.199219 141.601562 "/>
<path style="fill-rule:nonzero;fill:rgb(0%,0%,0%);fill-opacity:1;stroke-width:0.75;stroke-linecap:round;stroke-linejoin:round;stroke:rgb(0%,0%,0%);stroke-opacity:1;stroke-miterlimit:10;" d="M 96.199219 107.199219 C 96.199219 109.601562 92.601562 109.601562 92.601562 107.199219 C 92.601562 104.800781 96.199219 104.800781 96.199219 107.199219 "/>
<path style="fill-rule:nonzero;fill:rgb(0%,0%,0%);fill-opacity:1;stroke-width:0.75;stroke-linecap:round;stroke-linejoin:round;stroke:rgb(0%,0%,0%);stroke-opacity:1;stroke-miterlimit:10;" d="M 130.601562 107.199219 C 130.601562 109.601562 127 109.601562 127 107.199219 C 127 104.800781 130.601562 104.800781 130.601562 107.199219 "/>
<path style="fill-rule:nonzero;fill:rgb(0%,0%,0%);fill-opacity:1;stroke-width:0.75;stroke-linecap:round;stroke-linejoin:round;stroke:rgb(0%,0%,0%);stroke-opacity:1;stroke-miterlimit:10;" d="M 165 107.199219 C 165 109.601562 161.398438 109.601562 161.398438 107.199219 C 161.398438 104.800781 165 104.800781 165 107.199219 "/>
<path style="fill-rule:nonzero;fill:rgb(0%,0%,0%);fill-opacity:1;stroke-width:0.75;stroke-linecap:round;stroke-linejoin:round;stroke:rgb(0%,0%,0%);stroke-opacity:1;stroke-miterlimit:10;" d="M 199.398438 107.199219 C 199.398438 109.601562 195.800781 109.601562 195.800781 107.199219 C 195.800781 104.800781 199.398438 104.800781 199.398438 107.199219 "/>
<path style="fill-rule:nonzero;fill:rgb(0%,0%,0%);fill-opacity:1;stroke-width:0.75;stroke-linecap:round;stroke-linejoin:round;stroke:rgb(0%,0%,0%);stroke-opacity:1;stroke-miterlimit:10;" d="M 233.800781 107.199219 C 233.800781 109.601562 230.199219 109.601562 230.199219 107.199219 C 230.199219 104.800781 233.800781 104.800781 233.800781 107.199219 "/>
<path style="fill-rule:nonzero;fill:rgb(0%,0%,0%);fill-opacity:1;stroke-width:0.75;stroke-linecap:round;stroke-linejoin:round;stroke:rgb(0%,0%,0%);stroke-opacity:1;stroke-miterlimit:10;" d="M 268.199219 107.199219 C 268.199219 109.601562 264.601562 109.601562 264.601562 107.199219 C 264.601562 104.800781 268.199219 104.800781 268.199219 107.199219 "/>
<path style="fill-rule:nonzero;fill:rgb(0%,0%,0%);fill-opacity:1;stroke-width:0.75;stroke-linecap:round;stroke-linejoin:round;stroke:rgb(0%,0%,0%);stroke-opacity:1;stroke-miterlimit:10;" d="M 302.601562 107.199219 C 302.601562 109.601562 299 109.601562 299 107.199219 C 299 104.800781 302.601562 104.800781 302.601562 107.199219 "/>
<path style="fill-rule:nonzero;fill:rgb(0%,0%,0%);fill-opacity:1;stroke-width:0.75;stroke-linecap:round;stroke-linejoin:round;stroke:rgb(0%,0%,0%);stroke-opacity:1;stroke-miterlimit:10;" d="M 337 107.199219 C 337 109.601562 333.398438 109.601562 333.398438 107.199219 C 333.398438 104.800781 337 104.800781 337 107.199219 "/>
<path style="fill-rule:nonzero;fill:rgb(0%,0%,0%);fill-opacity:1;stroke-width:0.75;stroke-linecap:round;stroke-linejoin:round;stroke:rgb(0%,0%,0%);stroke-opacity:1;stroke-miterlimit:10;" d="M 371.398438 107.199219 C 371.398438 109.601562 367.800781 109.601562 367.800781 107.199219 C 367.800781 104.800781 371.398438 104.800781 371.398438 107.199219 "/>
<path style="fill-rule:nonzero;fill:rgb(0%,0%,0%);fill-opacity:1;stroke-width:0.75;stroke-linecap:round;stroke-linejoin:round;stroke:rgb(0%,0%,0%);stroke-opacity:1;stroke-miterlimit:10;" d="M 405.800781 107.199219 C 405.800781 109.601562 402.199219 109.601562 402.199219 107.199219 C 402.199219 104.800781 405.800781 104.800781 405.800781 107.199219 "/>
<path style="fill-rule:nonzero;fill:rgb(0%,0%,0%);fill-opacity:1;stroke-width:0.75;stroke-linecap:round;stroke-linejoin:round;stroke:rgb(0%,0%,0%);stroke-opacity:1;stroke-miterlimit:10;" d="M 440.199219 107.199219 C 440.199219 109.601562 436.601562 109.601562 436.601562 107.199219 C 436.601562 104.800781 440.199219 104.800781 440.199219 107.199219 "/>
<path style="fill-rule:nonzero;fill:rgb(0%,0%,0%);fill-opacity:1;stroke-width:0.75;stroke-linecap:round;stroke-linejoin:round;stroke:rgb(0%,0%,0%);stroke-opacity:1;stroke-miterlimit:10;" d="M 96.199219 72.800781 C 96.199219 75.199219 92.601562 75.199219 92.601562 72.800781 C 92.601562 70.398438 96.199219 70.398438 96.199219 72.800781 "/>
<path style="fill-rule:nonzero;fill:rgb(0%,0%,0%);fill-opacity:1;stroke-width:0.75;stroke-linecap:round;stroke-linejoin:round;stroke:rgb(0%,0%,0%);stroke-opacity:1;stroke-miterlimit:10;" d="M 130.601562 72.800781 C 130.601562 75.199219 127 75.199219 127 72.800781 C 127 70.398438 130.601562 70.398438 130.601562 72.800781 "/>
<path style="fill-rule:nonzero;fill:rgb(0%,0%,0%);fill-opacity:1;stroke-width:0.75;stroke-linecap:round;stroke-linejoin:round;stroke:rgb(0%,0%,0%);stroke-opacity:1;stroke-miterlimit:10;" d="M 165 72.800781 C 165 75.199219 161.398438 75.199219 161.398438 72.800781 C 161.398438 70.398438 165 70.398438 165 72.800781 "/>
<path style="fill-rule:nonzero;fill:rgb(0%,0%,0%);fill-opacity:1;stroke-width:0.75;stroke-linecap:round;stroke-linejoin:round;stroke:rgb(0%,0%,0%);stroke-opacity:1;stroke-miterlimit:10;" d="M 199.398438 72.800781 C 199.398438 75.199219 195.800781 75.199219 195.800781 72.800781 C 195.800781 70.398438 199.398438 70.398438 199.398438 72.800781 "/>
<path style="fill-rule:nonzero;fill:rgb(0%,0%,0%);fill-opacity:1;stroke-width:0.75;stroke-linecap:round;stroke-linejoin:round;stroke:rgb(0%,0%,0%);stroke-opacity:1;stroke-miterlimit:10;" d="M 233.800781 72.800781 C 233.800781 75.199219 230.199219 75.199219 230.199219 72.800781 C 230.199219 70.398438 233.800781 70.398438 233.800781 72.800781 "/>
<path style="fill-rule:nonzero;fill:rgb(0%,0%,0%);fill-opacity:1;stroke-width:0.75;stroke-linecap:round;stroke-linejoin:round;stroke:rgb(0%,0%,0%);stroke-opacity:1;stroke-miterlimit:10;" d="M 268.199219 72.800781 C 268.199219 75.199219 264.601562 75.199219 264.601562 72.800781 C 264.601562 70.398438 268.199219 70.398438 268.199219 72.800781 "/>
<path style="fill-rule:nonzero;fill:rgb(0%,0%,0%);fill-opacity:1;stroke-width:0.75;stroke-linecap:round;stroke-linejoin:round;stroke:rgb(0%,0%,0%);stroke-opacity:1;stroke-miterlimit:10;" d="M 302.601562 72.800781 C 302.601562 75.199219 299 75.199219 299 72.800781 C 299 70.398438 302.601562 70.398438 302.601562 72.800781 "/>
<path style="fill-rule:nonzero;fill:rgb(0%,0%,0%);fill-opacity:1;stroke-width:0.75;stroke-linecap:round;stroke-linejoin:round;stroke:rgb(0%,0%,0%);stroke-opacity:1;stroke-miterlimit:10;" d="M 337 72.800781 C 337 75.199219 333.398438 75.199219 333.398438 72.800781 C 333.398438 70.398438 337 70.398438 337 72.800781 "/>
<path style="fill-rule:nonzero;fill:rgb(0%,0%,0%);fill-opacity:1;stroke-width:0.75;stroke-linecap:round;stroke-linejoin:round;stroke:rgb(0%,0%,0%);stroke-opacity:1;stroke-miterlimit:10;" d="M 371.398438 72.800781 C 371.398438 75.199219 367.800781 75.199219 367.800781 72.800781 C 367.800781 70.398438 371.398438 70.398438 371.398438 72.800781 "/>
<path style="fill-rule:nonzero;fill:rgb(0%,0%,0%);fill-opacity:1;stroke-width:0.75;stroke-linecap:round;stroke-linejoin:round;stroke:rgb(0%,0%,0%);stroke-opacity:1;stroke-miterlimit:10;" d="M 405.800781 72.800781 C 405.800781 75.199219 402.199219 75.199219 402.199219 72.800781 C 402.199219 70.398438 405.800781 70.398438 405.800781 72.800781 "/>
<path style="fill-rule:nonzero;fill:rgb(0%,0%,0%);fill-opacity:1;stroke-width:0.75;stroke-linecap:round;stroke-linejoin:round;stroke:rgb(0%,0%,0%);stroke-opacity:1;stroke-miterlimit:10;" d="M 440.199219 72.800781 C 440.199219 75.199219 436.601562 75.199219 436.601562 72.800781 C 436.601562 70.398438 440.199219 70.398438 440.199219 72.800781 "/>
<path style="fill:none;stroke-width:0.75;stroke-linecap:round;stroke-linejoin:round;stroke:rgb(100%,0%,0%);stroke-opacity:1;stroke-miterlimit:10;" d="M 94.398438 416.800781 L 94.398438 72.800781 "/>
<path style="fill:none;stroke-width:0.75;stroke-linecap:round;stroke-linejoin:round;stroke:rgb(100%,0%,0%);stroke-opacity:1;stroke-miterlimit:10;" d="M 128.800781 416.800781 L 128.800781 72.800781 "/>
<path style="fill:none;stroke-width:0.75;stroke-linecap:round;stroke-linejoin:round;stroke:rgb(100%,0%,0%);stroke-opacity:1;stroke-miterlimit:10;" d="M 163.199219 416.800781 L 163.199219 72.800781 "/>
<path style="fill:none;stroke-width:0.75;stroke-linecap:round;stroke-linejoin:round;stroke:rgb(100%,0%,0%);stroke-opacity:1;stroke-miterlimit:10;" d="M 197.601562 416.800781 L 197.601562 72.800781 "/>
<path style="fill:none;stroke-width:0.75;stroke-linecap:round;stroke-linejoin:round;stroke:rgb(100%,0%,0%);stroke-opacity:1;stroke-miterlimit:10;" d="M 232 416.800781 L 232 72.800781 "/>
<path style="fill:none;stroke-width:0.75;stroke-linecap:round;stroke-linejoin:round;stroke:rgb(100%,0%,0%);stroke-opacity:1;stroke-miterlimit:10;" d="M 266.398438 416.800781 L 266.398438 72.800781 "/>
<path style="fill:none;stroke-width:0.75;stroke-linecap:round;stroke-linejoin:round;stroke:rgb(100%,0%,0%);stroke-opacity:1;stroke-miterlimit:10;" d="M 300.800781 416.800781 L 300.800781 72.800781 "/>
<path style="fill:none;stroke-width:0.75;stroke-linecap:round;stroke-linejoin:round;stroke:rgb(100%,0%,0%);stroke-opacity:1;stroke-miterlimit:10;" d="M 335.199219 416.800781 L 335.199219 72.800781 "/>
<path style="fill:none;stroke-width:0.75;stroke-linecap:round;stroke-linejoin:round;stroke:rgb(100%,0%,0%);stroke-opacity:1;stroke-miterlimit:10;" d="M 369.601562 416.800781 L 369.601562 72.800781 "/>
<path style="fill:none;stroke-width:0.75;stroke-linecap:round;stroke-linejoin:round;stroke:rgb(100%,0%,0%);stroke-opacity:1;stroke-miterlimit:10;" d="M 404 416.800781 L 404 72.800781 "/>
<path style="fill:none;stroke-width:0.75;stroke-linecap:round;stroke-linejoin:round;stroke:rgb(100%,0%,0%);stroke-opacity:1;stroke-miterlimit:10;" d="M 438.398438 416.800781 L 438.398438 72.800781 "/>
<path style="fill:none;stroke-width:0.75;stroke-linecap:round;stroke-linejoin:round;stroke:rgb(0%,0%,100%);stroke-opacity:1;stroke-miterlimit:10;" d="M 94.398438 416.800781 L 438.398438 416.800781 "/>
<path style="fill:none;stroke-width:0.75;stroke-linecap:round;stroke-linejoin:round;stroke:rgb(0%,0%,100%);stroke-opacity:1;stroke-miterlimit:10;" d="M 94.398438 382.398438 L 438.398438 382.398438 "/>
<path style="fill:none;stroke-width:0.75;stroke-linecap:round;stroke-linejoin:round;stroke:rgb(0%,0%,100%);stroke-opacity:1;stroke-miterlimit:10;" d="M 94.398438 348 L 438.398438 348 "/>
<path style="fill:none;stroke-width:0.75;stroke-linecap:round;stroke-linejoin:round;stroke:rgb(0%,0%,100%);stroke-opacity:1;stroke-miterlimit:10;" d="M 94.398438 313.601562 L 438.398438 313.601562 "/>
<path style="fill:none;stroke-width:0.75;stroke-linecap:round;stroke-linejoin:round;stroke:rgb(0%,0%,100%);stroke-opacity:1;stroke-miterlimit:10;" d="M 94.398438 279.199219 L 438.398438 279.199219 "/>
<path style="fill:none;stroke-width:0.75;stroke-linecap:round;stroke-linejoin:round;stroke:rgb(0%,0%,100%);stroke-opacity:1;stroke-miterlimit:10;" d="M 94.398438 244.800781 L 438.398438 244.800781 "/>
<path style="fill:none;stroke-width:0.75;stroke-linecap:round;stroke-linejoin:round;stroke:rgb(0%,0%,100%);stroke-opacity:1;stroke-miterlimit:10;" d="M 94.398438 210.398438 L 438.398438 210.398438 "/>
<path style="fill:none;stroke-width:0.75;stroke-linecap:round;stroke-linejoin:round;stroke:rgb(0%,0%,100%);stroke-opacity:1;stroke-miterlimit:10;" d="M 94.398438 176 L 438.398438 176 "/>
<path style="fill:none;stroke-width:0.75;stroke-linecap:round;stroke-linejoin:round;stroke:rgb(0%,0%,100%);stroke-opacity:1;stroke-miterlimit:10;" d="M 94.398438 141.601562 L 438.398438 141.601562 "/>
<path style="fill:none;stroke-width:0.75;stroke-linecap:round;stroke-linejoin:round;stroke:rgb(0%,0%,100%);stroke-opacity:1;stroke-miterlimit:10;" d="M 94.398438 107.199219 L 438.398438 107.199219 "/>
<path style="fill:none;stroke-width:0.75;stroke-linecap:round;stroke-linejoin:round;stroke:rgb(0%,0%,100%);stroke-opacity:1;stroke-miterlimit:10;" d="M 94.398438 72.800781 L 438.398438 72.800781 "/>
<path style="fill-rule:nonzero;fill:rgb(0%,0%,0%);fill-opacity:1;stroke-width:0.75;stroke-linecap:round;stroke-linejoin:round;stroke:rgb(0%,0%,0%);stroke-opacity:1;stroke-miterlimit:10;" d="M 96.199219 416.800781 C 96.199219 419.199219 92.601562 419.199219 92.601562 416.800781 C 92.601562 414.398438 96.199219 414.398438 96.199219 416.800781 "/>
</g>
</svg>
