<?xml version="1.0" encoding="UTF-8"?>
<svg xmlns="http://www.w3.org/2000/svg" xmlns:xlink="http://www.w3.org/1999/xlink" width="504pt" height="504pt" viewBox="0 0 504 504" version="1.1">
<defs>
<clipPath id="clip1">
  <path d="M 59.039062 378 L 473.757812 378 L 473.757812 379 L 59.039062 379 Z M 59.039062 378 "/>
</clipPath>
<clipPath id="clip2">
  <path d="M 266 59.039062 L 267 59.039062 L 267 430.558594 L 266 430.558594 Z M 266 59.039062 "/>
</clipPath>
<clipPath id="clip3">
  <path d="M 342 59.039062 L 344 59.039062 L 344 430.558594 L 342 430.558594 Z M 342 59.039062 "/>
</clipPath>
</defs>
<g id="surface1">
<rect x="0" y="0" width="504" height="504" style="fill:rgb(100%,100%,100%);fill-opacity:1;stroke:none;"/>
<path style="fill:none;stroke-width:0.75;stroke-linecap:round;stroke-linejoin:round;stroke:rgb(0%,0%,0%);stroke-opacity:1;stroke-miterlimit:10;" d="M 74.398438 378.488281 L 81.3125 378.488281 L 81.695312 378.484375 L 92.0625 378.484375 L 92.449219 378.480469 L 97.054688 378.480469 L 97.441406 378.476562 L 100.128906 378.476562 L 100.511719 378.472656 L 102.433594 378.472656 L 102.816406 378.46875 L 104.351562 378.46875 L 104.734375 378.464844 L 105.886719 378.464844 L 106.273438 378.460938 L 107.039062 378.460938 L 107.425781 378.457031 L 108.191406 378.457031 L 108.574219 378.453125 L 109.34375 378.453125 L 109.726562 378.449219 L 110.496094 378.449219 L 110.878906 378.445312 L 111.265625 378.445312 L 111.648438 378.441406 L 112.03125 378.441406 L 112.414062 378.4375 L 112.800781 378.4375 L 113.183594 378.433594 L 113.566406 378.433594 L 113.953125 378.429688 L 114.335938 378.425781 L 114.71875 378.425781 L 115.105469 378.421875 L 115.488281 378.421875 L 115.871094 378.417969 L 116.257812 378.414062 L 116.640625 378.410156 L 117.023438 378.410156 L 117.40625 378.40625 L 117.792969 378.402344 L 118.558594 378.394531 L 118.945312 378.390625 L 119.710938 378.382812 L 120.097656 378.378906 L 121.246094 378.367188 L 121.632812 378.363281 L 122.015625 378.359375 L 122.398438 378.351562 L 122.785156 378.347656 L 123.167969 378.34375 L 123.550781 378.335938 L 123.9375 378.332031 L 124.320312 378.324219 L 124.703125 378.320312 L 125.089844 378.3125 L 125.472656 378.304688 L 125.855469 378.300781 L 126.238281 378.292969 L 126.625 378.285156 L 127.390625 378.269531 L 127.777344 378.261719 L 128.542969 378.246094 L 128.929688 378.234375 L 129.695312 378.21875 L 130.078125 378.207031 L 130.464844 378.199219 L 131.230469 378.175781 L 131.617188 378.164062 L 132.382812 378.140625 L 132.769531 378.128906 L 133.152344 378.117188 L 133.535156 378.101562 L 133.921875 378.089844 L 134.304688 378.074219 L 134.6875 378.0625 L 135.070312 378.046875 L 135.457031 378.03125 L 136.222656 378 L 136.609375 377.984375 L 136.992188 377.964844 L 137.375 377.949219 L 137.761719 377.929688 L 138.910156 377.871094 L 139.296875 377.847656 L 139.679688 377.828125 L 140.0625 377.804688 L 140.449219 377.78125 L 141.214844 377.734375 L 141.601562 377.710938 L 141.984375 377.683594 L 142.367188 377.660156 L 142.753906 377.632812 L 143.136719 377.601562 L 143.519531 377.574219 L 143.902344 377.542969 L 144.289062 377.515625 L 144.671875 377.484375 L 145.054688 377.449219 L 145.441406 377.417969 L 146.207031 377.347656 L 146.59375 377.3125 L 147.742188 377.195312 L 148.128906 377.15625 L 148.894531 377.070312 L 149.28125 377.027344 L 149.664062 376.984375 L 150.046875 376.9375 L 150.433594 376.890625 L 151.199219 376.789062 L 151.585938 376.738281 L 152.734375 376.574219 L 153.121094 376.515625 L 153.886719 376.398438 L 154.273438 376.335938 L 154.65625 376.273438 L 155.039062 376.207031 L 155.425781 376.140625 L 156.574219 375.929688 L 156.960938 375.855469 L 157.726562 375.699219 L 158.113281 375.621094 L 158.878906 375.457031 L 159.265625 375.371094 L 160.03125 375.191406 L 160.414062 375.097656 L 160.800781 375.003906 L 161.566406 374.808594 L 161.953125 374.707031 L 162.71875 374.496094 L 163.105469 374.386719 L 163.871094 374.160156 L 164.257812 374.042969 L 164.640625 373.925781 L 165.40625 373.675781 L 165.792969 373.546875 L 166.175781 373.417969 L 166.558594 373.285156 L 166.945312 373.148438 L 167.328125 373.007812 L 167.710938 372.863281 L 168.097656 372.71875 L 168.480469 372.570312 L 168.863281 372.417969 L 169.246094 372.261719 L 169.632812 372.101562 L 170.398438 371.773438 L 170.785156 371.601562 L 171.167969 371.429688 L 171.550781 371.253906 L 171.9375 371.070312 L 172.320312 370.886719 L 172.703125 370.699219 L 173.089844 370.507812 L 173.472656 370.3125 L 173.855469 370.113281 L 174.238281 369.90625 L 174.625 369.699219 L 175.007812 369.488281 L 175.390625 369.273438 L 175.777344 369.050781 L 176.542969 368.597656 L 176.929688 368.363281 L 177.3125 368.125 L 177.695312 367.882812 L 178.078125 367.636719 L 178.464844 367.382812 L 178.847656 367.125 L 179.230469 366.863281 L 179.617188 366.597656 L 180 366.328125 L 180.382812 366.050781 L 180.769531 365.769531 L 181.152344 365.484375 L 181.535156 365.191406 L 181.921875 364.898438 L 182.6875 364.289062 L 183.070312 363.976562 L 183.457031 363.660156 L 183.839844 363.335938 L 184.222656 363.007812 L 184.609375 362.671875 L 184.992188 362.332031 L 185.375 361.988281 L 185.761719 361.636719 L 186.144531 361.28125 L 186.527344 360.917969 L 186.910156 360.550781 L 187.296875 360.175781 L 187.679688 359.792969 L 188.0625 359.40625 L 188.449219 359.015625 L 188.832031 358.617188 L 189.214844 358.214844 L 189.601562 357.800781 L 189.984375 357.386719 L 190.367188 356.960938 L 190.753906 356.535156 L 191.136719 356.097656 L 191.519531 355.65625 L 191.902344 355.207031 L 192.289062 354.753906 L 193.054688 353.824219 L 193.441406 353.347656 L 193.824219 352.867188 L 194.207031 352.378906 L 194.59375 351.886719 L 194.976562 351.386719 L 195.359375 350.878906 L 195.742188 350.363281 L 196.128906 349.84375 L 196.511719 349.316406 L 196.894531 348.78125 L 197.28125 348.238281 L 197.664062 347.691406 L 198.046875 347.136719 L 198.433594 346.578125 L 198.816406 346.007812 L 199.199219 345.433594 L 199.585938 344.851562 L 199.96875 344.261719 L 200.351562 343.667969 L 200.734375 343.066406 L 201.121094 342.457031 L 201.503906 341.839844 L 201.886719 341.214844 L 202.273438 340.585938 L 202.65625 339.949219 L 203.039062 339.308594 L 203.425781 338.65625 L 203.808594 338 L 204.191406 337.339844 L 204.574219 336.667969 L 204.960938 335.992188 L 205.34375 335.308594 L 205.726562 334.617188 L 206.113281 333.921875 L 206.496094 333.21875 L 206.878906 332.507812 L 207.265625 331.792969 L 207.648438 331.070312 L 208.03125 330.34375 L 208.414062 329.609375 L 208.800781 328.867188 L 209.183594 328.121094 L 209.566406 327.367188 L 209.953125 326.605469 L 210.335938 325.839844 L 210.71875 325.070312 L 211.105469 324.292969 L 211.488281 323.507812 L 211.871094 322.71875 L 212.257812 321.925781 L 212.640625 321.125 L 213.40625 319.507812 L 213.792969 318.691406 L 214.558594 317.042969 L 214.945312 316.210938 L 215.710938 314.53125 L 216.097656 313.683594 L 216.480469 312.832031 L 216.863281 311.976562 L 217.246094 311.117188 L 217.632812 310.253906 L 218.398438 308.511719 L 218.785156 307.632812 L 219.167969 306.753906 L 219.550781 305.871094 L 219.9375 304.980469 L 220.320312 304.089844 L 220.703125 303.195312 L 221.089844 302.296875 L 221.472656 301.398438 L 221.855469 300.496094 L 222.238281 299.589844 L 222.625 298.679688 L 223.007812 297.769531 L 223.390625 296.855469 L 223.777344 295.941406 L 224.542969 294.105469 L 224.929688 293.183594 L 225.695312 291.339844 L 226.078125 290.414062 L 226.464844 289.488281 L 227.230469 287.636719 L 227.617188 286.710938 L 228 285.785156 L 228.382812 284.855469 L 228.769531 283.929688 L 229.535156 282.078125 L 229.921875 281.152344 L 230.304688 280.226562 L 231.070312 278.382812 L 231.457031 277.460938 L 231.839844 276.542969 L 232.222656 275.628906 L 232.609375 274.714844 L 232.992188 273.800781 L 233.375 272.890625 L 233.761719 271.984375 L 234.527344 270.179688 L 234.910156 269.285156 L 235.296875 268.390625 L 235.679688 267.5 L 236.0625 266.613281 L 236.449219 265.734375 L 236.832031 264.855469 L 237.214844 263.984375 L 237.601562 263.113281 L 238.367188 261.394531 L 238.753906 260.542969 L 239.136719 259.695312 L 239.519531 258.855469 L 239.902344 258.023438 L 240.289062 257.195312 L 240.671875 256.371094 L 241.054688 255.558594 L 241.441406 254.75 L 241.824219 253.949219 L 242.207031 253.15625 L 242.59375 252.371094 L 242.976562 251.59375 L 243.359375 250.820312 L 243.742188 250.058594 L 244.128906 249.304688 L 244.511719 248.5625 L 244.894531 247.824219 L 245.28125 247.097656 L 245.664062 246.378906 L 246.046875 245.671875 L 246.433594 244.972656 L 246.816406 244.28125 L 247.199219 243.601562 L 247.585938 242.933594 L 247.96875 242.273438 L 248.351562 241.625 L 248.734375 240.988281 L 249.121094 240.363281 L 249.503906 239.746094 L 249.886719 239.140625 L 250.273438 238.546875 L 250.65625 237.964844 L 251.039062 237.394531 L 251.425781 236.835938 L 251.808594 236.289062 L 252.191406 235.757812 L 252.574219 235.234375 L 252.960938 234.726562 L 253.34375 234.226562 L 253.726562 233.742188 L 254.113281 233.273438 L 254.496094 232.8125 L 254.878906 232.371094 L 255.265625 231.9375 L 255.648438 231.519531 L 256.03125 231.113281 L 256.414062 230.722656 L 256.800781 230.347656 L 257.183594 229.984375 L 257.566406 229.632812 L 257.953125 229.296875 L 258.335938 228.976562 L 258.71875 228.671875 L 259.105469 228.378906 L 259.488281 228.101562 L 259.871094 227.835938 L 260.257812 227.585938 L 260.640625 227.355469 L 261.023438 227.132812 L 261.40625 226.929688 L 261.792969 226.742188 L 262.175781 226.566406 L 262.558594 226.40625 L 262.945312 226.261719 L 263.328125 226.132812 L 263.710938 226.019531 L 264.097656 225.917969 L 264.480469 225.835938 L 264.863281 225.765625 L 265.246094 225.710938 L 265.632812 225.675781 L 266.015625 225.652344 L 266.398438 225.644531 L 266.785156 225.652344 L 267.167969 225.675781 L 267.550781 225.710938 L 267.9375 225.765625 L 268.320312 225.835938 L 268.703125 225.917969 L 269.089844 226.019531 L 269.472656 226.132812 L 269.855469 226.261719 L 270.238281 226.40625 L 270.625 226.566406 L 271.007812 226.742188 L 271.390625 226.929688 L 271.777344 227.132812 L 272.160156 227.355469 L 272.542969 227.585938 L 272.929688 227.835938 L 273.3125 228.101562 L 273.695312 228.378906 L 274.078125 228.671875 L 274.464844 228.976562 L 274.847656 229.296875 L 275.230469 229.632812 L 275.617188 229.984375 L 276 230.347656 L 276.382812 230.722656 L 276.769531 231.113281 L 277.152344 231.519531 L 277.535156 231.9375 L 277.921875 232.371094 L 278.304688 232.8125 L 278.6875 233.273438 L 279.070312 233.742188 L 279.457031 234.226562 L 279.839844 234.726562 L 280.222656 235.234375 L 280.609375 235.757812 L 280.992188 236.289062 L 281.375 236.835938 L 281.761719 237.394531 L 282.144531 237.964844 L 282.527344 238.546875 L 282.910156 239.140625 L 283.296875 239.746094 L 283.679688 240.363281 L 284.0625 240.988281 L 284.449219 241.625 L 284.832031 242.273438 L 285.214844 242.933594 L 285.601562 243.601562 L 285.984375 244.28125 L 286.367188 244.972656 L 286.753906 245.671875 L 287.136719 246.378906 L 287.519531 247.097656 L 287.902344 247.824219 L 288.289062 248.5625 L 288.671875 249.304688 L 289.054688 250.058594 L 289.441406 250.820312 L 289.824219 251.59375 L 290.207031 252.371094 L 290.59375 253.15625 L 290.976562 253.949219 L 291.359375 254.75 L 291.742188 255.558594 L 292.128906 256.371094 L 292.511719 257.195312 L 292.894531 258.023438 L 293.28125 258.855469 L 293.664062 259.695312 L 294.046875 260.542969 L 294.433594 261.394531 L 295.199219 263.113281 L 295.585938 263.984375 L 295.96875 264.855469 L 296.734375 266.613281 L 297.121094 267.5 L 297.503906 268.390625 L 297.886719 269.285156 L 298.273438 270.179688 L 299.039062 271.984375 L 299.425781 272.890625 L 299.808594 273.800781 L 300.574219 275.628906 L 300.960938 276.542969 L 301.34375 277.460938 L 301.726562 278.382812 L 302.113281 279.304688 L 302.496094 280.226562 L 302.878906 281.152344 L 303.265625 282.078125 L 304.414062 284.855469 L 304.800781 285.785156 L 305.566406 287.636719 L 305.953125 288.5625 L 306.71875 290.414062 L 307.105469 291.339844 L 307.871094 293.183594 L 308.257812 294.105469 L 309.023438 295.941406 L 309.40625 296.855469 L 309.792969 297.769531 L 310.558594 299.589844 L 310.945312 300.496094 L 311.328125 301.398438 L 311.710938 302.296875 L 312.097656 303.195312 L 312.480469 304.089844 L 313.246094 305.871094 L 313.632812 306.753906 L 314.398438 308.511719 L 314.785156 309.382812 L 315.167969 310.253906 L 315.550781 311.117188 L 315.9375 311.976562 L 316.320312 312.832031 L 316.703125 313.683594 L 317.089844 314.53125 L 317.855469 316.210938 L 318.238281 317.042969 L 318.625 317.867188 L 319.007812 318.691406 L 319.390625 319.507812 L 319.777344 320.316406 L 320.160156 321.125 L 320.542969 321.925781 L 320.929688 322.71875 L 321.3125 323.507812 L 321.695312 324.292969 L 322.078125 325.070312 L 322.464844 325.839844 L 322.847656 326.605469 L 323.230469 327.367188 L 323.617188 328.121094 L 324 328.867188 L 324.382812 329.609375 L 324.769531 330.34375 L 325.152344 331.070312 L 325.535156 331.792969 L 325.921875 332.507812 L 326.304688 333.21875 L 326.6875 333.921875 L 327.070312 334.617188 L 327.457031 335.308594 L 327.839844 335.992188 L 328.222656 336.667969 L 328.609375 337.339844 L 328.992188 338 L 329.375 338.65625 L 329.761719 339.308594 L 330.144531 339.949219 L 330.527344 340.585938 L 330.910156 341.214844 L 331.296875 341.839844 L 331.679688 342.457031 L 332.0625 343.066406 L 332.449219 343.667969 L 332.832031 344.261719 L 333.214844 344.851562 L 333.601562 345.433594 L 333.984375 346.007812 L 334.367188 346.578125 L 334.753906 347.136719 L 335.136719 347.691406 L 335.519531 348.238281 L 335.902344 348.78125 L 336.289062 349.316406 L 336.671875 349.84375 L 337.054688 350.363281 L 337.441406 350.878906 L 337.824219 351.386719 L 338.207031 351.886719 L 338.59375 352.378906 L 338.976562 352.867188 L 339.359375 353.347656 L 339.742188 353.824219 L 340.128906 354.289062 L 340.511719 354.753906 L 340.894531 355.207031 L 341.28125 355.65625 L 341.664062 356.097656 L 342.046875 356.535156 L 342.433594 356.960938 L 342.816406 357.386719 L 343.199219 357.800781 L 343.585938 358.214844 L 343.96875 358.617188 L 344.351562 359.015625 L 344.734375 359.40625 L 345.503906 360.175781 L 345.886719 360.550781 L 346.273438 360.917969 L 346.65625 361.28125 L 347.039062 361.636719 L 347.425781 361.988281 L 347.808594 362.332031 L 348.191406 362.671875 L 348.574219 363.007812 L 348.960938 363.335938 L 349.34375 363.660156 L 349.726562 363.976562 L 350.113281 364.289062 L 350.878906 364.898438 L 351.265625 365.191406 L 351.648438 365.484375 L 352.03125 365.769531 L 352.414062 366.050781 L 352.800781 366.328125 L 353.183594 366.597656 L 353.566406 366.863281 L 353.953125 367.125 L 354.335938 367.382812 L 354.71875 367.636719 L 355.105469 367.882812 L 355.488281 368.125 L 355.871094 368.363281 L 356.257812 368.597656 L 357.023438 369.050781 L 357.40625 369.273438 L 357.792969 369.488281 L 358.175781 369.699219 L 358.558594 369.90625 L 358.945312 370.113281 L 359.328125 370.3125 L 359.710938 370.507812 L 360.097656 370.699219 L 360.480469 370.886719 L 361.246094 371.253906 L 361.632812 371.429688 L 362.398438 371.773438 L 362.785156 371.9375 L 363.167969 372.101562 L 363.550781 372.261719 L 363.9375 372.417969 L 364.320312 372.570312 L 364.703125 372.71875 L 365.089844 372.863281 L 365.472656 373.007812 L 365.855469 373.148438 L 366.238281 373.285156 L 366.625 373.417969 L 367.390625 373.675781 L 367.777344 373.800781 L 368.160156 373.925781 L 368.542969 374.042969 L 368.929688 374.160156 L 369.695312 374.386719 L 370.078125 374.496094 L 370.464844 374.601562 L 370.847656 374.707031 L 371.230469 374.808594 L 371.617188 374.90625 L 372 375.003906 L 372.382812 375.097656 L 372.769531 375.191406 L 373.535156 375.371094 L 373.921875 375.457031 L 374.6875 375.621094 L 375.070312 375.699219 L 375.457031 375.777344 L 375.839844 375.855469 L 376.222656 375.929688 L 376.609375 376 L 377.375 376.140625 L 377.761719 376.207031 L 378.144531 376.273438 L 378.910156 376.398438 L 379.296875 376.457031 L 380.0625 376.574219 L 380.449219 376.628906 L 381.214844 376.738281 L 381.601562 376.789062 L 382.367188 376.890625 L 382.753906 376.9375 L 383.136719 376.984375 L 383.902344 377.070312 L 384.289062 377.113281 L 384.671875 377.15625 L 385.054688 377.195312 L 385.441406 377.234375 L 386.207031 377.3125 L 386.59375 377.347656 L 387.359375 377.417969 L 387.742188 377.449219 L 388.128906 377.484375 L 388.511719 377.515625 L 388.894531 377.542969 L 389.28125 377.574219 L 389.664062 377.601562 L 390.046875 377.632812 L 390.433594 377.660156 L 390.816406 377.683594 L 391.199219 377.710938 L 391.585938 377.734375 L 392.734375 377.804688 L 393.121094 377.828125 L 393.503906 377.847656 L 393.886719 377.871094 L 394.273438 377.890625 L 395.039062 377.929688 L 395.425781 377.949219 L 395.808594 377.964844 L 396.191406 377.984375 L 396.574219 378 L 396.960938 378.015625 L 397.726562 378.046875 L 398.113281 378.0625 L 398.496094 378.074219 L 398.878906 378.089844 L 399.265625 378.101562 L 399.648438 378.117188 L 400.414062 378.140625 L 400.800781 378.152344 L 401.566406 378.175781 L 401.953125 378.1875 L 402.335938 378.199219 L 402.71875 378.207031 L 403.105469 378.21875 L 403.871094 378.234375 L 404.257812 378.246094 L 405.40625 378.269531 L 405.792969 378.277344 L 406.558594 378.292969 L 406.945312 378.300781 L 407.328125 378.304688 L 407.710938 378.3125 L 408.097656 378.320312 L 408.480469 378.324219 L 408.863281 378.332031 L 409.246094 378.335938 L 409.632812 378.34375 L 410.398438 378.351562 L 410.785156 378.359375 L 411.550781 378.367188 L 411.9375 378.371094 L 412.703125 378.378906 L 413.089844 378.382812 L 414.238281 378.394531 L 414.625 378.398438 L 415.390625 378.40625 L 415.777344 378.410156 L 416.160156 378.410156 L 416.542969 378.414062 L 416.929688 378.417969 L 417.3125 378.421875 L 417.695312 378.421875 L 418.078125 378.425781 L 418.464844 378.425781 L 419.230469 378.433594 L 419.617188 378.433594 L 420 378.4375 L 420.382812 378.4375 L 420.769531 378.441406 L 421.152344 378.441406 L 421.535156 378.445312 L 421.921875 378.445312 L 422.304688 378.449219 L 423.070312 378.449219 L 423.457031 378.453125 L 424.222656 378.453125 L 424.609375 378.457031 L 425.375 378.457031 L 425.761719 378.460938 L 426.527344 378.460938 L 426.910156 378.464844 L 428.0625 378.464844 L 428.449219 378.46875 L 429.984375 378.46875 L 430.367188 378.472656 L 432.289062 378.472656 L 432.671875 378.476562 L 435.359375 378.476562 L 435.742188 378.480469 L 440.351562 378.480469 L 440.734375 378.484375 L 451.105469 378.484375 L 451.488281 378.488281 L 458.398438 378.488281 "/>
<path style="fill:none;stroke-width:0.75;stroke-linecap:round;stroke-linejoin:round;stroke:rgb(0%,0%,0%);stroke-opacity:1;stroke-miterlimit:10;" d="M 74.398438 378.488281 L 158.113281 378.488281 L 158.496094 378.484375 L 168.863281 378.484375 L 169.246094 378.480469 L 173.855469 378.480469 L 174.238281 378.476562 L 176.929688 378.476562 L 177.3125 378.472656 L 179.230469 378.472656 L 179.617188 378.46875 L 181.152344 378.46875 L 181.535156 378.464844 L 182.6875 378.464844 L 183.070312 378.460938 L 183.839844 378.460938 L 184.222656 378.457031 L 184.992188 378.457031 L 185.375 378.453125 L 186.144531 378.453125 L 186.527344 378.449219 L 187.296875 378.449219 L 187.679688 378.445312 L 188.0625 378.445312 L 188.449219 378.441406 L 188.832031 378.441406 L 189.214844 378.4375 L 189.601562 378.4375 L 189.984375 378.433594 L 190.367188 378.433594 L 190.753906 378.429688 L 191.136719 378.425781 L 191.519531 378.425781 L 191.902344 378.421875 L 192.289062 378.421875 L 193.054688 378.414062 L 193.441406 378.410156 L 193.824219 378.410156 L 194.207031 378.40625 L 194.59375 378.402344 L 195.742188 378.390625 L 196.128906 378.386719 L 196.894531 378.378906 L 197.28125 378.375 L 198.046875 378.367188 L 198.433594 378.363281 L 198.816406 378.359375 L 199.199219 378.351562 L 199.585938 378.347656 L 199.96875 378.34375 L 200.351562 378.335938 L 200.734375 378.332031 L 201.121094 378.324219 L 201.503906 378.320312 L 201.886719 378.3125 L 202.273438 378.304688 L 202.65625 378.300781 L 203.039062 378.292969 L 203.425781 378.285156 L 204.574219 378.261719 L 204.960938 378.253906 L 205.34375 378.246094 L 205.726562 378.234375 L 206.113281 378.226562 L 206.496094 378.21875 L 206.878906 378.207031 L 207.265625 378.199219 L 208.414062 378.164062 L 208.800781 378.152344 L 209.566406 378.128906 L 209.953125 378.117188 L 210.335938 378.101562 L 210.71875 378.089844 L 211.105469 378.074219 L 211.488281 378.0625 L 211.871094 378.046875 L 212.257812 378.03125 L 213.40625 377.984375 L 213.792969 377.964844 L 214.175781 377.949219 L 214.558594 377.929688 L 214.945312 377.910156 L 215.710938 377.871094 L 216.097656 377.847656 L 216.480469 377.828125 L 217.246094 377.78125 L 217.632812 377.757812 L 218.398438 377.710938 L 218.785156 377.683594 L 219.167969 377.660156 L 219.550781 377.632812 L 219.9375 377.601562 L 220.320312 377.574219 L 220.703125 377.542969 L 221.089844 377.515625 L 221.472656 377.484375 L 221.855469 377.449219 L 222.238281 377.417969 L 222.625 377.382812 L 223.390625 377.3125 L 223.777344 377.273438 L 224.542969 377.195312 L 224.929688 377.15625 L 226.078125 377.027344 L 226.464844 376.984375 L 227.230469 376.890625 L 227.617188 376.839844 L 228.382812 376.738281 L 228.769531 376.683594 L 229.535156 376.574219 L 229.921875 376.515625 L 230.6875 376.398438 L 231.070312 376.335938 L 231.457031 376.273438 L 232.222656 376.140625 L 232.609375 376.070312 L 233.375 375.929688 L 233.761719 375.855469 L 234.910156 375.621094 L 235.296875 375.539062 L 235.679688 375.457031 L 236.0625 375.371094 L 236.449219 375.28125 L 236.832031 375.191406 L 237.214844 375.097656 L 237.601562 375.003906 L 238.367188 374.808594 L 238.753906 374.707031 L 239.519531 374.496094 L 239.902344 374.386719 L 240.289062 374.273438 L 240.671875 374.160156 L 241.054688 374.042969 L 241.441406 373.925781 L 242.207031 373.675781 L 242.59375 373.546875 L 242.976562 373.417969 L 243.359375 373.285156 L 243.742188 373.148438 L 244.128906 373.007812 L 244.894531 372.71875 L 245.28125 372.570312 L 245.664062 372.417969 L 246.046875 372.261719 L 246.433594 372.101562 L 247.199219 371.773438 L 247.585938 371.601562 L 247.96875 371.429688 L 248.351562 371.253906 L 248.734375 371.070312 L 249.121094 370.886719 L 249.503906 370.699219 L 249.886719 370.507812 L 250.273438 370.3125 L 250.65625 370.113281 L 251.039062 369.90625 L 251.425781 369.699219 L 251.808594 369.488281 L 252.191406 369.273438 L 252.574219 369.050781 L 252.960938 368.824219 L 253.34375 368.597656 L 253.726562 368.363281 L 254.113281 368.125 L 254.496094 367.882812 L 254.878906 367.636719 L 255.265625 367.382812 L 255.648438 367.125 L 256.03125 366.863281 L 256.414062 366.597656 L 256.800781 366.328125 L 257.183594 366.050781 L 257.566406 365.769531 L 257.953125 365.484375 L 258.71875 364.898438 L 259.105469 364.59375 L 259.488281 364.289062 L 259.871094 363.976562 L 260.257812 363.660156 L 260.640625 363.335938 L 261.023438 363.007812 L 261.40625 362.671875 L 261.792969 362.332031 L 262.175781 361.988281 L 262.558594 361.636719 L 262.945312 361.28125 L 263.328125 360.917969 L 263.710938 360.550781 L 264.097656 360.175781 L 264.480469 359.792969 L 264.863281 359.40625 L 265.246094 359.015625 L 265.632812 358.617188 L 266.015625 358.214844 L 266.398438 357.800781 L 266.785156 357.386719 L 267.550781 356.535156 L 267.9375 356.097656 L 268.320312 355.65625 L 268.703125 355.207031 L 269.089844 354.753906 L 269.855469 353.824219 L 270.238281 353.347656 L 270.625 352.867188 L 271.007812 352.378906 L 271.390625 351.886719 L 271.777344 351.386719 L 272.160156 350.878906 L 272.542969 350.363281 L 272.929688 349.84375 L 273.3125 349.316406 L 273.695312 348.78125 L 274.078125 348.238281 L 274.464844 347.691406 L 274.847656 347.136719 L 275.230469 346.578125 L 275.617188 346.007812 L 276 345.433594 L 276.382812 344.851562 L 276.769531 344.261719 L 277.152344 343.667969 L 277.535156 343.066406 L 277.921875 342.457031 L 278.304688 341.839844 L 278.6875 341.214844 L 279.070312 340.585938 L 279.457031 339.949219 L 279.839844 339.308594 L 280.222656 338.65625 L 280.609375 338 L 280.992188 337.339844 L 281.375 336.667969 L 281.761719 335.992188 L 282.144531 335.308594 L 282.527344 334.617188 L 282.910156 333.921875 L 283.296875 333.21875 L 283.679688 332.507812 L 284.0625 331.792969 L 284.449219 331.070312 L 284.832031 330.34375 L 285.214844 329.609375 L 285.601562 328.867188 L 285.984375 328.121094 L 286.367188 327.367188 L 286.753906 326.605469 L 287.136719 325.839844 L 287.519531 325.070312 L 287.902344 324.292969 L 288.289062 323.507812 L 288.671875 322.71875 L 289.054688 321.925781 L 289.441406 321.125 L 290.207031 319.507812 L 290.59375 318.691406 L 291.359375 317.042969 L 291.742188 316.210938 L 292.128906 315.371094 L 292.511719 314.53125 L 292.894531 313.683594 L 293.28125 312.832031 L 293.664062 311.976562 L 294.046875 311.117188 L 294.433594 310.253906 L 295.199219 308.511719 L 295.585938 307.632812 L 295.96875 306.753906 L 296.351562 305.871094 L 296.734375 304.980469 L 297.121094 304.089844 L 297.503906 303.195312 L 297.886719 302.296875 L 298.273438 301.398438 L 298.65625 300.496094 L 299.039062 299.589844 L 299.425781 298.679688 L 299.808594 297.769531 L 300.574219 295.941406 L 300.960938 295.023438 L 301.34375 294.105469 L 301.726562 293.183594 L 302.113281 292.261719 L 302.496094 291.339844 L 302.878906 290.414062 L 303.265625 289.488281 L 304.414062 286.710938 L 304.800781 285.785156 L 305.183594 284.855469 L 305.566406 283.929688 L 305.953125 283.003906 L 306.71875 281.152344 L 307.105469 280.226562 L 307.871094 278.382812 L 308.257812 277.460938 L 308.640625 276.542969 L 309.40625 274.714844 L 309.792969 273.800781 L 310.175781 272.890625 L 310.558594 271.984375 L 310.945312 271.082031 L 311.328125 270.179688 L 311.710938 269.285156 L 312.097656 268.390625 L 312.480469 267.5 L 312.863281 266.613281 L 313.246094 265.734375 L 313.632812 264.855469 L 314.398438 263.113281 L 314.785156 262.253906 L 315.167969 261.394531 L 315.550781 260.542969 L 315.9375 259.695312 L 316.320312 258.855469 L 316.703125 258.023438 L 317.089844 257.195312 L 317.472656 256.371094 L 317.855469 255.558594 L 318.238281 254.75 L 318.625 253.949219 L 319.007812 253.15625 L 319.390625 252.371094 L 319.777344 251.59375 L 320.160156 250.820312 L 320.542969 250.058594 L 320.929688 249.304688 L 321.3125 248.5625 L 321.695312 247.824219 L 322.078125 247.097656 L 322.464844 246.378906 L 322.847656 245.671875 L 323.230469 244.972656 L 323.617188 244.28125 L 324 243.601562 L 324.382812 242.933594 L 324.769531 242.273438 L 325.152344 241.625 L 325.535156 240.988281 L 325.921875 240.363281 L 326.304688 239.746094 L 326.6875 239.140625 L 327.070312 238.546875 L 327.457031 237.964844 L 327.839844 237.394531 L 328.222656 236.835938 L 328.609375 236.289062 L 328.992188 235.757812 L 329.375 235.234375 L 329.761719 234.726562 L 330.144531 234.226562 L 330.527344 233.742188 L 330.910156 233.273438 L 331.296875 232.8125 L 331.679688 232.371094 L 332.0625 231.9375 L 332.449219 231.519531 L 332.832031 231.113281 L 333.214844 230.722656 L 333.601562 230.347656 L 333.984375 229.984375 L 334.367188 229.632812 L 334.753906 229.296875 L 335.136719 228.976562 L 335.519531 228.671875 L 335.902344 228.378906 L 336.289062 228.101562 L 336.671875 227.835938 L 337.054688 227.585938 L 337.441406 227.355469 L 337.824219 227.132812 L 338.207031 226.929688 L 338.59375 226.742188 L 338.976562 226.566406 L 339.359375 226.40625 L 339.742188 226.261719 L 340.128906 226.132812 L 340.511719 226.019531 L 340.894531 225.917969 L 341.28125 225.835938 L 341.664062 225.765625 L 342.046875 225.710938 L 342.433594 225.675781 L 342.816406 225.652344 L 343.199219 225.644531 L 343.585938 225.652344 L 343.96875 225.675781 L 344.351562 225.710938 L 344.734375 225.765625 L 345.121094 225.835938 L 345.503906 225.917969 L 345.886719 226.019531 L 346.273438 226.132812 L 346.65625 226.261719 L 347.039062 226.40625 L 347.425781 226.566406 L 347.808594 226.742188 L 348.191406 226.929688 L 348.574219 227.132812 L 348.960938 227.355469 L 349.34375 227.585938 L 349.726562 227.835938 L 350.113281 228.101562 L 350.496094 228.378906 L 350.878906 228.671875 L 351.265625 228.976562 L 351.648438 229.296875 L 352.03125 229.632812 L 352.414062 229.984375 L 352.800781 230.347656 L 353.183594 230.722656 L 353.566406 231.113281 L 353.953125 231.519531 L 354.335938 231.9375 L 354.71875 232.371094 L 355.105469 232.8125 L 355.488281 233.273438 L 355.871094 233.742188 L 356.257812 234.226562 L 356.640625 234.726562 L 357.023438 235.234375 L 357.40625 235.757812 L 357.792969 236.289062 L 358.175781 236.835938 L 358.558594 237.394531 L 358.945312 237.964844 L 359.328125 238.546875 L 359.710938 239.140625 L 360.097656 239.746094 L 360.480469 240.363281 L 360.863281 240.988281 L 361.246094 241.625 L 361.632812 242.273438 L 362.015625 242.933594 L 362.398438 243.601562 L 362.785156 244.28125 L 363.167969 244.972656 L 363.550781 245.671875 L 363.9375 246.378906 L 364.320312 247.097656 L 364.703125 247.824219 L 365.089844 248.5625 L 365.472656 249.304688 L 365.855469 250.058594 L 366.238281 250.820312 L 366.625 251.59375 L 367.007812 252.371094 L 367.390625 253.15625 L 367.777344 253.949219 L 368.160156 254.75 L 368.542969 255.558594 L 368.929688 256.371094 L 369.3125 257.195312 L 369.695312 258.023438 L 370.078125 258.855469 L 370.464844 259.695312 L 370.847656 260.542969 L 371.230469 261.394531 L 371.617188 262.253906 L 372 263.113281 L 372.382812 263.984375 L 372.769531 264.855469 L 373.535156 266.613281 L 373.921875 267.5 L 374.304688 268.390625 L 375.070312 270.179688 L 375.457031 271.082031 L 375.839844 271.984375 L 376.222656 272.890625 L 376.609375 273.800781 L 377.375 275.628906 L 377.761719 276.542969 L 378.144531 277.460938 L 378.910156 279.304688 L 379.296875 280.226562 L 380.0625 282.078125 L 380.449219 283.003906 L 381.214844 284.855469 L 381.601562 285.785156 L 382.367188 287.636719 L 382.753906 288.5625 L 383.902344 291.339844 L 384.289062 292.261719 L 385.054688 294.105469 L 385.441406 295.023438 L 385.824219 295.941406 L 386.207031 296.855469 L 386.59375 297.769531 L 387.359375 299.589844 L 387.742188 300.496094 L 388.128906 301.398438 L 388.894531 303.195312 L 389.28125 304.089844 L 390.046875 305.871094 L 390.433594 306.753906 L 391.199219 308.511719 L 391.585938 309.382812 L 391.96875 310.253906 L 392.351562 311.117188 L 392.734375 311.976562 L 393.121094 312.832031 L 393.503906 313.683594 L 393.886719 314.53125 L 394.273438 315.371094 L 394.65625 316.210938 L 395.039062 317.042969 L 395.425781 317.867188 L 395.808594 318.691406 L 396.191406 319.507812 L 396.574219 320.316406 L 396.960938 321.125 L 397.34375 321.925781 L 397.726562 322.71875 L 398.113281 323.507812 L 398.496094 324.292969 L 398.878906 325.070312 L 399.265625 325.839844 L 399.648438 326.605469 L 400.03125 327.367188 L 400.414062 328.121094 L 400.800781 328.867188 L 401.183594 329.609375 L 401.566406 330.34375 L 401.953125 331.070312 L 402.335938 331.792969 L 402.71875 332.507812 L 403.105469 333.21875 L 403.488281 333.921875 L 403.871094 334.617188 L 404.257812 335.308594 L 404.640625 335.992188 L 405.023438 336.667969 L 405.40625 337.339844 L 405.792969 338 L 406.175781 338.65625 L 406.558594 339.308594 L 406.945312 339.949219 L 407.328125 340.585938 L 407.710938 341.214844 L 408.097656 341.839844 L 408.480469 342.457031 L 408.863281 343.066406 L 409.246094 343.667969 L 409.632812 344.261719 L 410.015625 344.851562 L 410.398438 345.433594 L 410.785156 346.007812 L 411.167969 346.578125 L 411.550781 347.136719 L 411.9375 347.691406 L 412.320312 348.238281 L 412.703125 348.78125 L 413.089844 349.316406 L 413.472656 349.84375 L 413.855469 350.363281 L 414.238281 350.878906 L 414.625 351.386719 L 415.007812 351.886719 L 415.390625 352.378906 L 415.777344 352.867188 L 416.160156 353.347656 L 416.542969 353.824219 L 416.929688 354.289062 L 417.3125 354.753906 L 417.695312 355.207031 L 418.078125 355.65625 L 418.464844 356.097656 L 418.847656 356.535156 L 419.230469 356.960938 L 419.617188 357.386719 L 420.382812 358.214844 L 420.769531 358.617188 L 421.152344 359.015625 L 421.535156 359.40625 L 422.304688 360.175781 L 422.6875 360.550781 L 423.070312 360.917969 L 423.457031 361.28125 L 423.839844 361.636719 L 424.222656 361.988281 L 424.609375 362.332031 L 424.992188 362.671875 L 425.375 363.007812 L 425.761719 363.335938 L 426.144531 363.660156 L 426.527344 363.976562 L 426.910156 364.289062 L 427.296875 364.59375 L 427.679688 364.898438 L 428.0625 365.191406 L 428.449219 365.484375 L 428.832031 365.769531 L 429.214844 366.050781 L 429.601562 366.328125 L 429.984375 366.597656 L 430.367188 366.863281 L 430.753906 367.125 L 431.136719 367.382812 L 431.519531 367.636719 L 431.902344 367.882812 L 432.289062 368.125 L 432.671875 368.363281 L 433.054688 368.597656 L 433.441406 368.824219 L 433.824219 369.050781 L 434.207031 369.273438 L 434.59375 369.488281 L 434.976562 369.699219 L 435.742188 370.113281 L 436.128906 370.3125 L 436.511719 370.507812 L 436.894531 370.699219 L 437.28125 370.886719 L 438.046875 371.253906 L 438.433594 371.429688 L 439.199219 371.773438 L 439.585938 371.9375 L 439.96875 372.101562 L 440.351562 372.261719 L 440.734375 372.417969 L 441.121094 372.570312 L 441.503906 372.71875 L 441.886719 372.863281 L 442.273438 373.007812 L 442.65625 373.148438 L 443.039062 373.285156 L 443.425781 373.417969 L 444.191406 373.675781 L 444.574219 373.800781 L 444.960938 373.925781 L 445.726562 374.160156 L 446.113281 374.273438 L 446.496094 374.386719 L 446.878906 374.496094 L 447.265625 374.601562 L 447.648438 374.707031 L 448.03125 374.808594 L 448.414062 374.90625 L 448.800781 375.003906 L 449.566406 375.191406 L 449.953125 375.28125 L 450.335938 375.371094 L 450.71875 375.457031 L 451.105469 375.539062 L 451.488281 375.621094 L 451.871094 375.699219 L 452.257812 375.777344 L 452.640625 375.855469 L 453.023438 375.929688 L 453.40625 376 L 453.792969 376.070312 L 454.175781 376.140625 L 454.558594 376.207031 L 454.945312 376.273438 L 455.710938 376.398438 L 456.097656 376.457031 L 456.863281 376.574219 L 457.246094 376.628906 L 457.632812 376.683594 L 458.015625 376.738281 L 458.398438 376.789062 "/>
<path style="fill:none;stroke-width:0.75;stroke-linecap:round;stroke-linejoin:round;stroke:rgb(0%,0%,0%);stroke-opacity:1;stroke-miterlimit:10;" d="M 74.398438 378.488281 L 171.167969 378.488281 L 171.550781 378.484375 L 176.160156 378.484375 L 176.542969 378.480469 L 178.464844 378.480469 L 178.847656 378.476562 L 180 378.476562 L 180.382812 378.472656 L 181.152344 378.472656 L 181.535156 378.46875 L 182.304688 378.46875 L 183.070312 378.460938 L 183.457031 378.460938 L 183.839844 378.457031 L 184.222656 378.457031 L 184.609375 378.453125 L 185.375 378.445312 L 185.761719 378.441406 L 186.910156 378.429688 L 187.296875 378.425781 L 187.679688 378.417969 L 188.0625 378.414062 L 188.449219 378.40625 L 188.832031 378.402344 L 189.214844 378.394531 L 189.601562 378.386719 L 189.984375 378.375 L 190.367188 378.367188 L 190.753906 378.359375 L 191.902344 378.324219 L 192.289062 378.308594 L 192.671875 378.296875 L 193.054688 378.28125 L 193.441406 378.265625 L 194.207031 378.226562 L 194.59375 378.207031 L 194.976562 378.183594 L 195.359375 378.164062 L 195.742188 378.136719 L 196.128906 378.109375 L 196.511719 378.082031 L 196.894531 378.050781 L 197.28125 378.019531 L 197.664062 377.984375 L 198.046875 377.945312 L 198.433594 377.90625 L 199.199219 377.820312 L 199.585938 377.769531 L 199.96875 377.71875 L 200.351562 377.664062 L 200.734375 377.605469 L 201.121094 377.542969 L 201.503906 377.476562 L 201.886719 377.40625 L 202.273438 377.332031 L 202.65625 377.253906 L 203.039062 377.167969 L 203.425781 377.078125 L 203.808594 376.984375 L 204.191406 376.882812 L 204.574219 376.773438 L 204.960938 376.660156 L 205.34375 376.539062 L 205.726562 376.414062 L 206.113281 376.277344 L 206.496094 376.136719 L 206.878906 375.984375 L 207.265625 375.824219 L 207.648438 375.65625 L 208.03125 375.476562 L 208.414062 375.289062 L 208.800781 375.09375 L 209.183594 374.882812 L 209.566406 374.660156 L 209.953125 374.429688 L 210.335938 374.183594 L 210.71875 373.925781 L 211.105469 373.65625 L 211.488281 373.371094 L 211.871094 373.070312 L 212.257812 372.753906 L 212.640625 372.421875 L 213.023438 372.074219 L 213.40625 371.710938 L 213.792969 371.324219 L 214.175781 370.925781 L 214.558594 370.503906 L 214.945312 370.0625 L 215.328125 369.597656 L 215.710938 369.117188 L 216.097656 368.609375 L 216.480469 368.078125 L 216.863281 367.527344 L 217.246094 366.949219 L 217.632812 366.34375 L 218.015625 365.714844 L 218.398438 365.058594 L 218.785156 364.371094 L 219.167969 363.65625 L 219.550781 362.910156 L 219.9375 362.136719 L 220.320312 361.328125 L 220.703125 360.488281 L 221.089844 359.613281 L 221.472656 358.707031 L 221.855469 357.761719 L 222.238281 356.78125 L 222.625 355.765625 L 223.007812 354.710938 L 223.390625 353.613281 L 223.777344 352.480469 L 224.160156 351.304688 L 224.542969 350.089844 L 224.929688 348.828125 L 225.3125 347.527344 L 225.695312 346.179688 L 226.078125 344.785156 L 226.464844 343.347656 L 226.847656 341.863281 L 227.230469 340.328125 L 227.617188 338.746094 L 228 337.117188 L 228.382812 335.4375 L 228.769531 333.707031 L 229.152344 331.925781 L 229.535156 330.09375 L 229.921875 328.210938 L 230.304688 326.273438 L 230.6875 324.285156 L 231.070312 322.238281 L 231.457031 320.144531 L 231.839844 317.992188 L 232.222656 315.789062 L 232.609375 313.527344 L 232.992188 311.214844 L 233.375 308.847656 L 233.761719 306.421875 L 234.144531 303.945312 L 234.527344 301.414062 L 234.910156 298.828125 L 235.296875 296.1875 L 235.679688 293.496094 L 236.0625 290.75 L 236.449219 287.949219 L 236.832031 285.101562 L 237.214844 282.199219 L 237.601562 279.246094 L 237.984375 276.242188 L 238.367188 273.191406 L 238.753906 270.09375 L 239.136719 266.949219 L 239.519531 263.757812 L 239.902344 260.527344 L 240.289062 257.25 L 240.671875 253.929688 L 241.054688 250.574219 L 241.441406 247.175781 L 241.824219 243.746094 L 242.207031 240.277344 L 242.59375 236.78125 L 242.976562 233.25 L 243.359375 229.695312 L 243.742188 226.109375 L 244.128906 222.503906 L 244.511719 218.871094 L 244.894531 215.222656 L 245.28125 211.558594 L 245.664062 207.878906 L 246.046875 204.191406 L 246.433594 200.492188 L 247.199219 193.078125 L 247.585938 189.371094 L 247.96875 185.667969 L 248.351562 181.96875 L 248.734375 178.277344 L 249.121094 174.601562 L 249.503906 170.9375 L 249.886719 167.296875 L 250.273438 163.675781 L 250.65625 160.078125 L 251.039062 156.511719 L 251.425781 152.976562 L 251.808594 149.476562 L 252.191406 146.015625 L 252.574219 142.597656 L 252.960938 139.222656 L 253.34375 135.898438 L 253.726562 132.628906 L 254.113281 129.410156 L 254.496094 126.253906 L 254.878906 123.15625 L 255.265625 120.125 L 255.648438 117.164062 L 256.03125 114.273438 L 256.414062 111.457031 L 256.800781 108.71875 L 257.183594 106.0625 L 257.566406 103.488281 L 257.953125 101.003906 L 258.335938 98.605469 L 258.71875 96.300781 L 259.105469 94.09375 L 259.488281 91.980469 L 259.871094 89.96875 L 260.257812 88.058594 L 260.640625 86.25 L 261.023438 84.550781 L 261.40625 82.960938 L 261.792969 81.476562 L 262.175781 80.109375 L 262.558594 78.851562 L 262.945312 77.710938 L 263.328125 76.6875 L 263.710938 75.78125 L 264.097656 74.992188 L 264.480469 74.324219 L 264.863281 73.777344 L 265.246094 73.351562 L 265.632812 73.042969 L 266.015625 72.859375 L 266.398438 72.800781 L 266.785156 72.859375 L 267.167969 73.042969 L 267.550781 73.351562 L 267.9375 73.777344 L 268.320312 74.324219 L 268.703125 74.992188 L 269.089844 75.78125 L 269.472656 76.6875 L 269.855469 77.710938 L 270.238281 78.851562 L 270.625 80.109375 L 271.007812 81.476562 L 271.390625 82.960938 L 271.777344 84.550781 L 272.160156 86.25 L 272.542969 88.058594 L 272.929688 89.96875 L 273.3125 91.980469 L 273.695312 94.09375 L 274.078125 96.300781 L 274.464844 98.605469 L 274.847656 101.003906 L 275.230469 103.488281 L 275.617188 106.0625 L 276 108.71875 L 276.382812 111.457031 L 276.769531 114.273438 L 277.152344 117.164062 L 277.535156 120.125 L 277.921875 123.15625 L 278.304688 126.253906 L 278.6875 129.410156 L 279.070312 132.628906 L 279.457031 135.898438 L 279.839844 139.222656 L 280.222656 142.597656 L 280.609375 146.015625 L 280.992188 149.476562 L 281.375 152.976562 L 281.761719 156.511719 L 282.144531 160.078125 L 282.527344 163.675781 L 282.910156 167.296875 L 283.296875 170.9375 L 283.679688 174.601562 L 284.0625 178.277344 L 284.449219 181.96875 L 284.832031 185.667969 L 285.214844 189.371094 L 285.601562 193.078125 L 286.367188 200.492188 L 286.753906 204.191406 L 287.136719 207.878906 L 287.519531 211.558594 L 287.902344 215.222656 L 288.289062 218.871094 L 288.671875 222.503906 L 289.054688 226.109375 L 289.441406 229.695312 L 289.824219 233.25 L 290.207031 236.78125 L 290.59375 240.277344 L 290.976562 243.746094 L 291.359375 247.175781 L 291.742188 250.574219 L 292.128906 253.929688 L 292.511719 257.25 L 292.894531 260.527344 L 293.28125 263.757812 L 293.664062 266.949219 L 294.046875 270.09375 L 294.433594 273.191406 L 294.816406 276.242188 L 295.199219 279.246094 L 295.585938 282.199219 L 295.96875 285.101562 L 296.351562 287.949219 L 296.734375 290.75 L 297.121094 293.496094 L 297.503906 296.1875 L 297.886719 298.828125 L 298.273438 301.414062 L 298.65625 303.945312 L 299.039062 306.421875 L 299.425781 308.847656 L 299.808594 311.214844 L 300.191406 313.527344 L 300.574219 315.789062 L 300.960938 317.992188 L 301.34375 320.144531 L 301.726562 322.238281 L 302.113281 324.285156 L 302.496094 326.273438 L 302.878906 328.210938 L 303.265625 330.09375 L 303.648438 331.925781 L 304.03125 333.707031 L 304.414062 335.4375 L 304.800781 337.117188 L 305.183594 338.746094 L 305.566406 340.328125 L 305.953125 341.863281 L 306.335938 343.347656 L 306.71875 344.785156 L 307.105469 346.179688 L 307.488281 347.527344 L 307.871094 348.828125 L 308.257812 350.089844 L 308.640625 351.304688 L 309.023438 352.480469 L 309.40625 353.613281 L 309.792969 354.710938 L 310.175781 355.765625 L 310.558594 356.78125 L 310.945312 357.761719 L 311.328125 358.707031 L 311.710938 359.613281 L 312.097656 360.488281 L 312.480469 361.328125 L 312.863281 362.136719 L 313.246094 362.910156 L 313.632812 363.65625 L 314.015625 364.371094 L 314.398438 365.058594 L 314.785156 365.714844 L 315.167969 366.34375 L 315.550781 366.949219 L 315.9375 367.527344 L 316.320312 368.078125 L 316.703125 368.609375 L 317.089844 369.117188 L 317.472656 369.597656 L 317.855469 370.0625 L 318.238281 370.503906 L 318.625 370.925781 L 319.007812 371.324219 L 319.390625 371.710938 L 319.777344 372.074219 L 320.160156 372.421875 L 320.542969 372.753906 L 320.929688 373.070312 L 321.3125 373.371094 L 321.695312 373.65625 L 322.078125 373.925781 L 322.464844 374.183594 L 322.847656 374.429688 L 323.230469 374.660156 L 323.617188 374.882812 L 324 375.09375 L 324.382812 375.289062 L 324.769531 375.476562 L 325.152344 375.65625 L 325.535156 375.824219 L 325.921875 375.984375 L 326.304688 376.136719 L 326.6875 376.277344 L 327.070312 376.414062 L 327.457031 376.539062 L 327.839844 376.660156 L 328.222656 376.773438 L 328.609375 376.882812 L 328.992188 376.984375 L 329.375 377.078125 L 329.761719 377.167969 L 330.144531 377.253906 L 330.527344 377.332031 L 330.910156 377.40625 L 331.296875 377.476562 L 331.679688 377.542969 L 332.0625 377.605469 L 332.449219 377.664062 L 332.832031 377.71875 L 333.214844 377.769531 L 333.601562 377.820312 L 334.367188 377.90625 L 334.753906 377.945312 L 335.136719 377.984375 L 335.519531 378.019531 L 335.902344 378.050781 L 336.289062 378.082031 L 337.054688 378.136719 L 337.441406 378.164062 L 337.824219 378.183594 L 338.207031 378.207031 L 338.59375 378.226562 L 339.359375 378.265625 L 339.742188 378.28125 L 340.128906 378.296875 L 340.511719 378.308594 L 340.894531 378.324219 L 341.28125 378.335938 L 342.046875 378.359375 L 342.433594 378.367188 L 342.816406 378.375 L 343.199219 378.386719 L 343.585938 378.394531 L 343.96875 378.402344 L 344.351562 378.40625 L 344.734375 378.414062 L 345.121094 378.417969 L 345.503906 378.425781 L 345.886719 378.429688 L 346.273438 378.433594 L 347.039062 378.441406 L 347.425781 378.445312 L 348.574219 378.457031 L 348.960938 378.457031 L 349.34375 378.460938 L 349.726562 378.460938 L 350.113281 378.464844 L 350.496094 378.46875 L 351.265625 378.46875 L 351.648438 378.472656 L 352.414062 378.472656 L 352.800781 378.476562 L 353.953125 378.476562 L 354.335938 378.480469 L 356.257812 378.480469 L 356.640625 378.484375 L 361.246094 378.484375 L 361.632812 378.488281 L 458.398438 378.488281 "/>
<g clip-path="url(#clip1)" clip-rule="nonzero">
<path style="fill:none;stroke-width:0.75;stroke-linecap:round;stroke-linejoin:round;stroke:rgb(0%,0%,0%);stroke-opacity:1;stroke-miterlimit:10;" d="M 59.039062 378.488281 L 473.761719 378.488281 "/>
</g>
<g clip-path="url(#clip2)" clip-rule="nonzero">
<path style="fill:none;stroke-width:0.75;stroke-linecap:round;stroke-linejoin:round;stroke:rgb(0%,0%,0%);stroke-opacity:1;stroke-miterlimit:10;" d="M 266.398438 430.558594 L 266.398438 59.039062 "/>
</g>
<g clip-path="url(#clip3)" clip-rule="nonzero">
<path style="fill:none;stroke-width:0.75;stroke-linecap:round;stroke-linejoin:round;stroke:rgb(0%,0%,0%);stroke-opacity:1;stroke-miterlimit:10;" d="M 343.199219 430.558594 L 343.199219 59.039062 "/>
</g>
</g>
</svg>
