<?xml version="1.0" encoding="UTF-8"?>
<svg xmlns="http://www.w3.org/2000/svg" xmlns:xlink="http://www.w3.org/1999/xlink" width="504pt" height="504pt" viewBox="0 0 504 504" version="1.1">
<defs>
<clipPath id="clip1">
  <path d="M 59.039062 412 L 473.757812 412 L 473.757812 414 L 59.039062 414 Z M 59.039062 412 "/>
</clipPath>
<clipPath id="clip2">
  <path d="M 59.039062 402 L 473.757812 402 L 473.757812 404 L 59.039062 404 Z M 59.039062 402 "/>
</clipPath>
<clipPath id="clip3">
  <path d="M 59.039062 385 L 473.757812 385 L 473.757812 387 L 59.039062 387 Z M 59.039062 385 "/>
</clipPath>
<clipPath id="clip4">
  <path d="M 59.039062 361 L 473.757812 361 L 473.757812 363 L 59.039062 363 Z M 59.039062 361 "/>
</clipPath>
<clipPath id="clip5">
  <path d="M 59.039062 330 L 473.757812 330 L 473.757812 332 L 59.039062 332 Z M 59.039062 330 "/>
</clipPath>
<clipPath id="clip6">
  <path d="M 59.039062 292 L 473.757812 292 L 473.757812 294 L 59.039062 294 Z M 59.039062 292 "/>
</clipPath>
<clipPath id="clip7">
  <path d="M 59.039062 247 L 473.757812 247 L 473.757812 249 L 59.039062 249 Z M 59.039062 247 "/>
</clipPath>
<clipPath id="clip8">
  <path d="M 59.039062 196 L 473.757812 196 L 473.757812 198 L 59.039062 198 Z M 59.039062 196 "/>
</clipPath>
<clipPath id="clip9">
  <path d="M 59.039062 137 L 473.757812 137 L 473.757812 139 L 59.039062 139 Z M 59.039062 137 "/>
</clipPath>
<clipPath id="clip10">
  <path d="M 97 59.039062 L 99 59.039062 L 99 430.558594 L 97 430.558594 Z M 97 59.039062 "/>
</clipPath>
<clipPath id="clip11">
  <path d="M 107 59.039062 L 109 59.039062 L 109 430.558594 L 107 430.558594 Z M 107 59.039062 "/>
</clipPath>
<clipPath id="clip12">
  <path d="M 124 59.039062 L 126 59.039062 L 126 430.558594 L 124 430.558594 Z M 124 59.039062 "/>
</clipPath>
<clipPath id="clip13">
  <path d="M 149 59.039062 L 150 59.039062 L 150 430.558594 L 149 430.558594 Z M 149 59.039062 "/>
</clipPath>
<clipPath id="clip14">
  <path d="M 180 59.039062 L 181 59.039062 L 181 430.558594 L 180 430.558594 Z M 180 59.039062 "/>
</clipPath>
<clipPath id="clip15">
  <path d="M 217 59.039062 L 219 59.039062 L 219 430.558594 L 217 430.558594 Z M 217 59.039062 "/>
</clipPath>
<clipPath id="clip16">
  <path d="M 262 59.039062 L 264 59.039062 L 264 430.558594 L 262 430.558594 Z M 262 59.039062 "/>
</clipPath>
<clipPath id="clip17">
  <path d="M 314 59.039062 L 315 59.039062 L 315 430.558594 L 314 430.558594 Z M 314 59.039062 "/>
</clipPath>
<clipPath id="clip18">
  <path d="M 372 59.039062 L 374 59.039062 L 374 430.558594 L 372 430.558594 Z M 372 59.039062 "/>
</clipPath>
</defs>
<g id="surface21">
<rect x="0" y="0" width="504" height="504" style="fill:rgb(100%,100%,100%);fill-opacity:1;stroke:none;"/>
<path style="fill:none;stroke-width:0.75;stroke-linecap:round;stroke-linejoin:round;stroke:rgb(0%,0%,0%);stroke-opacity:1;stroke-miterlimit:10;" d="M 94.398438 416.800781 L 438.398438 416.800781 L 438.398438 72.800781 L 94.398438 72.800781 Z M 94.398438 416.800781 "/>
<g clip-path="url(#clip1)" clip-rule="nonzero">
<path style="fill:none;stroke-width:0.75;stroke-linecap:round;stroke-linejoin:round;stroke:rgb(0%,0%,0%);stroke-opacity:1;stroke-miterlimit:10;" d="M 59.039062 413.359375 L 473.761719 413.359375 "/>
</g>
<g clip-path="url(#clip2)" clip-rule="nonzero">
<path style="fill:none;stroke-width:0.75;stroke-linecap:round;stroke-linejoin:round;stroke:rgb(0%,0%,0%);stroke-opacity:1;stroke-miterlimit:10;" d="M 59.039062 403.039062 L 473.761719 403.039062 "/>
</g>
<g clip-path="url(#clip3)" clip-rule="nonzero">
<path style="fill:none;stroke-width:0.75;stroke-linecap:round;stroke-linejoin:round;stroke:rgb(0%,0%,0%);stroke-opacity:1;stroke-miterlimit:10;" d="M 59.039062 385.839844 L 473.761719 385.839844 "/>
</g>
<g clip-path="url(#clip4)" clip-rule="nonzero">
<path style="fill:none;stroke-width:0.75;stroke-linecap:round;stroke-linejoin:round;stroke:rgb(0%,0%,0%);stroke-opacity:1;stroke-miterlimit:10;" d="M 59.039062 361.761719 L 473.761719 361.761719 "/>
</g>
<g clip-path="url(#clip5)" clip-rule="nonzero">
<path style="fill:none;stroke-width:0.75;stroke-linecap:round;stroke-linejoin:round;stroke:rgb(0%,0%,0%);stroke-opacity:1;stroke-miterlimit:10;" d="M 59.039062 330.800781 L 473.761719 330.800781 "/>
</g>
<g clip-path="url(#clip6)" clip-rule="nonzero">
<path style="fill:none;stroke-width:0.75;stroke-linecap:round;stroke-linejoin:round;stroke:rgb(0%,0%,0%);stroke-opacity:1;stroke-miterlimit:10;" d="M 59.039062 292.960938 L 473.761719 292.960938 "/>
</g>
<g clip-path="url(#clip7)" clip-rule="nonzero">
<path style="fill:none;stroke-width:0.75;stroke-linecap:round;stroke-linejoin:round;stroke:rgb(0%,0%,0%);stroke-opacity:1;stroke-miterlimit:10;" d="M 59.039062 248.238281 L 473.761719 248.238281 "/>
</g>
<g clip-path="url(#clip8)" clip-rule="nonzero">
<path style="fill:none;stroke-width:0.75;stroke-linecap:round;stroke-linejoin:round;stroke:rgb(0%,0%,0%);stroke-opacity:1;stroke-miterlimit:10;" d="M 59.039062 196.640625 L 473.761719 196.640625 "/>
</g>
<g clip-path="url(#clip9)" clip-rule="nonzero">
<path style="fill:none;stroke-width:0.75;stroke-linecap:round;stroke-linejoin:round;stroke:rgb(0%,0%,0%);stroke-opacity:1;stroke-miterlimit:10;" d="M 59.039062 138.160156 L 473.761719 138.160156 "/>
</g>
<g clip-path="url(#clip10)" clip-rule="nonzero">
<path style="fill:none;stroke-width:0.75;stroke-linecap:round;stroke-linejoin:round;stroke:rgb(0%,0%,0%);stroke-opacity:1;stroke-miterlimit:10;" d="M 97.839844 430.558594 L 97.839844 59.039062 "/>
</g>
<g clip-path="url(#clip11)" clip-rule="nonzero">
<path style="fill:none;stroke-width:0.75;stroke-linecap:round;stroke-linejoin:round;stroke:rgb(0%,0%,0%);stroke-opacity:1;stroke-miterlimit:10;" d="M 108.160156 430.558594 L 108.160156 59.039062 "/>
</g>
<g clip-path="url(#clip12)" clip-rule="nonzero">
<path style="fill:none;stroke-width:0.75;stroke-linecap:round;stroke-linejoin:round;stroke:rgb(0%,0%,0%);stroke-opacity:1;stroke-miterlimit:10;" d="M 125.359375 430.558594 L 125.359375 59.039062 "/>
</g>
<g clip-path="url(#clip13)" clip-rule="nonzero">
<path style="fill:none;stroke-width:0.75;stroke-linecap:round;stroke-linejoin:round;stroke:rgb(0%,0%,0%);stroke-opacity:1;stroke-miterlimit:10;" d="M 149.441406 430.558594 L 149.441406 59.039062 "/>
</g>
<g clip-path="url(#clip14)" clip-rule="nonzero">
<path style="fill:none;stroke-width:0.75;stroke-linecap:round;stroke-linejoin:round;stroke:rgb(0%,0%,0%);stroke-opacity:1;stroke-miterlimit:10;" d="M 180.398438 430.558594 L 180.398438 59.039062 "/>
</g>
<g clip-path="url(#clip15)" clip-rule="nonzero">
<path style="fill:none;stroke-width:0.75;stroke-linecap:round;stroke-linejoin:round;stroke:rgb(0%,0%,0%);stroke-opacity:1;stroke-miterlimit:10;" d="M 218.238281 430.558594 L 218.238281 59.039062 "/>
</g>
<g clip-path="url(#clip16)" clip-rule="nonzero">
<path style="fill:none;stroke-width:0.75;stroke-linecap:round;stroke-linejoin:round;stroke:rgb(0%,0%,0%);stroke-opacity:1;stroke-miterlimit:10;" d="M 262.960938 430.558594 L 262.960938 59.039062 "/>
</g>
<g clip-path="url(#clip17)" clip-rule="nonzero">
<path style="fill:none;stroke-width:0.75;stroke-linecap:round;stroke-linejoin:round;stroke:rgb(0%,0%,0%);stroke-opacity:1;stroke-miterlimit:10;" d="M 314.558594 430.558594 L 314.558594 59.039062 "/>
</g>
<g clip-path="url(#clip18)" clip-rule="nonzero">
<path style="fill:none;stroke-width:0.75;stroke-linecap:round;stroke-linejoin:round;stroke:rgb(0%,0%,0%);stroke-opacity:1;stroke-miterlimit:10;" d="M 373.039062 430.558594 L 373.039062 59.039062 "/>
</g>
</g>
</svg>
