<?xml version="1.0" encoding="UTF-8"?>
<svg xmlns="http://www.w3.org/2000/svg" xmlns:xlink="http://www.w3.org/1999/xlink" width="504pt" height="504pt" viewBox="0 0 504 504" version="1.1">
<defs>
<clipPath id="clip1">
  <path d="M 59.039062 400 L 473.757812 400 L 473.757812 401 L 59.039062 401 Z M 59.039062 400 "/>
</clipPath>
<clipPath id="clip2">
  <path d="M 81 59.039062 L 83 59.039062 L 83 430.558594 L 81 430.558594 Z M 81 59.039062 "/>
</clipPath>
</defs>
<g id="surface1">
<rect x="0" y="0" width="504" height="504" style="fill:rgb(100%,100%,100%);fill-opacity:1;stroke:none;"/>
<path style="fill:none;stroke-width:0.75;stroke-linecap:round;stroke-linejoin:round;stroke:rgb(0%,0%,0%);stroke-opacity:1;stroke-miterlimit:10;" d="M 81.929688 236.609375 L 82.304688 237.425781 L 82.683594 238.242188 L 83.058594 239.050781 L 83.4375 239.855469 L 83.8125 240.65625 L 84.191406 241.457031 L 84.566406 242.25 L 84.945312 243.039062 L 85.320312 243.824219 L 85.699219 244.605469 L 86.074219 245.382812 L 86.453125 246.160156 L 86.828125 246.929688 L 87.207031 247.695312 L 87.582031 248.457031 L 87.957031 249.214844 L 88.710938 250.722656 L 89.089844 251.46875 L 89.464844 252.214844 L 89.84375 252.953125 L 90.21875 253.6875 L 90.597656 254.421875 L 90.972656 255.152344 L 91.351562 255.875 L 91.726562 256.597656 L 92.105469 257.316406 L 92.480469 258.03125 L 92.859375 258.742188 L 93.234375 259.449219 L 93.613281 260.152344 L 93.988281 260.851562 L 94.367188 261.550781 L 95.117188 262.933594 L 95.496094 263.617188 L 95.871094 264.300781 L 96.25 264.980469 L 96.625 265.65625 L 97.003906 266.328125 L 97.378906 267 L 97.757812 267.664062 L 98.132812 268.328125 L 98.511719 268.988281 L 98.886719 269.644531 L 99.265625 270.296875 L 99.640625 270.945312 L 100.019531 271.59375 L 100.394531 272.234375 L 100.773438 272.875 L 101.148438 273.511719 L 101.527344 274.144531 L 101.902344 274.777344 L 102.277344 275.402344 L 102.65625 276.027344 L 103.03125 276.648438 L 103.410156 277.265625 L 103.785156 277.882812 L 104.164062 278.492188 L 104.539062 279.101562 L 104.917969 279.707031 L 105.292969 280.3125 L 105.671875 280.910156 L 106.046875 281.507812 L 106.425781 282.101562 L 106.800781 282.691406 L 107.179688 283.277344 L 107.554688 283.863281 L 107.933594 284.445312 L 108.308594 285.023438 L 108.6875 285.601562 L 109.0625 286.175781 L 109.4375 286.746094 L 109.816406 287.3125 L 110.191406 287.875 L 110.570312 288.4375 L 110.945312 288.996094 L 111.324219 289.554688 L 111.699219 290.109375 L 112.078125 290.65625 L 112.453125 291.207031 L 112.832031 291.75 L 113.207031 292.292969 L 113.585938 292.832031 L 113.960938 293.371094 L 114.339844 293.90625 L 114.714844 294.4375 L 115.09375 294.964844 L 115.46875 295.492188 L 115.84375 296.015625 L 116.222656 296.539062 L 116.597656 297.054688 L 116.976562 297.574219 L 117.351562 298.085938 L 117.730469 298.597656 L 118.105469 299.105469 L 118.484375 299.609375 L 118.859375 300.113281 L 119.238281 300.613281 L 119.613281 301.113281 L 119.992188 301.609375 L 120.367188 302.101562 L 120.746094 302.59375 L 121.121094 303.082031 L 121.5 303.566406 L 121.875 304.050781 L 122.253906 304.53125 L 122.628906 305.011719 L 123.003906 305.488281 L 123.382812 305.960938 L 123.757812 306.433594 L 124.136719 306.902344 L 124.511719 307.367188 L 124.890625 307.832031 L 125.265625 308.296875 L 125.644531 308.753906 L 126.019531 309.214844 L 126.398438 309.667969 L 126.773438 310.121094 L 127.152344 310.574219 L 127.527344 311.019531 L 127.90625 311.46875 L 128.28125 311.910156 L 128.660156 312.351562 L 129.035156 312.792969 L 129.414062 313.230469 L 130.164062 314.097656 L 130.542969 314.53125 L 130.917969 314.957031 L 131.296875 315.386719 L 131.671875 315.808594 L 132.050781 316.230469 L 132.425781 316.652344 L 132.804688 317.070312 L 133.179688 317.488281 L 133.558594 317.902344 L 133.933594 318.3125 L 134.3125 318.722656 L 134.6875 319.128906 L 135.066406 319.535156 L 135.441406 319.941406 L 135.820312 320.34375 L 136.195312 320.742188 L 136.574219 321.140625 L 137.324219 321.929688 L 137.703125 322.320312 L 138.078125 322.710938 L 138.457031 323.097656 L 138.832031 323.484375 L 139.210938 323.867188 L 139.585938 324.25 L 139.964844 324.632812 L 140.339844 325.011719 L 140.71875 325.386719 L 141.09375 325.761719 L 141.472656 326.132812 L 141.847656 326.503906 L 142.226562 326.875 L 142.601562 327.242188 L 142.980469 327.605469 L 143.730469 328.332031 L 144.109375 328.691406 L 144.484375 329.050781 L 144.863281 329.40625 L 145.238281 329.761719 L 145.617188 330.113281 L 145.992188 330.464844 L 146.371094 330.8125 L 146.746094 331.160156 L 147.125 331.507812 L 147.5 331.851562 L 147.878906 332.191406 L 148.253906 332.535156 L 148.632812 332.871094 L 149.007812 333.210938 L 149.386719 333.546875 L 149.761719 333.878906 L 150.140625 334.210938 L 150.515625 334.542969 L 150.890625 334.871094 L 151.269531 335.199219 L 151.644531 335.523438 L 152.023438 335.847656 L 152.398438 336.167969 L 152.777344 336.492188 L 153.152344 336.808594 L 153.53125 337.128906 L 153.90625 337.445312 L 154.285156 337.757812 L 154.660156 338.070312 L 155.039062 338.382812 L 155.414062 338.691406 L 155.792969 339 L 156.167969 339.304688 L 156.546875 339.613281 L 156.921875 339.914062 L 157.300781 340.21875 L 157.675781 340.519531 L 158.050781 340.816406 L 158.429688 341.113281 L 158.804688 341.410156 L 159.183594 341.703125 L 159.558594 342 L 159.9375 342.289062 L 160.3125 342.578125 L 160.691406 342.867188 L 161.066406 343.15625 L 161.445312 343.441406 L 161.820312 343.726562 L 162.199219 344.007812 L 162.574219 344.292969 L 162.953125 344.570312 L 163.328125 344.851562 L 163.707031 345.128906 L 164.082031 345.402344 L 164.460938 345.679688 L 164.835938 345.953125 L 165.210938 346.222656 L 165.589844 346.492188 L 165.964844 346.761719 L 166.34375 347.03125 L 166.71875 347.296875 L 167.097656 347.5625 L 167.472656 347.828125 L 167.851562 348.089844 L 168.226562 348.351562 L 168.605469 348.609375 L 168.980469 348.871094 L 169.359375 349.125 L 169.734375 349.382812 L 170.113281 349.636719 L 170.488281 349.890625 L 170.867188 350.144531 L 171.617188 350.644531 L 171.996094 350.890625 L 172.371094 351.140625 L 172.75 351.386719 L 173.125 351.628906 L 173.503906 351.875 L 173.878906 352.117188 L 174.257812 352.359375 L 174.632812 352.597656 L 175.011719 352.835938 L 175.386719 353.074219 L 175.765625 353.308594 L 176.140625 353.546875 L 176.519531 353.78125 L 176.894531 354.011719 L 177.273438 354.242188 L 177.648438 354.472656 L 178.027344 354.703125 L 178.402344 354.933594 L 178.777344 355.160156 L 179.15625 355.386719 L 179.53125 355.609375 L 179.910156 355.832031 L 180.285156 356.054688 L 180.664062 356.277344 L 181.039062 356.5 L 181.417969 356.71875 L 181.792969 356.9375 L 182.171875 357.152344 L 182.546875 357.367188 L 182.925781 357.582031 L 183.300781 357.796875 L 183.679688 358.011719 L 184.054688 358.222656 L 184.433594 358.433594 L 184.808594 358.640625 L 185.1875 358.851562 L 185.9375 359.265625 L 186.316406 359.46875 L 186.691406 359.675781 L 187.070312 359.878906 L 187.445312 360.082031 L 187.824219 360.28125 L 188.199219 360.484375 L 188.578125 360.683594 L 188.953125 360.878906 L 189.332031 361.078125 L 189.707031 361.273438 L 190.085938 361.46875 L 190.460938 361.664062 L 190.839844 361.855469 L 191.214844 362.050781 L 191.59375 362.242188 L 191.96875 362.433594 L 192.347656 362.621094 L 192.722656 362.808594 L 193.097656 363 L 193.476562 363.183594 L 193.851562 363.371094 L 194.230469 363.554688 L 194.605469 363.738281 L 194.984375 363.921875 L 195.359375 364.105469 L 195.738281 364.285156 L 196.113281 364.46875 L 196.492188 364.644531 L 196.867188 364.824219 L 197.246094 365.003906 L 197.621094 365.179688 L 198 365.355469 L 198.375 365.53125 L 198.753906 365.703125 L 199.128906 365.878906 L 199.503906 366.050781 L 199.882812 366.222656 L 200.257812 366.394531 L 200.636719 366.5625 L 201.011719 366.730469 L 201.390625 366.898438 L 201.765625 367.066406 L 202.144531 367.234375 L 202.519531 367.398438 L 202.898438 367.5625 L 203.273438 367.726562 L 203.652344 367.890625 L 204.027344 368.054688 L 204.40625 368.214844 L 204.78125 368.375 L 205.160156 368.535156 L 205.535156 368.695312 L 205.914062 368.855469 L 206.664062 369.167969 L 207.042969 369.324219 L 207.417969 369.480469 L 207.796875 369.632812 L 208.171875 369.789062 L 208.550781 369.941406 L 208.925781 370.09375 L 209.304688 370.242188 L 209.679688 370.394531 L 210.058594 370.542969 L 210.433594 370.695312 L 210.8125 370.84375 L 211.1875 370.988281 L 211.566406 371.136719 L 211.941406 371.28125 L 212.320312 371.429688 L 212.695312 371.574219 L 213.074219 371.71875 L 213.449219 371.859375 L 213.824219 372.003906 L 214.203125 372.144531 L 214.578125 372.285156 L 214.957031 372.425781 L 215.332031 372.566406 L 215.710938 372.707031 L 216.085938 372.84375 L 216.464844 372.980469 L 216.839844 373.117188 L 217.21875 373.253906 L 217.59375 373.390625 L 217.972656 373.523438 L 218.347656 373.660156 L 218.726562 373.792969 L 219.101562 373.925781 L 219.480469 374.058594 L 219.855469 374.191406 L 220.230469 374.320312 L 220.609375 374.449219 L 220.984375 374.582031 L 221.363281 374.710938 L 221.738281 374.839844 L 222.117188 374.964844 L 222.492188 375.09375 L 222.871094 375.21875 L 223.246094 375.34375 L 223.625 375.46875 L 224 375.59375 L 224.378906 375.71875 L 224.753906 375.84375 L 225.132812 375.964844 L 225.507812 376.085938 L 225.886719 376.207031 L 226.261719 376.328125 L 226.640625 376.449219 L 227.015625 376.570312 L 227.390625 376.6875 L 227.769531 376.808594 L 228.144531 376.925781 L 228.523438 377.042969 L 228.898438 377.160156 L 229.277344 377.273438 L 229.652344 377.390625 L 230.03125 377.503906 L 230.40625 377.621094 L 230.785156 377.734375 L 231.160156 377.847656 L 231.539062 377.960938 L 231.914062 378.070312 L 232.292969 378.183594 L 232.667969 378.292969 L 233.046875 378.40625 L 233.421875 378.515625 L 233.800781 378.625 L 234.175781 378.734375 L 234.550781 378.839844 L 234.929688 378.949219 L 235.304688 379.054688 L 235.683594 379.164062 L 236.058594 379.269531 L 236.4375 379.375 L 236.8125 379.480469 L 237.191406 379.582031 L 237.566406 379.6875 L 237.945312 379.792969 L 238.320312 379.894531 L 238.699219 379.996094 L 239.074219 380.097656 L 239.453125 380.199219 L 239.828125 380.300781 L 240.207031 380.402344 L 240.582031 380.5 L 240.960938 380.601562 L 241.710938 380.796875 L 242.089844 380.894531 L 242.464844 380.992188 L 242.84375 381.089844 L 243.21875 381.1875 L 243.597656 381.285156 L 243.972656 381.378906 L 244.351562 381.472656 L 244.726562 381.570312 L 245.105469 381.664062 L 245.480469 381.757812 L 245.859375 381.847656 L 246.234375 381.941406 L 246.613281 382.035156 L 246.988281 382.125 L 247.367188 382.21875 L 248.117188 382.398438 L 248.496094 382.488281 L 248.871094 382.578125 L 249.25 382.667969 L 249.625 382.757812 L 250.003906 382.84375 L 250.378906 382.933594 L 250.757812 383.019531 L 251.132812 383.105469 L 251.511719 383.191406 L 251.886719 383.277344 L 252.265625 383.363281 L 252.640625 383.449219 L 253.019531 383.535156 L 253.394531 383.617188 L 253.773438 383.703125 L 254.148438 383.785156 L 254.527344 383.867188 L 254.902344 383.953125 L 255.277344 384.035156 L 255.65625 384.117188 L 256.03125 384.195312 L 256.410156 384.277344 L 256.785156 384.359375 L 257.164062 384.4375 L 257.539062 384.519531 L 257.917969 384.597656 L 258.292969 384.675781 L 258.671875 384.753906 L 259.046875 384.832031 L 259.425781 384.910156 L 259.800781 384.988281 L 260.179688 385.066406 L 260.554688 385.140625 L 260.933594 385.21875 L 261.308594 385.292969 L 261.6875 385.371094 L 262.4375 385.519531 L 262.816406 385.59375 L 263.191406 385.667969 L 263.570312 385.742188 L 263.945312 385.816406 L 264.324219 385.886719 L 264.699219 385.960938 L 265.078125 386.03125 L 265.453125 386.105469 L 265.832031 386.175781 L 266.207031 386.246094 L 266.585938 386.316406 L 266.960938 386.386719 L 267.339844 386.457031 L 267.714844 386.527344 L 268.09375 386.597656 L 268.46875 386.667969 L 268.847656 386.734375 L 269.222656 386.804688 L 269.597656 386.871094 L 269.976562 386.9375 L 270.351562 387.007812 L 270.730469 387.074219 L 271.105469 387.140625 L 271.484375 387.207031 L 271.859375 387.273438 L 272.238281 387.335938 L 272.613281 387.402344 L 272.992188 387.46875 L 273.367188 387.53125 L 273.746094 387.597656 L 274.121094 387.660156 L 274.5 387.726562 L 274.875 387.789062 L 275.253906 387.851562 L 276.003906 387.976562 L 276.382812 388.039062 L 276.757812 388.101562 L 277.136719 388.160156 L 277.511719 388.222656 L 277.890625 388.285156 L 278.265625 388.34375 L 278.644531 388.40625 L 279.019531 388.464844 L 279.398438 388.523438 L 279.773438 388.582031 L 280.152344 388.644531 L 280.527344 388.703125 L 280.90625 388.761719 L 281.28125 388.820312 L 281.660156 388.875 L 282.035156 388.933594 L 282.414062 388.992188 L 282.789062 389.046875 L 283.164062 389.105469 L 283.542969 389.160156 L 283.917969 389.21875 L 284.296875 389.273438 L 284.671875 389.328125 L 285.050781 389.386719 L 285.425781 389.441406 L 285.804688 389.496094 L 286.179688 389.550781 L 286.558594 389.601562 L 286.933594 389.65625 L 287.3125 389.710938 L 287.6875 389.765625 L 288.066406 389.816406 L 288.441406 389.871094 L 288.820312 389.921875 L 289.195312 389.976562 L 289.574219 390.027344 L 289.949219 390.078125 L 290.324219 390.132812 L 290.703125 390.183594 L 291.078125 390.234375 L 291.457031 390.285156 L 291.832031 390.335938 L 292.210938 390.386719 L 292.585938 390.4375 L 292.964844 390.484375 L 293.339844 390.535156 L 293.71875 390.585938 L 294.09375 390.632812 L 294.472656 390.683594 L 294.847656 390.730469 L 295.226562 390.78125 L 295.601562 390.828125 L 295.980469 390.875 L 296.355469 390.921875 L 296.734375 390.96875 L 297.109375 391.019531 L 297.484375 391.066406 L 297.863281 391.113281 L 298.238281 391.15625 L 298.617188 391.203125 L 298.992188 391.25 L 299.371094 391.296875 L 299.746094 391.339844 L 300.125 391.386719 L 300.5 391.433594 L 300.878906 391.476562 L 301.253906 391.519531 L 301.632812 391.566406 L 302.007812 391.609375 L 302.386719 391.652344 L 302.761719 391.699219 L 303.140625 391.742188 L 303.890625 391.828125 L 304.269531 391.871094 L 304.644531 391.914062 L 305.023438 391.957031 L 305.398438 391.996094 L 305.777344 392.039062 L 306.152344 392.082031 L 306.53125 392.125 L 306.90625 392.164062 L 307.285156 392.207031 L 307.660156 392.246094 L 308.039062 392.289062 L 308.414062 392.328125 L 308.792969 392.367188 L 309.167969 392.410156 L 309.546875 392.449219 L 309.921875 392.488281 L 310.300781 392.527344 L 311.050781 392.605469 L 311.429688 392.644531 L 311.804688 392.683594 L 312.183594 392.722656 L 312.558594 392.761719 L 312.9375 392.800781 L 313.3125 392.839844 L 313.691406 392.875 L 314.066406 392.914062 L 314.445312 392.949219 L 314.820312 392.988281 L 315.199219 393.027344 L 315.574219 393.0625 L 315.953125 393.097656 L 316.328125 393.136719 L 316.707031 393.171875 L 317.082031 393.207031 L 317.460938 393.246094 L 318.210938 393.316406 L 318.589844 393.351562 L 318.964844 393.386719 L 319.34375 393.421875 L 319.71875 393.457031 L 320.097656 393.492188 L 320.472656 393.527344 L 320.851562 393.558594 L 321.226562 393.59375 L 321.605469 393.628906 L 321.980469 393.664062 L 322.359375 393.695312 L 322.734375 393.730469 L 323.113281 393.761719 L 323.488281 393.796875 L 323.867188 393.828125 L 324.242188 393.863281 L 324.621094 393.894531 L 324.996094 393.925781 L 325.371094 393.960938 L 325.75 393.992188 L 326.125 394.023438 L 326.503906 394.054688 L 326.878906 394.089844 L 327.257812 394.121094 L 327.632812 394.152344 L 328.011719 394.183594 L 328.386719 394.214844 L 328.765625 394.246094 L 329.140625 394.273438 L 329.519531 394.304688 L 329.894531 394.335938 L 330.273438 394.367188 L 330.648438 394.398438 L 331.027344 394.425781 L 331.777344 394.488281 L 332.15625 394.515625 L 332.53125 394.546875 L 332.910156 394.574219 L 333.285156 394.605469 L 333.664062 394.632812 L 334.039062 394.664062 L 334.417969 394.691406 L 334.792969 394.71875 L 335.171875 394.75 L 335.546875 394.777344 L 335.925781 394.804688 L 336.300781 394.832031 L 336.679688 394.859375 L 337.054688 394.886719 L 337.433594 394.914062 L 337.808594 394.945312 L 338.1875 394.972656 L 338.5625 394.996094 L 338.9375 395.023438 L 339.316406 395.050781 L 339.691406 395.078125 L 340.070312 395.105469 L 340.445312 395.132812 L 340.824219 395.160156 L 341.199219 395.183594 L 341.578125 395.210938 L 341.953125 395.238281 L 342.332031 395.261719 L 342.707031 395.289062 L 343.085938 395.3125 L 343.460938 395.339844 L 343.839844 395.363281 L 344.214844 395.390625 L 344.59375 395.414062 L 344.96875 395.441406 L 345.347656 395.464844 L 345.722656 395.488281 L 346.097656 395.515625 L 346.476562 395.539062 L 346.851562 395.5625 L 347.230469 395.585938 L 347.605469 395.613281 L 347.984375 395.636719 L 348.359375 395.660156 L 348.738281 395.683594 L 349.113281 395.707031 L 349.492188 395.730469 L 349.867188 395.753906 L 350.246094 395.777344 L 350.621094 395.800781 L 351 395.824219 L 351.375 395.847656 L 351.753906 395.867188 L 352.128906 395.890625 L 352.507812 395.914062 L 353.257812 395.960938 L 353.636719 395.980469 L 354.011719 396.003906 L 354.390625 396.027344 L 354.765625 396.046875 L 355.144531 396.070312 L 355.519531 396.089844 L 355.898438 396.113281 L 356.273438 396.132812 L 356.652344 396.15625 L 357.027344 396.175781 L 357.40625 396.199219 L 357.78125 396.21875 L 358.160156 396.238281 L 358.535156 396.261719 L 358.914062 396.28125 L 359.289062 396.300781 L 359.664062 396.324219 L 360.042969 396.34375 L 360.417969 396.363281 L 360.796875 396.382812 L 361.171875 396.402344 L 361.550781 396.425781 L 361.925781 396.445312 L 362.304688 396.464844 L 362.679688 396.484375 L 363.058594 396.503906 L 363.433594 396.523438 L 363.8125 396.542969 L 364.1875 396.5625 L 364.566406 396.582031 L 364.941406 396.601562 L 365.320312 396.621094 L 365.695312 396.636719 L 366.074219 396.65625 L 366.824219 396.695312 L 367.203125 396.714844 L 367.578125 396.730469 L 367.957031 396.75 L 368.332031 396.769531 L 368.710938 396.785156 L 369.085938 396.804688 L 369.464844 396.824219 L 369.839844 396.839844 L 370.21875 396.859375 L 370.59375 396.875 L 370.972656 396.894531 L 371.347656 396.910156 L 371.726562 396.929688 L 372.101562 396.945312 L 372.480469 396.964844 L 372.855469 396.980469 L 373.234375 397 L 373.984375 397.03125 L 374.363281 397.050781 L 374.738281 397.066406 L 375.117188 397.082031 L 375.492188 397.097656 L 375.871094 397.117188 L 376.246094 397.132812 L 376.625 397.148438 L 377 397.164062 L 377.378906 397.179688 L 377.753906 397.199219 L 378.132812 397.214844 L 378.507812 397.230469 L 378.886719 397.246094 L 379.261719 397.261719 L 379.640625 397.277344 L 380.015625 397.292969 L 380.394531 397.308594 L 381.144531 397.339844 L 381.523438 397.355469 L 381.898438 397.371094 L 382.277344 397.386719 L 382.652344 397.402344 L 383.03125 397.414062 L 383.40625 397.429688 L 383.785156 397.445312 L 384.160156 397.460938 L 384.539062 397.476562 L 384.914062 397.488281 L 385.292969 397.503906 L 385.667969 397.519531 L 386.046875 397.535156 L 386.421875 397.546875 L 386.800781 397.5625 L 387.175781 397.578125 L 387.550781 397.589844 L 387.929688 397.605469 L 388.304688 397.617188 L 388.683594 397.632812 L 389.058594 397.648438 L 389.4375 397.660156 L 389.8125 397.675781 L 390.191406 397.6875 L 390.566406 397.703125 L 390.945312 397.714844 L 391.320312 397.730469 L 391.699219 397.742188 L 392.074219 397.753906 L 392.453125 397.769531 L 392.828125 397.78125 L 393.207031 397.796875 L 393.582031 397.808594 L 393.960938 397.820312 L 394.335938 397.835938 L 394.710938 397.847656 L 395.089844 397.859375 L 395.464844 397.871094 L 395.84375 397.886719 L 396.21875 397.898438 L 396.597656 397.910156 L 396.972656 397.921875 L 397.351562 397.9375 L 397.726562 397.949219 L 398.105469 397.960938 L 398.480469 397.972656 L 398.859375 397.984375 L 399.234375 397.996094 L 399.613281 398.007812 L 399.988281 398.019531 L 400.367188 398.035156 L 400.742188 398.046875 L 401.121094 398.058594 L 401.871094 398.082031 L 402.25 398.09375 L 402.625 398.105469 L 403.003906 398.117188 L 403.378906 398.128906 L 403.757812 398.136719 L 404.132812 398.148438 L 404.511719 398.160156 L 404.886719 398.171875 L 405.265625 398.183594 L 405.640625 398.195312 L 406.019531 398.207031 L 406.394531 398.21875 L 406.773438 398.226562 L 407.148438 398.238281 L 407.527344 398.25 L 407.902344 398.261719 L 408.277344 398.269531 L 408.65625 398.28125 L 409.03125 398.292969 L 409.410156 398.304688 L 409.785156 398.3125 L 410.164062 398.324219 L 410.539062 398.335938 L 410.917969 398.34375 L 411.292969 398.355469 L 411.671875 398.367188 L 412.046875 398.375 L 412.425781 398.386719 L 412.800781 398.398438 L 413.179688 398.40625 L 413.554688 398.417969 L 413.933594 398.425781 L 414.308594 398.4375 L 414.6875 398.445312 L 415.0625 398.457031 L 415.4375 398.464844 L 415.816406 398.476562 L 416.191406 398.484375 L 416.570312 398.496094 L 416.945312 398.503906 L 417.324219 398.515625 L 417.699219 398.523438 L 418.078125 398.535156 L 418.453125 398.542969 L 418.832031 398.550781 L 419.207031 398.5625 L 419.585938 398.570312 L 419.960938 398.578125 L 420.339844 398.589844 L 420.714844 398.597656 L 421.09375 398.609375 L 421.46875 398.617188 L 421.847656 398.625 L 422.222656 398.632812 L 422.597656 398.644531 L 422.976562 398.652344 L 423.351562 398.660156 L 423.730469 398.667969 L 424.105469 398.679688 L 424.484375 398.6875 L 424.859375 398.695312 L 425.238281 398.703125 L 425.613281 398.714844 L 425.992188 398.722656 L 426.367188 398.730469 L 426.746094 398.738281 L 427.121094 398.746094 L 427.5 398.753906 L 427.875 398.761719 L 428.253906 398.773438 L 428.628906 398.78125 L 429.007812 398.789062 L 429.757812 398.804688 L 430.136719 398.8125 L 430.511719 398.820312 L 430.890625 398.828125 L 431.265625 398.835938 L 431.644531 398.84375 L 432.019531 398.851562 L 432.398438 398.859375 L 432.773438 398.867188 L 433.152344 398.875 L 433.527344 398.882812 L 433.90625 398.890625 L 434.28125 398.898438 L 434.660156 398.90625 L 435.035156 398.914062 L 435.414062 398.921875 L 436.164062 398.9375 L 436.542969 398.945312 L 436.917969 398.949219 L 437.296875 398.957031 L 437.671875 398.964844 L 438.050781 398.972656 L 438.425781 398.980469 L 438.804688 398.988281 L 439.179688 398.996094 L 439.558594 399 L 439.933594 399.007812 L 440.3125 399.015625 L 440.6875 399.023438 L 441.066406 399.03125 L 441.441406 399.035156 L 441.820312 399.042969 L 442.195312 399.050781 L 442.574219 399.058594 L 442.949219 399.0625 L 443.324219 399.070312 L 443.703125 399.078125 L 444.078125 399.085938 L 444.457031 399.089844 L 444.832031 399.097656 L 445.210938 399.105469 L 445.585938 399.109375 L 445.964844 399.117188 L 446.339844 399.125 L 446.71875 399.128906 L 447.09375 399.136719 L 447.472656 399.144531 L 447.847656 399.148438 L 448.226562 399.15625 L 448.601562 399.160156 L 448.980469 399.167969 L 449.355469 399.175781 L 449.734375 399.179688 L 450.109375 399.1875 L 450.484375 399.191406 L 450.863281 399.199219 L 451.238281 399.207031 L 451.617188 399.210938 L 451.992188 399.21875 L 452.371094 399.222656 L 452.746094 399.230469 L 453.125 399.234375 L 453.5 399.242188 L 453.878906 399.246094 L 454.253906 399.253906 L 454.632812 399.257812 L 455.007812 399.265625 L 455.386719 399.269531 L 455.761719 399.277344 L 456.140625 399.28125 L 456.515625 399.289062 L 456.894531 399.292969 L 457.269531 399.296875 L 457.644531 399.304688 L 458.023438 399.308594 L 458.398438 399.316406 "/>
<path style="fill:none;stroke-width:0.75;stroke-linecap:round;stroke-linejoin:round;stroke:rgb(0%,0%,0%);stroke-opacity:1;stroke-miterlimit:10;" d="M 81.929688 72.800781 L 82.304688 76.0625 L 82.683594 79.292969 L 83.058594 82.492188 L 83.4375 85.660156 L 83.8125 88.792969 L 84.191406 91.898438 L 84.566406 94.96875 L 84.945312 98.011719 L 85.320312 101.023438 L 85.699219 104.007812 L 86.074219 106.960938 L 86.453125 109.882812 L 86.828125 112.777344 L 87.207031 115.640625 L 87.582031 118.476562 L 87.957031 121.285156 L 88.335938 124.066406 L 88.710938 126.816406 L 89.089844 129.542969 L 89.464844 132.242188 L 89.84375 134.910156 L 90.21875 137.554688 L 90.597656 140.175781 L 90.972656 142.765625 L 91.351562 145.332031 L 91.726562 147.875 L 92.105469 150.390625 L 92.480469 152.878906 L 92.859375 155.34375 L 93.234375 157.785156 L 93.613281 160.203125 L 93.988281 162.59375 L 94.367188 164.964844 L 94.742188 167.308594 L 95.117188 169.628906 L 95.496094 171.929688 L 95.871094 174.207031 L 96.25 176.457031 L 96.625 178.6875 L 97.003906 180.898438 L 97.378906 183.082031 L 97.757812 185.25 L 98.132812 187.390625 L 98.511719 189.511719 L 98.886719 191.613281 L 99.265625 193.695312 L 99.640625 195.753906 L 100.019531 197.792969 L 100.394531 199.808594 L 100.773438 201.808594 L 101.148438 203.785156 L 101.527344 205.746094 L 101.902344 207.683594 L 102.277344 209.601562 L 102.65625 211.503906 L 103.03125 213.386719 L 103.410156 215.246094 L 103.785156 217.09375 L 104.164062 218.917969 L 104.539062 220.726562 L 104.917969 222.515625 L 105.292969 224.289062 L 105.671875 226.042969 L 106.046875 227.777344 L 106.425781 229.5 L 106.800781 231.199219 L 107.179688 232.886719 L 107.554688 234.554688 L 107.933594 236.207031 L 108.308594 237.84375 L 108.6875 239.460938 L 109.0625 241.066406 L 109.4375 242.652344 L 109.816406 244.222656 L 110.191406 245.777344 L 110.570312 247.320312 L 110.945312 248.84375 L 111.324219 250.355469 L 111.699219 251.847656 L 112.078125 253.328125 L 112.453125 254.792969 L 112.832031 256.242188 L 113.207031 257.679688 L 113.585938 259.101562 L 113.960938 260.507812 L 114.339844 261.902344 L 114.714844 263.28125 L 115.09375 264.648438 L 115.46875 266 L 115.84375 267.339844 L 116.222656 268.664062 L 116.597656 269.976562 L 116.976562 271.277344 L 117.351562 272.5625 L 117.730469 273.835938 L 118.105469 275.097656 L 118.484375 276.34375 L 118.859375 277.582031 L 119.238281 278.804688 L 119.613281 280.015625 L 119.992188 281.214844 L 120.367188 282.402344 L 120.746094 283.578125 L 121.121094 284.742188 L 121.5 285.894531 L 121.875 287.035156 L 122.253906 288.164062 L 122.628906 289.28125 L 123.003906 290.386719 L 123.382812 291.484375 L 123.757812 292.570312 L 124.136719 293.644531 L 124.511719 294.707031 L 124.890625 295.757812 L 125.265625 296.800781 L 125.644531 297.835938 L 126.019531 298.855469 L 126.398438 299.867188 L 126.773438 300.867188 L 127.152344 301.859375 L 127.527344 302.84375 L 127.90625 303.8125 L 128.28125 304.777344 L 128.660156 305.730469 L 129.035156 306.671875 L 129.414062 307.605469 L 129.789062 308.53125 L 130.164062 309.445312 L 130.542969 310.351562 L 130.917969 311.25 L 131.296875 312.136719 L 131.671875 313.015625 L 132.050781 313.886719 L 132.425781 314.75 L 132.804688 315.601562 L 133.179688 316.445312 L 133.558594 317.28125 L 133.933594 318.109375 L 134.3125 318.929688 L 134.6875 319.742188 L 135.066406 320.546875 L 135.441406 321.339844 L 135.820312 322.128906 L 136.195312 322.910156 L 136.574219 323.679688 L 136.949219 324.445312 L 137.324219 325.203125 L 137.703125 325.949219 L 138.078125 326.691406 L 138.457031 327.425781 L 138.832031 328.152344 L 139.210938 328.875 L 139.585938 329.585938 L 139.964844 330.292969 L 140.339844 330.992188 L 140.71875 331.683594 L 141.09375 332.367188 L 141.472656 333.042969 L 141.847656 333.714844 L 142.226562 334.378906 L 142.601562 335.039062 L 142.980469 335.6875 L 143.355469 336.332031 L 143.730469 336.972656 L 144.109375 337.605469 L 144.484375 338.230469 L 144.863281 338.847656 L 145.238281 339.460938 L 145.617188 340.070312 L 145.992188 340.671875 L 146.371094 341.265625 L 146.746094 341.855469 L 147.125 342.4375 L 147.5 343.015625 L 147.878906 343.585938 L 148.253906 344.152344 L 148.632812 344.714844 L 149.007812 345.269531 L 149.386719 345.816406 L 149.761719 346.363281 L 150.140625 346.898438 L 150.515625 347.433594 L 150.890625 347.960938 L 151.269531 348.484375 L 151.644531 349 L 152.023438 349.511719 L 152.398438 350.019531 L 152.777344 350.523438 L 153.152344 351.019531 L 153.53125 351.511719 L 153.90625 351.996094 L 154.285156 352.480469 L 154.660156 352.957031 L 155.039062 353.429688 L 155.414062 353.898438 L 155.792969 354.363281 L 156.167969 354.820312 L 156.546875 355.273438 L 156.921875 355.722656 L 157.300781 356.167969 L 157.675781 356.609375 L 158.050781 357.046875 L 158.429688 357.476562 L 158.804688 357.90625 L 159.183594 358.328125 L 159.558594 358.75 L 159.9375 359.164062 L 160.3125 359.574219 L 160.691406 359.980469 L 161.066406 360.382812 L 161.445312 360.78125 L 161.820312 361.179688 L 162.199219 361.570312 L 162.574219 361.957031 L 162.953125 362.339844 L 163.328125 362.71875 L 163.707031 363.09375 L 164.082031 363.464844 L 164.460938 363.832031 L 164.835938 364.199219 L 165.210938 364.558594 L 165.589844 364.914062 L 165.964844 365.269531 L 166.34375 365.621094 L 166.71875 365.964844 L 167.097656 366.308594 L 167.472656 366.648438 L 167.851562 366.984375 L 168.226562 367.316406 L 168.605469 367.648438 L 168.980469 367.972656 L 169.359375 368.296875 L 169.734375 368.617188 L 170.113281 368.933594 L 170.488281 369.246094 L 170.867188 369.558594 L 171.242188 369.867188 L 171.617188 370.167969 L 171.996094 370.472656 L 172.371094 370.769531 L 172.75 371.066406 L 173.125 371.355469 L 173.503906 371.648438 L 173.878906 371.933594 L 174.257812 372.21875 L 174.632812 372.496094 L 175.011719 372.777344 L 175.386719 373.050781 L 175.765625 373.324219 L 176.140625 373.59375 L 176.519531 373.859375 L 176.894531 374.125 L 177.273438 374.386719 L 177.648438 374.648438 L 178.027344 374.902344 L 178.777344 375.410156 L 179.15625 375.65625 L 179.53125 375.90625 L 179.910156 376.148438 L 180.285156 376.390625 L 180.664062 376.628906 L 181.039062 376.867188 L 181.417969 377.101562 L 181.792969 377.332031 L 182.171875 377.5625 L 182.546875 377.792969 L 182.925781 378.015625 L 183.300781 378.238281 L 183.679688 378.460938 L 184.054688 378.679688 L 184.433594 378.894531 L 184.808594 379.109375 L 185.1875 379.324219 L 185.5625 379.53125 L 185.9375 379.742188 L 186.316406 379.945312 L 186.691406 380.152344 L 187.070312 380.351562 L 187.445312 380.550781 L 187.824219 380.75 L 188.199219 380.945312 L 188.578125 381.140625 L 188.953125 381.332031 L 189.332031 381.523438 L 189.707031 381.710938 L 190.085938 381.898438 L 190.460938 382.082031 L 190.839844 382.265625 L 191.214844 382.445312 L 191.59375 382.625 L 191.96875 382.800781 L 192.347656 382.976562 L 193.097656 383.320312 L 193.476562 383.492188 L 193.851562 383.660156 L 194.230469 383.828125 L 194.605469 383.992188 L 194.984375 384.15625 L 195.359375 384.320312 L 195.738281 384.480469 L 196.113281 384.636719 L 196.492188 384.796875 L 196.867188 384.949219 L 197.246094 385.105469 L 197.621094 385.257812 L 198 385.410156 L 198.375 385.558594 L 198.753906 385.707031 L 199.503906 385.996094 L 199.882812 386.140625 L 200.257812 386.285156 L 200.636719 386.425781 L 201.011719 386.5625 L 201.390625 386.703125 L 201.765625 386.839844 L 202.144531 386.972656 L 202.519531 387.105469 L 202.898438 387.238281 L 203.273438 387.371094 L 203.652344 387.5 L 204.027344 387.628906 L 204.40625 387.757812 L 204.78125 387.882812 L 205.160156 388.007812 L 205.535156 388.132812 L 205.914062 388.253906 L 206.664062 388.496094 L 207.042969 388.613281 L 207.417969 388.730469 L 207.796875 388.847656 L 208.171875 388.964844 L 208.550781 389.078125 L 208.925781 389.191406 L 209.304688 389.300781 L 209.679688 389.414062 L 210.058594 389.523438 L 210.433594 389.632812 L 210.8125 389.738281 L 211.1875 389.84375 L 211.566406 389.949219 L 211.941406 390.054688 L 212.320312 390.15625 L 212.695312 390.261719 L 213.074219 390.359375 L 213.449219 390.460938 L 213.824219 390.558594 L 214.203125 390.660156 L 214.578125 390.753906 L 214.957031 390.851562 L 215.332031 390.949219 L 215.710938 391.042969 L 216.085938 391.136719 L 216.464844 391.226562 L 216.839844 391.320312 L 217.21875 391.410156 L 217.59375 391.5 L 217.972656 391.589844 L 218.347656 391.675781 L 218.726562 391.761719 L 219.101562 391.847656 L 219.480469 391.933594 L 219.855469 392.019531 L 220.230469 392.101562 L 220.609375 392.1875 L 220.984375 392.269531 L 221.363281 392.347656 L 221.738281 392.429688 L 222.117188 392.507812 L 222.492188 392.585938 L 222.871094 392.664062 L 223.246094 392.742188 L 223.625 392.820312 L 224 392.894531 L 224.378906 392.96875 L 224.753906 393.042969 L 225.132812 393.117188 L 225.507812 393.191406 L 225.886719 393.261719 L 226.261719 393.332031 L 226.640625 393.40625 L 227.015625 393.472656 L 227.390625 393.542969 L 227.769531 393.613281 L 228.144531 393.679688 L 228.523438 393.746094 L 228.898438 393.8125 L 229.277344 393.878906 L 229.652344 393.945312 L 230.03125 394.007812 L 230.40625 394.074219 L 230.785156 394.136719 L 231.160156 394.199219 L 231.539062 394.261719 L 231.914062 394.320312 L 232.292969 394.382812 L 232.667969 394.441406 L 233.046875 394.503906 L 233.421875 394.5625 L 233.800781 394.621094 L 234.175781 394.675781 L 234.550781 394.734375 L 234.929688 394.789062 L 235.304688 394.847656 L 235.683594 394.902344 L 236.058594 394.957031 L 236.4375 395.011719 L 236.8125 395.066406 L 237.191406 395.117188 L 237.566406 395.171875 L 237.945312 395.222656 L 238.320312 395.277344 L 238.699219 395.328125 L 239.074219 395.378906 L 239.453125 395.429688 L 239.828125 395.476562 L 240.207031 395.527344 L 240.582031 395.574219 L 240.960938 395.625 L 241.710938 395.71875 L 242.089844 395.765625 L 242.464844 395.8125 L 242.84375 395.859375 L 243.21875 395.902344 L 243.597656 395.949219 L 243.972656 395.992188 L 244.351562 396.035156 L 244.726562 396.082031 L 245.105469 396.125 L 245.480469 396.167969 L 245.859375 396.207031 L 246.234375 396.25 L 246.613281 396.292969 L 246.988281 396.332031 L 247.367188 396.375 L 248.117188 396.453125 L 248.496094 396.492188 L 248.871094 396.53125 L 249.25 396.570312 L 249.625 396.609375 L 250.003906 396.648438 L 250.378906 396.683594 L 250.757812 396.722656 L 251.132812 396.757812 L 251.511719 396.796875 L 251.886719 396.832031 L 252.265625 396.867188 L 252.640625 396.902344 L 253.019531 396.9375 L 253.394531 396.972656 L 253.773438 397.007812 L 254.148438 397.042969 L 254.527344 397.074219 L 254.902344 397.109375 L 255.277344 397.140625 L 255.65625 397.171875 L 256.03125 397.207031 L 256.410156 397.238281 L 256.785156 397.269531 L 257.164062 397.300781 L 257.539062 397.332031 L 257.917969 397.363281 L 258.292969 397.394531 L 258.671875 397.421875 L 259.046875 397.453125 L 259.425781 397.484375 L 259.800781 397.511719 L 260.179688 397.539062 L 260.554688 397.570312 L 260.933594 397.597656 L 261.308594 397.625 L 261.6875 397.652344 L 262.4375 397.707031 L 262.816406 397.734375 L 263.191406 397.761719 L 263.570312 397.789062 L 263.945312 397.816406 L 264.324219 397.839844 L 264.699219 397.867188 L 265.078125 397.890625 L 265.453125 397.917969 L 265.832031 397.941406 L 266.207031 397.96875 L 266.585938 397.992188 L 266.960938 398.015625 L 267.339844 398.039062 L 267.714844 398.0625 L 268.09375 398.085938 L 268.46875 398.109375 L 268.847656 398.132812 L 269.597656 398.179688 L 269.976562 398.199219 L 270.351562 398.222656 L 270.730469 398.246094 L 271.105469 398.265625 L 271.484375 398.289062 L 271.859375 398.308594 L 272.238281 398.328125 L 272.613281 398.351562 L 272.992188 398.371094 L 273.367188 398.390625 L 273.746094 398.410156 L 274.121094 398.433594 L 274.5 398.453125 L 274.875 398.472656 L 275.253906 398.492188 L 275.628906 398.511719 L 276.003906 398.527344 L 276.382812 398.546875 L 276.757812 398.566406 L 277.136719 398.585938 L 277.511719 398.601562 L 277.890625 398.621094 L 278.265625 398.640625 L 278.644531 398.65625 L 279.019531 398.675781 L 279.398438 398.691406 L 279.773438 398.707031 L 280.152344 398.726562 L 280.527344 398.742188 L 280.90625 398.757812 L 281.28125 398.777344 L 281.660156 398.792969 L 282.035156 398.808594 L 282.414062 398.824219 L 283.164062 398.855469 L 283.542969 398.871094 L 283.917969 398.886719 L 284.296875 398.902344 L 284.671875 398.917969 L 285.050781 398.933594 L 285.425781 398.949219 L 285.804688 398.960938 L 286.179688 398.976562 L 286.558594 398.992188 L 286.933594 399.003906 L 287.3125 399.019531 L 287.6875 399.03125 L 288.066406 399.046875 L 288.441406 399.0625 L 288.820312 399.074219 L 289.195312 399.085938 L 289.574219 399.101562 L 290.324219 399.125 L 290.703125 399.140625 L 291.078125 399.152344 L 291.457031 399.164062 L 291.832031 399.175781 L 292.210938 399.191406 L 292.585938 399.203125 L 292.964844 399.214844 L 293.339844 399.226562 L 293.71875 399.238281 L 294.09375 399.25 L 294.472656 399.261719 L 294.847656 399.273438 L 295.226562 399.285156 L 295.601562 399.296875 L 295.980469 399.308594 L 296.355469 399.316406 L 296.734375 399.328125 L 297.484375 399.351562 L 297.863281 399.359375 L 298.238281 399.371094 L 298.617188 399.382812 L 298.992188 399.394531 L 299.371094 399.402344 L 299.746094 399.414062 L 300.125 399.421875 L 300.5 399.433594 L 300.878906 399.441406 L 301.253906 399.453125 L 301.632812 399.460938 L 302.007812 399.472656 L 302.386719 399.480469 L 302.761719 399.492188 L 303.140625 399.5 L 303.515625 399.507812 L 303.890625 399.519531 L 304.269531 399.527344 L 304.644531 399.535156 L 305.023438 399.542969 L 305.398438 399.554688 L 305.777344 399.5625 L 306.152344 399.570312 L 306.53125 399.578125 L 306.90625 399.585938 L 307.285156 399.59375 L 307.660156 399.605469 L 308.039062 399.613281 L 308.414062 399.621094 L 308.792969 399.628906 L 309.167969 399.636719 L 309.546875 399.644531 L 309.921875 399.652344 L 310.300781 399.660156 L 311.050781 399.675781 L 311.429688 399.679688 L 311.804688 399.6875 L 312.183594 399.695312 L 312.558594 399.703125 L 312.9375 399.710938 L 313.3125 399.71875 L 313.691406 399.722656 L 314.066406 399.730469 L 314.445312 399.738281 L 314.820312 399.746094 L 315.199219 399.75 L 315.574219 399.757812 L 315.953125 399.765625 L 316.328125 399.769531 L 316.707031 399.777344 L 317.082031 399.785156 L 317.460938 399.789062 L 318.210938 399.804688 L 318.589844 399.808594 L 318.964844 399.816406 L 319.34375 399.820312 L 319.71875 399.828125 L 320.097656 399.832031 L 320.472656 399.839844 L 320.851562 399.84375 L 321.226562 399.851562 L 321.605469 399.855469 L 321.980469 399.863281 L 322.359375 399.867188 L 322.734375 399.871094 L 323.113281 399.878906 L 323.488281 399.882812 L 323.867188 399.890625 L 324.242188 399.894531 L 324.621094 399.898438 L 324.996094 399.90625 L 325.371094 399.910156 L 325.75 399.914062 L 326.125 399.917969 L 326.503906 399.925781 L 326.878906 399.929688 L 327.257812 399.933594 L 327.632812 399.9375 L 328.011719 399.945312 L 328.386719 399.949219 L 328.765625 399.953125 L 329.140625 399.957031 L 329.519531 399.960938 L 329.894531 399.96875 L 330.273438 399.972656 L 330.648438 399.976562 L 331.027344 399.980469 L 331.777344 399.988281 L 332.15625 399.992188 L 332.53125 399.996094 L 332.910156 400.003906 L 333.285156 400.007812 L 333.664062 400.011719 L 334.039062 400.015625 L 334.417969 400.019531 L 334.792969 400.023438 L 335.171875 400.027344 L 335.546875 400.03125 L 335.925781 400.035156 L 336.300781 400.039062 L 336.679688 400.042969 L 337.054688 400.046875 L 337.433594 400.050781 L 337.808594 400.054688 L 338.1875 400.054688 L 338.9375 400.0625 L 339.316406 400.066406 L 339.691406 400.070312 L 340.070312 400.074219 L 340.445312 400.078125 L 340.824219 400.082031 L 341.199219 400.085938 L 341.578125 400.085938 L 341.953125 400.089844 L 342.332031 400.09375 L 342.707031 400.097656 L 343.085938 400.101562 L 343.460938 400.105469 L 343.839844 400.105469 L 344.214844 400.109375 L 344.59375 400.113281 L 344.96875 400.117188 L 345.347656 400.121094 L 345.722656 400.121094 L 346.097656 400.125 L 346.476562 400.128906 L 346.851562 400.132812 L 347.230469 400.132812 L 347.605469 400.136719 L 347.984375 400.140625 L 348.359375 400.140625 L 348.738281 400.144531 L 349.113281 400.148438 L 349.492188 400.152344 L 349.867188 400.152344 L 350.246094 400.15625 L 350.621094 400.160156 L 351 400.160156 L 351.375 400.164062 L 351.753906 400.167969 L 352.128906 400.167969 L 352.507812 400.171875 L 352.882812 400.171875 L 353.257812 400.175781 L 353.636719 400.179688 L 354.011719 400.179688 L 354.390625 400.183594 L 354.765625 400.1875 L 355.144531 400.1875 L 355.519531 400.191406 L 355.898438 400.191406 L 356.273438 400.195312 L 356.652344 400.195312 L 357.027344 400.199219 L 357.40625 400.203125 L 357.78125 400.203125 L 358.160156 400.207031 L 358.535156 400.207031 L 358.914062 400.210938 L 359.289062 400.210938 L 359.664062 400.214844 L 360.042969 400.214844 L 360.417969 400.21875 L 360.796875 400.21875 L 361.171875 400.222656 L 361.550781 400.222656 L 361.925781 400.226562 L 362.304688 400.226562 L 362.679688 400.230469 L 363.058594 400.230469 L 363.433594 400.234375 L 363.8125 400.234375 L 364.1875 400.238281 L 364.566406 400.238281 L 364.941406 400.242188 L 365.320312 400.242188 L 365.695312 400.246094 L 366.449219 400.246094 L 366.824219 400.25 L 367.203125 400.25 L 367.578125 400.253906 L 367.957031 400.253906 L 368.332031 400.257812 L 369.085938 400.257812 L 369.464844 400.261719 L 369.839844 400.261719 L 370.21875 400.265625 L 370.972656 400.265625 L 371.347656 400.269531 L 371.726562 400.269531 L 372.101562 400.273438 L 372.855469 400.273438 L 373.234375 400.277344 L 373.984375 400.277344 L 374.363281 400.28125 L 375.117188 400.28125 L 375.492188 400.285156 L 375.871094 400.285156 L 376.246094 400.289062 L 377 400.289062 L 377.378906 400.292969 L 378.507812 400.292969 L 378.886719 400.296875 L 379.640625 400.296875 L 380.015625 400.300781 L 380.769531 400.300781 L 381.144531 400.304688 L 381.898438 400.304688 L 382.277344 400.308594 L 383.40625 400.308594 L 383.785156 400.3125 L 384.914062 400.3125 L 385.292969 400.316406 L 386.046875 400.316406 L 386.421875 400.320312 L 387.550781 400.320312 L 387.929688 400.324219 L 389.4375 400.324219 L 389.8125 400.328125 L 390.945312 400.328125 L 391.320312 400.332031 L 392.453125 400.332031 L 392.828125 400.335938 L 394.335938 400.335938 L 394.710938 400.339844 L 396.21875 400.339844 L 396.597656 400.34375 L 398.105469 400.34375 L 398.480469 400.347656 L 400.367188 400.347656 L 400.742188 400.351562 L 402.25 400.351562 L 402.625 400.355469 L 404.511719 400.355469 L 404.886719 400.359375 L 407.148438 400.359375 L 407.527344 400.363281 L 409.785156 400.363281 L 410.164062 400.367188 L 412.800781 400.367188 L 413.179688 400.371094 L 415.816406 400.371094 L 416.191406 400.375 L 419.207031 400.375 L 419.585938 400.378906 L 422.597656 400.378906 L 422.976562 400.382812 L 426.746094 400.382812 L 427.121094 400.386719 L 431.265625 400.386719 L 431.644531 400.390625 L 436.542969 400.390625 L 436.917969 400.394531 L 442.574219 400.394531 L 442.949219 400.398438 L 449.734375 400.398438 L 450.109375 400.402344 L 458.398438 400.402344 "/>
<path style="fill:none;stroke-width:0.75;stroke-linecap:round;stroke-linejoin:round;stroke:rgb(0%,0%,0%);stroke-opacity:1;stroke-miterlimit:10;" d="M 81.929688 318.515625 L 82.304688 318.71875 L 82.683594 318.921875 L 83.058594 319.125 L 83.4375 319.328125 L 83.8125 319.53125 L 84.191406 319.734375 L 84.566406 319.9375 L 84.945312 320.136719 L 85.320312 320.339844 L 85.699219 320.539062 L 86.074219 320.738281 L 86.453125 320.9375 L 86.828125 321.136719 L 87.207031 321.335938 L 87.582031 321.53125 L 87.957031 321.730469 L 88.335938 321.925781 L 88.710938 322.121094 L 89.089844 322.316406 L 89.464844 322.511719 L 89.84375 322.707031 L 90.21875 322.902344 L 90.597656 323.09375 L 90.972656 323.289062 L 91.351562 323.480469 L 91.726562 323.671875 L 92.105469 323.867188 L 92.480469 324.058594 L 92.859375 324.246094 L 93.234375 324.4375 L 93.613281 324.628906 L 93.988281 324.816406 L 94.367188 325.007812 L 95.117188 325.382812 L 95.496094 325.570312 L 95.871094 325.757812 L 96.25 325.945312 L 96.625 326.128906 L 97.003906 326.316406 L 97.378906 326.5 L 97.757812 326.6875 L 98.132812 326.871094 L 98.511719 327.054688 L 98.886719 327.238281 L 99.265625 327.421875 L 99.640625 327.601562 L 100.019531 327.785156 L 100.394531 327.964844 L 100.773438 328.148438 L 101.148438 328.328125 L 101.527344 328.507812 L 102.277344 328.867188 L 102.65625 329.046875 L 103.03125 329.222656 L 103.410156 329.402344 L 103.785156 329.578125 L 104.164062 329.757812 L 104.539062 329.933594 L 104.917969 330.109375 L 105.292969 330.285156 L 105.671875 330.460938 L 106.046875 330.636719 L 106.425781 330.808594 L 106.800781 330.984375 L 107.179688 331.15625 L 107.554688 331.332031 L 107.933594 331.503906 L 108.308594 331.675781 L 108.6875 331.847656 L 109.4375 332.191406 L 109.816406 332.359375 L 110.191406 332.53125 L 110.570312 332.699219 L 110.945312 332.871094 L 111.324219 333.039062 L 111.699219 333.207031 L 112.078125 333.375 L 112.453125 333.542969 L 112.832031 333.710938 L 113.207031 333.875 L 113.585938 334.042969 L 113.960938 334.207031 L 114.339844 334.375 L 114.714844 334.539062 L 115.09375 334.703125 L 115.84375 335.03125 L 116.222656 335.195312 L 116.597656 335.359375 L 116.976562 335.519531 L 117.351562 335.683594 L 117.730469 335.84375 L 118.105469 336.007812 L 118.484375 336.167969 L 118.859375 336.328125 L 119.238281 336.488281 L 119.613281 336.648438 L 119.992188 336.808594 L 120.367188 336.964844 L 120.746094 337.125 L 121.121094 337.28125 L 121.5 337.441406 L 121.875 337.597656 L 122.253906 337.753906 L 123.003906 338.066406 L 123.382812 338.222656 L 123.757812 338.378906 L 124.136719 338.535156 L 124.511719 338.6875 L 124.890625 338.84375 L 125.265625 338.996094 L 125.644531 339.152344 L 126.019531 339.304688 L 126.398438 339.457031 L 126.773438 339.609375 L 127.152344 339.761719 L 127.527344 339.914062 L 127.90625 340.0625 L 128.28125 340.214844 L 128.660156 340.363281 L 129.035156 340.515625 L 129.414062 340.664062 L 129.789062 340.8125 L 130.164062 340.964844 L 130.542969 341.113281 L 130.917969 341.261719 L 131.296875 341.40625 L 131.671875 341.554688 L 132.050781 341.703125 L 132.425781 341.847656 L 132.804688 341.996094 L 133.179688 342.140625 L 133.558594 342.289062 L 133.933594 342.433594 L 134.3125 342.578125 L 134.6875 342.722656 L 135.066406 342.867188 L 135.441406 343.011719 L 135.820312 343.152344 L 136.195312 343.296875 L 136.574219 343.4375 L 136.949219 343.582031 L 137.324219 343.722656 L 137.703125 343.867188 L 138.078125 344.007812 L 138.457031 344.148438 L 138.832031 344.289062 L 139.210938 344.429688 L 139.585938 344.570312 L 139.964844 344.707031 L 140.339844 344.847656 L 140.71875 344.988281 L 141.09375 345.125 L 141.472656 345.261719 L 141.847656 345.402344 L 142.226562 345.539062 L 142.601562 345.675781 L 142.980469 345.8125 L 143.730469 346.085938 L 144.109375 346.222656 L 144.484375 346.355469 L 144.863281 346.492188 L 145.238281 346.625 L 145.617188 346.761719 L 145.992188 346.894531 L 146.371094 347.027344 L 146.746094 347.164062 L 147.125 347.296875 L 147.5 347.429688 L 147.878906 347.558594 L 148.253906 347.691406 L 148.632812 347.824219 L 149.007812 347.957031 L 149.386719 348.085938 L 149.761719 348.21875 L 150.140625 348.347656 L 150.515625 348.476562 L 150.890625 348.609375 L 151.269531 348.738281 L 151.644531 348.867188 L 152.023438 348.996094 L 152.398438 349.125 L 152.777344 349.253906 L 153.152344 349.378906 L 153.53125 349.507812 L 153.90625 349.636719 L 154.285156 349.761719 L 154.660156 349.890625 L 155.039062 350.015625 L 155.414062 350.140625 L 155.792969 350.265625 L 156.167969 350.390625 L 156.546875 350.515625 L 156.921875 350.640625 L 157.300781 350.765625 L 158.050781 351.015625 L 158.429688 351.136719 L 158.804688 351.261719 L 159.183594 351.382812 L 159.558594 351.507812 L 159.9375 351.628906 L 160.3125 351.75 L 160.691406 351.871094 L 161.066406 351.992188 L 161.445312 352.113281 L 161.820312 352.234375 L 162.199219 352.355469 L 162.574219 352.476562 L 162.953125 352.59375 L 163.328125 352.714844 L 163.707031 352.835938 L 164.082031 352.953125 L 164.460938 353.070312 L 164.835938 353.191406 L 165.210938 353.308594 L 165.589844 353.425781 L 165.964844 353.542969 L 166.34375 353.660156 L 166.71875 353.777344 L 167.097656 353.894531 L 167.472656 354.011719 L 167.851562 354.125 L 168.226562 354.242188 L 168.605469 354.355469 L 168.980469 354.472656 L 169.359375 354.585938 L 169.734375 354.703125 L 170.113281 354.816406 L 170.488281 354.929688 L 170.867188 355.042969 L 171.617188 355.269531 L 171.996094 355.382812 L 172.371094 355.496094 L 172.75 355.609375 L 173.125 355.71875 L 173.503906 355.832031 L 173.878906 355.941406 L 174.257812 356.054688 L 174.632812 356.164062 L 175.011719 356.277344 L 175.386719 356.386719 L 175.765625 356.496094 L 176.140625 356.605469 L 176.519531 356.714844 L 176.894531 356.824219 L 177.273438 356.933594 L 177.648438 357.042969 L 178.027344 357.152344 L 178.402344 357.257812 L 178.777344 357.367188 L 179.15625 357.472656 L 179.53125 357.582031 L 179.910156 357.6875 L 180.285156 357.796875 L 180.664062 357.902344 L 181.039062 358.007812 L 181.417969 358.113281 L 181.792969 358.21875 L 182.171875 358.324219 L 182.546875 358.429688 L 182.925781 358.535156 L 183.300781 358.640625 L 183.679688 358.746094 L 184.054688 358.847656 L 184.433594 358.953125 L 184.808594 359.054688 L 185.1875 359.160156 L 185.5625 359.261719 L 185.9375 359.367188 L 186.316406 359.46875 L 186.691406 359.570312 L 187.070312 359.671875 L 187.445312 359.773438 L 187.824219 359.875 L 188.199219 359.976562 L 188.578125 360.078125 L 188.953125 360.179688 L 189.332031 360.28125 L 189.707031 360.378906 L 190.085938 360.480469 L 190.460938 360.582031 L 190.839844 360.679688 L 191.214844 360.78125 L 191.59375 360.878906 L 191.96875 360.976562 L 192.347656 361.074219 L 192.722656 361.175781 L 193.097656 361.273438 L 193.476562 361.371094 L 193.851562 361.46875 L 194.230469 361.566406 L 194.605469 361.664062 L 194.984375 361.757812 L 195.359375 361.855469 L 195.738281 361.953125 L 196.113281 362.046875 L 196.492188 362.144531 L 196.867188 362.238281 L 197.246094 362.335938 L 197.621094 362.429688 L 198 362.523438 L 198.375 362.621094 L 198.753906 362.714844 L 199.503906 362.902344 L 199.882812 362.996094 L 200.257812 363.089844 L 200.636719 363.183594 L 201.011719 363.277344 L 201.390625 363.371094 L 201.765625 363.460938 L 202.144531 363.554688 L 202.519531 363.644531 L 202.898438 363.738281 L 203.273438 363.828125 L 203.652344 363.921875 L 204.027344 364.011719 L 204.40625 364.105469 L 204.78125 364.195312 L 205.160156 364.285156 L 205.535156 364.375 L 205.914062 364.464844 L 206.664062 364.644531 L 207.042969 364.734375 L 207.417969 364.824219 L 207.796875 364.914062 L 208.171875 365 L 208.550781 365.089844 L 208.925781 365.179688 L 209.304688 365.265625 L 209.679688 365.355469 L 210.058594 365.441406 L 210.433594 365.527344 L 210.8125 365.617188 L 211.1875 365.703125 L 211.566406 365.789062 L 211.941406 365.875 L 212.320312 365.960938 L 212.695312 366.050781 L 213.074219 366.136719 L 213.449219 366.21875 L 213.824219 366.304688 L 214.203125 366.390625 L 214.578125 366.476562 L 214.957031 366.5625 L 215.332031 366.644531 L 215.710938 366.730469 L 216.085938 366.8125 L 216.464844 366.898438 L 216.839844 366.980469 L 217.21875 367.066406 L 217.59375 367.148438 L 217.972656 367.230469 L 218.347656 367.316406 L 218.726562 367.398438 L 219.101562 367.480469 L 219.480469 367.5625 L 220.230469 367.726562 L 220.609375 367.808594 L 220.984375 367.890625 L 221.363281 367.972656 L 221.738281 368.050781 L 222.117188 368.132812 L 222.492188 368.214844 L 222.871094 368.292969 L 223.246094 368.375 L 223.625 368.453125 L 224 368.535156 L 224.378906 368.613281 L 224.753906 368.695312 L 225.132812 368.773438 L 225.507812 368.851562 L 225.886719 368.929688 L 226.261719 369.011719 L 226.640625 369.089844 L 227.390625 369.246094 L 227.769531 369.324219 L 228.144531 369.402344 L 228.523438 369.476562 L 228.898438 369.554688 L 229.277344 369.632812 L 229.652344 369.710938 L 230.03125 369.785156 L 230.40625 369.863281 L 230.785156 369.9375 L 231.160156 370.015625 L 231.539062 370.089844 L 231.914062 370.167969 L 232.292969 370.242188 L 232.667969 370.316406 L 233.046875 370.394531 L 233.421875 370.46875 L 233.800781 370.542969 L 234.550781 370.691406 L 234.929688 370.765625 L 235.304688 370.839844 L 235.683594 370.914062 L 236.058594 370.988281 L 236.4375 371.0625 L 236.8125 371.136719 L 237.191406 371.207031 L 237.566406 371.28125 L 237.945312 371.355469 L 238.320312 371.425781 L 238.699219 371.5 L 239.074219 371.570312 L 239.453125 371.644531 L 239.828125 371.714844 L 240.207031 371.789062 L 240.582031 371.859375 L 240.960938 371.929688 L 241.335938 372 L 241.710938 372.074219 L 242.089844 372.144531 L 242.464844 372.214844 L 242.84375 372.285156 L 243.21875 372.355469 L 243.597656 372.425781 L 243.972656 372.496094 L 244.351562 372.566406 L 244.726562 372.632812 L 245.105469 372.703125 L 245.480469 372.773438 L 245.859375 372.84375 L 246.234375 372.910156 L 246.613281 372.980469 L 246.988281 373.046875 L 247.367188 373.117188 L 247.742188 373.183594 L 248.117188 373.253906 L 248.496094 373.320312 L 248.871094 373.390625 L 249.25 373.457031 L 249.625 373.523438 L 250.003906 373.589844 L 250.378906 373.660156 L 250.757812 373.726562 L 251.132812 373.792969 L 251.511719 373.859375 L 251.886719 373.925781 L 252.265625 373.992188 L 252.640625 374.058594 L 253.019531 374.121094 L 253.394531 374.1875 L 253.773438 374.253906 L 254.148438 374.320312 L 254.527344 374.386719 L 254.902344 374.449219 L 255.277344 374.515625 L 255.65625 374.578125 L 256.03125 374.644531 L 256.410156 374.707031 L 256.785156 374.773438 L 257.164062 374.835938 L 257.539062 374.902344 L 257.917969 374.964844 L 258.292969 375.027344 L 258.671875 375.089844 L 259.046875 375.15625 L 259.425781 375.21875 L 259.800781 375.28125 L 260.179688 375.34375 L 260.554688 375.40625 L 260.933594 375.46875 L 261.308594 375.53125 L 261.6875 375.59375 L 262.4375 375.71875 L 262.816406 375.78125 L 263.191406 375.839844 L 263.570312 375.902344 L 263.945312 375.964844 L 264.324219 376.023438 L 264.699219 376.085938 L 265.078125 376.148438 L 265.453125 376.207031 L 265.832031 376.269531 L 266.207031 376.328125 L 266.585938 376.386719 L 266.960938 376.449219 L 267.339844 376.507812 L 267.714844 376.566406 L 268.09375 376.628906 L 268.46875 376.6875 L 268.847656 376.746094 L 269.597656 376.863281 L 269.976562 376.921875 L 270.351562 376.980469 L 270.730469 377.039062 L 271.105469 377.097656 L 271.484375 377.15625 L 271.859375 377.214844 L 272.238281 377.273438 L 272.613281 377.332031 L 272.992188 377.390625 L 273.367188 377.445312 L 273.746094 377.503906 L 274.121094 377.5625 L 274.5 377.617188 L 274.875 377.675781 L 275.253906 377.734375 L 275.628906 377.789062 L 276.003906 377.847656 L 276.382812 377.902344 L 276.757812 377.957031 L 277.136719 378.015625 L 277.511719 378.070312 L 277.890625 378.125 L 278.265625 378.183594 L 278.644531 378.238281 L 279.019531 378.292969 L 279.398438 378.347656 L 279.773438 378.402344 L 280.152344 378.457031 L 280.527344 378.511719 L 280.90625 378.566406 L 281.28125 378.621094 L 281.660156 378.675781 L 282.035156 378.730469 L 282.414062 378.785156 L 283.164062 378.894531 L 283.542969 378.949219 L 283.917969 379 L 284.296875 379.054688 L 284.671875 379.109375 L 285.050781 379.160156 L 285.425781 379.214844 L 285.804688 379.269531 L 286.179688 379.320312 L 286.558594 379.375 L 286.933594 379.425781 L 287.3125 379.476562 L 287.6875 379.53125 L 288.066406 379.582031 L 288.441406 379.636719 L 288.820312 379.6875 L 289.195312 379.738281 L 289.574219 379.789062 L 289.949219 379.84375 L 290.324219 379.894531 L 290.703125 379.945312 L 291.078125 379.996094 L 291.457031 380.046875 L 291.832031 380.097656 L 292.210938 380.148438 L 292.585938 380.199219 L 292.964844 380.25 L 293.339844 380.300781 L 293.71875 380.351562 L 294.09375 380.402344 L 294.472656 380.449219 L 294.847656 380.5 L 295.226562 380.550781 L 295.601562 380.601562 L 295.980469 380.648438 L 296.355469 380.699219 L 296.734375 380.75 L 297.109375 380.796875 L 297.484375 380.847656 L 297.863281 380.894531 L 298.238281 380.945312 L 298.617188 380.992188 L 298.992188 381.042969 L 299.371094 381.089844 L 299.746094 381.136719 L 300.125 381.1875 L 300.5 381.234375 L 300.878906 381.28125 L 301.253906 381.332031 L 301.632812 381.378906 L 302.007812 381.425781 L 302.386719 381.472656 L 302.761719 381.519531 L 303.140625 381.566406 L 303.890625 381.660156 L 304.269531 381.707031 L 304.644531 381.753906 L 305.023438 381.800781 L 305.398438 381.847656 L 305.777344 381.894531 L 306.152344 381.941406 L 306.53125 381.988281 L 306.90625 382.035156 L 307.285156 382.078125 L 307.660156 382.125 L 308.039062 382.171875 L 308.414062 382.214844 L 308.792969 382.261719 L 309.167969 382.308594 L 309.546875 382.351562 L 309.921875 382.398438 L 310.300781 382.441406 L 310.675781 382.488281 L 311.050781 382.53125 L 311.429688 382.578125 L 311.804688 382.621094 L 312.183594 382.667969 L 312.558594 382.710938 L 312.9375 382.753906 L 313.3125 382.800781 L 313.691406 382.84375 L 314.066406 382.886719 L 314.445312 382.929688 L 314.820312 382.976562 L 315.199219 383.019531 L 315.574219 383.0625 L 315.953125 383.105469 L 316.328125 383.148438 L 316.707031 383.191406 L 317.082031 383.234375 L 317.460938 383.277344 L 318.210938 383.363281 L 318.589844 383.40625 L 318.964844 383.449219 L 319.34375 383.492188 L 319.71875 383.53125 L 320.097656 383.574219 L 320.472656 383.617188 L 320.851562 383.660156 L 321.226562 383.703125 L 321.605469 383.742188 L 321.980469 383.785156 L 322.359375 383.828125 L 322.734375 383.867188 L 323.113281 383.910156 L 323.488281 383.949219 L 323.867188 383.992188 L 324.242188 384.03125 L 324.621094 384.074219 L 324.996094 384.113281 L 325.371094 384.15625 L 325.75 384.195312 L 326.125 384.238281 L 326.503906 384.277344 L 326.878906 384.316406 L 327.257812 384.359375 L 327.632812 384.398438 L 328.011719 384.4375 L 328.386719 384.476562 L 328.765625 384.515625 L 329.140625 384.558594 L 329.519531 384.597656 L 329.894531 384.636719 L 330.273438 384.675781 L 330.648438 384.714844 L 331.027344 384.753906 L 331.777344 384.832031 L 332.15625 384.871094 L 332.53125 384.910156 L 332.910156 384.949219 L 333.285156 384.988281 L 333.664062 385.027344 L 334.039062 385.066406 L 334.417969 385.101562 L 334.792969 385.140625 L 335.171875 385.179688 L 335.546875 385.21875 L 335.925781 385.257812 L 336.300781 385.292969 L 336.679688 385.332031 L 337.054688 385.371094 L 337.433594 385.40625 L 337.808594 385.445312 L 338.1875 385.480469 L 338.5625 385.519531 L 338.9375 385.554688 L 339.316406 385.59375 L 339.691406 385.628906 L 340.070312 385.667969 L 340.445312 385.703125 L 340.824219 385.742188 L 341.199219 385.777344 L 341.578125 385.816406 L 341.953125 385.851562 L 342.332031 385.886719 L 342.707031 385.921875 L 343.085938 385.960938 L 343.460938 385.996094 L 343.839844 386.03125 L 344.214844 386.066406 L 344.59375 386.105469 L 344.96875 386.140625 L 345.347656 386.175781 L 346.097656 386.246094 L 346.476562 386.28125 L 346.851562 386.316406 L 347.230469 386.351562 L 347.605469 386.386719 L 347.984375 386.421875 L 348.359375 386.457031 L 348.738281 386.492188 L 349.113281 386.527344 L 349.492188 386.5625 L 349.867188 386.597656 L 350.246094 386.632812 L 350.621094 386.664062 L 351 386.699219 L 351.375 386.734375 L 351.753906 386.769531 L 352.128906 386.804688 L 352.507812 386.835938 L 353.257812 386.90625 L 353.636719 386.9375 L 354.011719 386.972656 L 354.390625 387.003906 L 354.765625 387.039062 L 355.144531 387.074219 L 355.519531 387.105469 L 355.898438 387.140625 L 356.273438 387.171875 L 356.652344 387.207031 L 357.027344 387.238281 L 357.40625 387.273438 L 357.78125 387.304688 L 358.160156 387.335938 L 358.535156 387.371094 L 358.914062 387.402344 L 359.289062 387.433594 L 359.664062 387.46875 L 360.042969 387.5 L 360.417969 387.53125 L 360.796875 387.5625 L 361.171875 387.597656 L 361.550781 387.628906 L 361.925781 387.660156 L 362.304688 387.691406 L 362.679688 387.722656 L 363.058594 387.757812 L 363.433594 387.789062 L 363.8125 387.820312 L 364.1875 387.851562 L 364.566406 387.882812 L 364.941406 387.914062 L 365.320312 387.945312 L 365.695312 387.976562 L 366.074219 388.007812 L 366.824219 388.070312 L 367.203125 388.101562 L 367.578125 388.128906 L 367.957031 388.160156 L 368.332031 388.191406 L 368.710938 388.222656 L 369.085938 388.253906 L 369.464844 388.285156 L 369.839844 388.3125 L 370.21875 388.34375 L 370.59375 388.375 L 370.972656 388.402344 L 371.347656 388.433594 L 371.726562 388.464844 L 372.101562 388.492188 L 372.480469 388.523438 L 372.855469 388.554688 L 373.234375 388.582031 L 373.609375 388.613281 L 373.984375 388.640625 L 374.363281 388.671875 L 374.738281 388.703125 L 375.117188 388.730469 L 375.492188 388.757812 L 375.871094 388.789062 L 376.246094 388.816406 L 376.625 388.847656 L 377 388.875 L 377.378906 388.90625 L 377.753906 388.933594 L 378.132812 388.960938 L 378.507812 388.992188 L 378.886719 389.019531 L 379.261719 389.046875 L 379.640625 389.078125 L 380.015625 389.105469 L 380.394531 389.132812 L 381.144531 389.1875 L 381.523438 389.21875 L 381.898438 389.246094 L 382.277344 389.273438 L 382.652344 389.300781 L 383.03125 389.328125 L 383.40625 389.355469 L 383.785156 389.382812 L 384.160156 389.410156 L 384.539062 389.4375 L 384.914062 389.464844 L 385.292969 389.496094 L 385.667969 389.519531 L 386.046875 389.546875 L 386.421875 389.574219 L 386.800781 389.601562 L 387.550781 389.65625 L 387.929688 389.683594 L 388.304688 389.710938 L 388.683594 389.738281 L 389.058594 389.765625 L 389.4375 389.789062 L 389.8125 389.816406 L 390.191406 389.84375 L 390.566406 389.871094 L 390.945312 389.898438 L 391.320312 389.921875 L 391.699219 389.949219 L 392.074219 389.976562 L 392.453125 390 L 392.828125 390.027344 L 393.207031 390.054688 L 393.582031 390.078125 L 393.960938 390.105469 L 394.335938 390.132812 L 394.710938 390.15625 L 395.089844 390.183594 L 395.464844 390.207031 L 395.84375 390.234375 L 396.21875 390.257812 L 396.597656 390.285156 L 396.972656 390.308594 L 397.351562 390.335938 L 397.726562 390.359375 L 398.105469 390.386719 L 398.480469 390.410156 L 398.859375 390.433594 L 399.234375 390.460938 L 399.613281 390.484375 L 399.988281 390.511719 L 400.367188 390.535156 L 400.742188 390.558594 L 401.121094 390.585938 L 401.871094 390.632812 L 402.25 390.65625 L 402.625 390.683594 L 403.003906 390.707031 L 403.378906 390.730469 L 403.757812 390.753906 L 404.132812 390.777344 L 404.511719 390.804688 L 404.886719 390.828125 L 405.265625 390.851562 L 405.640625 390.875 L 406.019531 390.898438 L 406.394531 390.921875 L 406.773438 390.945312 L 407.148438 390.96875 L 407.527344 390.992188 L 408.277344 391.039062 L 408.65625 391.0625 L 409.03125 391.085938 L 409.410156 391.109375 L 409.785156 391.132812 L 410.164062 391.15625 L 410.539062 391.179688 L 410.917969 391.203125 L 411.292969 391.226562 L 411.671875 391.25 L 412.046875 391.273438 L 412.425781 391.296875 L 412.800781 391.316406 L 413.179688 391.339844 L 413.554688 391.363281 L 413.933594 391.386719 L 414.308594 391.410156 L 414.6875 391.429688 L 415.4375 391.476562 L 415.816406 391.5 L 416.191406 391.519531 L 416.570312 391.542969 L 416.945312 391.566406 L 417.324219 391.585938 L 417.699219 391.609375 L 418.078125 391.632812 L 418.453125 391.652344 L 418.832031 391.675781 L 419.207031 391.699219 L 419.585938 391.71875 L 419.960938 391.742188 L 420.339844 391.761719 L 420.714844 391.785156 L 421.09375 391.804688 L 421.46875 391.828125 L 421.847656 391.847656 L 422.222656 391.871094 L 422.597656 391.890625 L 422.976562 391.914062 L 423.351562 391.933594 L 423.730469 391.957031 L 424.105469 391.976562 L 424.484375 391.996094 L 424.859375 392.019531 L 425.238281 392.039062 L 425.613281 392.0625 L 425.992188 392.082031 L 426.367188 392.101562 L 426.746094 392.125 L 427.121094 392.144531 L 427.5 392.164062 L 427.875 392.183594 L 428.253906 392.207031 L 428.628906 392.226562 L 429.007812 392.246094 L 429.382812 392.265625 L 429.757812 392.289062 L 430.136719 392.308594 L 430.511719 392.328125 L 430.890625 392.347656 L 431.265625 392.367188 L 431.644531 392.386719 L 432.019531 392.410156 L 432.398438 392.429688 L 432.773438 392.449219 L 433.152344 392.46875 L 433.527344 392.488281 L 433.90625 392.507812 L 434.28125 392.527344 L 434.660156 392.546875 L 435.035156 392.566406 L 435.414062 392.585938 L 436.164062 392.625 L 436.542969 392.644531 L 436.917969 392.664062 L 437.296875 392.683594 L 437.671875 392.703125 L 438.050781 392.722656 L 438.425781 392.742188 L 438.804688 392.761719 L 439.179688 392.78125 L 439.558594 392.800781 L 439.933594 392.820312 L 440.3125 392.835938 L 440.6875 392.855469 L 441.066406 392.875 L 441.441406 392.894531 L 441.820312 392.914062 L 442.195312 392.933594 L 442.574219 392.949219 L 443.324219 392.988281 L 443.703125 393.007812 L 444.078125 393.023438 L 444.457031 393.042969 L 444.832031 393.0625 L 445.210938 393.082031 L 445.585938 393.097656 L 445.964844 393.117188 L 446.339844 393.136719 L 446.71875 393.152344 L 447.09375 393.171875 L 447.472656 393.191406 L 447.847656 393.207031 L 448.226562 393.226562 L 448.601562 393.242188 L 448.980469 393.261719 L 449.355469 393.28125 L 449.734375 393.296875 L 450.109375 393.316406 L 450.484375 393.332031 L 450.863281 393.351562 L 451.238281 393.367188 L 451.617188 393.386719 L 451.992188 393.402344 L 452.371094 393.421875 L 452.746094 393.4375 L 453.125 393.457031 L 453.5 393.472656 L 453.878906 393.492188 L 454.253906 393.507812 L 454.632812 393.527344 L 455.007812 393.542969 L 455.386719 393.558594 L 455.761719 393.578125 L 456.140625 393.59375 L 456.515625 393.609375 L 456.894531 393.628906 L 457.269531 393.644531 L 457.644531 393.664062 L 458.023438 393.679688 L 458.398438 393.695312 "/>
<g clip-path="url(#clip1)" clip-rule="nonzero">
<path style="fill:none;stroke-width:0.75;stroke-linecap:round;stroke-linejoin:round;stroke:rgb(0%,0%,0%);stroke-opacity:1;stroke-miterlimit:10;" d="M 59.039062 400.417969 L 473.761719 400.417969 "/>
</g>
<g clip-path="url(#clip2)" clip-rule="nonzero">
<path style="fill:none;stroke-width:0.75;stroke-linecap:round;stroke-linejoin:round;stroke:rgb(0%,0%,0%);stroke-opacity:1;stroke-miterlimit:10;" d="M 81.929688 430.558594 L 81.929688 59.039062 "/>
</g>
</g>
</svg>
