<?xml version="1.0" encoding="UTF-8" standalone="no"?>
<svg
   width="504pt"
   height="504pt"
   viewBox="0 0 504 504"
   version="1.1"
   id="svg2379"
   sodipodi:docname="bivsq1.svg"
   inkscape:version="1.1.2 (1:1.1+202202050950+0a00cf5339)"
   inkscape:export-filename="/home/asu/na/s/git/arnabc74.github.io/prob2_2025/image/bivsq1.png"
   inkscape:export-xdpi="143.216"
   inkscape:export-ydpi="143.216"
   xmlns:inkscape="http://www.inkscape.org/namespaces/inkscape"
   xmlns:sodipodi="http://sodipodi.sourceforge.net/DTD/sodipodi-0.dtd"
   xmlns="http://www.w3.org/2000/svg"
   xmlns:svg="http://www.w3.org/2000/svg">
  <sodipodi:namedview
     id="namedview2381"
     pagecolor="#ffffff"
     bordercolor="#666666"
     borderopacity="1.0"
     inkscape:pageshadow="2"
     inkscape:pageopacity="0.0"
     inkscape:pagecheckerboard="0"
     inkscape:document-units="pt"
     showgrid="false"
     inkscape:zoom="0.6875"
     inkscape:cx="-48"
     inkscape:cy="336"
     inkscape:window-width="1362"
     inkscape:window-height="727"
     inkscape:window-x="0"
     inkscape:window-y="20"
     inkscape:window-maximized="1"
     inkscape:current-layer="svg2379" />
  <defs
     id="defs2300">
    <clipPath
       id="clip1">
      <path
         d="M 59.039062 382 L 473.757812 382 L 473.757812 383 L 59.039062 383 Z M 59.039062 382 "
         id="path2246" />
    </clipPath>
    <clipPath
       id="clip2">
      <path
         d="M 59.039062 347 L 473.757812 347 L 473.757812 349 L 59.039062 349 Z M 59.039062 347 "
         id="path2249" />
    </clipPath>
    <clipPath
       id="clip3">
      <path
         d="M 59.039062 313 L 473.757812 313 L 473.757812 314 L 59.039062 314 Z M 59.039062 313 "
         id="path2252" />
    </clipPath>
    <clipPath
       id="clip4">
      <path
         d="M 59.039062 278 L 473.757812 278 L 473.757812 280 L 59.039062 280 Z M 59.039062 278 "
         id="path2255" />
    </clipPath>
    <clipPath
       id="clip5">
      <path
         d="M 59.039062 244 L 473.757812 244 L 473.757812 246 L 59.039062 246 Z M 59.039062 244 "
         id="path2258" />
    </clipPath>
    <clipPath
       id="clip6">
      <path
         d="M 59.039062 210 L 473.757812 210 L 473.757812 211 L 59.039062 211 Z M 59.039062 210 "
         id="path2261" />
    </clipPath>
    <clipPath
       id="clip7">
      <path
         d="M 59.039062 175 L 473.757812 175 L 473.757812 177 L 59.039062 177 Z M 59.039062 175 "
         id="path2264" />
    </clipPath>
    <clipPath
       id="clip8">
      <path
         d="M 59.039062 141 L 473.757812 141 L 473.757812 142 L 59.039062 142 Z M 59.039062 141 "
         id="path2267" />
    </clipPath>
    <clipPath
       id="clip9">
      <path
         d="M 59.039062 106 L 473.757812 106 L 473.757812 108 L 59.039062 108 Z M 59.039062 106 "
         id="path2270" />
    </clipPath>
    <clipPath
       id="clip10">
      <path
         d="M 128 59.039062 L 130 59.039062 L 130 430.558594 L 128 430.558594 Z M 128 59.039062 "
         id="path2273" />
    </clipPath>
    <clipPath
       id="clip11">
      <path
         d="M 162 59.039062 L 164 59.039062 L 164 430.558594 L 162 430.558594 Z M 162 59.039062 "
         id="path2276" />
    </clipPath>
    <clipPath
       id="clip12">
      <path
         d="M 197 59.039062 L 198 59.039062 L 198 430.558594 L 197 430.558594 Z M 197 59.039062 "
         id="path2279" />
    </clipPath>
    <clipPath
       id="clip13">
      <path
         d="M 231 59.039062 L 233 59.039062 L 233 430.558594 L 231 430.558594 Z M 231 59.039062 "
         id="path2282" />
    </clipPath>
    <clipPath
       id="clip14">
      <path
         d="M 266 59.039062 L 267 59.039062 L 267 430.558594 L 266 430.558594 Z M 266 59.039062 "
         id="path2285" />
    </clipPath>
    <clipPath
       id="clip15">
      <path
         d="M 300 59.039062 L 302 59.039062 L 302 430.558594 L 300 430.558594 Z M 300 59.039062 "
         id="path2288" />
    </clipPath>
    <clipPath
       id="clip16">
      <path
         d="M 334 59.039062 L 336 59.039062 L 336 430.558594 L 334 430.558594 Z M 334 59.039062 "
         id="path2291" />
    </clipPath>
    <clipPath
       id="clip17">
      <path
         d="M 369 59.039062 L 370 59.039062 L 370 430.558594 L 369 430.558594 Z M 369 59.039062 "
         id="path2294" />
    </clipPath>
    <clipPath
       id="clip18">
      <path
         d="M 403 59.039062 L 405 59.039062 L 405 430.558594 L 403 430.558594 Z M 403 59.039062 "
         id="path2297" />
    </clipPath>
  </defs>
  <path
     style="fill:none;stroke:#000000;stroke-width:2.25;stroke-linecap:round;stroke-linejoin:round;stroke-miterlimit:10;stroke-opacity:1"
     d="M 94.398438,416.80078 H 438.39844 V 72.800781 H 94.398438 Z m 0,0"
     id="path2304" />
  <path
     style="clip-rule:nonzero;fill:none;stroke:#000000;stroke-width:0.75;stroke-linecap:round;stroke-linejoin:round;stroke-miterlimit:10;stroke-opacity:1"
     d="M 92.853282,382.39844 H 440.02577"
     id="path2306" />
  <path
     style="clip-rule:nonzero;fill:none;stroke:#000000;stroke-width:0.75;stroke-linecap:round;stroke-linejoin:round;stroke-miterlimit:10;stroke-opacity:1"
     d="M 92.853282,348 H 440.02577"
     id="path2310" />
  <path
     style="clip-rule:nonzero;fill:none;stroke:#000000;stroke-width:0.75;stroke-linecap:round;stroke-linejoin:round;stroke-miterlimit:10;stroke-opacity:1"
     d="M 92.853282,313.60156 H 440.02577"
     id="path2314" />
  <path
     style="clip-rule:nonzero;fill:none;stroke:#000000;stroke-width:0.75;stroke-linecap:round;stroke-linejoin:round;stroke-miterlimit:10;stroke-opacity:1"
     d="M 92.853282,279.19922 H 440.02577"
     id="path2318" />
  <path
     style="clip-rule:nonzero;fill:none;stroke:#000000;stroke-width:0.75;stroke-linecap:round;stroke-linejoin:round;stroke-miterlimit:10;stroke-opacity:1"
     d="M 92.853282,244.80078 H 440.02577"
     id="path2322" />
  <path
     style="clip-rule:nonzero;fill:none;stroke:#000000;stroke-width:0.75;stroke-linecap:round;stroke-linejoin:round;stroke-miterlimit:10;stroke-opacity:1"
     d="M 92.853282,210.39844 H 440.02577"
     id="path2326" />
  <path
     style="clip-rule:nonzero;fill:none;stroke:#000000;stroke-width:0.75;stroke-linecap:round;stroke-linejoin:round;stroke-miterlimit:10;stroke-opacity:1"
     d="M 92.853282,176 H 440.02577"
     id="path2330" />
  <path
     style="clip-rule:nonzero;fill:none;stroke:#000000;stroke-width:0.75;stroke-linecap:round;stroke-linejoin:round;stroke-miterlimit:10;stroke-opacity:1"
     d="M 92.853282,141.60156 H 440.02577"
     id="path2334" />
  <path
     style="clip-rule:nonzero;fill:none;stroke:#000000;stroke-width:0.75;stroke-linecap:round;stroke-linejoin:round;stroke-miterlimit:10;stroke-opacity:1"
     d="M 92.853282,107.19922 H 440.02577"
     id="path2338" />
  <path
     style="clip-rule:nonzero;fill:none;stroke:#000000;stroke-width:0.75;stroke-linecap:round;stroke-linejoin:round;stroke-miterlimit:10;stroke-opacity:1"
     d="M 128.80078,418.86013 V 70.737521"
     id="path2342" />
  <path
     style="clip-rule:nonzero;fill:none;stroke:#000000;stroke-width:0.75;stroke-linecap:round;stroke-linejoin:round;stroke-miterlimit:10;stroke-opacity:1"
     d="M 163.19922,418.86013 V 70.737521"
     id="path2346" />
  <path
     style="clip-rule:nonzero;fill:none;stroke:#000000;stroke-width:0.75;stroke-linecap:round;stroke-linejoin:round;stroke-miterlimit:10;stroke-opacity:1"
     d="M 197.60156,418.86013 V 70.737521"
     id="path2350" />
  <path
     style="clip-rule:nonzero;fill:none;stroke:#000000;stroke-width:0.75;stroke-linecap:round;stroke-linejoin:round;stroke-miterlimit:10;stroke-opacity:1"
     d="M 232,418.86013 V 70.737521"
     id="path2354" />
  <path
     style="clip-rule:nonzero;fill:none;stroke:#000000;stroke-width:0.75;stroke-linecap:round;stroke-linejoin:round;stroke-miterlimit:10;stroke-opacity:1"
     d="M 266.39844,418.86013 V 70.737521"
     id="path2358" />
  <path
     style="clip-rule:nonzero;fill:none;stroke:#000000;stroke-width:0.75;stroke-linecap:round;stroke-linejoin:round;stroke-miterlimit:10;stroke-opacity:1"
     d="M 300.80078,418.86013 V 70.737521"
     id="path2362" />
  <path
     style="clip-rule:nonzero;fill:none;stroke:#000000;stroke-width:0.75;stroke-linecap:round;stroke-linejoin:round;stroke-miterlimit:10;stroke-opacity:1"
     d="M 335.19922,418.86013 V 70.737521"
     id="path2366" />
  <path
     style="clip-rule:nonzero;fill:none;stroke:#000000;stroke-width:0.75;stroke-linecap:round;stroke-linejoin:round;stroke-miterlimit:10;stroke-opacity:1"
     d="M 369.60156,418.86013 V 70.737521"
     id="path2370" />
  <path
     style="clip-rule:nonzero;fill:none;stroke:#000000;stroke-width:0.75;stroke-linecap:round;stroke-linejoin:round;stroke-miterlimit:10;stroke-opacity:1"
     d="M 404,418.86013 V 70.737521"
     id="path2374" />
</svg>
