<?xml version="1.0" encoding="UTF-8"?>
<svg xmlns="http://www.w3.org/2000/svg" xmlns:xlink="http://www.w3.org/1999/xlink" width="504pt" height="504pt" viewBox="0 0 504 504" version="1.1">
<defs>
<clipPath id="clip1">
  <path d="M 81 59.039062 L 459 59.039062 L 459 411 L 81 411 Z M 81 59.039062 "/>
</clipPath>
<clipPath id="clip2">
  <path d="M 59.039062 409 L 473.757812 409 L 473.757812 411 L 59.039062 411 Z M 59.039062 409 "/>
</clipPath>
<clipPath id="clip3">
  <path d="M 81 59.039062 L 83 59.039062 L 83 430.558594 L 81 430.558594 Z M 81 59.039062 "/>
</clipPath>
</defs>
<g id="surface16">
<rect x="0" y="0" width="504" height="504" style="fill:rgb(100%,100%,100%);fill-opacity:1;stroke:none;"/>
<path style="fill:none;stroke-width:0.75;stroke-linecap:round;stroke-linejoin:round;stroke:rgb(0%,0%,0%);stroke-opacity:1;stroke-miterlimit:10;" d="M 81.929688 342.605469 L 82.304688 342.941406 L 82.683594 343.277344 L 83.058594 343.609375 L 83.4375 343.941406 L 83.8125 344.269531 L 84.191406 344.597656 L 84.566406 344.925781 L 84.945312 345.25 L 85.320312 345.574219 L 85.699219 345.898438 L 86.074219 346.21875 L 86.453125 346.535156 L 86.828125 346.851562 L 87.207031 347.167969 L 87.957031 347.792969 L 88.335938 348.105469 L 88.710938 348.414062 L 89.089844 348.722656 L 89.464844 349.027344 L 89.84375 349.332031 L 90.21875 349.636719 L 90.597656 349.9375 L 90.972656 350.238281 L 91.351562 350.535156 L 91.726562 350.835938 L 92.105469 351.128906 L 92.480469 351.425781 L 92.859375 351.714844 L 93.234375 352.007812 L 93.613281 352.296875 L 93.988281 352.585938 L 94.367188 352.875 L 94.742188 353.160156 L 95.117188 353.441406 L 95.496094 353.726562 L 95.871094 354.007812 L 96.25 354.285156 L 96.625 354.566406 L 97.003906 354.839844 L 97.378906 355.117188 L 97.757812 355.390625 L 98.132812 355.664062 L 98.511719 355.9375 L 98.886719 356.207031 L 99.265625 356.476562 L 99.640625 356.742188 L 100.019531 357.007812 L 100.394531 357.273438 L 100.773438 357.539062 L 101.148438 357.800781 L 101.527344 358.058594 L 101.902344 358.320312 L 102.277344 358.578125 L 102.65625 358.835938 L 103.03125 359.089844 L 103.410156 359.34375 L 103.785156 359.597656 L 104.164062 359.851562 L 104.539062 360.101562 L 104.917969 360.351562 L 105.292969 360.597656 L 105.671875 360.84375 L 106.046875 361.089844 L 106.425781 361.335938 L 106.800781 361.578125 L 107.179688 361.820312 L 107.554688 362.0625 L 107.933594 362.300781 L 108.308594 362.539062 L 108.6875 362.777344 L 109.4375 363.246094 L 109.816406 363.480469 L 110.191406 363.714844 L 110.570312 363.945312 L 110.945312 364.175781 L 111.324219 364.40625 L 111.699219 364.632812 L 112.078125 364.859375 L 112.453125 365.085938 L 112.832031 365.308594 L 113.207031 365.53125 L 113.585938 365.753906 L 113.960938 365.976562 L 114.339844 366.195312 L 114.714844 366.414062 L 115.09375 366.632812 L 115.46875 366.851562 L 115.84375 367.066406 L 116.222656 367.28125 L 116.597656 367.492188 L 116.976562 367.707031 L 117.351562 367.917969 L 117.730469 368.128906 L 118.105469 368.335938 L 118.484375 368.546875 L 118.859375 368.753906 L 119.238281 368.960938 L 119.613281 369.164062 L 119.992188 369.367188 L 120.367188 369.570312 L 120.746094 369.773438 L 121.121094 369.976562 L 121.5 370.175781 L 121.875 370.375 L 122.253906 370.570312 L 122.628906 370.769531 L 123.003906 370.964844 L 123.382812 371.160156 L 123.757812 371.355469 L 124.136719 371.546875 L 124.511719 371.738281 L 124.890625 371.929688 L 125.265625 372.121094 L 125.644531 372.3125 L 126.019531 372.5 L 126.398438 372.6875 L 126.773438 372.875 L 127.152344 373.058594 L 127.527344 373.242188 L 127.90625 373.425781 L 128.28125 373.609375 L 128.660156 373.792969 L 129.035156 373.972656 L 129.414062 374.152344 L 130.164062 374.511719 L 130.542969 374.6875 L 130.917969 374.867188 L 131.296875 375.039062 L 131.671875 375.214844 L 132.050781 375.390625 L 132.425781 375.5625 L 132.804688 375.734375 L 133.179688 375.90625 L 133.558594 376.078125 L 133.933594 376.246094 L 134.3125 376.414062 L 134.6875 376.582031 L 135.066406 376.75 L 135.441406 376.917969 L 135.820312 377.082031 L 136.195312 377.246094 L 136.574219 377.410156 L 136.949219 377.574219 L 137.324219 377.734375 L 137.703125 377.898438 L 138.078125 378.058594 L 138.457031 378.21875 L 138.832031 378.375 L 139.210938 378.535156 L 139.585938 378.691406 L 139.964844 378.847656 L 140.339844 379.003906 L 140.71875 379.160156 L 141.09375 379.3125 L 141.472656 379.46875 L 141.847656 379.621094 L 142.226562 379.769531 L 142.601562 379.921875 L 142.980469 380.074219 L 143.730469 380.371094 L 144.109375 380.519531 L 144.484375 380.667969 L 144.863281 380.8125 L 145.238281 380.960938 L 145.617188 381.105469 L 145.992188 381.25 L 146.371094 381.394531 L 146.746094 381.535156 L 147.125 381.679688 L 147.5 381.820312 L 147.878906 381.960938 L 148.253906 382.101562 L 148.632812 382.242188 L 149.007812 382.378906 L 149.386719 382.519531 L 149.761719 382.65625 L 150.140625 382.792969 L 150.515625 382.929688 L 150.890625 383.0625 L 151.269531 383.199219 L 151.644531 383.332031 L 152.023438 383.464844 L 152.398438 383.597656 L 152.777344 383.730469 L 153.152344 383.863281 L 153.53125 383.992188 L 153.90625 384.125 L 154.285156 384.253906 L 154.660156 384.382812 L 155.039062 384.511719 L 155.414062 384.636719 L 155.792969 384.765625 L 156.167969 384.890625 L 156.546875 385.015625 L 156.921875 385.140625 L 157.300781 385.265625 L 157.675781 385.390625 L 158.050781 385.511719 L 158.429688 385.636719 L 158.804688 385.757812 L 159.183594 385.878906 L 159.558594 386 L 159.9375 386.121094 L 160.3125 386.238281 L 160.691406 386.359375 L 161.066406 386.476562 L 161.445312 386.59375 L 161.820312 386.710938 L 162.199219 386.828125 L 162.574219 386.945312 L 162.953125 387.058594 L 163.328125 387.171875 L 163.707031 387.289062 L 164.082031 387.402344 L 164.460938 387.515625 L 164.835938 387.628906 L 165.210938 387.738281 L 165.589844 387.851562 L 165.964844 387.960938 L 166.34375 388.070312 L 166.71875 388.179688 L 167.097656 388.289062 L 167.472656 388.398438 L 167.851562 388.507812 L 168.226562 388.613281 L 168.605469 388.722656 L 168.980469 388.828125 L 169.359375 388.933594 L 169.734375 389.039062 L 170.113281 389.144531 L 170.488281 389.25 L 170.867188 389.351562 L 171.242188 389.457031 L 171.617188 389.558594 L 171.996094 389.660156 L 172.371094 389.761719 L 172.75 389.863281 L 173.125 389.964844 L 173.503906 390.066406 L 173.878906 390.164062 L 174.257812 390.265625 L 174.632812 390.363281 L 175.011719 390.460938 L 175.386719 390.558594 L 175.765625 390.65625 L 176.140625 390.753906 L 176.519531 390.851562 L 176.894531 390.945312 L 177.273438 391.042969 L 177.648438 391.136719 L 178.027344 391.230469 L 178.777344 391.417969 L 179.15625 391.511719 L 179.53125 391.605469 L 179.910156 391.695312 L 180.285156 391.789062 L 180.664062 391.878906 L 181.039062 391.96875 L 181.417969 392.058594 L 181.792969 392.148438 L 182.171875 392.238281 L 182.546875 392.328125 L 182.925781 392.417969 L 183.300781 392.503906 L 183.679688 392.59375 L 184.054688 392.679688 L 184.433594 392.765625 L 184.808594 392.851562 L 185.1875 392.9375 L 185.9375 393.109375 L 186.316406 393.195312 L 186.691406 393.277344 L 187.070312 393.363281 L 187.445312 393.445312 L 187.824219 393.527344 L 188.199219 393.609375 L 188.578125 393.691406 L 188.953125 393.773438 L 189.332031 393.855469 L 189.707031 393.9375 L 190.085938 394.015625 L 190.460938 394.097656 L 190.839844 394.175781 L 191.214844 394.253906 L 191.59375 394.335938 L 191.96875 394.414062 L 192.347656 394.492188 L 192.722656 394.570312 L 193.097656 394.644531 L 193.476562 394.722656 L 193.851562 394.800781 L 194.230469 394.875 L 194.605469 394.953125 L 194.984375 395.027344 L 195.359375 395.101562 L 195.738281 395.175781 L 196.113281 395.25 L 196.492188 395.324219 L 196.867188 395.398438 L 197.246094 395.472656 L 197.621094 395.542969 L 198 395.617188 L 198.375 395.6875 L 198.753906 395.761719 L 199.503906 395.902344 L 199.882812 395.972656 L 200.257812 396.042969 L 200.636719 396.113281 L 201.011719 396.183594 L 201.390625 396.253906 L 201.765625 396.320312 L 202.144531 396.390625 L 202.519531 396.457031 L 202.898438 396.527344 L 203.273438 396.59375 L 203.652344 396.660156 L 204.027344 396.726562 L 204.40625 396.792969 L 204.78125 396.859375 L 205.160156 396.925781 L 205.535156 396.992188 L 205.914062 397.058594 L 206.289062 397.121094 L 206.664062 397.1875 L 207.042969 397.25 L 207.417969 397.316406 L 207.796875 397.378906 L 208.171875 397.441406 L 208.550781 397.503906 L 208.925781 397.566406 L 209.304688 397.628906 L 209.679688 397.691406 L 210.058594 397.753906 L 210.433594 397.816406 L 210.8125 397.875 L 211.1875 397.9375 L 211.566406 397.996094 L 211.941406 398.058594 L 212.320312 398.117188 L 212.695312 398.175781 L 213.074219 398.238281 L 213.824219 398.355469 L 214.203125 398.414062 L 214.578125 398.472656 L 214.957031 398.527344 L 215.332031 398.585938 L 215.710938 398.644531 L 216.085938 398.699219 L 216.464844 398.757812 L 216.839844 398.8125 L 217.21875 398.871094 L 217.59375 398.925781 L 217.972656 398.980469 L 218.347656 399.035156 L 218.726562 399.089844 L 219.101562 399.144531 L 219.480469 399.199219 L 220.230469 399.308594 L 220.609375 399.363281 L 220.984375 399.414062 L 221.363281 399.46875 L 221.738281 399.523438 L 222.117188 399.574219 L 222.492188 399.625 L 222.871094 399.679688 L 223.246094 399.730469 L 223.625 399.78125 L 224 399.832031 L 224.378906 399.882812 L 224.753906 399.933594 L 225.132812 399.984375 L 225.507812 400.035156 L 225.886719 400.085938 L 226.261719 400.136719 L 226.640625 400.183594 L 227.390625 400.285156 L 227.769531 400.332031 L 228.144531 400.378906 L 228.523438 400.429688 L 228.898438 400.476562 L 229.277344 400.523438 L 229.652344 400.574219 L 230.03125 400.621094 L 230.40625 400.667969 L 230.785156 400.714844 L 231.160156 400.761719 L 231.539062 400.808594 L 231.914062 400.851562 L 232.292969 400.898438 L 232.667969 400.945312 L 233.046875 400.988281 L 233.421875 401.035156 L 233.800781 401.082031 L 234.550781 401.167969 L 234.929688 401.214844 L 235.304688 401.257812 L 235.683594 401.300781 L 236.058594 401.347656 L 236.4375 401.390625 L 236.8125 401.433594 L 237.191406 401.476562 L 237.566406 401.519531 L 237.945312 401.5625 L 238.320312 401.605469 L 238.699219 401.644531 L 239.074219 401.6875 L 239.453125 401.730469 L 239.828125 401.769531 L 240.207031 401.8125 L 240.582031 401.855469 L 240.960938 401.894531 L 241.335938 401.933594 L 241.710938 401.976562 L 242.089844 402.015625 L 242.464844 402.054688 L 242.84375 402.097656 L 243.21875 402.136719 L 243.597656 402.175781 L 243.972656 402.214844 L 244.351562 402.253906 L 244.726562 402.292969 L 245.105469 402.332031 L 245.480469 402.371094 L 245.859375 402.410156 L 246.234375 402.445312 L 246.613281 402.484375 L 246.988281 402.523438 L 247.367188 402.558594 L 248.117188 402.636719 L 248.496094 402.671875 L 248.871094 402.707031 L 249.25 402.746094 L 249.625 402.78125 L 250.003906 402.816406 L 250.378906 402.855469 L 250.757812 402.890625 L 251.132812 402.925781 L 251.511719 402.960938 L 251.886719 402.996094 L 252.265625 403.03125 L 252.640625 403.066406 L 253.019531 403.101562 L 253.394531 403.136719 L 253.773438 403.171875 L 254.148438 403.207031 L 254.527344 403.238281 L 255.277344 403.308594 L 255.65625 403.339844 L 256.03125 403.375 L 256.410156 403.410156 L 256.785156 403.441406 L 257.164062 403.476562 L 257.539062 403.507812 L 257.917969 403.539062 L 258.292969 403.574219 L 258.671875 403.605469 L 259.046875 403.636719 L 259.425781 403.667969 L 259.800781 403.703125 L 260.179688 403.734375 L 260.554688 403.765625 L 260.933594 403.796875 L 261.308594 403.828125 L 261.6875 403.859375 L 262.4375 403.921875 L 262.816406 403.949219 L 263.191406 403.980469 L 263.570312 404.011719 L 263.945312 404.042969 L 264.324219 404.070312 L 264.699219 404.101562 L 265.078125 404.132812 L 265.453125 404.160156 L 265.832031 404.191406 L 266.207031 404.21875 L 266.585938 404.25 L 266.960938 404.277344 L 267.339844 404.304688 L 267.714844 404.335938 L 268.09375 404.363281 L 268.46875 404.390625 L 268.847656 404.421875 L 269.597656 404.476562 L 269.976562 404.503906 L 270.351562 404.53125 L 270.730469 404.558594 L 271.105469 404.585938 L 271.484375 404.613281 L 271.859375 404.640625 L 272.238281 404.667969 L 272.613281 404.695312 L 272.992188 404.722656 L 273.367188 404.75 L 273.746094 404.773438 L 274.121094 404.800781 L 274.5 404.828125 L 274.875 404.855469 L 275.253906 404.878906 L 275.628906 404.90625 L 276.003906 404.929688 L 276.382812 404.957031 L 276.757812 404.984375 L 277.136719 405.007812 L 277.511719 405.03125 L 277.890625 405.058594 L 278.265625 405.082031 L 278.644531 405.109375 L 279.019531 405.132812 L 279.398438 405.15625 L 279.773438 405.179688 L 280.152344 405.207031 L 280.527344 405.230469 L 280.90625 405.253906 L 281.28125 405.277344 L 281.660156 405.300781 L 282.035156 405.324219 L 282.414062 405.347656 L 283.164062 405.394531 L 283.542969 405.417969 L 283.917969 405.441406 L 284.296875 405.464844 L 284.671875 405.488281 L 285.050781 405.511719 L 285.425781 405.535156 L 285.804688 405.554688 L 286.179688 405.578125 L 286.558594 405.601562 L 286.933594 405.625 L 287.3125 405.644531 L 287.6875 405.667969 L 288.066406 405.691406 L 288.441406 405.710938 L 288.820312 405.734375 L 289.195312 405.753906 L 289.574219 405.777344 L 289.949219 405.796875 L 290.324219 405.820312 L 290.703125 405.839844 L 291.078125 405.859375 L 291.457031 405.882812 L 291.832031 405.902344 L 292.210938 405.921875 L 292.585938 405.945312 L 292.964844 405.964844 L 293.339844 405.984375 L 293.71875 406.003906 L 294.09375 406.027344 L 294.472656 406.046875 L 294.847656 406.066406 L 295.226562 406.085938 L 295.601562 406.105469 L 295.980469 406.125 L 296.355469 406.144531 L 296.734375 406.164062 L 297.484375 406.203125 L 297.863281 406.222656 L 298.238281 406.242188 L 298.617188 406.261719 L 298.992188 406.28125 L 299.371094 406.296875 L 299.746094 406.316406 L 300.125 406.335938 L 300.5 406.355469 L 300.878906 406.371094 L 301.253906 406.390625 L 301.632812 406.410156 L 302.007812 406.425781 L 302.386719 406.445312 L 302.761719 406.464844 L 303.140625 406.480469 L 303.515625 406.5 L 303.890625 406.515625 L 304.269531 406.535156 L 304.644531 406.550781 L 305.023438 406.570312 L 305.398438 406.585938 L 305.777344 406.605469 L 306.152344 406.621094 L 306.53125 406.640625 L 306.90625 406.65625 L 307.285156 406.671875 L 307.660156 406.691406 L 308.039062 406.707031 L 308.414062 406.722656 L 308.792969 406.738281 L 309.167969 406.757812 L 309.546875 406.773438 L 309.921875 406.789062 L 310.300781 406.804688 L 310.675781 406.820312 L 311.050781 406.839844 L 311.429688 406.855469 L 311.804688 406.871094 L 312.183594 406.886719 L 312.558594 406.902344 L 312.9375 406.917969 L 313.3125 406.933594 L 313.691406 406.949219 L 314.066406 406.964844 L 314.445312 406.980469 L 314.820312 406.996094 L 315.199219 407.011719 L 315.574219 407.027344 L 315.953125 407.039062 L 316.328125 407.054688 L 316.707031 407.070312 L 317.082031 407.085938 L 317.460938 407.101562 L 317.835938 407.117188 L 318.210938 407.128906 L 318.589844 407.144531 L 318.964844 407.160156 L 319.34375 407.171875 L 319.71875 407.1875 L 320.097656 407.203125 L 320.472656 407.214844 L 320.851562 407.230469 L 321.226562 407.246094 L 321.605469 407.257812 L 321.980469 407.273438 L 322.359375 407.285156 L 322.734375 407.300781 L 323.113281 407.3125 L 323.488281 407.328125 L 323.867188 407.339844 L 324.242188 407.355469 L 324.621094 407.367188 L 324.996094 407.382812 L 325.371094 407.394531 L 325.75 407.410156 L 326.125 407.421875 L 326.503906 407.433594 L 326.878906 407.449219 L 327.257812 407.460938 L 327.632812 407.472656 L 328.011719 407.488281 L 328.386719 407.5 L 328.765625 407.511719 L 329.140625 407.523438 L 329.519531 407.539062 L 329.894531 407.550781 L 330.273438 407.5625 L 330.648438 407.574219 L 331.027344 407.585938 L 331.402344 407.601562 L 331.777344 407.613281 L 332.15625 407.625 L 332.53125 407.636719 L 332.910156 407.648438 L 333.285156 407.660156 L 333.664062 407.671875 L 334.039062 407.683594 L 334.417969 407.695312 L 334.792969 407.707031 L 335.171875 407.71875 L 335.546875 407.730469 L 335.925781 407.742188 L 336.300781 407.753906 L 336.679688 407.765625 L 337.054688 407.777344 L 337.433594 407.789062 L 337.808594 407.800781 L 338.1875 407.8125 L 338.5625 407.824219 L 338.9375 407.832031 L 339.316406 407.84375 L 339.691406 407.855469 L 340.070312 407.867188 L 340.445312 407.878906 L 340.824219 407.890625 L 341.199219 407.898438 L 341.578125 407.910156 L 341.953125 407.921875 L 342.332031 407.933594 L 342.707031 407.941406 L 343.085938 407.953125 L 343.460938 407.964844 L 343.839844 407.972656 L 344.214844 407.984375 L 344.59375 407.996094 L 344.96875 408.003906 L 345.347656 408.015625 L 345.722656 408.023438 L 346.097656 408.035156 L 346.476562 408.046875 L 346.851562 408.054688 L 347.230469 408.066406 L 347.605469 408.074219 L 347.984375 408.085938 L 348.359375 408.09375 L 348.738281 408.105469 L 349.113281 408.113281 L 349.492188 408.125 L 349.867188 408.132812 L 350.246094 408.144531 L 350.621094 408.152344 L 351 408.164062 L 351.375 408.171875 L 351.753906 408.179688 L 352.128906 408.191406 L 352.507812 408.199219 L 352.882812 408.210938 L 353.257812 408.21875 L 353.636719 408.226562 L 354.011719 408.238281 L 354.390625 408.246094 L 354.765625 408.253906 L 355.144531 408.265625 L 355.519531 408.273438 L 355.898438 408.28125 L 356.273438 408.289062 L 356.652344 408.300781 L 357.027344 408.308594 L 357.40625 408.316406 L 357.78125 408.324219 L 358.160156 408.335938 L 358.535156 408.34375 L 358.914062 408.351562 L 359.664062 408.367188 L 360.042969 408.375 L 360.417969 408.386719 L 360.796875 408.394531 L 361.171875 408.402344 L 361.550781 408.410156 L 361.925781 408.417969 L 362.304688 408.425781 L 362.679688 408.433594 L 363.058594 408.441406 L 363.433594 408.449219 L 363.8125 408.457031 L 364.1875 408.464844 L 364.566406 408.472656 L 364.941406 408.484375 L 365.320312 408.492188 L 365.695312 408.5 L 366.074219 408.507812 L 366.449219 408.511719 L 366.824219 408.519531 L 367.203125 408.527344 L 367.578125 408.535156 L 367.957031 408.542969 L 368.332031 408.550781 L 368.710938 408.558594 L 369.085938 408.566406 L 369.464844 408.574219 L 369.839844 408.582031 L 370.21875 408.589844 L 370.59375 408.597656 L 370.972656 408.601562 L 371.347656 408.609375 L 371.726562 408.617188 L 372.101562 408.625 L 372.480469 408.632812 L 372.855469 408.640625 L 373.234375 408.644531 L 373.984375 408.660156 L 374.363281 408.667969 L 374.738281 408.675781 L 375.117188 408.679688 L 375.492188 408.6875 L 375.871094 408.695312 L 376.246094 408.703125 L 376.625 408.707031 L 377 408.714844 L 377.378906 408.722656 L 377.753906 408.726562 L 378.132812 408.734375 L 378.507812 408.742188 L 378.886719 408.75 L 379.261719 408.753906 L 379.640625 408.761719 L 380.015625 408.769531 L 380.394531 408.773438 L 380.769531 408.78125 L 381.144531 408.785156 L 381.523438 408.792969 L 381.898438 408.800781 L 382.277344 408.804688 L 382.652344 408.8125 L 383.03125 408.816406 L 383.40625 408.824219 L 383.785156 408.832031 L 384.160156 408.835938 L 384.539062 408.84375 L 384.914062 408.847656 L 385.292969 408.855469 L 385.667969 408.859375 L 386.046875 408.867188 L 386.421875 408.871094 L 386.800781 408.878906 L 387.175781 408.882812 L 387.550781 408.890625 L 387.929688 408.894531 L 388.304688 408.902344 L 388.683594 408.90625 L 389.058594 408.914062 L 389.4375 408.917969 L 389.8125 408.925781 L 390.191406 408.929688 L 390.566406 408.9375 L 390.945312 408.941406 L 391.320312 408.945312 L 391.699219 408.953125 L 392.074219 408.957031 L 392.453125 408.964844 L 392.828125 408.96875 L 393.207031 408.972656 L 393.582031 408.980469 L 393.960938 408.984375 L 394.335938 408.992188 L 394.710938 408.996094 L 395.089844 409 L 395.464844 409.007812 L 395.84375 409.011719 L 396.21875 409.015625 L 396.597656 409.023438 L 396.972656 409.027344 L 397.351562 409.03125 L 397.726562 409.039062 L 398.105469 409.042969 L 398.480469 409.046875 L 398.859375 409.050781 L 399.234375 409.058594 L 399.613281 409.0625 L 399.988281 409.066406 L 400.367188 409.074219 L 400.742188 409.078125 L 401.121094 409.082031 L 401.496094 409.085938 L 401.871094 409.09375 L 402.25 409.097656 L 402.625 409.101562 L 403.003906 409.105469 L 403.378906 409.109375 L 403.757812 409.117188 L 404.132812 409.121094 L 404.511719 409.125 L 404.886719 409.128906 L 405.265625 409.132812 L 405.640625 409.140625 L 406.019531 409.144531 L 406.394531 409.148438 L 406.773438 409.152344 L 407.148438 409.15625 L 407.527344 409.160156 L 407.902344 409.167969 L 408.277344 409.171875 L 408.65625 409.175781 L 409.03125 409.179688 L 409.410156 409.183594 L 409.785156 409.1875 L 410.164062 409.191406 L 410.539062 409.195312 L 410.917969 409.199219 L 411.292969 409.207031 L 411.671875 409.210938 L 412.046875 409.214844 L 412.425781 409.21875 L 412.800781 409.222656 L 413.179688 409.226562 L 413.554688 409.230469 L 413.933594 409.234375 L 414.308594 409.238281 L 414.6875 409.242188 L 415.4375 409.25 L 415.816406 409.253906 L 416.191406 409.257812 L 416.570312 409.261719 L 416.945312 409.265625 L 417.324219 409.269531 L 417.699219 409.273438 L 418.078125 409.277344 L 418.453125 409.28125 L 418.832031 409.285156 L 419.207031 409.289062 L 419.585938 409.292969 L 419.960938 409.296875 L 420.339844 409.300781 L 420.714844 409.304688 L 421.09375 409.308594 L 421.46875 409.3125 L 421.847656 409.316406 L 422.597656 409.324219 L 422.976562 409.328125 L 423.351562 409.332031 L 423.730469 409.335938 L 424.105469 409.339844 L 424.484375 409.34375 L 424.859375 409.34375 L 425.238281 409.347656 L 425.613281 409.351562 L 425.992188 409.355469 L 426.367188 409.359375 L 426.746094 409.363281 L 427.121094 409.367188 L 427.5 409.371094 L 427.875 409.375 L 428.253906 409.375 L 428.628906 409.378906 L 429.007812 409.382812 L 429.757812 409.390625 L 430.136719 409.394531 L 430.511719 409.398438 L 430.890625 409.398438 L 431.265625 409.402344 L 431.644531 409.40625 L 432.019531 409.410156 L 432.398438 409.414062 L 432.773438 409.417969 L 433.152344 409.417969 L 433.527344 409.421875 L 433.90625 409.425781 L 434.28125 409.429688 L 434.660156 409.433594 L 435.035156 409.433594 L 435.414062 409.4375 L 436.164062 409.445312 L 436.542969 409.449219 L 436.917969 409.449219 L 437.296875 409.453125 L 437.671875 409.457031 L 438.050781 409.460938 L 438.425781 409.460938 L 438.804688 409.464844 L 439.179688 409.46875 L 439.558594 409.472656 L 439.933594 409.472656 L 440.3125 409.476562 L 440.6875 409.480469 L 441.066406 409.484375 L 441.441406 409.484375 L 441.820312 409.488281 L 442.195312 409.492188 L 442.574219 409.492188 L 443.324219 409.5 L 443.703125 409.503906 L 444.078125 409.503906 L 444.457031 409.507812 L 444.832031 409.511719 L 445.210938 409.511719 L 445.585938 409.515625 L 445.964844 409.519531 L 446.339844 409.519531 L 446.71875 409.523438 L 447.09375 409.527344 L 447.472656 409.53125 L 447.847656 409.53125 L 448.226562 409.535156 L 448.601562 409.539062 L 448.980469 409.539062 L 449.355469 409.542969 L 449.734375 409.546875 L 450.109375 409.546875 L 450.484375 409.550781 L 450.863281 409.550781 L 451.238281 409.554688 L 451.617188 409.558594 L 451.992188 409.558594 L 452.371094 409.5625 L 452.746094 409.566406 L 453.125 409.566406 L 453.5 409.570312 L 453.878906 409.574219 L 454.253906 409.574219 L 454.632812 409.578125 L 455.007812 409.578125 L 455.386719 409.582031 L 455.761719 409.585938 L 456.140625 409.585938 L 456.515625 409.589844 L 456.894531 409.589844 L 457.644531 409.597656 L 458.023438 409.597656 L 458.398438 409.601562 "/>
<path style="fill:none;stroke-width:0.75;stroke-linecap:round;stroke-linejoin:round;stroke:rgb(0%,0%,0%);stroke-opacity:1;stroke-miterlimit:10;" d="M 81.929688 410.054688 L 82.304688 409.71875 L 82.683594 409.386719 L 83.058594 409.058594 L 83.4375 408.730469 L 83.8125 408.410156 L 84.191406 408.089844 L 84.566406 407.773438 L 84.945312 407.460938 L 85.320312 407.152344 L 85.699219 406.84375 L 86.074219 406.539062 L 86.453125 406.238281 L 86.828125 405.941406 L 87.207031 405.648438 L 87.582031 405.355469 L 87.957031 405.070312 L 88.335938 404.785156 L 88.710938 404.5 L 89.089844 404.222656 L 89.464844 403.945312 L 89.84375 403.671875 L 90.21875 403.402344 L 90.597656 403.132812 L 90.972656 402.871094 L 91.351562 402.609375 L 91.726562 402.347656 L 92.105469 402.09375 L 92.480469 401.839844 L 92.859375 401.585938 L 93.234375 401.339844 L 93.613281 401.09375 L 93.988281 400.851562 L 94.367188 400.609375 L 94.742188 400.371094 L 95.117188 400.136719 L 95.496094 399.90625 L 95.871094 399.675781 L 96.25 399.449219 L 96.625 399.222656 L 97.003906 399 L 97.378906 398.78125 L 97.757812 398.5625 L 98.132812 398.347656 L 98.511719 398.136719 L 98.886719 397.925781 L 99.265625 397.71875 L 99.640625 397.515625 L 100.019531 397.3125 L 100.394531 397.109375 L 100.773438 396.914062 L 101.148438 396.714844 L 101.527344 396.523438 L 102.277344 396.140625 L 102.65625 395.957031 L 103.03125 395.769531 L 103.410156 395.589844 L 103.785156 395.40625 L 104.164062 395.230469 L 104.539062 395.054688 L 104.917969 394.878906 L 105.292969 394.707031 L 105.671875 394.539062 L 106.046875 394.371094 L 106.425781 394.207031 L 106.800781 394.042969 L 107.179688 393.878906 L 107.554688 393.722656 L 107.933594 393.5625 L 108.308594 393.40625 L 108.6875 393.253906 L 109.0625 393.101562 L 109.4375 392.953125 L 109.816406 392.804688 L 110.191406 392.660156 L 110.570312 392.515625 L 110.945312 392.375 L 111.324219 392.234375 L 111.699219 392.09375 L 112.078125 391.957031 L 112.453125 391.824219 L 112.832031 391.691406 L 113.207031 391.558594 L 113.585938 391.429688 L 113.960938 391.300781 L 114.339844 391.175781 L 114.714844 391.050781 L 115.09375 390.929688 L 115.46875 390.808594 L 115.84375 390.691406 L 116.222656 390.574219 L 116.597656 390.457031 L 116.976562 390.34375 L 117.351562 390.230469 L 117.730469 390.121094 L 118.105469 390.011719 L 118.484375 389.902344 L 118.859375 389.796875 L 119.238281 389.691406 L 119.613281 389.589844 L 119.992188 389.488281 L 120.367188 389.386719 L 120.746094 389.289062 L 121.121094 389.191406 L 121.5 389.097656 L 121.875 389.003906 L 122.253906 388.910156 L 123.003906 388.730469 L 123.382812 388.640625 L 123.757812 388.554688 L 124.136719 388.46875 L 124.511719 388.386719 L 124.890625 388.304688 L 125.265625 388.222656 L 125.644531 388.140625 L 126.019531 388.0625 L 126.398438 387.984375 L 126.773438 387.910156 L 127.152344 387.835938 L 127.527344 387.761719 L 127.90625 387.691406 L 128.28125 387.621094 L 128.660156 387.550781 L 129.035156 387.480469 L 129.414062 387.414062 L 129.789062 387.347656 L 130.164062 387.285156 L 130.542969 387.222656 L 130.917969 387.160156 L 131.296875 387.097656 L 131.671875 387.039062 L 132.050781 386.980469 L 132.425781 386.921875 L 132.804688 386.867188 L 133.179688 386.8125 L 133.558594 386.757812 L 133.933594 386.703125 L 134.3125 386.652344 L 134.6875 386.601562 L 135.066406 386.550781 L 135.441406 386.503906 L 135.820312 386.457031 L 136.195312 386.410156 L 136.574219 386.363281 L 137.324219 386.277344 L 137.703125 386.234375 L 138.078125 386.191406 L 138.457031 386.152344 L 138.832031 386.113281 L 139.210938 386.074219 L 139.585938 386.039062 L 139.964844 386 L 140.339844 385.964844 L 140.71875 385.933594 L 141.09375 385.898438 L 141.472656 385.867188 L 141.847656 385.835938 L 142.226562 385.804688 L 142.601562 385.773438 L 142.980469 385.746094 L 143.730469 385.691406 L 144.109375 385.664062 L 144.484375 385.640625 L 144.863281 385.613281 L 145.238281 385.589844 L 145.617188 385.566406 L 145.992188 385.546875 L 146.371094 385.523438 L 146.746094 385.503906 L 147.125 385.484375 L 147.5 385.464844 L 147.878906 385.449219 L 148.253906 385.433594 L 148.632812 385.414062 L 149.007812 385.398438 L 149.386719 385.386719 L 149.761719 385.371094 L 150.140625 385.359375 L 150.515625 385.34375 L 150.890625 385.332031 L 151.269531 385.324219 L 151.644531 385.3125 L 152.023438 385.304688 L 152.398438 385.292969 L 152.777344 385.285156 L 153.152344 385.277344 L 153.53125 385.273438 L 153.90625 385.265625 L 154.285156 385.261719 L 154.660156 385.253906 L 155.039062 385.25 L 155.414062 385.25 L 155.792969 385.246094 L 156.167969 385.242188 L 158.050781 385.242188 L 158.429688 385.246094 L 158.804688 385.246094 L 159.183594 385.25 L 159.558594 385.253906 L 159.9375 385.257812 L 160.3125 385.261719 L 160.691406 385.265625 L 161.066406 385.273438 L 161.445312 385.277344 L 161.820312 385.285156 L 162.199219 385.292969 L 162.574219 385.300781 L 162.953125 385.308594 L 163.328125 385.320312 L 163.707031 385.328125 L 164.082031 385.339844 L 164.460938 385.347656 L 165.210938 385.371094 L 165.589844 385.382812 L 165.964844 385.394531 L 166.34375 385.410156 L 166.71875 385.421875 L 167.097656 385.4375 L 167.472656 385.449219 L 167.851562 385.464844 L 168.226562 385.480469 L 168.605469 385.496094 L 168.980469 385.515625 L 169.359375 385.53125 L 169.734375 385.546875 L 170.113281 385.566406 L 170.488281 385.582031 L 170.867188 385.601562 L 171.617188 385.640625 L 171.996094 385.660156 L 172.371094 385.679688 L 172.75 385.703125 L 173.125 385.722656 L 173.503906 385.742188 L 173.878906 385.765625 L 174.257812 385.789062 L 174.632812 385.808594 L 175.011719 385.832031 L 175.386719 385.855469 L 175.765625 385.878906 L 176.140625 385.90625 L 176.519531 385.929688 L 176.894531 385.953125 L 177.273438 385.980469 L 177.648438 386.003906 L 178.027344 386.03125 L 178.402344 386.058594 L 178.777344 386.082031 L 179.15625 386.109375 L 179.53125 386.136719 L 179.910156 386.164062 L 180.285156 386.191406 L 180.664062 386.222656 L 181.039062 386.25 L 181.417969 386.277344 L 181.792969 386.308594 L 182.171875 386.335938 L 182.546875 386.367188 L 182.925781 386.394531 L 183.300781 386.425781 L 183.679688 386.457031 L 184.054688 386.488281 L 184.433594 386.519531 L 184.808594 386.550781 L 185.1875 386.582031 L 185.9375 386.644531 L 186.316406 386.679688 L 186.691406 386.710938 L 187.070312 386.746094 L 187.445312 386.777344 L 187.824219 386.8125 L 188.199219 386.84375 L 188.578125 386.878906 L 188.953125 386.914062 L 189.332031 386.949219 L 189.707031 386.980469 L 190.085938 387.015625 L 190.460938 387.050781 L 190.839844 387.085938 L 191.214844 387.125 L 191.59375 387.160156 L 191.96875 387.195312 L 192.347656 387.230469 L 192.722656 387.269531 L 193.097656 387.304688 L 193.476562 387.339844 L 193.851562 387.378906 L 194.230469 387.414062 L 194.605469 387.453125 L 194.984375 387.492188 L 195.359375 387.527344 L 195.738281 387.566406 L 196.113281 387.605469 L 196.492188 387.644531 L 196.867188 387.679688 L 197.246094 387.71875 L 197.621094 387.757812 L 198 387.796875 L 198.375 387.835938 L 198.753906 387.875 L 199.128906 387.917969 L 199.503906 387.957031 L 199.882812 387.996094 L 200.257812 388.035156 L 200.636719 388.074219 L 201.011719 388.117188 L 201.390625 388.15625 L 201.765625 388.199219 L 202.144531 388.238281 L 202.519531 388.277344 L 202.898438 388.320312 L 203.273438 388.359375 L 203.652344 388.402344 L 204.027344 388.445312 L 204.40625 388.484375 L 204.78125 388.527344 L 205.160156 388.570312 L 205.535156 388.609375 L 205.914062 388.652344 L 206.664062 388.738281 L 207.042969 388.78125 L 207.417969 388.820312 L 207.796875 388.863281 L 208.171875 388.90625 L 208.550781 388.949219 L 208.925781 388.992188 L 209.304688 389.035156 L 209.679688 389.078125 L 210.058594 389.121094 L 210.433594 389.164062 L 210.8125 389.207031 L 211.1875 389.25 L 211.566406 389.296875 L 211.941406 389.339844 L 212.320312 389.382812 L 212.695312 389.425781 L 213.074219 389.46875 L 213.449219 389.515625 L 213.824219 389.558594 L 214.203125 389.601562 L 214.578125 389.644531 L 214.957031 389.691406 L 215.332031 389.734375 L 215.710938 389.777344 L 216.085938 389.824219 L 216.464844 389.867188 L 216.839844 389.914062 L 217.21875 389.957031 L 217.59375 390 L 217.972656 390.046875 L 218.347656 390.089844 L 218.726562 390.136719 L 219.101562 390.179688 L 219.480469 390.226562 L 219.855469 390.269531 L 220.230469 390.316406 L 220.609375 390.359375 L 220.984375 390.40625 L 221.363281 390.449219 L 221.738281 390.496094 L 222.117188 390.542969 L 222.492188 390.585938 L 222.871094 390.632812 L 223.246094 390.675781 L 223.625 390.722656 L 224 390.769531 L 224.378906 390.8125 L 224.753906 390.859375 L 225.132812 390.902344 L 225.507812 390.949219 L 225.886719 390.996094 L 226.261719 391.039062 L 226.640625 391.085938 L 227.015625 391.132812 L 227.390625 391.175781 L 227.769531 391.222656 L 228.144531 391.269531 L 228.523438 391.3125 L 228.898438 391.359375 L 229.277344 391.40625 L 229.652344 391.449219 L 230.03125 391.496094 L 230.40625 391.542969 L 230.785156 391.585938 L 231.160156 391.632812 L 231.539062 391.679688 L 231.914062 391.726562 L 232.292969 391.769531 L 232.667969 391.816406 L 233.046875 391.863281 L 233.421875 391.90625 L 233.800781 391.953125 L 234.175781 392 L 234.550781 392.042969 L 234.929688 392.089844 L 235.304688 392.136719 L 235.683594 392.179688 L 236.058594 392.226562 L 236.4375 392.273438 L 236.8125 392.320312 L 237.191406 392.363281 L 237.566406 392.410156 L 237.945312 392.457031 L 238.320312 392.5 L 238.699219 392.546875 L 239.074219 392.59375 L 239.453125 392.636719 L 239.828125 392.683594 L 240.207031 392.726562 L 240.582031 392.773438 L 240.960938 392.820312 L 241.335938 392.863281 L 241.710938 392.910156 L 242.089844 392.957031 L 242.464844 393 L 242.84375 393.046875 L 243.21875 393.089844 L 243.597656 393.136719 L 243.972656 393.183594 L 244.351562 393.226562 L 244.726562 393.273438 L 245.105469 393.316406 L 245.480469 393.363281 L 245.859375 393.40625 L 246.234375 393.453125 L 246.613281 393.496094 L 246.988281 393.542969 L 247.367188 393.585938 L 247.742188 393.632812 L 248.117188 393.675781 L 248.496094 393.722656 L 248.871094 393.765625 L 249.25 393.8125 L 249.625 393.855469 L 250.003906 393.902344 L 250.378906 393.945312 L 250.757812 393.988281 L 251.132812 394.035156 L 251.511719 394.078125 L 251.886719 394.125 L 252.265625 394.167969 L 252.640625 394.210938 L 253.019531 394.257812 L 253.394531 394.300781 L 253.773438 394.34375 L 254.148438 394.390625 L 254.527344 394.433594 L 255.277344 394.519531 L 255.65625 394.566406 L 256.03125 394.609375 L 256.410156 394.652344 L 256.785156 394.695312 L 257.164062 394.742188 L 257.539062 394.785156 L 257.917969 394.828125 L 258.292969 394.871094 L 258.671875 394.914062 L 259.046875 394.957031 L 259.425781 395 L 259.800781 395.046875 L 260.179688 395.089844 L 260.554688 395.132812 L 260.933594 395.175781 L 261.308594 395.21875 L 261.6875 395.261719 L 262.4375 395.347656 L 262.816406 395.390625 L 263.191406 395.433594 L 263.570312 395.476562 L 263.945312 395.519531 L 264.324219 395.5625 L 264.699219 395.601562 L 265.078125 395.644531 L 265.453125 395.6875 L 265.832031 395.730469 L 266.207031 395.773438 L 266.585938 395.816406 L 266.960938 395.855469 L 267.339844 395.898438 L 267.714844 395.941406 L 268.09375 395.984375 L 268.46875 396.023438 L 268.847656 396.066406 L 269.597656 396.152344 L 269.976562 396.191406 L 270.351562 396.234375 L 270.730469 396.273438 L 271.105469 396.316406 L 271.484375 396.359375 L 271.859375 396.398438 L 272.238281 396.441406 L 272.613281 396.480469 L 272.992188 396.523438 L 273.367188 396.5625 L 273.746094 396.605469 L 274.121094 396.644531 L 274.5 396.6875 L 274.875 396.726562 L 275.253906 396.769531 L 276.003906 396.847656 L 276.382812 396.890625 L 276.757812 396.929688 L 277.136719 396.96875 L 277.511719 397.011719 L 277.890625 397.050781 L 278.265625 397.089844 L 278.644531 397.128906 L 279.019531 397.171875 L 279.398438 397.210938 L 279.773438 397.25 L 280.152344 397.289062 L 280.527344 397.328125 L 280.90625 397.367188 L 281.28125 397.40625 L 281.660156 397.445312 L 282.035156 397.488281 L 282.414062 397.527344 L 283.164062 397.605469 L 283.542969 397.644531 L 283.917969 397.683594 L 284.296875 397.71875 L 284.671875 397.757812 L 285.050781 397.796875 L 285.425781 397.835938 L 285.804688 397.875 L 286.179688 397.914062 L 286.558594 397.953125 L 286.933594 397.988281 L 287.3125 398.027344 L 287.6875 398.066406 L 288.066406 398.105469 L 288.441406 398.140625 L 288.820312 398.179688 L 289.195312 398.21875 L 289.574219 398.253906 L 290.324219 398.332031 L 290.703125 398.367188 L 291.078125 398.40625 L 291.457031 398.441406 L 291.832031 398.480469 L 292.210938 398.515625 L 292.585938 398.554688 L 292.964844 398.589844 L 293.339844 398.628906 L 293.71875 398.664062 L 294.09375 398.703125 L 294.472656 398.738281 L 294.847656 398.773438 L 295.226562 398.8125 L 295.601562 398.847656 L 295.980469 398.882812 L 296.355469 398.917969 L 296.734375 398.957031 L 297.484375 399.027344 L 297.863281 399.0625 L 298.238281 399.097656 L 298.617188 399.136719 L 298.992188 399.171875 L 299.371094 399.207031 L 299.746094 399.242188 L 300.125 399.277344 L 300.5 399.3125 L 300.878906 399.347656 L 301.253906 399.382812 L 301.632812 399.417969 L 302.007812 399.453125 L 302.386719 399.488281 L 302.761719 399.523438 L 303.140625 399.558594 L 303.515625 399.589844 L 303.890625 399.625 L 304.269531 399.660156 L 304.644531 399.695312 L 305.023438 399.730469 L 305.398438 399.761719 L 305.777344 399.796875 L 306.152344 399.832031 L 306.53125 399.867188 L 306.90625 399.898438 L 307.285156 399.933594 L 307.660156 399.96875 L 308.039062 400 L 308.414062 400.035156 L 308.792969 400.066406 L 309.167969 400.101562 L 309.546875 400.132812 L 309.921875 400.167969 L 310.300781 400.199219 L 310.675781 400.234375 L 311.050781 400.265625 L 311.429688 400.300781 L 311.804688 400.332031 L 312.183594 400.363281 L 312.558594 400.398438 L 312.9375 400.429688 L 313.3125 400.460938 L 313.691406 400.496094 L 314.066406 400.527344 L 314.445312 400.558594 L 314.820312 400.589844 L 315.199219 400.625 L 315.574219 400.65625 L 315.953125 400.6875 L 316.328125 400.71875 L 316.707031 400.75 L 317.082031 400.78125 L 317.460938 400.8125 L 318.210938 400.875 L 318.589844 400.90625 L 318.964844 400.9375 L 319.34375 400.96875 L 319.71875 401 L 320.097656 401.03125 L 320.472656 401.0625 L 320.851562 401.09375 L 321.226562 401.125 L 321.605469 401.15625 L 321.980469 401.183594 L 322.359375 401.214844 L 322.734375 401.246094 L 323.113281 401.277344 L 323.488281 401.304688 L 323.867188 401.335938 L 324.242188 401.367188 L 324.621094 401.394531 L 325.371094 401.457031 L 325.75 401.484375 L 326.125 401.515625 L 326.503906 401.542969 L 326.878906 401.574219 L 327.257812 401.601562 L 327.632812 401.632812 L 328.011719 401.660156 L 328.386719 401.691406 L 328.765625 401.71875 L 329.140625 401.75 L 329.519531 401.777344 L 329.894531 401.808594 L 330.273438 401.835938 L 330.648438 401.863281 L 331.027344 401.890625 L 331.402344 401.921875 L 331.777344 401.949219 L 332.15625 401.976562 L 332.53125 402.007812 L 332.910156 402.035156 L 333.285156 402.0625 L 333.664062 402.089844 L 334.039062 402.117188 L 334.417969 402.144531 L 334.792969 402.171875 L 335.171875 402.203125 L 335.546875 402.230469 L 335.925781 402.257812 L 336.300781 402.285156 L 336.679688 402.3125 L 337.054688 402.339844 L 337.433594 402.367188 L 337.808594 402.394531 L 338.1875 402.417969 L 338.9375 402.472656 L 339.316406 402.5 L 339.691406 402.527344 L 340.070312 402.554688 L 340.445312 402.582031 L 340.824219 402.605469 L 341.199219 402.632812 L 341.578125 402.660156 L 341.953125 402.6875 L 342.332031 402.710938 L 342.707031 402.738281 L 343.085938 402.765625 L 343.460938 402.789062 L 343.839844 402.816406 L 344.214844 402.839844 L 344.59375 402.867188 L 344.96875 402.894531 L 345.347656 402.917969 L 345.722656 402.945312 L 346.097656 402.96875 L 346.476562 402.996094 L 346.851562 403.019531 L 347.230469 403.042969 L 347.605469 403.070312 L 347.984375 403.09375 L 348.359375 403.121094 L 348.738281 403.144531 L 349.113281 403.167969 L 349.492188 403.195312 L 349.867188 403.21875 L 350.246094 403.242188 L 350.621094 403.269531 L 351 403.292969 L 351.375 403.316406 L 351.753906 403.339844 L 352.128906 403.363281 L 352.507812 403.390625 L 353.257812 403.4375 L 353.636719 403.460938 L 354.011719 403.484375 L 354.390625 403.507812 L 354.765625 403.53125 L 355.144531 403.554688 L 355.519531 403.578125 L 355.898438 403.601562 L 356.273438 403.625 L 356.652344 403.648438 L 357.027344 403.671875 L 357.40625 403.695312 L 357.78125 403.71875 L 358.160156 403.742188 L 358.535156 403.765625 L 358.914062 403.789062 L 359.289062 403.8125 L 359.664062 403.832031 L 360.042969 403.855469 L 360.417969 403.878906 L 360.796875 403.902344 L 361.171875 403.921875 L 361.550781 403.945312 L 361.925781 403.96875 L 362.304688 403.992188 L 362.679688 404.011719 L 363.058594 404.035156 L 363.433594 404.058594 L 363.8125 404.078125 L 364.1875 404.101562 L 364.566406 404.121094 L 364.941406 404.144531 L 365.320312 404.167969 L 365.695312 404.1875 L 366.074219 404.210938 L 366.449219 404.230469 L 366.824219 404.253906 L 367.203125 404.273438 L 367.578125 404.292969 L 367.957031 404.316406 L 368.332031 404.335938 L 368.710938 404.359375 L 369.085938 404.378906 L 369.464844 404.398438 L 369.839844 404.421875 L 370.21875 404.441406 L 370.59375 404.460938 L 370.972656 404.484375 L 371.347656 404.503906 L 371.726562 404.523438 L 372.101562 404.542969 L 372.480469 404.566406 L 372.855469 404.585938 L 373.234375 404.605469 L 373.984375 404.644531 L 374.363281 404.664062 L 374.738281 404.6875 L 375.117188 404.707031 L 375.492188 404.726562 L 375.871094 404.746094 L 376.246094 404.765625 L 376.625 404.785156 L 377 404.804688 L 377.378906 404.824219 L 377.753906 404.84375 L 378.132812 404.863281 L 378.507812 404.882812 L 378.886719 404.902344 L 379.261719 404.921875 L 379.640625 404.941406 L 380.015625 404.960938 L 380.394531 404.976562 L 381.144531 405.015625 L 381.523438 405.035156 L 381.898438 405.054688 L 382.277344 405.074219 L 382.652344 405.089844 L 383.03125 405.109375 L 383.40625 405.128906 L 383.785156 405.148438 L 384.160156 405.164062 L 384.539062 405.183594 L 384.914062 405.203125 L 385.292969 405.21875 L 385.667969 405.238281 L 386.046875 405.257812 L 386.421875 405.273438 L 386.800781 405.292969 L 387.175781 405.308594 L 387.550781 405.328125 L 387.929688 405.34375 L 388.304688 405.363281 L 388.683594 405.382812 L 389.058594 405.398438 L 389.4375 405.417969 L 389.8125 405.433594 L 390.191406 405.453125 L 390.566406 405.46875 L 390.945312 405.484375 L 391.320312 405.503906 L 391.699219 405.519531 L 392.074219 405.539062 L 392.453125 405.554688 L 392.828125 405.570312 L 393.207031 405.589844 L 393.582031 405.605469 L 393.960938 405.621094 L 394.335938 405.640625 L 394.710938 405.65625 L 395.089844 405.671875 L 395.464844 405.6875 L 395.84375 405.707031 L 396.21875 405.722656 L 396.597656 405.738281 L 396.972656 405.753906 L 397.351562 405.773438 L 397.726562 405.789062 L 398.105469 405.804688 L 398.480469 405.820312 L 398.859375 405.835938 L 399.234375 405.851562 L 399.613281 405.867188 L 399.988281 405.882812 L 400.367188 405.902344 L 400.742188 405.917969 L 401.121094 405.933594 L 401.871094 405.964844 L 402.25 405.980469 L 402.625 405.996094 L 403.003906 406.011719 L 403.378906 406.027344 L 403.757812 406.042969 L 404.132812 406.054688 L 404.511719 406.070312 L 404.886719 406.085938 L 405.265625 406.101562 L 405.640625 406.117188 L 406.019531 406.132812 L 406.394531 406.148438 L 406.773438 406.164062 L 407.148438 406.175781 L 407.527344 406.191406 L 408.277344 406.222656 L 408.65625 406.238281 L 409.03125 406.25 L 409.410156 406.265625 L 409.785156 406.28125 L 410.164062 406.296875 L 410.539062 406.308594 L 410.917969 406.324219 L 411.292969 406.339844 L 411.671875 406.351562 L 412.046875 406.367188 L 412.425781 406.382812 L 412.800781 406.394531 L 413.179688 406.410156 L 413.554688 406.421875 L 413.933594 406.4375 L 414.308594 406.453125 L 414.6875 406.464844 L 415.0625 406.480469 L 415.4375 406.492188 L 415.816406 406.507812 L 416.191406 406.519531 L 416.570312 406.535156 L 416.945312 406.546875 L 417.324219 406.5625 L 417.699219 406.574219 L 418.078125 406.589844 L 418.453125 406.601562 L 418.832031 406.617188 L 419.207031 406.628906 L 419.585938 406.640625 L 419.960938 406.65625 L 420.339844 406.667969 L 420.714844 406.683594 L 421.09375 406.695312 L 421.46875 406.707031 L 421.847656 406.722656 L 422.597656 406.746094 L 422.976562 406.757812 L 423.351562 406.773438 L 423.730469 406.785156 L 424.105469 406.796875 L 424.484375 406.8125 L 424.859375 406.824219 L 425.238281 406.835938 L 425.613281 406.847656 L 425.992188 406.859375 L 426.367188 406.875 L 426.746094 406.886719 L 427.121094 406.898438 L 427.5 406.910156 L 427.875 406.921875 L 428.253906 406.933594 L 428.628906 406.949219 L 429.007812 406.960938 L 429.757812 406.984375 L 430.136719 406.996094 L 430.511719 407.007812 L 430.890625 407.019531 L 431.265625 407.03125 L 431.644531 407.042969 L 432.019531 407.054688 L 432.398438 407.066406 L 432.773438 407.078125 L 433.152344 407.089844 L 433.527344 407.101562 L 433.90625 407.113281 L 434.28125 407.125 L 434.660156 407.136719 L 435.035156 407.148438 L 435.414062 407.160156 L 436.164062 407.183594 L 436.542969 407.195312 L 436.917969 407.203125 L 437.296875 407.214844 L 437.671875 407.226562 L 438.050781 407.238281 L 438.425781 407.25 L 438.804688 407.261719 L 439.179688 407.269531 L 439.558594 407.28125 L 439.933594 407.292969 L 440.3125 407.304688 L 440.6875 407.316406 L 441.066406 407.324219 L 441.441406 407.335938 L 441.820312 407.347656 L 442.195312 407.359375 L 442.574219 407.367188 L 443.324219 407.390625 L 443.703125 407.402344 L 444.078125 407.410156 L 444.457031 407.421875 L 444.832031 407.433594 L 445.210938 407.441406 L 445.585938 407.453125 L 445.964844 407.464844 L 446.339844 407.472656 L 446.71875 407.484375 L 447.09375 407.492188 L 447.472656 407.503906 L 447.847656 407.515625 L 448.226562 407.523438 L 448.601562 407.535156 L 448.980469 407.542969 L 449.355469 407.554688 L 449.734375 407.5625 L 450.109375 407.574219 L 450.484375 407.582031 L 450.863281 407.59375 L 451.238281 407.601562 L 451.617188 407.613281 L 451.992188 407.621094 L 452.371094 407.632812 L 452.746094 407.640625 L 453.125 407.652344 L 453.5 407.660156 L 453.878906 407.671875 L 454.253906 407.679688 L 454.632812 407.691406 L 455.007812 407.699219 L 455.386719 407.707031 L 455.761719 407.71875 L 456.140625 407.726562 L 456.515625 407.738281 L 456.894531 407.746094 L 457.269531 407.753906 L 457.644531 407.765625 L 458.023438 407.773438 L 458.398438 407.78125 "/>
<g clip-path="url(#clip1)" clip-rule="nonzero">
<path style="fill:none;stroke-width:0.75;stroke-linecap:round;stroke-linejoin:round;stroke:rgb(0%,0%,0%);stroke-opacity:1;stroke-miterlimit:10;" d="M 82.304688 -125.171875 L 82.683594 33.480469 L 83.058594 104.121094 L 83.4375 146.429688 L 83.8125 175.4375 L 84.191406 196.949219 L 84.566406 213.742188 L 84.945312 227.339844 L 85.320312 238.648438 L 85.699219 248.257812 L 86.074219 256.554688 L 86.453125 263.824219 L 86.828125 270.261719 L 87.207031 276.019531 L 87.582031 281.210938 L 87.957031 285.925781 L 88.335938 290.234375 L 88.710938 294.191406 L 89.089844 297.84375 L 89.464844 301.230469 L 89.84375 304.382812 L 90.21875 307.328125 L 90.597656 310.089844 L 90.972656 312.683594 L 91.351562 315.125 L 91.726562 317.433594 L 92.105469 319.617188 L 92.480469 321.691406 L 92.859375 323.664062 L 93.234375 325.539062 L 93.613281 327.328125 L 93.988281 329.039062 L 94.367188 330.671875 L 94.742188 332.238281 L 95.117188 333.742188 L 95.496094 335.183594 L 95.871094 336.570312 L 96.25 337.90625 L 96.625 339.195312 L 97.003906 340.433594 L 97.378906 341.632812 L 97.757812 342.789062 L 98.132812 343.90625 L 98.511719 344.992188 L 98.886719 346.039062 L 99.265625 347.054688 L 99.640625 348.039062 L 100.019531 348.996094 L 100.394531 349.921875 L 100.773438 350.824219 L 101.148438 351.699219 L 101.527344 352.554688 L 101.902344 353.382812 L 102.277344 354.191406 L 102.65625 354.976562 L 103.03125 355.742188 L 103.410156 356.492188 L 103.785156 357.21875 L 104.164062 357.929688 L 104.539062 358.625 L 104.917969 359.304688 L 105.292969 359.964844 L 105.671875 360.613281 L 106.046875 361.246094 L 106.425781 361.863281 L 106.800781 362.46875 L 107.179688 363.0625 L 107.554688 363.640625 L 107.933594 364.207031 L 108.308594 364.765625 L 108.6875 365.308594 L 109.0625 365.84375 L 109.4375 366.367188 L 109.816406 366.878906 L 110.191406 367.382812 L 110.570312 367.875 L 110.945312 368.359375 L 111.324219 368.832031 L 111.699219 369.300781 L 112.078125 369.757812 L 112.453125 370.207031 L 112.832031 370.648438 L 113.207031 371.082031 L 113.585938 371.507812 L 113.960938 371.925781 L 114.339844 372.339844 L 114.714844 372.742188 L 115.09375 373.140625 L 115.46875 373.53125 L 115.84375 373.917969 L 116.222656 374.296875 L 116.597656 374.667969 L 116.976562 375.035156 L 117.351562 375.394531 L 117.730469 375.75 L 118.105469 376.101562 L 118.484375 376.445312 L 118.859375 376.78125 L 119.238281 377.117188 L 119.613281 377.445312 L 119.992188 377.769531 L 120.367188 378.089844 L 120.746094 378.402344 L 121.121094 378.710938 L 121.5 379.019531 L 121.875 379.320312 L 122.253906 379.617188 L 123.003906 380.195312 L 123.382812 380.480469 L 123.757812 380.761719 L 124.136719 381.039062 L 124.511719 381.3125 L 124.890625 381.578125 L 125.265625 381.84375 L 125.644531 382.109375 L 126.019531 382.367188 L 126.398438 382.621094 L 126.773438 382.875 L 127.152344 383.121094 L 127.527344 383.367188 L 127.90625 383.609375 L 128.28125 383.847656 L 128.660156 384.085938 L 129.035156 384.316406 L 129.414062 384.546875 L 129.789062 384.777344 L 130.164062 385 L 130.542969 385.222656 L 130.917969 385.441406 L 131.296875 385.660156 L 131.671875 385.871094 L 132.050781 386.082031 L 132.425781 386.292969 L 132.804688 386.5 L 133.179688 386.703125 L 133.558594 386.90625 L 133.933594 387.105469 L 134.3125 387.300781 L 134.6875 387.496094 L 135.066406 387.6875 L 135.441406 387.878906 L 135.820312 388.066406 L 136.195312 388.25 L 136.574219 388.433594 L 136.949219 388.617188 L 137.324219 388.796875 L 137.703125 388.972656 L 138.078125 389.148438 L 138.457031 389.324219 L 138.832031 389.496094 L 139.210938 389.664062 L 139.585938 389.835938 L 139.964844 390 L 140.339844 390.164062 L 140.71875 390.328125 L 141.09375 390.488281 L 141.472656 390.648438 L 141.847656 390.804688 L 142.226562 390.960938 L 142.601562 391.117188 L 142.980469 391.269531 L 143.355469 391.421875 L 143.730469 391.570312 L 144.109375 391.71875 L 144.484375 391.863281 L 144.863281 392.011719 L 145.238281 392.152344 L 145.617188 392.296875 L 145.992188 392.4375 L 146.371094 392.574219 L 146.746094 392.714844 L 147.125 392.851562 L 147.5 392.984375 L 147.878906 393.121094 L 148.253906 393.25 L 148.632812 393.382812 L 149.007812 393.511719 L 149.386719 393.640625 L 149.761719 393.769531 L 150.140625 393.894531 L 150.890625 394.144531 L 151.269531 394.265625 L 151.644531 394.386719 L 152.023438 394.507812 L 152.398438 394.625 L 152.777344 394.746094 L 153.152344 394.859375 L 153.53125 394.976562 L 153.90625 395.089844 L 154.285156 395.207031 L 154.660156 395.316406 L 155.039062 395.429688 L 155.414062 395.539062 L 155.792969 395.648438 L 156.167969 395.757812 L 156.546875 395.863281 L 156.921875 395.972656 L 157.300781 396.078125 L 157.675781 396.179688 L 158.050781 396.285156 L 158.429688 396.386719 L 158.804688 396.488281 L 159.183594 396.589844 L 159.558594 396.6875 L 159.9375 396.789062 L 160.3125 396.886719 L 160.691406 396.984375 L 161.066406 397.078125 L 161.445312 397.175781 L 161.820312 397.269531 L 162.199219 397.363281 L 162.574219 397.457031 L 162.953125 397.546875 L 163.328125 397.640625 L 163.707031 397.730469 L 164.082031 397.820312 L 164.460938 397.90625 L 164.835938 397.996094 L 165.210938 398.082031 L 165.589844 398.171875 L 165.964844 398.257812 L 166.34375 398.339844 L 166.71875 398.425781 L 167.097656 398.507812 L 167.472656 398.59375 L 167.851562 398.675781 L 168.226562 398.757812 L 168.605469 398.835938 L 168.980469 398.917969 L 169.359375 398.996094 L 169.734375 399.074219 L 170.113281 399.152344 L 170.488281 399.230469 L 170.867188 399.308594 L 171.242188 399.382812 L 171.617188 399.460938 L 171.996094 399.535156 L 172.371094 399.609375 L 172.75 399.683594 L 173.125 399.757812 L 173.503906 399.828125 L 173.878906 399.902344 L 174.257812 399.972656 L 174.632812 400.042969 L 175.011719 400.113281 L 175.386719 400.183594 L 175.765625 400.25 L 176.140625 400.320312 L 176.519531 400.386719 L 176.894531 400.457031 L 177.273438 400.523438 L 177.648438 400.589844 L 178.027344 400.652344 L 178.777344 400.785156 L 179.15625 400.847656 L 179.53125 400.910156 L 179.910156 400.976562 L 180.285156 401.039062 L 180.664062 401.101562 L 181.039062 401.160156 L 181.417969 401.222656 L 181.792969 401.285156 L 182.171875 401.34375 L 182.546875 401.402344 L 182.925781 401.460938 L 183.300781 401.519531 L 183.679688 401.578125 L 184.054688 401.636719 L 184.433594 401.695312 L 184.808594 401.753906 L 185.1875 401.808594 L 185.5625 401.863281 L 185.9375 401.921875 L 186.316406 401.976562 L 186.691406 402.03125 L 187.070312 402.085938 L 187.445312 402.140625 L 187.824219 402.191406 L 188.199219 402.246094 L 188.578125 402.296875 L 188.953125 402.351562 L 189.332031 402.402344 L 189.707031 402.453125 L 190.085938 402.503906 L 190.460938 402.554688 L 190.839844 402.605469 L 191.214844 402.65625 L 191.59375 402.707031 L 191.96875 402.753906 L 192.347656 402.804688 L 192.722656 402.851562 L 193.097656 402.902344 L 193.476562 402.949219 L 193.851562 402.996094 L 194.230469 403.042969 L 194.605469 403.089844 L 194.984375 403.136719 L 195.359375 403.183594 L 195.738281 403.226562 L 196.113281 403.273438 L 196.492188 403.316406 L 196.867188 403.363281 L 197.246094 403.40625 L 197.621094 403.449219 L 198 403.496094 L 198.375 403.539062 L 198.753906 403.582031 L 199.128906 403.625 L 199.503906 403.664062 L 199.882812 403.707031 L 200.257812 403.75 L 200.636719 403.789062 L 201.011719 403.832031 L 201.390625 403.871094 L 201.765625 403.914062 L 202.144531 403.953125 L 202.519531 403.992188 L 202.898438 404.035156 L 203.273438 404.074219 L 203.652344 404.113281 L 204.027344 404.152344 L 204.40625 404.1875 L 204.78125 404.226562 L 205.160156 404.265625 L 205.535156 404.304688 L 205.914062 404.339844 L 206.289062 404.378906 L 206.664062 404.414062 L 207.042969 404.449219 L 207.417969 404.488281 L 207.796875 404.523438 L 208.171875 404.558594 L 208.550781 404.59375 L 208.925781 404.628906 L 209.304688 404.664062 L 209.679688 404.699219 L 210.058594 404.734375 L 210.433594 404.769531 L 210.8125 404.804688 L 211.1875 404.835938 L 211.566406 404.871094 L 211.941406 404.902344 L 212.320312 404.9375 L 212.695312 404.96875 L 213.074219 405.003906 L 213.824219 405.066406 L 214.203125 405.097656 L 214.578125 405.132812 L 214.957031 405.164062 L 215.332031 405.195312 L 215.710938 405.226562 L 216.085938 405.253906 L 216.464844 405.285156 L 216.839844 405.316406 L 217.21875 405.347656 L 217.59375 405.378906 L 217.972656 405.40625 L 218.347656 405.4375 L 218.726562 405.464844 L 219.101562 405.496094 L 219.480469 405.523438 L 219.855469 405.554688 L 220.230469 405.582031 L 220.609375 405.609375 L 220.984375 405.636719 L 221.363281 405.664062 L 221.738281 405.695312 L 222.117188 405.722656 L 222.492188 405.75 L 222.871094 405.777344 L 223.246094 405.804688 L 223.625 405.828125 L 224 405.855469 L 224.378906 405.882812 L 224.753906 405.910156 L 225.132812 405.933594 L 225.507812 405.960938 L 225.886719 405.988281 L 226.261719 406.011719 L 226.640625 406.039062 L 227.015625 406.0625 L 227.390625 406.089844 L 227.769531 406.113281 L 228.144531 406.136719 L 228.523438 406.164062 L 228.898438 406.1875 L 229.277344 406.210938 L 229.652344 406.234375 L 230.03125 406.257812 L 230.40625 406.28125 L 230.785156 406.308594 L 231.160156 406.332031 L 231.539062 406.351562 L 231.914062 406.375 L 232.292969 406.398438 L 232.667969 406.421875 L 233.046875 406.445312 L 233.421875 406.46875 L 233.800781 406.488281 L 234.550781 406.535156 L 234.929688 406.554688 L 235.304688 406.578125 L 235.683594 406.597656 L 236.058594 406.621094 L 236.4375 406.640625 L 236.8125 406.664062 L 237.191406 406.683594 L 237.566406 406.707031 L 237.945312 406.726562 L 238.320312 406.746094 L 238.699219 406.765625 L 239.074219 406.789062 L 239.453125 406.808594 L 239.828125 406.828125 L 240.207031 406.847656 L 240.582031 406.867188 L 240.960938 406.886719 L 241.710938 406.925781 L 242.089844 406.945312 L 242.464844 406.964844 L 242.84375 406.984375 L 243.21875 407.003906 L 243.597656 407.019531 L 243.972656 407.039062 L 244.351562 407.058594 L 244.726562 407.078125 L 245.105469 407.09375 L 245.480469 407.113281 L 245.859375 407.132812 L 246.234375 407.148438 L 246.613281 407.167969 L 246.988281 407.183594 L 247.367188 407.203125 L 247.742188 407.21875 L 248.117188 407.238281 L 248.496094 407.253906 L 248.871094 407.269531 L 249.25 407.289062 L 249.625 407.304688 L 250.003906 407.320312 L 250.378906 407.339844 L 250.757812 407.355469 L 251.132812 407.371094 L 251.511719 407.386719 L 251.886719 407.40625 L 252.265625 407.421875 L 252.640625 407.4375 L 253.019531 407.453125 L 253.394531 407.46875 L 253.773438 407.484375 L 254.148438 407.5 L 254.527344 407.515625 L 255.277344 407.546875 L 255.65625 407.5625 L 256.03125 407.578125 L 256.410156 407.589844 L 256.785156 407.605469 L 257.164062 407.621094 L 257.539062 407.636719 L 257.917969 407.652344 L 258.292969 407.664062 L 258.671875 407.679688 L 259.046875 407.695312 L 259.425781 407.707031 L 259.800781 407.722656 L 260.179688 407.738281 L 260.554688 407.75 L 260.933594 407.765625 L 261.308594 407.777344 L 261.6875 407.792969 L 262.0625 407.804688 L 262.4375 407.820312 L 262.816406 407.832031 L 263.191406 407.847656 L 263.570312 407.859375 L 263.945312 407.871094 L 264.324219 407.886719 L 264.699219 407.898438 L 265.078125 407.910156 L 265.453125 407.925781 L 265.832031 407.9375 L 266.207031 407.949219 L 266.585938 407.964844 L 266.960938 407.976562 L 267.339844 407.988281 L 267.714844 408 L 268.09375 408.011719 L 268.46875 408.023438 L 268.847656 408.039062 L 269.597656 408.0625 L 269.976562 408.074219 L 270.351562 408.085938 L 270.730469 408.097656 L 271.105469 408.109375 L 271.484375 408.121094 L 271.859375 408.132812 L 272.238281 408.144531 L 272.613281 408.15625 L 272.992188 408.167969 L 273.367188 408.175781 L 273.746094 408.1875 L 274.121094 408.199219 L 274.5 408.210938 L 274.875 408.222656 L 275.253906 408.234375 L 275.628906 408.242188 L 276.003906 408.253906 L 276.382812 408.265625 L 276.757812 408.277344 L 277.136719 408.285156 L 277.511719 408.296875 L 277.890625 408.308594 L 278.265625 408.316406 L 278.644531 408.328125 L 279.019531 408.339844 L 279.398438 408.347656 L 279.773438 408.359375 L 280.152344 408.367188 L 280.527344 408.378906 L 280.90625 408.390625 L 281.28125 408.398438 L 281.660156 408.410156 L 282.035156 408.417969 L 282.414062 408.429688 L 283.164062 408.445312 L 283.542969 408.457031 L 283.917969 408.464844 L 284.296875 408.476562 L 284.671875 408.484375 L 285.050781 408.496094 L 285.425781 408.503906 L 285.804688 408.511719 L 286.179688 408.523438 L 286.558594 408.53125 L 286.933594 408.539062 L 287.3125 408.546875 L 287.6875 408.558594 L 288.066406 408.566406 L 288.441406 408.574219 L 288.820312 408.582031 L 289.195312 408.59375 L 289.574219 408.601562 L 290.324219 408.617188 L 290.703125 408.625 L 291.078125 408.636719 L 291.457031 408.644531 L 291.832031 408.652344 L 292.210938 408.660156 L 292.585938 408.667969 L 292.964844 408.675781 L 293.339844 408.683594 L 293.71875 408.691406 L 294.09375 408.699219 L 294.472656 408.707031 L 294.847656 408.714844 L 295.226562 408.722656 L 295.601562 408.730469 L 295.980469 408.738281 L 296.355469 408.746094 L 296.734375 408.753906 L 297.484375 408.769531 L 297.863281 408.777344 L 298.238281 408.785156 L 298.617188 408.792969 L 298.992188 408.800781 L 299.371094 408.808594 L 299.746094 408.816406 L 300.125 408.824219 L 300.5 408.828125 L 300.878906 408.835938 L 301.253906 408.84375 L 301.632812 408.851562 L 302.007812 408.859375 L 302.386719 408.863281 L 302.761719 408.871094 L 303.140625 408.878906 L 303.515625 408.886719 L 303.890625 408.890625 L 304.269531 408.898438 L 304.644531 408.90625 L 305.023438 408.914062 L 305.398438 408.917969 L 305.777344 408.925781 L 306.152344 408.933594 L 306.53125 408.9375 L 306.90625 408.945312 L 307.285156 408.953125 L 307.660156 408.957031 L 308.039062 408.964844 L 308.414062 408.972656 L 308.792969 408.976562 L 309.167969 408.984375 L 309.546875 408.988281 L 309.921875 408.996094 L 310.300781 409.003906 L 310.675781 409.007812 L 311.050781 409.015625 L 311.429688 409.019531 L 311.804688 409.027344 L 312.183594 409.03125 L 312.558594 409.039062 L 312.9375 409.042969 L 313.3125 409.050781 L 313.691406 409.054688 L 314.066406 409.0625 L 314.445312 409.066406 L 314.820312 409.074219 L 315.199219 409.078125 L 315.574219 409.085938 L 315.953125 409.089844 L 316.328125 409.097656 L 316.707031 409.101562 L 317.082031 409.105469 L 317.460938 409.113281 L 317.835938 409.117188 L 318.210938 409.125 L 318.589844 409.128906 L 318.964844 409.132812 L 319.34375 409.140625 L 319.71875 409.144531 L 320.097656 409.148438 L 320.472656 409.15625 L 320.851562 409.160156 L 321.226562 409.164062 L 321.605469 409.171875 L 321.980469 409.175781 L 322.359375 409.179688 L 322.734375 409.1875 L 323.113281 409.191406 L 323.488281 409.195312 L 323.867188 409.199219 L 324.242188 409.207031 L 324.621094 409.210938 L 325.371094 409.21875 L 325.75 409.226562 L 326.125 409.230469 L 326.503906 409.234375 L 326.878906 409.238281 L 327.257812 409.246094 L 327.632812 409.25 L 328.011719 409.253906 L 328.386719 409.257812 L 328.765625 409.261719 L 329.140625 409.265625 L 329.519531 409.273438 L 329.894531 409.277344 L 330.273438 409.28125 L 330.648438 409.285156 L 331.027344 409.289062 L 331.777344 409.296875 L 332.15625 409.300781 L 332.53125 409.308594 L 332.910156 409.3125 L 333.285156 409.316406 L 333.664062 409.320312 L 334.039062 409.324219 L 334.417969 409.328125 L 334.792969 409.332031 L 335.171875 409.335938 L 335.546875 409.339844 L 335.925781 409.34375 L 336.300781 409.347656 L 336.679688 409.351562 L 337.054688 409.355469 L 337.433594 409.359375 L 337.808594 409.363281 L 338.1875 409.367188 L 338.9375 409.375 L 339.316406 409.378906 L 339.691406 409.382812 L 340.070312 409.386719 L 340.445312 409.390625 L 340.824219 409.394531 L 341.199219 409.398438 L 341.578125 409.402344 L 341.953125 409.40625 L 342.332031 409.410156 L 342.707031 409.414062 L 343.085938 409.417969 L 343.460938 409.421875 L 343.839844 409.425781 L 344.214844 409.429688 L 344.59375 409.433594 L 344.96875 409.4375 L 345.347656 409.441406 L 345.722656 409.441406 L 346.097656 409.445312 L 346.476562 409.449219 L 346.851562 409.453125 L 347.230469 409.457031 L 347.605469 409.460938 L 347.984375 409.464844 L 348.359375 409.46875 L 348.738281 409.46875 L 349.113281 409.472656 L 349.492188 409.476562 L 349.867188 409.480469 L 350.246094 409.484375 L 350.621094 409.488281 L 351 409.488281 L 351.375 409.492188 L 351.753906 409.496094 L 352.128906 409.5 L 352.507812 409.503906 L 352.882812 409.507812 L 353.257812 409.507812 L 353.636719 409.511719 L 354.011719 409.515625 L 354.390625 409.519531 L 354.765625 409.519531 L 355.144531 409.523438 L 355.519531 409.527344 L 355.898438 409.53125 L 356.273438 409.535156 L 356.652344 409.535156 L 357.027344 409.539062 L 357.40625 409.542969 L 357.78125 409.546875 L 358.160156 409.546875 L 358.535156 409.550781 L 358.914062 409.554688 L 359.289062 409.554688 L 359.664062 409.558594 L 360.042969 409.5625 L 360.417969 409.566406 L 360.796875 409.566406 L 361.171875 409.570312 L 361.550781 409.574219 L 361.925781 409.574219 L 362.304688 409.578125 L 362.679688 409.582031 L 363.058594 409.585938 L 363.433594 409.585938 L 363.8125 409.589844 L 364.1875 409.59375 L 364.566406 409.59375 L 364.941406 409.597656 L 365.320312 409.601562 L 365.695312 409.601562 L 366.074219 409.605469 L 366.449219 409.609375 L 366.824219 409.609375 L 367.203125 409.613281 L 367.578125 409.613281 L 367.957031 409.617188 L 368.332031 409.621094 L 368.710938 409.621094 L 369.085938 409.625 L 369.464844 409.628906 L 369.839844 409.628906 L 370.21875 409.632812 L 370.59375 409.632812 L 370.972656 409.636719 L 371.347656 409.640625 L 371.726562 409.640625 L 372.101562 409.644531 L 372.480469 409.644531 L 372.855469 409.648438 L 373.234375 409.652344 L 373.609375 409.652344 L 373.984375 409.65625 L 374.363281 409.65625 L 374.738281 409.660156 L 375.117188 409.664062 L 375.492188 409.664062 L 375.871094 409.667969 L 376.246094 409.667969 L 376.625 409.671875 L 377 409.671875 L 377.378906 409.675781 L 377.753906 409.675781 L 378.132812 409.679688 L 378.507812 409.679688 L 378.886719 409.683594 L 379.261719 409.6875 L 379.640625 409.6875 L 380.015625 409.691406 L 380.394531 409.691406 L 380.769531 409.695312 L 381.144531 409.695312 L 381.523438 409.699219 L 381.898438 409.699219 L 382.277344 409.703125 L 382.652344 409.703125 L 383.03125 409.707031 L 383.40625 409.707031 L 383.785156 409.710938 L 384.160156 409.710938 L 384.539062 409.714844 L 384.914062 409.714844 L 385.292969 409.71875 L 385.667969 409.71875 L 386.046875 409.722656 L 386.421875 409.722656 L 386.800781 409.726562 L 387.175781 409.726562 L 387.550781 409.730469 L 387.929688 409.730469 L 388.304688 409.734375 L 389.058594 409.734375 L 389.4375 409.738281 L 389.8125 409.738281 L 390.191406 409.742188 L 390.566406 409.742188 L 390.945312 409.746094 L 391.320312 409.746094 L 391.699219 409.75 L 392.453125 409.75 L 392.828125 409.753906 L 393.207031 409.753906 L 393.582031 409.757812 L 393.960938 409.757812 L 394.335938 409.761719 L 395.089844 409.761719 L 395.464844 409.765625 L 395.84375 409.765625 L 396.21875 409.769531 L 396.972656 409.769531 L 397.351562 409.773438 L 397.726562 409.773438 L 398.105469 409.777344 L 398.480469 409.777344 L 398.859375 409.78125 L 399.613281 409.78125 L 399.988281 409.785156 L 400.742188 409.785156 L 401.121094 409.789062 L 401.496094 409.789062 L 401.871094 409.792969 L 402.625 409.792969 L 403.003906 409.796875 L 403.757812 409.796875 L 404.132812 409.800781 L 404.511719 409.800781 L 404.886719 409.804688 L 405.640625 409.804688 L 406.019531 409.808594 L 406.773438 409.808594 L 407.148438 409.8125 L 407.902344 409.8125 L 408.277344 409.816406 L 409.03125 409.816406 L 409.410156 409.820312 L 410.164062 409.820312 L 410.539062 409.824219 L 411.292969 409.824219 L 411.671875 409.828125 L 412.425781 409.828125 L 412.800781 409.832031 L 413.554688 409.832031 L 413.933594 409.835938 L 414.6875 409.835938 L 415.0625 409.839844 L 416.191406 409.839844 L 416.570312 409.84375 L 417.324219 409.84375 L 417.699219 409.847656 L 418.453125 409.847656 L 418.832031 409.851562 L 419.960938 409.851562 L 420.339844 409.855469 L 421.09375 409.855469 L 421.46875 409.859375 L 422.597656 409.859375 L 422.976562 409.863281 L 424.105469 409.863281 L 424.484375 409.867188 L 425.238281 409.867188 L 425.613281 409.871094 L 426.746094 409.871094 L 427.121094 409.875 L 428.253906 409.875 L 428.628906 409.878906 L 429.757812 409.878906 L 430.136719 409.882812 L 431.265625 409.882812 L 431.644531 409.886719 L 432.773438 409.886719 L 433.152344 409.890625 L 434.660156 409.890625 L 435.035156 409.894531 L 436.164062 409.894531 L 436.542969 409.898438 L 437.671875 409.898438 L 438.050781 409.902344 L 439.558594 409.902344 L 439.933594 409.90625 L 441.441406 409.90625 L 441.820312 409.910156 L 443.324219 409.910156 L 443.703125 409.914062 L 445.210938 409.914062 L 445.585938 409.917969 L 447.09375 409.917969 L 447.472656 409.921875 L 448.980469 409.921875 L 449.355469 409.925781 L 451.238281 409.925781 L 451.617188 409.929688 L 453.125 409.929688 L 453.5 409.933594 L 455.386719 409.933594 L 455.761719 409.9375 L 457.644531 409.9375 L 458.023438 409.941406 L 458.398438 409.941406 "/>
</g>
<g clip-path="url(#clip2)" clip-rule="nonzero">
<path style="fill:none;stroke-width:0.75;stroke-linecap:round;stroke-linejoin:round;stroke:rgb(0%,0%,0%);stroke-opacity:1;stroke-miterlimit:10;" d="M 59.039062 410.054688 L 473.761719 410.054688 "/>
</g>
<g clip-path="url(#clip3)" clip-rule="nonzero">
<path style="fill:none;stroke-width:0.75;stroke-linecap:round;stroke-linejoin:round;stroke:rgb(0%,0%,0%);stroke-opacity:1;stroke-miterlimit:10;" d="M 81.929688 430.558594 L 81.929688 59.039062 "/>
</g>
</g>
</svg>
