<svg xmlns:xlink="http://www.w3.org/1999/xlink" width="2.569ex" height="2.509ex" style="vertical-align: -0.671ex;" viewBox="0 -791.3 1106.1 1080.4" role="img" focusable="false" xmlns="http://www.w3.org/2000/svg" aria-labelledby="MathJax-SVG-1-Title">
<title id="MathJax-SVG-1-Title">{\displaystyle Y_{n}}</title>
<defs aria-hidden="true">
<path stroke-width="1" id="E1-MJMATHI-59" d="M66 637Q54 637 49 637T39 638T32 641T30 647T33 664T42 682Q44 683 56 683Q104 680 165 680Q288 680 306 683H316Q322 677 322 674T320 656Q316 643 310 637H298Q242 637 242 624Q242 619 292 477T343 333L346 336Q350 340 358 349T379 373T411 410T454 461Q546 568 561 587T577 618Q577 634 545 637Q528 637 528 647Q528 649 530 661Q533 676 535 679T549 683Q551 683 578 682T657 680Q684 680 713 681T746 682Q763 682 763 673Q763 669 760 657T755 643Q753 637 734 637Q662 632 617 587Q608 578 477 424L348 273L322 169Q295 62 295 57Q295 46 363 46Q379 46 384 45T390 35Q390 33 388 23Q384 6 382 4T366 1Q361 1 324 1T232 2Q170 2 138 2T102 1Q84 1 84 9Q84 14 87 24Q88 27 89 30T90 35T91 39T93 42T96 44T101 45T107 45T116 46T129 46Q168 47 180 50T198 63Q201 68 227 171L252 274L129 623Q128 624 127 625T125 627T122 629T118 631T113 633T105 634T96 635T83 636T66 637Z"></path>
<path stroke-width="1" id="E1-MJMATHI-6E" d="M21 287Q22 293 24 303T36 341T56 388T89 425T135 442Q171 442 195 424T225 390T231 369Q231 367 232 367L243 378Q304 442 382 442Q436 442 469 415T503 336T465 179T427 52Q427 26 444 26Q450 26 453 27Q482 32 505 65T540 145Q542 153 560 153Q580 153 580 145Q580 144 576 130Q568 101 554 73T508 17T439 -10Q392 -10 371 17T350 73Q350 92 386 193T423 345Q423 404 379 404H374Q288 404 229 303L222 291L189 157Q156 26 151 16Q138 -11 108 -11Q95 -11 87 -5T76 7T74 17Q74 30 112 180T152 343Q153 348 153 366Q153 405 129 405Q91 405 66 305Q60 285 60 284Q58 278 41 278H27Q21 284 21 287Z"></path>
</defs>
<g stroke="currentColor" fill="currentColor" stroke-width="0" transform="matrix(1 0 0 -1 0 0)" aria-hidden="true">
 <use xlink:href="#E1-MJMATHI-59" x="0" y="0"></use>
 <use transform="scale(0.707)" xlink:href="#E1-MJMATHI-6E" x="822" y="-213"></use>
</g>
</svg>