<?xml version="1.0" standalone="no"?>
<!DOCTYPE svg PUBLIC "-//W3C//DTD SVG 1.1//EN"
	"http://www.w3.org/Graphics/SVG/1.1/DTD/svg11.dtd">
<svg xmlns="http://www.w3.org/2000/svg"
     xmlns:xlink="http://www.w3.org/1999/xlink"
     xml:space='preserve'
	width="513" height="92">
<title>abc/fagun1.abc (1)</title>
<g transform="scale(0.750)" font-family="Kalpurush" font-size="20.00">
<text x="342.23" y="25.67" text-anchor="middle">ও রে  ভাই  ফাগুন  লেগেছে  বনে  বনে</text>
</g>
<g transform="scale(0.750)" font-family="Kalpurush" font-size="14.00" font-style="italic">
<text x="671.03" y="45.34" text-anchor="end">রবীন্দ্রনাথ ঠাকুর</text>
<path stroke="currentColor" fill="none"
	d="M13.33 98.01h657.70m-657.70 -6h657.70m-657.70 -6h657.70m-657.70 -6h657.70m-657.70 -6h657.70"/>
</g>
<g transform="scale(0.750)" font-family="Kalpurush" font-size="13.00" font-weight="bold">
<text x="57.33" y="117.81">ও</text>
<text x="97.63" y="117.81">রে</text>
<text x="141.73" y="117.81">ভাই</text>
<text x="212.13" y="117.81">ফা</text>
<text x="262.33" y="117.81">গুন</text>
<text x="326.93" y="117.81">লে</text>
<text x="372.93" y="117.81">গে</text>
<text x="419.03" y="117.81">ছে</text>
<text x="470.83" y="117.81">ব</text>
<text x="511.13" y="117.81">নে</text>
<text x="562.93" y="117.81">ব</text>
<text x="608.33" y="117.81">নে</text>
<defs>
<path id="utclef" fill="currentColor" d="m-50 -90
	c-72 -41 -72 -158 52 -188
	c150 -10 220 188 90 256
	c-114 52 -275 0 -293 -136
	c-15 -181 93 -229 220 -334
	c88 -87 79 -133 62 -210
	c-51 33 -94 105 -89 186
	c17 267 36 374 49 574
	c6 96 -19 134 -77 135
	c-80 1 -126 -93 -61 -133
	c85 -41 133 101 31 105
	c23 17 92 37 90 -92
	c-10 -223 -39 -342 -50 -617
	c0 -90 0 -162 96 -232
	c56 72 63 230 22 289
	c-74 106 -257 168 -255 316
	c9 153 148 185 252 133
	c86 -65 29 -192 -80 -176
	c-71 12 -105 67 -59 124"/>
<use id="tclef" transform="scale(0.045)"
	xlink:href="#utclef"/>
</defs>
<use x="25.33" y="98.01" xlink:href="#tclef"/>
<g font-family="Kalpurush" font-size="15" font-weight="bold" font-style="normal"
	transform="translate(43.83,98.01) scale(1.2,1)">
	<text y="-1" text-anchor="middle">4</text>
	<text y="-13" text-anchor="middle">4</text>
</g>
<defs>
<ellipse id="hd" rx="4.2" ry="3.2"
	transform="rotate(-20)" fill="currentColor"/>
</defs>
<use x="68.23" y="83.01" xlink:href="#hd"/>
<path d="M64.73 83.01v20.00" stroke="currentColor" fill="none"/>
<use x="114.33" y="86.01" xlink:href="#hd"/>
<path d="M110.83 86.01v20.00" stroke="currentColor" fill="none"/>
<use x="161.73" y="83.01" xlink:href="#hd"/>
<path d="M158.23 83.01v20.00" stroke="currentColor" fill="none"/>
<use x="231.23" y="92.01" xlink:href="#hd"/>
<path d="M234.73 92.01v-20.00" stroke="currentColor" fill="none"/>
<use x="282.33" y="89.01" xlink:href="#hd"/>
<defs>
<path id="uflat" fill="currentColor" d="
	m100 -746
	h32
	v734
	l-32 4
	m32 -332
	c46 -72 152 -90 208 -20
	c100 110 -120 326 -208 348
	m0 -28
	c54 0 200 -206 130 -290
	c-50 -60 -130 -4 -130 34"/>
<use id="ft0" transform="translate(-3.5,3.5) scale(0.018)"
	xlink:href="#uflat"/>
</defs>
<use x="273.33" y="89.01" xlink:href="#ft0"/>
<path d="M285.83 89.01v-20.00" stroke="currentColor" fill="none"/>
<use x="343.53" y="89.01" xlink:href="#hd"/>
<use x="334.53" y="89.01" xlink:href="#ft0"/>
<path d="M347.03 89.01v-20.00" stroke="currentColor" fill="none"/>
<use x="389.63" y="92.01" xlink:href="#hd"/>
<path d="M393.13 92.01v-20.00" stroke="currentColor" fill="none"/>
<use x="435.73" y="95.01" xlink:href="#hd"/>
<path d="M439.23 95.01v-20.00" stroke="currentColor" fill="none"/>
<use x="481.73" y="92.01" xlink:href="#hd"/>
<path d="M485.23 92.01v-20.00" stroke="currentColor" fill="none"/>
<use x="527.83" y="89.01" xlink:href="#hd"/>
<use x="518.83" y="89.01" xlink:href="#ft0"/>
<path d="M531.33 89.01v-20.00" stroke="currentColor" fill="none"/>
<use x="573.83" y="86.01" xlink:href="#hd"/>
<path d="M577.33 86.01v-20.00" stroke="currentColor" fill="none"/>
<use x="625.03" y="83.01" xlink:href="#hd"/>
<path d="M621.53 83.01v20.00" stroke="currentColor" fill="none"/>
</g>
</svg>
