<?xml version="1.0" standalone="no"?>
<!DOCTYPE svg PUBLIC "-//W3C//DTD SVG 1.1//EN"
	"http://www.w3.org/Graphics/SVG/1.1/DTD/svg11.dtd">
<svg xmlns="http://www.w3.org/2000/svg"
     xmlns:xlink="http://www.w3.org/1999/xlink"
     xml:space='preserve'
	width="513" height="200">
<title>abc/kara1.abc (1)</title>
<g transform="scale(0.750)" font-family="Kalpurush" font-size="20.00">
<text x="342.23" y="25.67" text-anchor="middle">কারার ওই লৌহ কপাট</text>
</g>
<g transform="scale(0.750)" font-family="Kalpurush" font-size="14.00" font-style="italic">
<text x="671.03" y="45.34" text-anchor="end">নজরুল</text>
<path stroke="currentColor" fill="none"
	d="M13.33 98.01h657.70m-657.70 -6h657.70m-657.70 -6h657.70m-657.70 -6h657.70m-657.70 -6h657.70"/>
</g>
<g transform="scale(0.750)" font-family="Kalpurush" font-size="13.00" font-weight="bold">
<text x="108.03" y="117.81">হা</text>
<text x="155.83" y="117.81">হা</text>
<text x="203.63" y="117.81">হা</text>
<text x="267.53" y="117.81">পায়</text>
<text x="329.73" y="117.81">যে</text>
<text x="392.13" y="117.81">হা</text>
<text x="439.83" y="117.81">সি</text>
<text x="577.63" y="117.81">ভ</text>
<text x="623.53" y="117.81">গ</text>
<defs>
<path id="utclef" fill="currentColor" d="m-50 -90
	c-72 -41 -72 -158 52 -188
	c150 -10 220 188 90 256
	c-114 52 -275 0 -293 -136
	c-15 -181 93 -229 220 -334
	c88 -87 79 -133 62 -210
	c-51 33 -94 105 -89 186
	c17 267 36 374 49 574
	c6 96 -19 134 -77 135
	c-80 1 -126 -93 -61 -133
	c85 -41 133 101 31 105
	c23 17 92 37 90 -92
	c-10 -223 -39 -342 -50 -617
	c0 -90 0 -162 96 -232
	c56 72 63 230 22 289
	c-74 106 -257 168 -255 316
	c9 153 148 185 252 133
	c86 -65 29 -192 -80 -176
	c-71 12 -105 67 -59 124"/>
<use id="tclef" transform="scale(0.045)"
	xlink:href="#utclef"/>
</defs>
<use x="25.33" y="98.01" xlink:href="#tclef"/>
<g font-family="Kalpurush" font-size="15" font-weight="bold" font-style="normal"
	transform="translate(43.83,98.01) scale(1.2,1)">
	<text y="-1" text-anchor="middle">4</text>
	<text y="-13" text-anchor="middle">3</text>
</g>
<defs>
<rect id="r2" fill="currentColor"
	x="-3.5" y="-3" width="7" height="3"/>
</defs>
<use x="62.33" y="86.01" xlink:href="#r2"/>
<defs>
<ellipse id="hd" rx="4.2" ry="3.2"
	transform="rotate(-20)" fill="currentColor"/>
</defs>
<use x="127.13" y="77.01" xlink:href="#hd"/>
<path d="M123.63 77.01v20.00" stroke="currentColor" fill="none"/>
<use x="174.93" y="77.01" xlink:href="#hd"/>
<path d="M171.43 77.01v20.00" stroke="currentColor" fill="none"/>
<defs>
<path id="Hd" fill="currentColor" d="m3 -1.6
	c-1 -1.8 -7 1.4 -6 3.2
	c1 1.8 7 -1.4 6 -3.2
	m0.5 -0.3
	c2 3.8 -5 7.6 -7 3.8
	c-2 -3.8 5 -7.6 7 -3.8"/>
</defs>
<use x="222.73" y="77.01" xlink:href="#Hd"/>
<path d="M219.23 77.01v20.00" stroke="currentColor" fill="none"/>
<use x="287.53" y="80.01" xlink:href="#hd"/>
<path d="M284.03 80.01v20.00" stroke="currentColor" fill="none"/>
<use x="346.33" y="80.01" xlink:href="#Hd"/>
<path d="M342.83 80.01v20.00" stroke="currentColor" fill="none"/>
<use x="411.23" y="80.01" xlink:href="#hd"/>
<path d="M407.73 80.01v20.00" stroke="currentColor" fill="none"/>
<use x="458.93" y="80.01" xlink:href="#Hd"/>
<path d="M455.43 80.01v20.00" stroke="currentColor" fill="none"/>
<use x="523.83" y="86.01" xlink:href="#r2"/>
<use x="588.63" y="83.01" xlink:href="#hd"/>
<path d="M585.13 83.01v20.00" stroke="currentColor" fill="none"/>
<use x="634.43" y="83.01" xlink:href="#hd"/>
<path d="M630.93 83.01v20.00" stroke="currentColor" fill="none"/>
<path stroke="currentColor" fill="none"
	d="M13.33 170.01h657.70m-657.70 -6h657.70m-657.70 -6h657.70m-657.70 -6h657.70m-657.70 -6h657.70"/>
<text x="37.33" y="189.81">বান</text>
<text x="117.43" y="189.81">পর</text>
<text x="175.93" y="189.81">বে</text>
<text x="251.83" y="189.81">ফাঁ</text>
<text x="320.93" y="189.81">সী</text>
<text x="396.93" y="189.81">সর্</text>
<text x="485.23" y="189.81">‌‌ব</text>
<text x="533.03" y="189.81">না</text>
<text x="591.53" y="189.81">শী</text>
<use x="25.33" y="170.01" xlink:href="#tclef"/>
<use x="57.33" y="155.01" xlink:href="#Hd"/>
<path d="M53.83 155.01v20.00" stroke="currentColor" fill="none"/>
<use x="136.63" y="161.01" xlink:href="#hd"/>
<path d="M140.13 161.01v-20.00" stroke="currentColor" fill="none"/>
<use x="192.63" y="161.01" xlink:href="#Hd"/>
<path d="M196.13 161.01v-20.00" stroke="currentColor" fill="none"/>
<use x="271.83" y="161.01" xlink:href="#hd"/>
<path d="M275.33 161.01v-20.00" stroke="currentColor" fill="none"/>
<use x="337.63" y="161.01" xlink:href="#Hd"/>
<path d="M341.13 161.01v-20.00" stroke="currentColor" fill="none"/>
<use x="416.93" y="164.01" xlink:href="#Hd"/>
<path d="M420.43 164.01v-20.00" stroke="currentColor" fill="none"/>
<use x="496.13" y="164.01" xlink:href="#hd"/>
<path d="M499.63 164.01v-20.00" stroke="currentColor" fill="none"/>
<use x="552.13" y="164.01" xlink:href="#hd"/>
<path d="M555.63 164.01v-20.00" stroke="currentColor" fill="none"/>
<use x="608.13" y="164.01" xlink:href="#Hd"/>
<path d="M611.63 164.01v-20.00" stroke="currentColor" fill="none"/>
<path stroke="currentColor" fill="none"
	d="M13.33 242.01h657.70m-657.70 -6h657.70m-657.70 -6h657.70m-657.70 -6h657.70m-657.70 -6h657.70"/>
<text x="37.33" y="261.81">শি</text>
<text x="100.03" y="261.81">খায়</text>
<text x="199.13" y="261.81">এ</text>
<text x="253.73" y="261.81">হীন</text>
<text x="343.73" y="261.81">তথ্</text>
<text x="416.43" y="261.81">‌‌থ</text>
<text x="500.73" y="261.81">কে</text>
<text x="561.93" y="261.81">রে?</text>
<use x="25.33" y="242.01" xlink:href="#tclef"/>
<use x="56.43" y="239.01" xlink:href="#hd"/>
<path d="M59.93 239.01v-20.00" stroke="currentColor" fill="none"/>
<use x="120.03" y="239.01" xlink:href="#Hd"/>
<path d="M123.53 239.01v-20.00" stroke="currentColor" fill="none"/>
<use x="210.13" y="245.01" xlink:href="#hd"/>
<path d="M213.63 245.01v-20.00" stroke="currentColor" fill="none"/>
<defs>
<path id="hl" stroke="currentColor" d="m-6 0h12"/>
</defs>
<use x="273.73" y="248.01" xlink:href="#hl"/>
<use x="273.73" y="248.01" xlink:href="#Hd"/>
<path d="M277.23 248.01v-20.00" stroke="currentColor" fill="none"/>
<use x="363.73" y="245.01" xlink:href="#hd"/>
<path d="M367.23 245.01v-20.00" stroke="currentColor" fill="none"/>
<use x="427.33" y="245.01" xlink:href="#Hd"/>
<path d="M430.83 245.01v-20.00" stroke="currentColor" fill="none"/>
<use x="517.43" y="239.01" xlink:href="#hd"/>
<path d="M520.93 239.01v-20.00" stroke="currentColor" fill="none"/>
<use x="581.03" y="239.01" xlink:href="#Hd"/>
<path d="M584.53 239.01v-20.00" stroke="currentColor" fill="none"/>
</g>
</svg>
