<?xml version="1.0" encoding="UTF-8" standalone="no"?>
<svg
  xmlns:dc="http://purl.org/dc/elements/1.1/"
  xmlns:cc="http://creativecommons.org/ns#"
  xmlns:rdf="http://www.w3.org/1999/02/22-rdf-syntax-ns#"
  xmlns:svg="http://www.w3.org/2000/svg"
  xmlns="http://www.w3.org/2000/svg"
  xmlns:xlink="http://www.w3.org/1999/xlink"
  xmlns:sodipodi="http://sodipodi.sourceforge.net/DTD/sodipodi-0.dtd"
  xmlns:inkscape="http://www.inkscape.org/namespaces/inkscape"
  xml:space="preserve"
  width="513"
  height="181"
  id="svg2"
  version="1.1"
  inkscape:version="0.91 r13725"
  sodipodi:docname="kara3.svg"><metadata
   id="metadata208"><rdf:RDF><cc:Work
     rdf:about=""><dc:format>image/svg+xml</dc:format><dc:type
      rdf:resource="http://purl.org/dc/dcmitype/StillImage" /></cc:Work></rdf:RDF></metadata><defs
   id="defs206"><defs
    id="defs26"><path
     d="m-50 -90  c-72 -41 -72 -158 52 -188  c150 -10 220 188 90 256  c-114 52 -275 0 -293 -136  c-15 -181 93 -229 220 -334  c88 -87 79 -133 62 -210  c-51 33 -94 105 -89 186  c17 267 36 374 49 574  c6 96 -19 134 -77 135  c-80 1 -126 -93 -61 -133  c85 -41 133 101 31 105  c23 17 92 37 90 -92  c-10 -223 -39 -342 -50 -617  c0 -90 0 -162 96 -232  c56 72 63 230 22 289  c-74 106 -257 168 -255 316  c9 153 148 185 252 133  c86 -65 29 -192 -80 -176  c-71 12 -105 67 -59 124"
     fill="currentColor"
     id="utclef" /><use
     xlink:href="#utclef"
     transform="scale(0.045)"
     id="tclef" /></defs><defs
    id="defs38"><rect
     height="3"
     width="7"
     y="-3"
     x="-3.5"
     fill="currentColor"
     id="r2" /></defs><defs
    id="defs43"><ellipse
     fill="currentColor"
     transform="rotate(-20)"
     ry="3.2"
     rx="4.2"
     id="hd" /></defs><defs
    id="defs54"><path
     d="m3 -1.6  c-1 -1.8 -7 1.4 -6 3.2  c1 1.8 7 -1.4 6 -3.2  m0.5 -0.3  c2 3.8 -5 7.6 -7 3.8  c-2 -3.8 5 -7.6 7 -3.8"
     fill="currentColor"
     id="Hd" /></defs><defs
    id="defs179"><path
     d="m-6 0h12"
     stroke="currentColor"
     id="hl" /></defs></defs><sodipodi:namedview
   pagecolor="#ffffff"
   bordercolor="#666666"
   borderopacity="1"
   objecttolerance="10"
   gridtolerance="10"
   guidetolerance="10"
   inkscape:pageopacity="0"
   inkscape:pageshadow="2"
   inkscape:window-width="640"
   inkscape:window-height="480"
   id="namedview204"
   showgrid="false"
   inkscape:zoom="0.96484375"
   inkscape:cx="256.5"
   inkscape:cy="90.5"
   inkscape:window-x="65"
   inkscape:window-y="24"
   inkscape:window-maximized="0"
   inkscape:current-layer="svg2" /><title
   id="title4">abc/kara3.abc (1)</title><g
   transform="scale(0.750)"
   id="g6"><path
    stroke="currentColor"
    fill="none"
    d="M13.33 72.34h657.70m-657.70 -6h657.70m-657.70 -6h657.70m-657.70 -6h657.70m-657.70 -6h657.70"
    id="path8" /></g><text
   style="font-weight:bold;font-size:9px;font-family:Kalpurush"
   id="text12"
   y="69.104996"
   x="101.4975">হা</text>
<text
   style="font-weight:bold;font-size:9px;font-family:Kalpurush"
   id="text14"
   y="69.104996"
   x="150.32249">হা</text>
<text
   style="font-weight:bold;font-size:9px;font-family:Kalpurush"
   id="text16"
   y="69.104996"
   x="199.14749">হা</text>
<text
   style="font-weight:bold;font-size:9px;font-family:Kalpurush"
   id="text18"
   y="69.104996"
   x="267.54752">পায়</text>
<text
   style="font-weight:bold;font-size:9px;font-family:Kalpurush"
   id="text20"
   y="69.104996"
   x="318.8475">যে</text>
<text
   style="font-weight:bold;font-size:9px;font-family:Kalpurush"
   id="text22"
   y="69.104996"
   x="386.1225">হা</text>
<text
   style="font-weight:bold;font-size:9px;font-family:Kalpurush"
   id="text24"
   y="69.104996"
   x="434.94751">সি</text>
<use
   height="100%"
   width="100%"
   style="font-weight:bold;font-size:medium;font-family:Kalpurush"
   id="use30"
   xlink:href="#tclef"
   y="72.339996"
   x="25.33"
   transform="scale(0.75,0.75)" /><g
   style="font-style:normal;font-weight:bold;font-size:15px;font-family:Kalpurush"
   id="g32"
   transform="matrix(0.9,0,0,0.75,32.8725,54.255)"
   font-style="normal"
   font-weight="bold"
   font-size="15"><text
    style="text-anchor:middle"
    id="text34"
    y="-1">4</text>
<text
    style="text-anchor:middle"
    id="text36"
    y="-13">3</text>
</g><use
   height="100%"
   width="100%"
   style="font-weight:bold;font-size:medium;font-family:Kalpurush"
   id="use41"
   xlink:href="#r2"
   y="60.34"
   x="62.330002"
   transform="scale(0.75,0.75)" /><use
   height="100%"
   width="100%"
   style="font-weight:bold;font-size:medium;font-family:Kalpurush"
   id="use46"
   xlink:href="#hd"
   y="51.34"
   x="154.42999"
   transform="scale(0.75,0.75)" /><path
   style="font-weight:bold;font-size:medium;font-family:Kalpurush;fill:none;stroke:currentColor;stroke-width:0.75"
   inkscape:connector-curvature="0"
   id="path48"
   d="m 113.1975,38.505 0,15" /><use
   height="100%"
   width="100%"
   style="font-weight:bold;font-size:medium;font-family:Kalpurush"
   id="use50"
   xlink:href="#hd"
   y="51.34"
   x="219.53"
   transform="scale(0.75,0.75)" /><path
   style="font-weight:bold;font-size:medium;font-family:Kalpurush;fill:none;stroke:currentColor;stroke-width:0.75"
   inkscape:connector-curvature="0"
   id="path52"
   d="m 162.0225,38.505 0,15" /><use
   height="100%"
   width="100%"
   style="font-weight:bold;font-size:medium;font-family:Kalpurush"
   id="use57"
   xlink:href="#Hd"
   y="51.34"
   x="284.63"
   transform="scale(0.75,0.75)" /><path
   style="font-weight:bold;font-size:medium;font-family:Kalpurush;fill:none;stroke:currentColor;stroke-width:0.75"
   inkscape:connector-curvature="0"
   id="path59"
   d="m 210.8475,38.505 0,15" /><use
   height="100%"
   width="100%"
   style="font-weight:bold;font-size:medium;font-family:Kalpurush"
   id="use61"
   xlink:href="#hd"
   y="54.34"
   x="376.73001"
   transform="scale(0.75,0.75)" /><path
   style="font-weight:bold;font-size:medium;font-family:Kalpurush;fill:none;stroke:currentColor;stroke-width:0.75"
   inkscape:connector-curvature="0"
   id="path63"
   d="m 279.9225,40.755 0,15" /><use
   height="100%"
   width="100%"
   style="font-weight:bold;font-size:medium;font-family:Kalpurush"
   id="use65"
   xlink:href="#Hd"
   y="54.34"
   x="441.82999"
   transform="scale(0.75,0.75)" /><path
   style="font-weight:bold;font-size:medium;font-family:Kalpurush;fill:none;stroke:currentColor;stroke-width:0.75"
   inkscape:connector-curvature="0"
   id="path67"
   d="m 328.7475,40.755 0,15" /><use
   height="100%"
   width="100%"
   style="font-weight:bold;font-size:medium;font-family:Kalpurush"
   id="use69"
   xlink:href="#hd"
   y="54.34"
   x="533.92999"
   transform="scale(0.75,0.75)" /><path
   style="font-weight:bold;font-size:medium;font-family:Kalpurush;fill:none;stroke:currentColor;stroke-width:0.75"
   inkscape:connector-curvature="0"
   id="path71"
   d="m 397.8225,40.755 0,15" /><use
   height="100%"
   width="100%"
   style="font-weight:bold;font-size:medium;font-family:Kalpurush"
   id="use73"
   xlink:href="#Hd"
   y="54.34"
   x="599.03003"
   transform="scale(0.75,0.75)" /><path
   style="font-weight:bold;font-size:medium;font-family:Kalpurush;fill:none;stroke:currentColor;stroke-width:0.75"
   inkscape:connector-curvature="0"
   id="path75"
   d="m 446.6475,40.755 0,15" /><path
   style="font-weight:bold;font-size:medium;font-family:Kalpurush;fill:none;stroke:currentColor;stroke-width:0.75"
   inkscape:connector-curvature="0"
   id="path77"
   d="m 9.9975,108.255 493.275,0 m -493.275,-4.5 493.275,0 m -493.275,-4.5 493.275,0 m -493.275,-4.5 493.275,0 m -493.275,-4.5 493.275,0" /><text
   style="font-weight:bold;font-size:9px;font-family:Kalpurush"
   id="text79"
   y="123.105"
   x="92.647499">বাঘ</text>
<text
   style="font-weight:bold;font-size:9px;font-family:Kalpurush"
   id="text81"
   y="123.105"
   x="146.64749">আজ</text>
<text
   style="font-weight:bold;font-size:9px;font-family:Kalpurush"
   id="text83"
   y="123.105"
   x="196.07249">বা</text>
<text
   style="font-weight:bold;font-size:9px;font-family:Kalpurush"
   id="text85"
   y="123.105"
   x="265.3725">ঘের</text>
<text
   style="font-weight:bold;font-size:9px;font-family:Kalpurush"
   id="text87"
   y="123.105"
   x="315.39749">মা</text>
<text
   style="font-weight:bold;font-size:9px;font-family:Kalpurush"
   id="text89"
   y="123.105"
   x="387.17249">সী</text>
<use
   height="100%"
   width="100%"
   style="font-weight:bold;font-size:medium;font-family:Kalpurush"
   id="use91"
   xlink:href="#tclef"
   y="144.34"
   x="25.33"
   transform="scale(0.75,0.75)" /><use
   height="100%"
   width="100%"
   style="font-weight:bold;font-size:medium;font-family:Kalpurush"
   id="use93"
   xlink:href="#r2"
   y="132.34"
   x="50.330002"
   transform="scale(0.75,0.75)" /><use
   height="100%"
   width="100%"
   style="font-weight:bold;font-size:medium;font-family:Kalpurush"
   id="use95"
   xlink:href="#hd"
   y="129.34"
   x="143.53"
   transform="scale(0.75,0.75)" /><path
   style="font-weight:bold;font-size:medium;font-family:Kalpurush;fill:none;stroke:currentColor;stroke-width:0.75"
   inkscape:connector-curvature="0"
   id="path97"
   d="m 105.0225,97.005 0,15" /><use
   height="100%"
   width="100%"
   style="font-weight:bold;font-size:medium;font-family:Kalpurush"
   id="use99"
   xlink:href="#hd"
   y="129.34"
   x="214.63"
   transform="scale(0.75,0.75)" /><path
   style="font-weight:bold;font-size:medium;font-family:Kalpurush;fill:none;stroke:currentColor;stroke-width:0.75"
   inkscape:connector-curvature="0"
   id="path101"
   d="m 158.3475,97.005 0,15" /><use
   height="100%"
   width="100%"
   style="font-weight:bold;font-size:medium;font-family:Kalpurush"
   id="use103"
   xlink:href="#Hd"
   y="129.34"
   x="280.53"
   transform="scale(0.75,0.75)" /><path
   style="font-weight:bold;font-size:medium;font-family:Kalpurush;fill:none;stroke:currentColor;stroke-width:0.75"
   inkscape:connector-curvature="0"
   id="path105"
   d="m 207.7725,97.005 0,15" /><use
   height="100%"
   width="100%"
   style="font-weight:bold;font-size:medium;font-family:Kalpurush"
   id="use107"
   xlink:href="#hd"
   y="135.34"
   x="373.82999"
   transform="scale(0.75,0.75)" /><path
   style="font-weight:bold;font-size:medium;font-family:Kalpurush;fill:none;stroke:currentColor;stroke-width:0.75"
   inkscape:connector-curvature="0"
   id="path109"
   d="m 282.9975,101.505 0,-15" /><use
   height="100%"
   width="100%"
   style="font-weight:bold;font-size:medium;font-family:Kalpurush"
   id="use111"
   xlink:href="#Hd"
   y="135.34"
   x="439.63"
   transform="scale(0.75,0.75)" /><path
   style="font-weight:bold;font-size:medium;font-family:Kalpurush;fill:none;stroke:currentColor;stroke-width:0.75"
   inkscape:connector-curvature="0"
   id="path113"
   d="m 332.3475,101.505 0,-15" /><use
   height="100%"
   width="100%"
   style="font-weight:bold;font-size:medium;font-family:Kalpurush"
   id="use115"
   xlink:href="#hd"
   y="135.34"
   x="532.92999"
   transform="scale(0.75,0.75)" /><path
   style="font-weight:bold;font-size:medium;font-family:Kalpurush;fill:none;stroke:currentColor;stroke-width:0.75"
   inkscape:connector-curvature="0"
   id="path117"
   d="m 402.3225,101.505 0,-15" /><path
   style="font-weight:bold;font-size:medium;font-family:Kalpurush;fill:none;stroke:currentColor;stroke-width:0.75"
   inkscape:connector-curvature="0"
   id="path123"
   d="m 9.9975,162.255 493.275,0 m -493.275,-4.5 493.275,0 m -493.275,-4.5 493.275,0 m -493.275,-4.5 493.275,0 m -493.275,-4.5 493.275,0" /><text
   style="font-weight:bold;font-size:9px;font-family:Kalpurush"
   id="text125"
   y="177.105"
   x="27.997501">হা</text>
<text
   style="font-weight:bold;font-size:9px;font-family:Kalpurush"
   id="text127"
   y="177.105"
   x="67.522499">লুম</text>
<text
   style="font-weight:bold;font-size:9px;font-family:Kalpurush"
   id="text129"
   y="177.105"
   x="114.1725">ছে</text>
<text
   style="font-weight:bold;font-size:9px;font-family:Kalpurush"
   id="text131"
   y="177.105"
   x="145.44749">ড়ে</text>
<text
   style="font-weight:bold;font-size:9px;font-family:Kalpurush"
   id="text133"
   y="177.105"
   x="180.69749">মিঁ</text>
<text
   style="font-weight:bold;font-size:9px;font-family:Kalpurush"
   id="text135"
   y="177.105"
   x="231.92252">য়াও</text>
<text
   style="font-weight:bold;font-size:9px;font-family:Kalpurush"
   id="text137"
   y="177.105"
   x="279.32251">ক</text>
<text
   style="font-weight:bold;font-size:9px;font-family:Kalpurush"
   id="text139"
   y="177.105"
   x="303.2475">রে</text>
<text
   style="font-weight:bold;font-size:9px;font-family:Kalpurush"
   id="text141"
   y="177.105"
   x="340.67252">গুম</text>
<text
   style="font-weight:bold;font-size:9px;font-family:Kalpurush"
   id="text143"
   y="177.105"
   x="387.32251">ড়ে</text>
<text
   style="font-weight:bold;font-size:9px;font-family:Kalpurush"
   id="text145"
   y="177.105"
   x="428.64752">ম</text>
<text
   style="font-weight:bold;font-size:9px;font-family:Kalpurush"
   id="text147"
   y="177.105"
   x="452.57251">রে</text>
<use
   height="100%"
   width="100%"
   style="font-weight:bold;font-size:medium;font-family:Kalpurush"
   id="use149"
   xlink:href="#tclef"
   y="216.34"
   x="25.33"
   transform="scale(0.75,0.75)" /><use
   height="100%"
   width="100%"
   style="font-weight:bold;font-size:medium;font-family:Kalpurush"
   id="use151"
   xlink:href="#Hd"
   y="210.34"
   x="56.43"
   transform="scale(0.75,0.75)" /><path
   style="font-weight:bold;font-size:medium;font-family:Kalpurush;fill:none;stroke:currentColor;stroke-width:0.75"
   inkscape:connector-curvature="0"
   id="path153"
   d="m 44.9475,157.755 0,-15" /><use
   height="100%"
   width="100%"
   style="font-weight:bold;font-size:medium;font-family:Kalpurush"
   id="use155"
   xlink:href="#hd"
   y="210.34"
   x="110.03"
   transform="scale(0.75,0.75)" /><path
   style="font-weight:bold;font-size:medium;font-family:Kalpurush;fill:none;stroke:currentColor;stroke-width:0.75"
   inkscape:connector-curvature="0"
   id="path157"
   d="m 85.1475,157.755 0,-15" /><use
   height="100%"
   width="100%"
   style="font-weight:bold;font-size:medium;font-family:Kalpurush"
   id="use159"
   xlink:href="#hd"
   y="210.34"
   x="168.92999"
   transform="scale(0.75,0.75)" /><path
   style="font-weight:bold;font-size:medium;font-family:Kalpurush;fill:none;stroke:currentColor;stroke-width:0.75"
   inkscape:connector-curvature="0"
   id="path161"
   d="m 129.3225,157.755 0,-15" /><use
   height="100%"
   width="100%"
   style="font-weight:bold;font-size:medium;font-family:Kalpurush"
   id="use163"
   xlink:href="#Hd"
   y="210.34"
   x="208.13"
   transform="scale(0.75,0.75)" /><path
   style="font-weight:bold;font-size:medium;font-family:Kalpurush;fill:none;stroke:currentColor;stroke-width:0.75"
   inkscape:connector-curvature="0"
   id="path165"
   d="m 158.7225,157.755 0,-15" /><use
   height="100%"
   width="100%"
   style="font-weight:bold;font-size:medium;font-family:Kalpurush"
   id="use167"
   xlink:href="#hd"
   y="213.34"
   x="260.92999"
   transform="scale(0.75,0.75)" /><path
   style="font-weight:bold;font-size:medium;font-family:Kalpurush;fill:none;stroke:currentColor;stroke-width:0.75"
   inkscape:connector-curvature="0"
   id="path169"
   d="m 198.3225,160.005 0,-15" /><use
   height="100%"
   width="100%"
   style="font-weight:bold;font-size:medium;font-family:Kalpurush"
   id="use171"
   xlink:href="#Hd"
   y="213.34"
   x="329.23001"
   transform="scale(0.75,0.75)" /><path
   style="font-weight:bold;font-size:medium;font-family:Kalpurush;fill:none;stroke:currentColor;stroke-width:0.75"
   inkscape:connector-curvature="0"
   id="path173"
   d="m 249.5475,160.005 0,-15" /><use
   height="100%"
   width="100%"
   style="font-weight:bold;font-size:medium;font-family:Kalpurush"
   id="use175"
   xlink:href="#hd"
   y="219.34"
   x="383.32999"
   transform="scale(0.75,0.75)" /><path
   style="font-weight:bold;font-size:medium;font-family:Kalpurush;fill:none;stroke:currentColor;stroke-width:0.75"
   inkscape:connector-curvature="0"
   id="path177"
   d="m 290.1225,164.505 0,-15" /><use
   height="100%"
   width="100%"
   style="font-weight:bold;font-size:medium;font-family:Kalpurush"
   id="use182"
   xlink:href="#hl"
   y="222.34"
   x="421.03"
   transform="scale(0.75,0.75)" /><use
   height="100%"
   width="100%"
   style="font-weight:bold;font-size:medium;font-family:Kalpurush"
   id="use184"
   xlink:href="#Hd"
   y="222.34"
   x="421.03"
   transform="scale(0.75,0.75)" /><path
   style="font-weight:bold;font-size:medium;font-family:Kalpurush;fill:none;stroke:currentColor;stroke-width:0.75"
   inkscape:connector-curvature="0"
   id="path186"
   d="m 318.3975,166.755 0,-15" /><use
   height="100%"
   width="100%"
   style="font-weight:bold;font-size:medium;font-family:Kalpurush"
   id="use188"
   xlink:href="#hd"
   y="219.34"
   x="474.23001"
   transform="scale(0.75,0.75)" /><path
   style="font-weight:bold;font-size:medium;font-family:Kalpurush;fill:none;stroke:currentColor;stroke-width:0.75"
   inkscape:connector-curvature="0"
   id="path190"
   d="m 358.2975,164.505 0,-15" /><use
   height="100%"
   width="100%"
   style="font-weight:bold;font-size:medium;font-family:Kalpurush"
   id="use192"
   xlink:href="#Hd"
   y="219.34"
   x="530.63"
   transform="scale(0.75,0.75)" /><path
   style="font-weight:bold;font-size:medium;font-family:Kalpurush;fill:none;stroke:currentColor;stroke-width:0.75"
   inkscape:connector-curvature="0"
   id="path194"
   d="m 400.5975,164.505 0,-15" /><use
   height="100%"
   width="100%"
   style="font-weight:bold;font-size:medium;font-family:Kalpurush"
   id="use196"
   xlink:href="#hd"
   y="213.34"
   x="582.42999"
   transform="scale(0.75,0.75)" /><path
   style="font-weight:bold;font-size:medium;font-family:Kalpurush;fill:none;stroke:currentColor;stroke-width:0.75"
   inkscape:connector-curvature="0"
   id="path198"
   d="m 439.4475,160.005 0,-15" /><use
   height="100%"
   width="100%"
   style="font-weight:bold;font-size:medium;font-family:Kalpurush"
   id="use200"
   xlink:href="#Hd"
   y="213.34"
   x="620.13"
   transform="scale(0.75,0.75)" /><path
   style="font-weight:bold;font-size:medium;font-family:Kalpurush;fill:none;stroke:currentColor;stroke-width:0.75"
   inkscape:connector-curvature="0"
   id="path202"
   d="m 467.7225,160.005 0,-15" /></svg>