<?xml version="1.0" standalone="no"?>
<!DOCTYPE svg PUBLIC "-//W3C//DTD SVG 1.1//EN"
	"http://www.w3.org/Graphics/SVG/1.1/DTD/svg11.dtd">
<svg xmlns="http://www.w3.org/2000/svg"
     xmlns:xlink="http://www.w3.org/1999/xlink"
     xml:space='preserve'
	width="513" height="254">
<title>abc/kara2.abc (1)</title>
<g transform="scale(0.750)" font-family="Kalpurush" font-size="20.00">
<text x="342.23" y="25.67" text-anchor="middle">কারার ওই লৌহ কপাট</text>
</g>
<g transform="scale(0.750)" font-family="Kalpurush" font-size="14.00" font-style="italic">
<text x="671.03" y="45.34" text-anchor="end">নজরুল</text>
<path stroke="currentColor" fill="none"
	d="M13.33 98.01h657.70m-657.70 -6h657.70m-657.70 -6h657.70m-657.70 -6h657.70m-657.70 -6h657.70"/>
</g>
<g transform="scale(0.750)" font-family="Kalpurush" font-size="13.00" font-weight="bold">
<text x="148.03" y="117.81">লা</text>
<text x="222.13" y="117.81">থি</text>
<text x="295.33" y="117.81">মার্</text>
<text x="400.13" y="117.81">ভাঙ্</text>
<text x="494.33" y="117.81">রে</text>
<text x="596.63" y="117.81">তা</text>
<defs>
<path id="utclef" fill="currentColor" d="m-50 -90
	c-72 -41 -72 -158 52 -188
	c150 -10 220 188 90 256
	c-114 52 -275 0 -293 -136
	c-15 -181 93 -229 220 -334
	c88 -87 79 -133 62 -210
	c-51 33 -94 105 -89 186
	c17 267 36 374 49 574
	c6 96 -19 134 -77 135
	c-80 1 -126 -93 -61 -133
	c85 -41 133 101 31 105
	c23 17 92 37 90 -92
	c-10 -223 -39 -342 -50 -617
	c0 -90 0 -162 96 -232
	c56 72 63 230 22 289
	c-74 106 -257 168 -255 316
	c9 153 148 185 252 133
	c86 -65 29 -192 -80 -176
	c-71 12 -105 67 -59 124"/>
<use id="tclef" transform="scale(0.045)"
	xlink:href="#utclef"/>
</defs>
<use x="25.33" y="98.01" xlink:href="#tclef"/>
<g font-family="Kalpurush" font-size="15" font-weight="bold" font-style="normal"
	transform="translate(43.83,98.01) scale(1.2,1)">
	<text y="-1" text-anchor="middle">4</text>
	<text y="-13" text-anchor="middle">3</text>
</g>
<defs>
<rect id="r2" fill="currentColor"
	x="-3.5" y="-3" width="7" height="3"/>
</defs>
<use x="62.33" y="86.01" xlink:href="#r2"/>
<defs>
<ellipse id="hd" rx="4.2" ry="3.2"
	transform="rotate(-20)" fill="currentColor"/>
</defs>
<use x="167.13" y="77.01" xlink:href="#hd"/>
<path d="M163.63 77.01v20.00" stroke="currentColor" fill="none"/>
<use x="241.23" y="77.01" xlink:href="#hd"/>
<path d="M237.73 77.01v20.00" stroke="currentColor" fill="none"/>
<defs>
<path id="Hd" fill="currentColor" d="m3 -1.6
	c-1 -1.8 -7 1.4 -6 3.2
	c1 1.8 7 -1.4 6 -3.2
	m0.5 -0.3
	c2 3.8 -5 7.6 -7 3.8
	c-2 -3.8 5 -7.6 7 -3.8"/>
</defs>
<use x="315.33" y="77.01" xlink:href="#Hd"/>
<path d="M311.83 77.01v20.00" stroke="currentColor" fill="none"/>
<use x="420.13" y="80.01" xlink:href="#hd"/>
<path d="M416.63 80.01v20.00" stroke="currentColor" fill="none"/>
<use x="510.93" y="80.01" xlink:href="#Hd"/>
<path d="M507.43 80.01v20.00" stroke="currentColor" fill="none"/>
<use x="615.83" y="80.01" xlink:href="#hd"/>
<path d="M612.33 80.01v20.00" stroke="currentColor" fill="none"/>
<path stroke="currentColor" fill="none"
	d="M13.33 170.01h657.70m-657.70 -6h657.70m-657.70 -6h657.70m-657.70 -6h657.70m-657.70 -6h657.70"/>
<text x="37.33" y="189.81">লা</text>
<text x="203.63" y="189.81">য</text>
<text x="259.93" y="189.81">ত</text>
<text x="308.33" y="189.81">সব</text>
<text x="387.43" y="189.81">বন্</text>
<text x="449.53" y="189.81">‌‌দি</text>
<text x="529.53" y="189.81">শা</text>
<text x="585.63" y="189.81">লায়</text>
<use x="25.33" y="170.01" xlink:href="#tclef"/>
<use x="56.43" y="152.01" xlink:href="#Hd"/>
<path d="M52.93 152.01v20.00" stroke="currentColor" fill="none"/>
<use x="135.63" y="158.01" xlink:href="#r2"/>
<use x="214.53" y="155.01" xlink:href="#hd"/>
<path d="M211.03 155.01v20.00" stroke="currentColor" fill="none"/>
<use x="270.83" y="155.01" xlink:href="#hd"/>
<path d="M267.33 155.01v20.00" stroke="currentColor" fill="none"/>
<use x="327.43" y="155.01" xlink:href="#Hd"/>
<path d="M323.93 155.01v20.00" stroke="currentColor" fill="none"/>
<use x="407.43" y="161.01" xlink:href="#hd"/>
<path d="M410.93 161.01v-20.00" stroke="currentColor" fill="none"/>
<use x="468.73" y="161.01" xlink:href="#Hd"/>
<path d="M472.23 161.01v-20.00" stroke="currentColor" fill="none"/>
<use x="548.63" y="161.01" xlink:href="#hd"/>
<path d="M552.13 161.01v-20.00" stroke="currentColor" fill="none"/>
<use x="605.63" y="161.01" xlink:href="#Hd"/>
<path d="M609.13 161.01v-20.00" stroke="currentColor" fill="none"/>
<path stroke="currentColor" fill="none"
	d="M13.33 242.01h657.70m-657.70 -6h657.70m-657.70 -6h657.70m-657.70 -6h657.70m-657.70 -6h657.70"/>
<text x="39.43" y="261.81">আ</text>
<text x="126.73" y="261.81">গুন</text>
<text x="194.83" y="261.81">জ্বা</text>
<text x="279.23" y="261.81">লা</text>
<text x="383.73" y="261.81">আ</text>
<text x="442.83" y="261.81">গুন</text>
<text x="539.13" y="261.81">জ্বা</text>
<use x="25.33" y="242.01" xlink:href="#tclef"/>
<use x="50.33" y="236.01" xlink:href="#Hd"/>
<path d="M53.83 236.01v-20.00" stroke="currentColor" fill="none"/>
<use x="146.73" y="236.01" xlink:href="#hd"/>
<path d="M150.23 236.01v-20.00" stroke="currentColor" fill="none"/>
<use x="214.83" y="236.01" xlink:href="#hd"/>
<path d="M218.33 236.01v-20.00" stroke="currentColor" fill="none"/>
<use x="298.33" y="236.01" xlink:href="#Hd"/>
<path d="M301.83 236.01v-20.00" stroke="currentColor" fill="none"/>
<use x="394.63" y="239.01" xlink:href="#hd"/>
<path d="M398.13 239.01v-20.00" stroke="currentColor" fill="none"/>
<use x="462.83" y="239.01" xlink:href="#Hd"/>
<path d="M466.33 239.01v-20.00" stroke="currentColor" fill="none"/>
<use x="559.13" y="245.01" xlink:href="#hd"/>
<path d="M562.63 245.01v-20.00" stroke="currentColor" fill="none"/>
<path stroke="currentColor" fill="none"
	d="M13.33 314.01h657.70m-657.70 -6h657.70m-657.70 -6h657.70m-657.70 -6h657.70m-657.70 -6h657.70"/>
<text x="37.33" y="333.81">লা</text>
<text x="175.73" y="333.81">ফেল্</text>
<text x="283.23" y="333.81">উ</text>
<text x="414.23" y="333.81">পা</text>
<text x="515.13" y="333.81">ড়ি</text>
<use x="25.33" y="314.01" xlink:href="#tclef"/>
<defs>
<path id="hl" stroke="currentColor" d="m-6 0h12"/>
</defs>
<use x="56.43" y="320.01" xlink:href="#hl"/>
<use x="56.43" y="320.01" xlink:href="#Hd"/>
<path d="M59.93 320.01v-20.00" stroke="currentColor" fill="none"/>
<use x="195.73" y="317.01" xlink:href="#hd"/>
<path d="M199.23 317.01v-20.00" stroke="currentColor" fill="none"/>
<use x="294.13" y="317.01" xlink:href="#Hd"/>
<path d="M297.63 317.01v-20.00" stroke="currentColor" fill="none"/>
<use x="433.33" y="311.01" xlink:href="#hd"/>
<path d="M436.83 311.01v-20.00" stroke="currentColor" fill="none"/>
<use x="531.83" y="311.01" xlink:href="#Hd"/>
<path d="M535.33 311.01v-20.00" stroke="currentColor" fill="none"/>
</g>
</svg>
