<?xml version="1.0" standalone="no"?>
<!DOCTYPE svg PUBLIC "-//W3C//DTD SVG 1.1//EN"
	"http://www.w3.org/Graphics/SVG/1.1/DTD/svg11.dtd">
<svg xmlns="http://www.w3.org/2000/svg"
     xmlns:xlink="http://www.w3.org/1999/xlink"
     xml:space='preserve'
	width="513" height="95">
<title>abc/mukti1.abc (1)</title>
<g transform="scale(0.750)" font-family="Kalpurush" font-size="20.00">
<text x="342.23" y="25.67" text-anchor="middle">মুক্তির মন্দির সোপানতলে</text>
</g>
<g transform="scale(0.750)" font-family="Kalpurush" font-size="14.00" font-style="italic">
<text x="671.03" y="45.34" text-anchor="end">মোহিনী চৌধুরী</text>
<path stroke="currentColor" fill="none"
	d="M13.33 98.01h657.70m-657.70 -6h657.70m-657.70 -6h657.70m-657.70 -6h657.70m-657.70 -6h657.70"/>
</g>
<g transform="scale(0.750)" font-family="Kalpurush" font-size="13.00" font-weight="bold">
<text x="57.33" y="120.81">মুক্</text>
<text x="137.33" y="120.81">‌‌তি</text>
<text x="195.53" y="120.81">র</text>
<text x="236.43" y="120.81">মন্</text>
<text x="302.03" y="120.81">‌‌দি</text>
<text x="360.23" y="120.81">র</text>
<text x="404.43" y="120.81">সো</text>
<text x="452.03" y="120.81">পা</text>
<text x="510.13" y="120.81">ন</text>
<text x="560.13" y="120.81">ত</text>
<text x="604.43" y="120.81">লে</text>
<defs>
<path id="utclef" fill="currentColor" d="m-50 -90
	c-72 -41 -72 -158 52 -188
	c150 -10 220 188 90 256
	c-114 52 -275 0 -293 -136
	c-15 -181 93 -229 220 -334
	c88 -87 79 -133 62 -210
	c-51 33 -94 105 -89 186
	c17 267 36 374 49 574
	c6 96 -19 134 -77 135
	c-80 1 -126 -93 -61 -133
	c85 -41 133 101 31 105
	c23 17 92 37 90 -92
	c-10 -223 -39 -342 -50 -617
	c0 -90 0 -162 96 -232
	c56 72 63 230 22 289
	c-74 106 -257 168 -255 316
	c9 153 148 185 252 133
	c86 -65 29 -192 -80 -176
	c-71 12 -105 67 -59 124"/>
<use id="tclef" transform="scale(0.045)"
	xlink:href="#utclef"/>
</defs>
<use x="25.33" y="98.01" xlink:href="#tclef"/>
<g font-family="Kalpurush" font-size="15" font-weight="bold" font-style="normal"
	transform="translate(43.83,98.01) scale(1.2,1)">
	<text y="-1" text-anchor="middle">4</text>
	<text y="-13" text-anchor="middle">4</text>
</g>
<defs>
<ellipse id="hd" rx="4.2" ry="3.2"
	transform="rotate(-20)" fill="currentColor"/>
</defs>
<use x="77.33" y="98.01" xlink:href="#hd"/>
<path d="M80.83 98.01v-20.00" stroke="currentColor" fill="none"/>
<use x="156.43" y="98.01" xlink:href="#hd"/>
<path d="M159.93 98.01v-20.00" stroke="currentColor" fill="none"/>
<use x="206.43" y="98.01" xlink:href="#hd"/>
<path d="M209.93 98.01v-20.00" stroke="currentColor" fill="none"/>
<use x="256.43" y="98.01" xlink:href="#hd"/>
<path d="M259.93 98.01v-20.00" stroke="currentColor" fill="none"/>
<use x="321.13" y="98.01" xlink:href="#hd"/>
<path d="M324.63 98.01v-20.00" stroke="currentColor" fill="none"/>
<use x="371.13" y="98.01" xlink:href="#hd"/>
<path d="M374.63 98.01v-20.00" stroke="currentColor" fill="none"/>
<use x="421.13" y="95.01" xlink:href="#hd"/>
<path d="M424.63 95.01v-20.00" stroke="currentColor" fill="none"/>
<use x="471.13" y="98.01" xlink:href="#hd"/>
<path d="M474.63 98.01v-20.00" stroke="currentColor" fill="none"/>
<use x="521.13" y="101.01" xlink:href="#hd"/>
<path d="M524.63 101.01v-20.00" stroke="currentColor" fill="none"/>
<defs>
<path id="hl" stroke="currentColor" d="m-6 0h12"/>
</defs>
<use x="571.03" y="104.01" xlink:href="#hl"/>
<use x="571.03" y="104.01" xlink:href="#hd"/>
<path d="M574.53 104.01v-20.00" stroke="currentColor" fill="none"/>
<use x="621.03" y="104.01" xlink:href="#hl"/>
<use x="621.03" y="107.01" xlink:href="#hd"/>
<path d="M624.53 107.01v-21.00" stroke="currentColor" fill="none"/>
</g>
</svg>
